<svg t="1748067934905" class="icon" viewBox="0 0 1212 1024" version="1.1" xmlns="http://www.w3.org/2000/svg" p-id="9137"
  width="256" height="256">
  <path d="M927.888893 830.91296h144.178285v193.085768h-144.178285V830.91296z" fill="#AFB5D2" p-id="9138"></path>
  <path
    d="M995.498684 858.546906V397.106025A67.149676 67.149676 0 0 0 928.024221 330.199939h-477.707288l-124.122698-138.034401H137.709614A67.149676 67.149676 0 0 0 70.370479 259.044558v605.727429A66.445971 66.445971 0 0 0 89.993016 912.109667a67.880446 67.880446 0 0 0 47.716598 19.595471h930.649581z"
    fill="#EBECF3" p-id="9139"></path>
  <path
    d="M588.621989 144.178285a67.663922 67.663922 0 0 0-67.366201 67.663922v652.009551a67.663922 67.663922 0 0 0 67.366201 67.663922h508.48084a67.501528 67.501528 0 0 0 67.366201-67.663922V397.457877l-254.226888-253.279592z"
    fill="#465DCD" p-id="9140"></path>
  <path
    d="M1169.23257 401.815434L906.696553 140.740957v192.652719A69.69384 69.69384 0 0 0 976.255065 403.276974zM930.35186 957.282101V489.291352a67.257938 67.257938 0 0 0-67.663922-66.743693H384.087486l-124.718141-138.0344H67.663922a67.257938 67.257938 0 0 0-67.663922 66.716627v606.052215a67.257938 67.257938 0 0 0 67.663922 66.716627h930.460122a68.394692 68.394692 0 0 1-47.933122-19.541341 66.229447 66.229447 0 0 1-19.839062-47.175286zM1079.916193 144.178285a11.556998 11.556998 0 0 0-8.119671 3.464393 12.125375 12.125375 0 0 0-3.410261 8.390326v70.370479a11.638195 11.638195 0 1 0 23.276389 0v-70.370479a12.071244 12.071244 0 0 0-3.410262-8.390326 11.556998 11.556998 0 0 0-8.336195-3.464393z m120.901896 120.414715h-68.881873a11.881785 11.881785 0 0 0 0 23.763569h68.963069a11.556998 11.556998 0 0 0 10.068392-5.954425 12.071244 12.071244 0 0 0 0-11.881784 11.611129 11.611129 0 0 0-10.068392-5.92736z m-26.172405-64.957365a12.125375 12.125375 0 0 0 0-16.943046 11.584063 11.584063 0 0 0-16.61826 0l-48.718023 50.017171a12.15244 12.15244 0 0 0 0 16.970112 11.584063 11.584063 0 0 0 16.618259 0z"
    fill="#AFB5D2" p-id="9141"></path>
  <path
    d="M364.843867 60.464481l36.186665 10.826227-36.186665 10.095457-10.284916 62.79212-9.71654-62.79212-34.427403-10.230785 34.427403-10.826227L354.558951 20.921685z m105.555718-29.312011l28.689503 8.390326-28.689503 7.903146-7.578359 49.286401-7.930212-49.286401-27.065569-7.903146 27.065569-8.390326L462.821226 0z"
    fill="#465DCD" p-id="9142"></path>
</svg>