<svg t="1750346809759" class="icon" viewBox="0 0 1159 1024" version="1.1" xmlns="http://www.w3.org/2000/svg" p-id="18748" width="256" height="256"><path d="M0 758.339623a579.622642 265.660377 0 1 0 1159.245283 0 579.622642 265.660377 0 1 0-1159.245283 0Z" fill="#E0EAFF" opacity=".3" p-id="18749"></path><path d="M173.886792 318.792453L579.622642 88.547019v887.151094l-405.73585-241.509434z" fill="#2A6DFC" opacity=".3" p-id="18750"></path><path d="M579.622642 88.547019v887.151094l396.413584-241.509434v-415.396226z" fill="#598EFF" opacity=".3" p-id="18751"></path><path d="M579.622642 549.830038v425.868075l396.413584-241.509434v-415.396226z" fill="#A1BFFF" opacity=".3" p-id="18752"></path><path d="M173.886792 318.792453v415.396226l405.73585 241.509434V549.830038z" fill="#8CB1FF" opacity=".3" p-id="18753"></path><path d="M173.886792 318.792453L9.119396 462.249057l398.992906 247.498868L579.622642 549.839698zM579.622642 549.830038l396.413584-231.037585 179.914868 140.510189-395.515169 235.954716z" fill="#E0E9FA" opacity=".3" p-id="18754"></path><path d="M976.036226 318.792453l179.914868-88.334491L758.668075 0.115925 579.622642 88.547019zM579.622642 88.547019L173.886792 318.792453l-151.213886-78.345661 398.258717-229.337358z" fill="#ADC7FF" opacity=".3" p-id="18755"></path></svg>