<svg height="1024" node-id="1" sillyvg="true" template-height="1024" template-width="1024" version="1.1" viewBox="0 0 1024 1024" width="1024" xmlns="http://www.w3.org/2000/svg" xmlns:xlink="http://www.w3.org/1999/xlink"><defs node-id="43"><linearGradient gradientUnits="objectBoundingBox" id="未命名的渐变_264" node-id="5" spreadMethod="pad" x1="468.03" x2="559.69" y1="427.85" y2="628.15"><stop offset="0.02" stop-color="#67a3ff"/><stop offset="0.55" stop-color="#c5dfff"/><stop offset="1" stop-color="#66a2ff"/></linearGradient><linearGradient gradientUnits="objectBoundingBox" id="未命名的渐变_264-2" node-id="9" spreadMethod="pad" x1="535.19" x2="554.5" y1="239.76" y2="426.13"><stop offset="0.02" stop-color="#67a3ff"/><stop offset="0.55" stop-color="#c5dfff"/><stop offset="1" stop-color="#66a2ff"/></linearGradient><linearGradient gradientUnits="objectBoundingBox" id="未命名的渐变_192" node-id="10" spreadMethod="pad" x1="771.96" x2="799.12" y1="61.44" y2="862.63"><stop offset="0.15" stop-color="#98bbf5"/><stop offset="0.96" stop-color="#8bb3f1"/></linearGradient><linearGradient gradientUnits="objectBoundingBox" id="未命名的渐变_257" node-id="13" spreadMethod="pad" x1="247.98" x2="590.67" y1="127.12" y2="642.1"><stop offset="0" stop-color="#ecf3ff"/><stop offset="0.54" stop-color="#c8e2ff"/></linearGradient><linearGradient gradientUnits="objectBoundingBox" id="未命名的渐变_190" node-id="16" spreadMethod="pad" x1="558.4" x2="875.82" y1="53.21" y2="284.07"><stop offset="0.15" stop-color="#c5dfff"/><stop offset="0.96" stop-color="#8bb3f1"/></linearGradient><linearGradient gradientUnits="objectBoundingBox" id="未命名的渐变_62" node-id="19" spreadMethod="pad" x1="97.1" x2="523.76" y1="577.42" y2="531.25"><stop offset="0.08" stop-color="#a1c6ff"/><stop offset="0.44" stop-color="#0049e5"/></linearGradient><linearGradient gradientUnits="objectBoundingBox" id="未命名的渐变_82" node-id="22" spreadMethod="pad" x1="-3790.85" x2="-3535.41" y1="224.16" y2="530.11"><stop offset="0" stop-color="#62a9ff"/><stop offset="0.94" stop-color="#0066ff"/></linearGradient><linearGradient gradientUnits="objectBoundingBox" id="未命名的渐变_158" node-id="25" spreadMethod="pad" x1="101.56" x2="169.63" y1="394.85" y2="394.85"><stop offset="0" stop-color="#63a0ff"/><stop offset="0.44" stop-color="#ffffff"/><stop offset="0.84" stop-color="#63a0ff"/></linearGradient><linearGradient gradientUnits="objectBoundingBox" id="未命名的渐变_160" node-id="29" spreadMethod="pad" x1="186.2" x2="333.82" y1="711.15" y2="700.85"><stop offset="0.23" stop-color="#63a0ff"/><stop offset="0.48" stop-color="#ffffff"/><stop offset="0.67" stop-color="#63a0ff"/></linearGradient></defs><path d="M 683.60 613.90 L 479.40 556.80 L 473.20 554.10 L 469.80 552.00 L 466.50 549.30 L 463.50 546.30 L 460.70 542.90 L 455.80 535.10 L 453.80 530.70 L 451.60 524.20 L 449.80 515.80 L 449.20 507.70 L 449.30 503.00 L 449.90 497.40 L 451.60 489.80 L 453.30 485.30 L 456.60 479.10 L 459.60 475.20 L 464.40 470.80 L 468.50 468.50 L 474.20 466.80 L 398.90 478.50 L 395.40 479.70 L 391.30 482.10 L 388.50 484.40 L 385.90 487.10 L 381.90 493.00 L 379.10 499.30 L 377.90 503.30 L 376.80 508.70 L 376.20 514.20 L 376.10 518.90 L 376.70 527.00 L 377.70 532.70 L 379.00 537.30 L 382.70 546.30 L 385.00 550.40 L 387.60 554.20 L 390.40 557.60 L 393.40 560.60 L 396.70 563.20 L 400.00 565.40 L 406.30 568.00 L 610.40 625.10 L 613.60 625.80 L 616.70 626.00 L 619.90 625.70 L 693.10 614.60 L 689.90 614.80 L 686.80 614.60 L 683.60 613.90 Z" fill="url(#未命名的渐变_264)" fill-rule="nonzero" node-id="108" stroke="none" target-height="159.20001" target-width="316.99997" target-x="376.1" target-y="466.8"/><path d="M 696.30 401.80 L 492.10 344.70 L 488.10 343.20 L 484.20 341.10 L 480.40 338.40 L 476.90 335.10 L 473.70 331.40 L 470.70 327.10 L 468.20 322.50 L 466.00 317.50 L 463.70 310.30 L 462.10 300.40 L 461.90 293.60 L 462.50 285.90 L 463.10 282.30 L 464.50 277.30 L 466.20 272.80 L 468.30 268.80 L 470.80 265.00 L 473.50 261.90 L 476.50 259.30 L 479.80 257.20 L 483.30 255.70 L 486.90 254.80 L 413.70 266.00 L 410.10 266.90 L 406.60 268.40 L 403.30 270.50 L 400.30 273.10 L 397.60 276.20 L 395.10 280.00 L 393.00 284.00 L 391.30 288.50 L 389.70 294.70 L 388.70 304.80 L 388.90 311.60 L 389.70 317.60 L 391.00 323.30 L 392.80 328.70 L 395.00 333.70 L 397.60 338.30 L 400.50 342.60 L 403.80 346.30 L 407.20 349.50 L 411.00 352.30 L 414.90 354.40 L 418.90 355.90 L 623.10 413.00 L 626.20 413.70 L 629.40 413.90 L 632.60 413.60 L 705.80 402.50 L 702.60 402.70 L 699.40 402.50 L 696.30 401.80 Z" fill="url(#未命名的渐变_264-2)" fill-rule="nonzero" node-id="110" stroke="none" target-height="159.09999" target-width="317.09998" target-x="388.7" target-y="254.8"/><path d="M 788.30 222.30 L 743.30 976.60 L 742.20 985.90 L 735.10 995.30 L 730.10 1002.30 L 726.10 1008.80 L 721.80 1017.40 L 721.00 1019.90 L 720.10 1024.10 L 785.40 1010.80 L 790.90 1008.40 L 794.50 1006.20 L 798.10 1003.50 L 802.20 999.70 L 807.30 993.40 L 809.80 989.40 L 811.90 985.20 L 813.70 980.30 L 815.40 974.80 L 816.70 962.60 L 861.50 211.10 Z" fill="url(#未命名的渐变_192)" fill-rule="nonzero" node-id="112" stroke="none" target-height="813" target-width="141.40002" target-x="720.1" target-y="211.1"/><path d="M 784.00 180.50 L 780.20 169.20 L 776.00 159.70 L 772.90 154.00 L 769.40 148.60 L 765.60 143.40 L 761.30 138.50 L 756.90 134.30 L 752.30 130.60 L 744.90 126.10 L 737.10 123.20 L 341.80 12.50 L 337.60 11.60 L 333.50 11.10 L 329.50 11.10 L 325.40 11.60 L 321.20 12.50 L 316.90 13.90 L 310.70 17.20 L 307.60 19.30 L 301.70 24.70 L 298.50 28.10 L 293.80 34.70 L 290.50 40.60 L 288.60 44.60 L 285.70 52.30 L 283.70 59.00 L 282.20 65.90 L 281.20 72.80 L 280.60 79.90 L 235.80 831.40 L 235.10 851.50 L 235.90 861.30 L 236.90 866.70 L 238.40 872.30 L 241.60 879.30 L 243.70 882.70 L 246.10 885.70 L 249.10 888.50 L 252.50 891.00 L 258.30 893.80 L 265.70 895.70 L 273.80 896.10 L 284.20 895.10 L 492.00 863.10 L 711.90 1021.20 L 714.60 1022.60 L 717.40 1023.30 L 720.30 1023.40 L 722.50 1023.00 L 724.70 1022.30 L 727.00 1021.00 L 729.30 1019.20 L 731.30 1017.20 L 735.20 1011.30 L 737.10 1007.10 L 740.00 998.30 L 742.20 985.70 L 743.60 973.50 L 788.40 222.00 L 788.60 215.00 L 787.90 201.10 L 785.70 187.30 L 784.00 180.50 Z M 638.80 611.40 L 636.00 615.50 L 633.30 618.50 L 630.60 620.90 L 627.30 623.00 L 624.20 624.40 L 620.60 625.40 L 617.20 625.70 L 613.80 625.60 L 610.50 624.90 L 406.30 567.70 L 403.50 566.70 L 400.00 565.10 L 396.70 562.90 L 393.40 560.30 L 390.40 557.30 L 387.60 553.90 L 382.70 546.00 L 380.70 541.70 L 378.40 535.10 L 377.20 530.10 L 376.30 523.30 L 376.20 513.90 L 376.80 508.40 L 377.90 502.90 L 379.10 498.90 L 381.90 492.60 L 384.70 488.30 L 387.80 484.70 L 391.30 481.70 L 394.30 479.90 L 396.70 478.80 L 400.10 477.80 L 403.50 477.40 L 407.10 477.60 L 410.70 478.30 L 614.80 535.40 L 618.20 536.60 L 621.40 538.20 L 624.40 540.10 L 627.60 542.70 L 633.10 548.60 L 637.60 555.30 L 639.40 559.00 L 641.60 564.30 L 643.20 569.90 L 644.80 579.80 L 645.10 586.10 L 644.80 592.00 L 644.00 597.30 L 642.60 602.60 L 640.90 607.30 L 638.80 611.40 Z M 657.40 379.90 L 656.60 385.40 L 655.20 390.70 L 653.50 395.20 L 650.90 400.30 L 646.70 405.80 L 644.20 408.10 L 641.50 410.10 L 638.80 411.60 L 635.90 412.70 L 632.80 413.40 L 629.70 413.70 L 626.50 413.50 L 623.10 412.80 L 419.00 355.70 L 415.00 354.20 L 411.10 352.10 L 407.30 349.30 L 403.90 346.10 L 400.60 342.40 L 397.70 338.10 L 395.10 333.50 L 392.90 328.50 L 391.10 323.10 L 389.80 317.30 L 388.80 307.20 L 389.00 300.70 L 390.00 293.30 L 391.30 288.50 L 392.90 284.10 L 394.90 280.30 L 397.20 276.60 L 399.80 273.50 L 402.60 270.90 L 405.70 268.80 L 408.90 267.10 L 412.30 266.10 L 415.90 265.60 L 419.60 265.70 L 423.40 266.40 L 627.50 323.50 L 633.00 325.70 L 636.10 327.50 L 639.80 330.30 L 643.10 333.40 L 646.00 336.90 L 650.50 343.80 L 654.30 352.40 L 656.20 358.70 L 657.10 363.30 L 657.60 367.90 L 657.80 373.90 L 657.40 379.90 Z" fill="url(#未命名的渐变_257)" fill-rule="nonzero" node-id="114" stroke="none" target-height="1012.30005" target-width="553.5" target-x="235.1" target-y="11.1"/><path d="M 857.10 169.50 L 853.30 158.20 L 849.10 148.70 L 845.90 143.10 L 842.50 137.60 L 838.60 132.40 L 834.40 127.60 L 830.10 123.40 L 825.50 119.80 L 818.20 115.40 L 810.60 112.40 L 410.90 0.70 L 407.00 0.30 L 403.00 0.20 L 398.90 0.60 L 325.80 11.70 L 329.80 11.30 L 333.80 11.40 L 337.80 11.80 L 341.80 12.70 L 737.10 123.40 L 744.80 126.40 L 752.30 130.90 L 756.80 134.50 L 761.20 138.70 L 765.50 143.60 L 769.30 148.80 L 772.80 154.20 L 775.90 159.90 L 778.60 165.80 L 781.50 173.10 L 783.90 180.70 L 786.90 194.40 L 788.40 208.30 L 788.30 222.30 L 861.50 211.10 L 861.70 204.10 L 861.00 190.10 L 858.80 176.30 L 857.10 169.50 Z" fill="url(#未命名的渐变_190)" fill-rule="nonzero" node-id="116" stroke="none" target-height="222.1" target-width="535.9" target-x="325.8" target-y="0.2"/><path d="M 410.30 381.00 L 387.70 526.60 L 387.00 534.80 L 386.30 538.40 L 384.10 544.60 L 381.30 548.90 L 379.40 550.70 L 377.30 552.20 L 374.70 553.30 L 372.00 553.80 L 368.70 553.80 L 364.80 553.10 L 361.00 551.90 L 356.40 549.80 L 350.80 546.50 L 273.90 485.40 L 261.50 491.50 L 255.80 494.80 L 249.20 499.00 L 242.50 503.70 L 235.60 509.20 L 227.10 517.50 L 223.10 522.20 L 219.50 527.10 L 216.30 532.30 L 213.60 537.70 L 212.00 542.00 L 210.70 546.40 L 209.90 551.00 L 209.40 555.80 L 209.40 560.50 L 209.90 565.50 L 211.00 570.70 L 212.60 576.20 L 214.70 581.40 L 217.40 586.90 L 221.00 592.80 L 225.30 599.00 L 229.90 604.70 L 235.50 610.70 L 242.10 617.10 L 249.80 623.90 L 257.50 630.10 L 266.40 636.70 L 276.50 643.60 L 288.10 651.00 L 299.40 657.70 L 326.50 672.20 L 342.40 680.00 L 359.10 670.50 L 368.60 665.50 L 373.20 663.50 L 377.00 662.30 L 379.60 661.80 L 381.60 661.80 L 383.20 662.20 L 385.30 663.70 L 387.30 665.60 L 389.00 668.00 L 390.40 670.70 L 392.40 676.90 L 393.30 683.60 L 393.30 687.00 L 392.40 693.60 L 390.30 699.30 L 388.80 701.60 L 385.50 704.70 L 381.80 706.10 L 373.30 706.50 L 366.40 707.40 L 358.80 708.80 L 351.50 710.90 L 343.50 713.70 L 334.90 717.30 L 326.60 721.50 L 317.60 726.60 L 307.90 732.80 L 298.50 739.40 L 288.50 747.20 L 274.10 759.00 L 270.40 761.20 L 266.40 762.90 L 262.30 764.00 L 258.20 764.60 L 254.10 764.40 L 251.00 763.90 L 248.00 763.00 L 245.10 761.70 L 242.20 760.00 L 226.60 748.60 L 212.60 737.70 L 200.20 727.40 L 189.20 717.60 L 180.30 709.10 L 172.30 700.90 L 158.80 685.50 L 147.60 670.50 L 142.70 662.90 L 138.50 655.70 L 135.00 648.80 L 132.00 642.20 L 129.20 635.10 L 127.00 628.20 L 125.30 621.70 L 124.10 615.30 L 123.30 609.20 L 122.90 601.30 L 123.00 593.80 L 123.70 586.50 L 125.00 579.50 L 126.80 572.50 L 129.00 565.80 L 131.70 559.40 L 134.80 553.10 L 138.20 547.00 L 146.10 535.50 L 150.40 530.00 L 156.60 523.10 L 163.10 516.50 L 169.80 510.40 L 176.80 504.50 L 190.60 494.20 L 201.10 487.20 L 210.70 481.50 L 220.00 476.30 L 227.80 472.30 L 244.10 465.00 L 148.70 436.60 L 144.90 435.40 L 141.50 433.80 L 138.50 432.00 L 135.90 430.00 L 132.70 426.80 L 130.10 423.40 L 128.00 419.70 L 126.40 415.80 L 125.30 411.80 L 124.70 407.70 L 124.60 403.70 L 124.90 399.80 L 125.70 396.10 L 127.00 392.50 L 128.60 389.40 L 130.60 386.80 L 134.30 383.60 L 138.90 381.70 L 407.80 339.20 L 410.40 340.40 L 412.30 341.80 L 413.80 343.30 L 414.90 345.00 L 415.90 347.60 L 416.40 350.60 L 416.30 354.20 L 415.60 359.60 L 410.30 381.00 Z" fill="url(#未命名的渐变_62)" fill-rule="nonzero" node-id="118" stroke="none" target-height="425.39996" target-width="293.5" target-x="122.9" target-y="339.2"/><path d="M 416.60 355.60 L 387.70 526.60 L 386.70 529.10 L 385.20 531.20 L 383.20 532.90 L 380.90 534.30 L 379.00 534.80 L 375.20 534.80 L 371.30 533.50 L 366.10 530.00 L 279.70 457.60 L 267.60 462.70 L 255.40 469.00 L 248.70 473.00 L 237.30 481.30 L 228.70 489.00 L 224.80 493.30 L 221.30 497.90 L 218.20 502.70 L 214.60 510.40 L 212.30 518.70 L 211.70 523.00 L 211.60 527.40 L 212.00 532.10 L 212.90 537.00 L 214.20 541.70 L 216.10 546.70 L 218.70 552.00 L 222.00 557.60 L 225.60 562.80 L 230.00 568.30 L 235.30 574.20 L 241.60 580.50 L 248.00 586.20 L 255.40 592.30 L 263.90 598.80 L 273.80 605.60 L 294.30 618.50 L 320.40 632.90 L 338.70 642.10 L 359.60 651.90 L 383.50 662.30 L 384.70 663.10 L 385.60 664.10 L 386.10 665.40 L 386.20 666.80 L 385.80 668.20 L 385.00 669.30 L 383.90 670.10 L 361.50 674.90 L 346.50 679.20 L 330.80 685.10 L 315.30 692.40 L 307.70 696.60 L 300.40 701.30 L 293.20 706.40 L 286.40 711.90 L 279.90 718.00 L 271.50 726.80 L 269.00 728.60 L 266.20 730.00 L 263.20 730.90 L 260.20 731.30 L 257.10 731.30 L 254.10 730.70 L 251.20 729.70 L 248.30 728.10 L 232.10 716.50 L 217.60 705.60 L 204.70 695.10 L 193.20 685.20 L 183.90 676.60 L 175.60 668.40 L 161.40 653.00 L 149.70 637.90 L 144.50 630.40 L 140.10 623.20 L 136.30 616.40 L 133.10 609.80 L 130.10 602.70 L 127.70 595.90 L 125.80 589.40 L 124.40 583.20 L 123.50 577.20 L 122.80 569.40 L 122.80 562.00 L 123.30 554.90 L 124.50 548.00 L 126.20 541.20 L 128.30 534.70 L 130.80 528.30 L 133.90 522.20 L 137.30 516.30 L 145.00 505.20 L 149.40 499.90 L 155.50 493.20 L 162.00 486.90 L 168.70 481.00 L 175.70 475.40 L 189.60 465.50 L 200.10 458.90 L 209.80 453.50 L 219.20 448.60 L 234.20 441.70 L 243.50 438.00 L 136.60 406.20 L 134.50 405.10 L 132.70 403.60 L 130.20 399.90 L 129.00 395.60 L 129.40 391.20 L 131.10 387.10 L 132.50 385.30 L 134.30 383.80 L 136.40 382.60 L 139.00 381.70 L 403.50 338.70 L 405.80 338.80 L 410.10 340.10 L 412.00 341.30 L 413.80 342.80 L 415.20 344.70 L 416.20 346.70 L 416.90 348.80 L 417.10 353.30 L 416.60 355.60 Z" fill="url(#未命名的渐变_82)" fill-rule="nonzero" node-id="120" stroke="none" target-height="392.59998" target-width="294.3" target-x="122.8" target-y="338.7"/><path d="M 174.60 417.50 L 139.20 406.90 L 136.60 406.10 L 134.50 405.00 L 132.70 403.50 L 131.30 401.80 L 129.50 397.80 L 129.10 393.40 L 130.10 389.00 L 132.60 385.30 L 134.30 383.70 L 136.40 382.50 L 139.00 381.70 L 196.40 372.30 L 176.70 375.80 L 156.30 380.70 L 150.20 382.60 L 144.50 384.80 L 140.30 386.90 L 137.90 388.70 L 136.50 390.20 L 135.90 391.70 L 135.90 394.00 L 136.40 396.10 L 137.50 398.10 L 139.00 399.90 L 143.50 403.60 L 152.60 408.50 L 174.60 417.50 Z" fill="url(#未命名的渐变_158)" fill-rule="nonzero" node-id="122" stroke="none" target-height="45.200012" target-width="67.29999" target-x="129.1" target-y="372.3"/><path d="M 193.10 685.10 L 240.90 723.90 L 247.80 728.40 L 253.00 730.60 L 258.40 731.60 L 261.20 731.40 L 264.10 730.80 L 266.90 729.70 L 269.80 728.00 L 272.90 725.50 L 278.10 720.00 L 288.90 709.90 L 277.90 716.80 L 269.80 720.60 L 265.70 721.90 L 260.30 722.60 L 257.90 722.50 L 253.70 721.50 L 248.40 719.50 L 243.00 717.10 L 231.00 710.60 L 213.20 699.40 L 193.10 685.10 Z" fill="url(#未命名的渐变_160)" fill-rule="nonzero" node-id="124" stroke="none" target-height="46.5" target-width="95.79999" target-x="193.1" target-y="685.1"/></svg>