<svg t="1750377470800" class="icon" viewBox="0 0 1024 1024" version="1.1" xmlns="http://www.w3.org/2000/svg" p-id="20770" width="256" height="256"><path d="M512 938.666667c235.648 0 426.666667-191.018667 426.666667-426.666667S747.648 85.333333 512 85.333333 85.333333 276.352 85.333333 512s191.018667 426.666667 426.666667 426.666667z m290.730667-597.077334c3.968-0.896 6.144 0.853333 7.168 2.688 1.664 2.986667 0.085333 7.168 0.085333 7.168-42.154667 120.192-158.293333 202.069333-297.941333 201.514667h-0.085334a339.882667 339.882667 0 0 1-81.365333-9.429333l35.541333 119.722666s1.962667 16.341333 20.949334 16.341334h57.002666s24.874667 1.92 30.464-19.328c5.333333-20.181333 25.6-67.413333 25.6-67.413334s6.314667-19.2 25.088-32.512c18.773333-13.312 28.032-13.013333 29.226667-12.288 0.981333 0.64 0.64 2.176 0.64 2.176l-19.498667 113.536c-2.176 37.077333-28.8 61.568-64.341333 61.568h-106.325333c-35.498667 0-62.848-22.4-64.298667-61.568l-21.376-137.301333c-77.568-33.28-137.472-95.829333-165.248-175.018667 0 0-1.578667-4.224 0.085333-7.168 1.024-1.877333 3.2-3.584 7.168-2.688 1.152 0.256 4.181333 3.754667 9.173334 9.472 18.773333 21.632 65.066667 75.093333 142.848 106.965334l-7.978667-56.746667s-0.170667-1.28 0.810667-2.432c1.066667-1.28 6.272-2.688 15.189333 1.792a32.213333 32.213333 0 0 1 15.957333 19.328l15.701334 51.498667a351.146667 351.146667 0 0 0 98.986666 11.733333h0.085334c164.010667 3.370667 253.525333-99.84 281.514666-132.138667 4.992-5.717333 8.021333-9.216 9.173334-9.472z" fill="#56C2FF" p-id="20771"></path></svg>