<svg t="1750342653358" class="icon" viewBox="0 0 1024 1024" version="1.1" xmlns="http://www.w3.org/2000/svg" p-id="19720" width="256" height="256"><path d="M162 778.3V546.7h296.4L207.9 797.2c-16.9 17-45.9 4.9-45.9-18.9z" fill="#31BC69" p-id="19721"></path><path d="M791.3 712.1H232.7c-38.8 0-70.7-31.8-70.7-70.7V204.5c0-38.8 31.8-70.7 70.7-70.7h558.6c38.8 0 70.7 31.8 70.7 70.7v436.9c0 38.9-31.8 70.7-70.7 70.7z" fill="#31BC69" p-id="19722"></path><path d="M717.2 377.7H311.6c-22 0-40-18-40-40s18-40 40-40h405.6c22 0 40 18 40 40s-18 40-40 40zM507.2 544.2H311.6c-22 0-40-18-40-40s18-40 40-40h195.6c22 0 40 18 40 40s-18 40-40 40z" fill="#FFFFFF" p-id="19723"></path></svg>