<svg t="1750377515100" class="icon" viewBox="0 0 1024 1024" version="1.1" xmlns="http://www.w3.org/2000/svg" p-id="23680" width="256" height="256"><path d="M908.8 243.2l-147.2-147.2v262.4c0 76.8-57.6 134.4-134.4 134.4H358.4c-76.8 0-134.4-57.6-134.4-134.4V64h-51.2C115.2 64 64 115.2 64 172.8v678.4c0 64 51.2 108.8 108.8 108.8h633.6c64 0 108.8-51.2 108.8-108.8V268.8c0-6.4 0-19.2-6.4-25.6z" fill="#5188E3" p-id="23681"></path><path d="M320 64v294.4c0 19.2 12.8 38.4 38.4 38.4h268.8c19.2 0 38.4-12.8 38.4-38.4V64H320z" fill="#5188E3" fill-opacity=".6" p-id="23682"></path></svg>