<svg t="1750342439985" class="icon" viewBox="0 0 1024 1024" version="1.1" xmlns="http://www.w3.org/2000/svg" p-id="13044" width="256" height="256"><path d="M890.279253 748.544a147.285333 147.285333 0 0 1-108.885333 42.496H431.356587c108.885333-104.106667 194.048-193.706667 203.434666-198.656a468.650667 468.650667 0 0 1 47.274667-42.496A122.88 122.88 0 0 1 785.48992 502.613333a139.605333 139.605333 0 0 1 104.106667 42.496 143.018667 143.018667 0 0 1 0.682666 203.434667z m70.826667-269.653333a245.76 245.76 0 0 0-165.546667-75.605334 265.386667 265.386667 0 0 0-151.381333 51.2 377.514667 377.514667 0 0 0-61.44 61.610667c-23.552 14.165333-373.589333 368.810667-373.589333 368.810667h515.584a393.728 393.728 0 0 0 80.384-4.608A274.432 274.432 0 0 0 956.156587 814.762667a247.808 247.808 0 0 0 4.949333-335.872z" fill="#00A3FF" p-id="13045"></path><path d="M379.47392 455.168a236.885333 236.885333 0 0 0-146.773333-47.274667 211.285333 211.285333 0 0 0-165.376 75.776 244.053333 244.053333 0 0 0 4.608 341.333334 176.298667 176.298667 0 0 0 127.658666 56.832l94.72-89.941334h-51.2a194.730667 194.730667 0 0 1-108.885333-42.496 148.821333 148.821333 0 0 1 0-208.213333 132.437333 132.437333 0 0 1 104.106667-42.496c28.330667 0 56.832 4.778667 94.549333 42.496 14.336 18.944 56.832 47.274667 70.997333 66.218667h4.778667l56.661333-66.218667c-18.773333-23.552-66.218667-61.44-85.333333-85.333333" fill="#00C8DC" p-id="13046"></path><path d="M809.724587 346.453333A317.610667 317.610667 0 0 0 512.423253 138.410667 324.266667 324.266667 0 0 0 194.983253 407.893333c9.386667 0 23.552-4.608 37.717334-4.608s37.888 4.608 52.053333 4.608a221.866667 221.866667 0 0 1 217.6-174.933333 229.546667 229.546667 0 0 1 208.042667 132.437333s4.778667 4.778667 4.778666 0c33.109333-4.778667 66.218667-18.944 94.549334-18.944" fill="#006EFF" p-id="13047"></path></svg>