<svg height="80" viewBox="0 0 80 80" width="80" xmlns="http://www.w3.org/2000/svg"><g fill="none" fill-rule="evenodd"><g transform="translate(5)"><path d="m45 0v21c0 2.209139 1.790861 4 4 4h21v47c0 4.418278-3.581722 8-8 8h-54c-4.418278 0-8-3.581722-8-8v-64c0-4.418278 3.581722-8 8-8z" fill="#4caf50"/><path d="m45 0 25 25h-21c-2.209139 0-4-1.790861-4-4z" fill="#81c784"/></g><path d="m39.2685547 43.8261719c0 .2643242-.0091145.4944651-.0273438.6904297-.0182292.1959645-.0432941.3782543-.0751953.546875-.0319012.1686206-.075195.3281242-.1298828.4785156s-.1184892.3121736-.1914062.4853516l-5.8242188 13.4941406c-.0546878.1184902-.1253251.2141923-.211914.2871094-.086589.072917-.207356.1298826-.3623047.1708984s-.3531889.0683593-.5947266.0820312c-.2415377.013672-.5400373.0205078-.8955078.0205078-.4830753 0-.865884-.0159503-1.1484375-.0478515s-.4899082-.0820309-.6220703-.1503906c-.1321621-.0683598-.2027995-.1549474-.2119141-.2597657-.0091146-.1048182.0227861-.2346997.0957031-.3896484l6.2617188-13.8085938h-7.4375c-.1914072 0-.3349605-.1253242-.4306641-.3759765s-.1435547-.6494113-.1435547-1.1962891c0-.2734388.0136718-.508137.0410157-.7041015.0273438-.1959646.0660804-.3577468.1162109-.4853516s.1093747-.2187497.1777344-.2734375.1481115-.0820312.2392578-.0820312h10.5136719c.1640633 0 .3007807.0159503.4101562.0478515.1093756.0319012.1959632.1025385.2597656.2119141.0638024.1093755.1116535.2643219.1435547.4648437.0319012.2005219.0478516.4648421.0478516.7929688zm13.9316406 14.7519531c0 .2643242-.0113931.4876293-.0341797.6699219-.0227865.1822926-.0569659.3304031-.102539.4443359-.0455732.1139329-.1025388.1936847-.1708985.2392578-.0683597.0455732-.1435543.0683594-.2255859.0683594h-10.4316406c-.3645852 0-.6448558-.1048167-.8408204-.3144531-.1959645-.2096365-.2939453-.514972-.2939453-.9160157v-.6015624c0-.1822926.0113932-.3486321.0341797-.4990235.0227866-.1503914.0615232-.3030591.116211-.4580078.0546877-.1549487.1344395-.3235668.2392578-.5058594.1048182-.1822926.2346997-.4010404.3896484-.65625l6.8632813-10.8828125h-6.8085938c-.1093755 0-.2027991-.0250648-.2802734-.0751953-.0774744-.0501304-.1412758-.1298823-.1914063-.2392578-.0501304-.1093755-.0865884-.2552074-.109375-.4375-.0227865-.1822926-.0341797-.4010404-.0341797-.65625 0-.2734389.0113932-.5035798.0341797-.6904297.0227866-.1868499.0592446-.337239.109375-.4511719.0501305-.1139328.1139319-.1936846.1914063-.2392578.0774743-.0455731.1708979-.0683593.2802734-.0683593h9.7753906c.3736998 0 .6494132.0957021.8271485.2871093.1777352.1914072.2666015.4602848.2666015.8066407v.6699218c0 .246095-.0113931.4580069-.0341797.6357422-.0227865.1777353-.0638017.3509106-.1230468.5195313-.0592451.1686206-.1389969.3417959-.2392578.5195312-.100261.1777353-.2278638.3896472-.3828125.6357422l-6.7539063 10.7324219h7.3964844c.1731779 0 .3053381.1093739.3964844.328125s.1367187.5970025.1367187 1.1347656z" fill="#fff" fill-rule="nonzero"/></g></svg>