<svg height="80" viewBox="0 0 80 80" width="80" xmlns="http://www.w3.org/2000/svg"><g fill="none" fill-rule="evenodd"><g transform="translate(5)"><path d="m45 0v21c0 2.209139 1.790861 4 4 4h21v47c0 4.418278-3.581722 8-8 8h-54c-4.418278 0-8-3.581722-8-8v-64c0-4.418278 3.581722-8 8-8z" fill="#ff7c02"/><path d="m45 0 25 25h-21c-2.209139 0-4-1.790861-4-4z" fill="#592d02"/></g><path d="m44.2041016 58.6601562c.1093755.3281267.1777342.5878897.2050781.7792969s-.0091141.3349605-.109375.4306641-.2779935.1549478-.5332031.1777344c-.2552096.0227865-.6061176.0341796-1.0527344.0341796-.4648461 0-.8271472-.0068358-1.0869141-.0205078-.2597669-.0136719-.4580071-.0410154-.5947265-.0820312-.1367195-.0410158-.2324216-.0979814-.2871094-.1708984-.0546878-.0729171-.1002602-.1686192-.1367188-.2871094l-1.1894531-3.5546875h-6.6445312l-1.1210938 3.4589843c-.0364585.1276049-.0843096.2347001-.1435547.3212891s-.1549472.1549477-.2871094.2050781c-.1321621.0501305-.3190092.0843098-.5605468.1025391-.2415377.0182293-.5582663.0273437-.9501953.0273437-.419273 0-.7473947-.0136717-.984375-.0410156-.2369804-.0273439-.4010412-.0934239-.4921875-.1982422-.0911463-.1048182-.123047-.2529287-.0957032-.4443359.0273439-.1914072.0957026-.446613.2050782-.765625l5.4550781-15.6953125c.0546878-.1549487.1184892-.280273.1914062-.3759766.0729171-.0957036.1891268-.1686195.3486328-.21875.1595061-.0501304.3805325-.0820311.663086-.0957031.2825535-.0136719.6562477-.0205078 1.1210937-.0205078.5377631 0 .9661443.0068359 1.2851563.0205078.319012.013672.5673819.0455727.7451172.0957031.1777352.0501305.3053381.1253251.3828125.225586.0774743.1002609.1435544.2369783.1982422.4101562zm-8.1210938-12.9746093h-.0136719l-2.5019531 7.5195312h5.0175781zm14.2050781 13.8222656c0 .0911463-.0296221.1731767-.0888671.2460937-.0592451.0729171-.1572259.1321613-.2939454.1777344-.1367194.0455732-.3190092.0820311-.546875.109375-.2278657.0273439-.5195294.0410156-.875.0410156-.3463559 0-.635741-.0136717-.868164-.0410156-.2324231-.0273439-.4169915-.0638018-.553711-.109375-.1367194-.0455731-.2347002-.1048173-.2939453-.1777344-.0592451-.072917-.0888672-.1549474-.0888672-.2460937v-16.7070313c0-.0911462.0296221-.1731767.0888672-.2460937s.1595045-.1321612.3007813-.1777344c.1412767-.0455731.3258452-.0820311.5537109-.109375s.5149722-.0410156.8613281-.0410156c.3554706 0 .6471343.0136717.875.0410156.2278658.0273439.4101556.0638019.546875.109375.1367195.0455732.2347003.1048174.2939454.1777344.059245.072917.0888671.1549475.0888671.2460937z" fill="#fff" fill-rule="nonzero"/></g></svg>