<svg height="80" viewBox="0 0 80 80" width="80" xmlns="http://www.w3.org/2000/svg"><g fill="none" fill-rule="evenodd"><g transform="translate(5)"><path d="m45 0v21c0 2.209139 1.790861 4 4 4h21v47c0 4.418278-3.581722 8-8 8h-54c-4.418278 0-8-3.581722-8-8v-64c0-4.418278 3.581722-8 8-8z" fill="#c0ca33"/><path d="m45 0 25 25h-21c-2.209139 0-4-1.790861-4-4z" fill="#dce775"/></g><path d="m32.8291016 58.6601562c.1093755.3281267.1777342.5878897.2050781.7792969s-.0091141.3349605-.109375.4306641-.2779935.1549478-.5332031.1777344c-.2552096.0227865-.6061176.0341796-1.0527344.0341796-.4648461 0-.8271472-.0068358-1.0869141-.0205078-.2597669-.0136719-.4580071-.0410154-.5947265-.0820312-.1367195-.0410158-.2324216-.0979814-.2871094-.1708984-.0546878-.0729171-.1002602-.1686192-.1367188-.2871094l-1.1894531-3.5546875h-6.6445312l-1.1210938 3.4589843c-.0364585.1276049-.0843096.2347001-.1435547.3212891s-.1549472.1549477-.2871094.2050781c-.1321621.0501305-.3190092.0843098-.5605468.1025391-.2415377.0182293-.5582663.0273437-.9501953.0273437-.419273 0-.7473947-.0136717-.984375-.0410156-.2369804-.0273439-.4010412-.0934239-.4921875-.1982422-.0911463-.1048182-.123047-.2529287-.0957032-.4443359.0273439-.1914072.0957026-.446613.2050782-.765625l5.4550781-15.6953125c.0546878-.1549487.1184892-.280273.1914062-.3759766.0729171-.0957036.1891268-.1686195.3486328-.21875.1595061-.0501304.3805325-.0820311.663086-.0957031.2825535-.0136719.6562477-.0205078 1.1210937-.0205078.5377631 0 .9661443.0068359 1.2851563.0205078.319012.013672.5673819.0455727.7451172.0957031.1777352.0501305.3053381.1253251.3828125.225586.0774743.1002609.1435544.2369783.1982422.4101562zm-8.1210938-12.9746093h-.0136719l-2.5019531 7.5195312h5.0175781zm22.7089844 1.9960937c0 .9934946-.1549464 1.8730431-.4648438 2.6386719-.3098973.7656288-.7610647 1.4104792-1.3535156 1.9345703-.5924509.5240912-1.3193316.9228502-2.180664 1.1962891-.8613325.2734388-1.8753197.4101562-3.0419922.4101562h-1.4765625v5.6464844c0 .0911463-.0296221.1731767-.0888672.2460937-.0592451.0729171-.1572259.1321613-.2939453.1777344-.1367195.0455732-.3190093.0820311-.546875.109375-.2278658.0273439-.5195295.0410156-.875.0410156-.3463559 0-.6357411-.0136717-.8681641-.0410156s-.4169915-.0638018-.5537109-.109375c-.1367195-.0455731-.2324216-.1048173-.2871094-.1777344-.0546878-.072917-.0820313-.1549474-.0820313-.2460937v-15.9140625c0-.4283876.1116526-.7496734.334961-.9638672s.5172508-.321289.8818359-.321289h4.1699219c.4192729 0 .818032.0159503 1.1962891.0478515.378257.0319012.831703.1002599 1.3603515.2050781.5286485.1048183 1.0641249.2985012 1.6064453.5810547s1.0048809.6402973 1.3876953 1.0732422c.3828145.4329449.6744782.9387992.875 1.5175781.2005219.578779.3007813 1.2281865.3007813 1.9482422zm-3.7597656.2597656c0-.6197947-.1093739-1.1302063-.328125-1.53125-.2187511-.4010436-.4876287-.6972646-.8066407-.8886718s-.6539696-.3121743-1.0048828-.3623047c-.3509132-.0501305-.7132143-.0751953-1.086914-.0751953h-1.53125v6.0019531h1.6132812c.5742216 0 1.0550111-.0774732 1.4423828-.2324219.3873718-.1549487.7041004-.3714179.9501953-.649414.246095-.2779962.4329421-.6106752.5605469-.9980469s.1914063-.808917.1914063-1.2646485zm19.46875 11.5253907c0 .1002609-.0250649.1891272-.0751954.2666015-.0501304.0774744-.1458326.1412758-.2871093.1914063-.1412768.0501304-.3349597.088867-.5810547.1162109s-.5559877.0410156-.9296875.0410156c-.5924509 0-1.0185534-.0227862-1.2783203-.0683593-.2597669-.0455732-.446614-.1139319-.5605469-.2050781-.1139329-.0911463-.2027992-.2005202-.2666016-.328125l-5.3457031-8.3945313v8.3945313c0 .1002609-.0273435.1868485-.0820312.2597656-.0546878.072917-.15039.1344398-.2871094.1845703-.1367194.0501304-.3190093.088867-.546875.1162109s-.5195295.0410156-.875.0410156c-.3463559 0-.635741-.0136717-.8681641-.0410156-.232423-.0273439-.4169915-.0660805-.5537109-.1162109-.1367194-.0501305-.2347002-.1116533-.2939453-.1845703-.0592451-.0729171-.0888672-.1595047-.0888672-.2597656v-16.6660157c0-.1002609.0296221-.1868486.0888672-.2597656s.1572259-.1321612.2939453-.1777344c.1367194-.0455731.3212879-.0820311.5537109-.109375.2324231-.0273439.5218082-.0410156.8681641-.0410156.3554705 0 .6471343.0136717.875.0410156s.4101556.0638019.546875.109375c.1367194.0455732.2324216.1048174.2871094.1777344.0546877.072917.0820312.1595047.0820312.2597656v7.5332031l5.1816406-7.5195312c.0638024-.1184902.1412756-.216471.2324219-.2939453.0911463-.0774744.2096347-.1389972.3554688-.1845703.145834-.0455732.3326811-.0774739.5605468-.0957032.2278658-.0182292.5195295-.0273437.875-.0273437.3645852 0 .6653634.0136717.9023438.0410156.2369803.0273439.4261061.0660805.5673828.116211.1412767.0501304.2392575.1116532.2939453.1845703.0546878.072917.0820313.1549474.0820313.2460937 0 .1549487-.0410153.3144523-.1230469.4785157-.0820317.1640633-.236978.4238263-.4648438.7792968l-4.8535156 6.3574219 5.2910156 7.9980469c.2005219.3736998.3212889.6220697.3623047.7451172.0410159.1230475.0615235.2210282.0615235.2939453z" fill="#fff" fill-rule="nonzero"/></g></svg>