<svg height="80" viewBox="0 0 80 80" width="80" xmlns="http://www.w3.org/2000/svg"><g fill="none" fill-rule="evenodd"><g transform="translate(5)"><path d="m45 0v21c0 2.209139 1.790861 4 4 4h21v47c0 4.418278-3.581722 8-8 8h-54c-4.418278 0-8-3.581722-8-8v-64c0-4.418278 3.581722-8 8-8z" fill="#999"/><path d="m45 0 25 25h-21c-2.209139 0-4-1.790861-4-4z" fill="#ccc"/></g><path d="m33.0341797 58.6601562c.1093755.3281267.1777342.5878897.2050781.7792969s-.0091141.3349605-.109375.4306641-.2779935.1549478-.5332031.1777344c-.2552096.0227865-.6061176.0341796-1.0527344.0341796-.4648461 0-.8271471-.0068358-1.0869141-.0205078-.2597669-.0136719-.4580071-.0410154-.5947265-.0820312s-.2324216-.0979814-.2871094-.1708984c-.0546878-.0729171-.1002602-.1686192-.1367187-.2871094l-1.1894532-3.5546875h-6.6445312l-1.1210938 3.4589843c-.0364585.1276049-.0843096.2347001-.1435547.3212891-.059245.086589-.1549472.1549477-.2871093.2050781-.1321621.0501305-.3190092.0843098-.5605469.1025391s-.5582663.0273437-.9501953.0273437c-.4192729 0-.7473947-.0136717-.984375-.0410156-.2369804-.0273439-.4010412-.0934239-.4921875-.1982422-.0911463-.1048182-.123047-.2529287-.0957031-.4443359.0273438-.1914072.0957025-.446613.2050781-.765625l5.4550781-15.6953125c.0546878-.1549487.1184892-.280273.1914063-.3759766.072917-.0957036.1891268-.1686195.3486328-.21875.159506-.0501304.3805324-.0820311.6630859-.0957031.2825535-.0136719.6562477-.0205078 1.1210938-.0205078.5377631 0 .9661442.0068359 1.2851562.0205078.319012.013672.5673819.0455727.7451172.0957031.1777353.0501305.3053382.1253251.3828125.225586s.1435544.2369783.1982422.4101562zm-8.1210938-12.9746093h-.0136718l-2.5019532 7.5195312h5.0175782zm22.7089844 1.9960937c0 .9934946-.1549464 1.8730431-.4648437 2.6386719-.3098974.7656288-.7610648 1.4104792-1.3535157 1.9345703-.5924508.5240912-1.3193316.9228502-2.180664 1.1962891-.8613325.2734388-1.8753197.4101562-3.0419922.4101562h-1.4765625v5.6464844c0 .0911463-.0296221.1731767-.0888672.2460937-.0592451.0729171-.1572259.1321613-.2939453.1777344-.1367194.0455732-.3190093.0820311-.546875.109375s-.5195295.0410156-.875.0410156c-.3463559 0-.635741-.0136717-.8681641-.0410156-.232423-.0273439-.4169915-.0638018-.5537109-.109375-.1367194-.0455731-.2324216-.1048173-.2871094-.1777344-.0546878-.072917-.0820312-.1549474-.0820312-.2460937v-15.9140625c0-.4283876.1116525-.7496734.3349609-.9638672s.5172508-.321289.8818359-.321289h4.1699219c.4192729 0 .818032.0159503 1.1962891.0478515s.8317031.1002599 1.3603515.2050781c.5286485.1048183 1.0641249.2985012 1.6064454.5810547.5423204.2825535 1.0048808.6402973 1.3876953 1.0732422.3828144.4329449.6744781.9387992.875 1.5175781.2005218.578779.3007812 1.2281865.3007812 1.9482422zm-3.7597656.2597656c0-.6197947-.1093739-1.1302063-.328125-1.53125-.2187511-.4010436-.4876286-.6972646-.8066406-.8886718s-.6539696-.3121743-1.0048829-.3623047c-.3509132-.0501305-.7132142-.0751953-1.086914-.0751953h-1.53125v6.0019531h1.6132812c.5742217 0 1.0550111-.0774732 1.4423828-.2324219.3873718-.1549487.7041004-.3714179.9501954-.649414.2460949-.2779962.432942-.6106752.5605468-.9980469s.1914063-.808917.1914063-1.2646485zm18.6621094-.2597656c0 .9934946-.1549464 1.8730431-.4648438 2.6386719s-.7610647 1.4104792-1.3535156 1.9345703c-.5924509.5240912-1.3193316.9228502-2.1806641 1.1962891-.8613324.2734388-1.8753197.4101562-3.0419922.4101562h-1.4765625v5.6464844c0 .0911463-.0296221.1731767-.0888671.2460937-.0592451.0729171-.1572259.1321613-.2939454.1777344-.1367194.0455732-.3190092.0820311-.546875.109375-.2278657.0273439-.5195294.0410156-.875.0410156-.3463559 0-.635741-.0136717-.868164-.0410156-.2324231-.0273439-.4169915-.0638018-.553711-.109375-.1367194-.0455731-.2324216-.1048173-.2871093-.1777344-.0546878-.072917-.0820313-.1549474-.0820313-.2460937v-15.9140625c0-.4283876.1116525-.7496734.334961-.9638672.2233084-.2141938.5172507-.321289.8818359-.321289h4.1699219c.4192729 0 .8180319.0159503 1.196289.0478515s.8317031.1002599 1.3603516.2050781c.5286485.1048183 1.0641249.2985012 1.6064453.5810547s1.0048809.6402973 1.3876953 1.0732422.6744782.9387992.875 1.5175781c.2005218.578779.3007813 1.2281865.3007813 1.9482422zm-3.7597657.2597656c0-.6197947-.1093739-1.1302063-.328125-1.53125-.2187511-.4010436-.4876286-.6972646-.8066406-.8886718s-.6539696-.3121743-1.0048828-.3623047c-.3509132-.0501305-.7132143-.0751953-1.0869141-.0751953h-1.53125v6.0019531h1.6132813c.5742216 0 1.0550111-.0774732 1.4423828-.2324219s.7041003-.3714179.9501953-.649414c.246095-.2779962.4329421-.6106752.5605469-.9980469s.1914062-.808917.1914062-1.2646485z" fill="#fff" fill-rule="nonzero"/></g></svg>