<svg height="80" viewBox="0 0 80 80" width="80" xmlns="http://www.w3.org/2000/svg"><g fill="none" fill-rule="evenodd"><g transform="translate(5)"><path d="m45 0v21c0 2.209139 1.790861 4 4 4h21v47c0 4.418278-3.581722 8-8 8h-54c-4.418278 0-8-3.581722-8-8v-64c0-4.418278 3.581722-8 8-8z" fill="#9575cd"/><path d="m45 0 25 25h-21c-2.209139 0-4-1.790861-4-4z" fill="#d1c4e9"/></g><path d="m36.6435547 58.6601562c.1093755.3281267.1777342.5878897.2050781.7792969s-.0091141.3349605-.109375.4306641-.2779935.1549478-.5332031.1777344c-.2552096.0227865-.6061176.0341796-1.0527344.0341796-.4648461 0-.8271471-.0068358-1.0869141-.0205078-.2597669-.0136719-.4580071-.0410154-.5947265-.0820312s-.2324216-.0979814-.2871094-.1708984c-.0546878-.0729171-.1002602-.1686192-.1367187-.2871094l-1.1894532-3.5546875h-6.6445312l-1.1210938 3.4589843c-.0364585.1276049-.0843096.2347001-.1435547.3212891-.059245.086589-.1549472.1549477-.2871093.2050781-.1321621.0501305-.3190092.0843098-.5605469.1025391s-.5582663.0273437-.9501953.0273437c-.4192729 0-.7473947-.0136717-.984375-.0410156-.2369804-.0273439-.4010412-.0934239-.4921875-.1982422-.0911463-.1048182-.123047-.2529287-.0957031-.4443359.0273438-.1914072.0957025-.446613.2050781-.765625l5.4550781-15.6953125c.0546878-.1549487.1184892-.280273.1914063-.3759766.072917-.0957036.1891268-.1686195.3486328-.21875.159506-.0501304.3805324-.0820311.6630859-.0957031.2825535-.0136719.6562477-.0205078 1.1210938-.0205078.5377631 0 .9661442.0068359 1.2851562.0205078.319012.013672.5673819.0455727.7451172.0957031.1777353.0501305.3053382.1253251.3828125.225586s.1435544.2369783.1982422.4101562zm-8.1210938-12.9746093h-.0136718l-2.5019532 7.5195312h5.0175782zm17.9648438 13.6855469c-.0455732.1549486-.1048174.2802729-.1777344.3759765s-.1914054.1686196-.3554687.21875c-.1640634.0501305-.3873684.0820312-.6699219.0957031-.2825535.013672-.6516904.0205078-1.1074219.0205078-.3645851 0-.6767565-.0022786-.9365234-.0068359s-.4807934-.0159504-.663086-.0341797c-.1822925-.0182292-.330403-.0455727-.4443359-.0820312s-.209635-.082031-.2871094-.1367188c-.0774743-.0546877-.1367185-.1207678-.1777344-.1982422-.0410158-.0774743-.0797524-.1754551-.1162109-.2939453l-5.2636719-15.6816406c-.1093755-.3281266-.1754556-.5878897-.1982422-.7792969-.0227865-.1914072.0227859-.3349604.1367188-.430664s.3076158-.1549478.5810547-.1777344.6562475-.0341797 1.1484375-.0341797c.4192729 0 .7473946.0091145.984375.0273437.2369803.0182293.4192702.05013.546875.0957032.1276048.0455731.2164711.1139318.2666015.2050781.0501305.0911463.0979816.2050774.1435547.3417969l4.3066407 13.6445312h.0136718l4.2246094-13.5761718c.0364585-.1549487.082031-.280273.1367188-.3759766.0546877-.0957036.1481113-.1708982.2802734-.225586.1321621-.0546877.3212878-.0911457.5673828-.109375.246095-.0182292.5833312-.0273437 1.0117188-.0273437.4192729 0 .745116.0136717.977539.0410156.2324231.0273439.3919267.093424.4785156.1982422.086589.1048182.1139325.2529287.0820313.4443359-.0319012.1914073-.1025385.446613-.2119141.765625zm11.3613281.1367187c0 .0911463-.0296221.1731767-.0888672.2460937-.0592451.0729171-.1572259.1321613-.2939453.1777344-.1367194.0455732-.3190093.0820311-.546875.109375s-.5195295.0410156-.875.0410156c-.3463559 0-.635741-.0136717-.8681641-.0410156-.232423-.0273439-.4169915-.0638018-.5537109-.109375-.1367194-.0455731-.2347002-.1048173-.2939453-.1777344-.0592451-.072917-.0888672-.1549474-.0888672-.2460937v-16.7070313c0-.0911462.0296221-.1731767.0888672-.2460937s.1595045-.1321612.3007812-.1777344c.1412768-.0455731.3258453-.0820311.553711-.109375s.5149722-.0410156.8613281-.0410156c.3554705 0 .6471343.0136717.875.0410156s.4101556.0638019.546875.109375c.1367194.0455732.2347002.1048174.2939453.1777344s.0888672.1549475.0888672.2460937z" fill="#fff" fill-rule="nonzero"/></g></svg>