<svg height="80" viewBox="0 0 80 80" width="80" xmlns="http://www.w3.org/2000/svg"><g fill="none" fill-rule="evenodd"><g transform="translate(5)"><path d="m45 0v21c0 2.209139 1.790861 4 4 4h21v47c0 4.418278-3.581722 8-8 8h-54c-4.418278 0-8-3.581722-8-8v-64c0-4.418278 3.581722-8 8-8z" fill="#333"/><path d="m45 0 25 25h-21c-2.209139 0-4-1.790861-4-4z" fill="#999"/></g><path d="m32.7060547 54.6953125c0 .6289094-.0865877 1.1985652-.2597656 1.7089844-.173178.5104192-.4124334.9615866-.7177735 1.3535156-.30534.391929-.6699197.7291653-1.09375 1.0117187-.4238302.2825535-.8909479.5149731-1.4013672.6972657-.5104192.1822926-1.0550101.3167313-1.633789.4033203-.578779.086589-1.2236293.1298828-1.9345703.1298828h-4.703125c-.3007828 0-.5537099-.0888663-.7587891-.2666016-.2050792-.1777352-.3076172-.4671204-.3076172-.868164v-15.421875c0-.4010437.102538-.6904288.3076172-.8681641s.4580063-.2666015.7587891-.2666015h4.4433593c1.0846409 0 2.002926.0911449 2.7548828.2734374.7519569.1822926 1.3854141.458006 1.9003907.8271485.5149765.3691425.9091783.8362602 1.1826172 1.4013672.2734388.565107.4101562 1.2304649.4101562 1.9960937 0 .4283876-.0546869.8317039-.1640625 1.209961-.1093755.3782571-.2688791.7223291-.4785156 1.0322265s-.4671209.5833322-.772461.8203125c-.30534.2369804-.6539693.4283847-1.0458984.5742188.5013046.0911463.9638651.2506499 1.3876953.4785156.4238303.2278657.7929672.5218081 1.1074219.8818359.3144547.3600279.5628246.7815731.7451172 1.2646485.1822926.4830753.2734375 1.0253876.2734375 1.6269531zm-4.6484375-7.4511719c0-.3554705-.054687-.6744777-.1640625-.9570312-.1093756-.2825535-.2734364-.5172517-.4921875-.7041016s-.4944645-.3304031-.8271484-.430664c-.332684-.100261-.7770155-.1503907-1.3330079-.1503907h-1.8183593v4.59375h2.0097656c.5195338 0 .9342432-.0615228 1.2441406-.1845703s.5673818-.2916656.772461-.5058594c.2050791-.2141937.3577468-.4648423.4580078-.7519531.1002609-.2871108.1503906-.5901677.1503906-.9091797zm.9160156 7.5742188c0-.4101583-.0683587-.7770166-.2050781-1.100586-.1367194-.3235693-.3372383-.5947254-.6015625-.8134765-.2643243-.2187511-.6015605-.3873692-1.0117188-.5058594s-.9433561-.1777344-1.5996093-.1777344h-2.1328125v5.03125h2.5976562c.5013046 0 .9228499-.0524083 1.2646484-.1572265.3417986-.1048183.6380196-.2597646.8886719-.4648438.2506523-.2050791.4466139-.4602849.5878907-.765625.1412767-.3053401.211914-.6539694.211914-1.0458984zm20.8359375 3.8417968c.1093756.3281267.1777343.5878897.2050781.7792969.0273439.1914072-.009114.3349605-.109375.4306641-.1002609.0957036-.2779935.1549478-.5332031.1777344-.2552096.0227865-.6061175.0341796-1.0527344.0341796-.464846 0-.8271471-.0068358-1.086914-.0205078-.2597669-.0136719-.4580072-.0410154-.5947266-.0820312s-.2324216-.0979814-.2871094-.1708984c-.0546877-.0729171-.1002602-.1686192-.1367187-.2871094l-1.1894531-3.5546875h-6.6445313l-1.1210937 3.4589843c-.0364586.1276049-.0843096.2347001-.1435547.3212891s-.1549473.1549477-.2871094.2050781c-.1321621.0501305-.3190092.0843098-.5605469.1025391-.2415376.0182293-.5582662.0273437-.9501953.0273437-.4192729 0-.7473946-.0136717-.984375-.0410156-.2369803-.0273439-.4010412-.0934239-.4921875-.1982422-.0911463-.1048182-.123047-.2529287-.0957031-.4443359s.0957026-.446613.2050781-.765625l5.4550781-15.6953125c.0546878-.1549487.1184893-.280273.1914063-.3759766s.1891268-.1686195.3486328-.21875c.159506-.0501304.3805324-.0820311.6630859-.0957031.2825535-.0136719.6562477-.0205078 1.1210938-.0205078.5377631 0 .9661442.0068359 1.2851562.0205078.319012.013672.567382.0455727.7451172.0957031.1777353.0501305.3053382.1253251.3828125.225586.0774744.1002609.1435544.2369783.1982422.4101562zm-8.1210937-12.9746093h-.0136719l-2.5019531 7.5195312h5.0175781zm20.1796875-1.9003907c0 .2643243-.0113932.489908-.0341797.6767579-.0227866.1868499-.0569659.337239-.1025391.4511718-.0455731.1139329-.1025387.198242-.1708984.2529297-.0683597.0546878-.1435543.0820313-.225586.0820313h-4.4296875v14.2597656c0 .0911463-.0296221.1731767-.0888672.2460937-.059245.0729171-.1572258.1321613-.2939453.1777344-.1367194.0455732-.3212879.0820311-.5537109.109375s-.5218082.0410156-.8681641.0410156-.635741-.0136717-.868164-.0410156c-.2324231-.0273439-.4169915-.0638018-.553711-.109375-.1367194-.0455731-.2347002-.1048173-.2939453-.1777344-.0592451-.072917-.0888672-.1549474-.0888672-.2460937v-14.2597656h-4.4296875c-.0911463 0-.1686194-.0273435-.2324218-.0820313-.0638024-.0546877-.1184894-.1389968-.1640625-.2529297-.0455732-.1139328-.0797525-.2643219-.1025391-.4511718s-.0341797-.4124336-.0341797-.6767579c0-.2734388.0113931-.5058584.0341797-.6972656s.0569659-.3440749.1025391-.4580078c.0455731-.1139328.1002601-.1959633.1640625-.2460937.0638024-.0501305.1412755-.0751953.2324218-.0751953h12.46875c.0820317 0 .1572263.0250648.225586.0751953.0683597.0501304.1253253.1321609.1708984.2460937.0455732.1139329.0797525.2666006.1025391.4580078.0227865.1914072.0341797.4238268.0341797.6972656z" fill="#fff" fill-rule="nonzero"/></g></svg>