<svg height="80" viewBox="0 0 80 80" width="80" xmlns="http://www.w3.org/2000/svg"><g fill="none" fill-rule="evenodd"><g transform="translate(5)"><path d="m45 0v21c0 2.209139 1.790861 4 4 4h21v47c0 4.418278-3.581722 8-8 8h-54c-4.418278 0-8-3.581722-8-8v-64c0-4.418278 3.581722-8 8-8z" fill="#4fc3f7"/><path d="m45 0 25 25h-21c-2.209139 0-4-1.790861-4-4z" fill="#b3e5fc"/></g><path d="m27.203125 54.6953125c0 .6289094-.0865877 1.1985652-.2597656 1.7089844-.173178.5104192-.4124334.9615866-.7177735 1.3535156-.30534.391929-.6699197.7291653-1.09375 1.0117187-.4238302.2825535-.8909479.5149731-1.4013671.6972657-.5104193.1822926-1.0550102.3167313-1.6337891.4033203s-1.2236293.1298828-1.9345703.1298828h-4.703125c-.3007828 0-.5537099-.0888663-.7587891-.2666016-.2050791-.1777352-.3076172-.4671204-.3076172-.868164v-15.421875c0-.4010437.1025381-.6904288.3076172-.8681641.2050792-.1777353.4580063-.2666015.7587891-.2666015h4.4433594c1.0846408 0 2.0029259.0911449 2.7548828.2734374.7519568.1822926 1.3854141.458006 1.9003906.8271485s.9091783.8362602 1.1826172 1.4013672c.2734388.565107.4101562 1.2304649.4101562 1.9960937 0 .4283876-.0546869.8317039-.1640625 1.209961-.1093755.3782571-.2688791.7223291-.4785156 1.0322265s-.4671209.5833322-.7724609.8203125c-.3053401.2369804-.6539694.4283847-1.0458985.5742188.5013046.0911463.9638651.2506499 1.3876953.4785156.4238303.2278657.7929672.5218081 1.1074219.8818359.3144547.3600279.5628246.7815731.7451172 1.2646485.1822926.4830753.2734375 1.0253876.2734375 1.6269531zm-4.6484375-7.4511719c0-.3554705-.054687-.6744777-.1640625-.9570312s-.2734364-.5172517-.4921875-.7041016-.4944645-.3304031-.8271484-.430664c-.332684-.100261-.7770155-.1503907-1.3330079-.1503907h-1.8183593v4.59375h2.0097656c.5195338 0 .9342432-.0615228 1.2441406-.1845703s.5673818-.2916656.772461-.5058594c.2050791-.2141937.3577469-.4648423.4580078-.7519531s.1503906-.5901677.1503906-.9091797zm.9160156 7.5742188c0-.4101583-.0683587-.7770166-.2050781-1.100586-.1367194-.3235693-.3372383-.5947254-.6015625-.8134765s-.6015604-.3873692-1.0117187-.5058594c-.4101584-.1184902-.9433561-.1777344-1.5996094-.1777344h-2.1328125v5.03125h2.5976562c.5013046 0 .9228499-.0524083 1.2646485-.1572265.3417985-.1048183.6380195-.2597646.8886718-.4648438.2506523-.2050791.4466139-.4602849.5878907-.765625.1412767-.3053401.211914-.6539694.211914-1.0458984zm27.234375 4.6894531c0 .0911463-.0250648.1731767-.0751953.2460937-.0501304.0729171-.1412754.1321613-.2734375.1777344-.1321621.0455732-.3076161.0820311-.5263672.109375s-.4967431.0410156-.8339843.0410156c-.3281267 0-.6015615-.0136717-.8203126-.0410156-.218751-.0273439-.3919264-.0638018-.5195312-.109375-.1276048-.0455731-.2187497-.1048173-.2734375-.1777344-.0546878-.072917-.0820313-.1549474-.0820313-.2460937v-14.3964844h-.0273437l-5.1269531 14.3828125c-.0364585.1184902-.0957027.216471-.1777344.2939453-.0820317.0774744-.1936842.1389972-.3349609.1845703-.1412768.0455732-.321288.0751953-.5400391.0888672-.2187511.013672-.4830714.0205078-.7929688.0205078-.3098973 0-.5742176-.0113931-.7929687-.0341796-.2187511-.0227866-.3987623-.0592446-.5400391-.109375-.1412767-.0501305-.2529292-.1116533-.3349609-.1845704-.0820317-.072917-.1367186-.1595047-.1640625-.2597656l-4.9492188-14.3828125h-.0273437v14.3964844c0 .0911463-.0250649.1731767-.0751953.2460937-.0501305.0729171-.143554.1321613-.2802734.1777344-.1367195.0455732-.3121735.0820311-.5263672.109375-.2141938.0273439-.4899072.0410156-.8271485.0410156-.3281266 0-.6015614-.0136717-.8203125-.0410156s-.394205-.0638018-.5263672-.109375c-.1321621-.0455731-.223307-.1048173-.2734375-.1777344-.0501304-.072917-.0751953-.1549474-.0751953-.2460937v-15.7636719c0-.464846.1230457-.8203112.3691406-1.0664062.246095-.246095.5742167-.3691406.984375-.3691406h2.3515626c.4192729 0 .7792953.0341793 1.0800781.102539.3007827.0683597.5605458.1822909.7792969.3417969.218751.159506.4010409.3691393.546875.6289062.145834.259767.2734369.5810528.3828124.9638672l3.828125 10.5410157h.0546876l3.9648437-10.5136719c.1184902-.3828144.2483717-.7063789.3896484-.9707031.1412768-.2643243.3053376-.4785149.4921875-.6425782s.4078764-.2802731.663086-.3486328.5514306-.102539.8886718-.102539h2.4199219c.246095 0 .4580069.0319007.6357422.0957031s.3235672.1572259.4375.2802734c.1139329.1230475.2005205.2734366.2597656.4511719s.0888672.3805327.0888672.6083984zm15.96875-11.8261719c0 .9934946-.1549463 1.8730431-.4648437 2.6386719s-.7610648 1.4104792-1.3535156 1.9345703c-.5924509.5240912-1.3193317.9228502-2.1806641 1.1962891-.8613324.2734388-1.8753197.4101562-3.0419922.4101562h-1.4765625v5.6464844c0 .0911463-.0296221.1731767-.0888672.2460937-.0592451.0729171-.1572259.1321613-.2939453.1777344-.1367194.0455732-.3190093.0820311-.546875.109375s-.5195295.0410156-.875.0410156c-.3463559 0-.635741-.0136717-.8681641-.0410156-.232423-.0273439-.4169915-.0638018-.5537109-.109375-.1367194-.0455731-.2324216-.1048173-.2871094-.1777344-.0546877-.072917-.0820312-.1549474-.0820312-.2460937v-15.9140625c0-.4283876.1116525-.7496734.3349609-.9638672s.5172508-.321289.881836-.321289h4.1699218c.419273 0 .818032.0159503 1.1962891.0478515s.8317031.1002599 1.3603515.2050781c.5286485.1048183 1.0641249.2985012 1.6064454.5810547.5423204.2825535 1.0048809.6402973 1.3876953 1.0732422s.6744781.9387992.875 1.5175781c.2005218.578779.3007812 1.2281865.3007812 1.9482422zm-3.7597656.2597656c0-.6197947-.1093739-1.1302063-.328125-1.53125-.2187511-.4010436-.4876286-.6972646-.8066406-.8886718s-.6539696-.3121743-1.0048828-.3623047c-.3509133-.0501305-.7132143-.0751953-1.0869141-.0751953h-1.53125v6.0019531h1.6132812c.5742217 0 1.0550111-.0774732 1.4423829-.2324219.3873717-.1549487.7041003-.3714179.9501953-.649414.246095-.2779962.432942-.6106752.5605468-.9980469.1276049-.3873717.1914063-.808917.1914063-1.2646485z" fill="#fff" fill-rule="nonzero"/></g></svg>