<svg height="80" viewBox="0 0 80 80" width="80" xmlns="http://www.w3.org/2000/svg"><g fill="none" fill-rule="evenodd"><g transform="translate(5)"><path d="m45 0v21c0 2.209139 1.790861 4 4 4h21v47c0 4.418278-3.581722 8-8 8h-54c-4.418278 0-8-3.581722-8-8v-64c0-4.418278 3.581722-8 8-8z" fill="#64b5f6"/><path d="m45 0 25 25h-21c-2.209139 0-4-1.790861-4-4z" fill="#bbdefb"/></g><path d="m46.7539062 57.3203125c0 .2278657-.0068358.4215487-.0205078.5810547-.0136719.159506-.0341795.2962234-.0615234.4101562-.0273439.1139329-.0638019.2119137-.109375.2939454-.0455731.0820316-.1184891.1754552-.21875.2802734s-.2939439.239257-.5810547.4033203-.6380187.3212883-1.0527344.4716797c-.4147156.1503914-.8886692.2757156-1.421875.3759766-.5332058.1002609-1.1096974.1503906-1.7294921.1503906-1.2122457 0-2.3059848-.1868471-3.28125-.5605469-.9752653-.3736998-1.8046841-.9319624-2.4882813-1.6748047-.6835972-.7428422-1.2076805-1.6702418-1.5722656-2.7822266-.3645852-1.1119847-.546875-2.4062426-.546875-3.8828124 0-1.5039138.2005188-2.8391869.6015625-4.0058594.4010436-1.1666725.9615849-2.1464804 1.6816406-2.9394532.7200557-.7929727 1.5836538-1.3945291 2.5908203-1.8046874 1.0071665-.4101584 2.1168559-.6152344 3.3291016-.6152344.4921899 0 .9661435.0410152 1.421875.1230468.4557314.0820317.8772767.189127 1.2646484.3212891s.7360011.2848299 1.0458985.4580078c.3098973.173178.5263665.3212885.649414.444336s.2073566.2255855.2529297.3076171c.0455731.0820317.0820311.1868484.109375.3144532s.0478515.2779939.0615234.4511718c.013672.173178.0205079.3873686.0205079.6425782 0 .2734388-.0091145.5058584-.0273438.6972656s-.05013.3463536-.0957031.4648438c-.0455732.1184901-.1002601.2050778-.1640625.2597656-.0638024.0546877-.1367184.0820312-.21875.0820312-.1367195 0-.3098948-.0797518-.5195313-.2392578-.2096364-.159506-.4807926-.3372386-.8134765-.5332031-.332684-.1959645-.7291644-.3736971-1.1894532-.5332031-.4602887-.159506-1.0094369-.2392578-1.6474609-.2392578-.7018264 0-1.3284478.1435532-1.8798828.430664-.5514351.2871108-1.0208314.697263-1.4082031 1.2304688-.3873718.5332058-.6813141 1.1780561-.881836 1.9345703-.2005218.7565142-.3007812 1.6087192-.3007812 2.5566406 0 1.0390677.1070953 1.9391238.321289 2.7001953.2141938.7610715.5195293 1.3876929.9160157 1.8798828.3964863.49219.8749972.8590483 1.4355468 1.100586.5605497.2415376 1.1917283.3623046 1.8935547.3623046.638024 0 1.1894508-.0751945 1.6542969-.2255859s.8636051-.3167308 1.1962891-.4990234c.3326839-.1822926.6061187-.3463535.8203125-.4921875.2141937-.1458341.3805332-.21875.4990234-.21875.0911463 0 .1640622.018229.21875.0546875s.1002602.1093744.1367187.21875c.0364586.1093755.063802.2620433.0820313.4580078s.0273437.4580062.0273437.7861328z" fill="#fff" fill-rule="nonzero"/></g></svg>