<svg height="80" viewBox="0 0 80 80" width="80" xmlns="http://www.w3.org/2000/svg"><g fill="none" fill-rule="evenodd"><g transform="translate(5)"><path d="m45 0v21c0 2.209139 1.790861 4 4 4h21v47c0 4.418278-3.581722 8-8 8h-54c-4.418278 0-8-3.581722-8-8v-64c0-4.418278 3.581722-8 8-8z" fill="#64b5f6"/><path d="m45 0 25 25h-21c-2.209139 0-4-1.790861-4-4z" fill="#bbdefb"/></g><path d="m31.8515625 57.3203125c0 .2278657-.0068359.4215487-.0205078.5810547-.013672.159506-.0341796.2962234-.0615235.4101562-.0273438.1139329-.0638018.2119137-.109375.2939454-.0455731.0820316-.118489.1754552-.21875.2802734-.1002609.1048182-.2939438.239257-.5810546.4033203s-.6380188.3212883-1.0527344.4716797-.8886692.2757156-1.421875.3759766c-.5332058.1002609-1.1096974.1503906-1.7294922.1503906-1.2122456 0-2.3059847-.1868471-3.28125-.5605469s-1.8046841-.9319624-2.4882812-1.6748047c-.6835972-.7428422-1.2076805-1.6702418-1.5722657-2.7822266-.3645851-1.1119847-.546875-2.4062426-.546875-3.8828124 0-1.5039138.2005189-2.8391869.6015625-4.0058594.4010437-1.1666725.961585-2.1464804 1.6816406-2.9394532.7200557-.7929727 1.5836539-1.3945291 2.5908204-1.8046874 1.0071665-.4101584 2.1168559-.6152344 3.3291015-.6152344.49219 0 .9661436.0410152 1.421875.1230468.4557315.0820317.8772767.189127 1.2646485.3212891.3873717.1321621.736001.2848299 1.0458984.4580078.3098974.173178.5263666.3212885.6494141.444336s.2073565.2255855.2529297.3076171c.0455731.0820317.0820311.1868484.109375.3144532.0273438.1276048.0478514.2779939.0615234.4511718.0136719.173178.0205078.3873686.0205078.6425782 0 .2734388-.0091145.5058584-.0273438.6972656-.0182292.1914072-.0501299.3463536-.0957031.4648438-.0455731.1184901-.1002601.2050778-.1640625.2597656-.0638024.0546877-.1367183.0820312-.21875.0820312-.1367194 0-.3098948-.0797518-.5195312-.2392578-.2096365-.159506-.4807926-.3372386-.8134766-.5332031-.3326839-.1959645-.7291644-.3736971-1.1894531-.5332031-.4602888-.159506-1.0094369-.2392578-1.6474609-.2392578-.7018265 0-1.3284478.1435532-1.8798829.430664-.551435.2871108-1.0208314.697263-1.4082031 1.2304688s-.6813141 1.1780561-.8818359 1.9345703c-.2005219.7565142-.3007813 1.6087192-.3007813 2.5566406 0 1.0390677.1070953 1.9391238.3212891 2.7001953s.5195293 1.3876929.9160156 1.8798828c.3964864.49219.8749972.8590483 1.4355469 1.100586.5605497.2415376 1.1917282.3623046 1.8935547.3623046.638024 0 1.1894508-.0751945 1.6542969-.2255859.464846-.1503914.8636051-.3167308 1.196289-.4990234.332684-.1822926.6061187-.3463535.8203125-.4921875.2141938-.1458341.3805333-.21875.4990235-.21875.0911462 0 .1640622.018229.21875.0546875.0546877.0364585.1002602.1093744.1367187.21875.0364585.1093755.063802.2620433.0820313.4580078.0182292.1959645.0273437.4580062.0273437.7861328zm14.6972656-9.6386719c0 .9934946-.1549463 1.8730431-.4648437 2.6386719s-.7610648 1.4104792-1.3535156 1.9345703c-.5924509.5240912-1.3193317.9228502-2.1806641 1.1962891-.8613324.2734388-1.8753197.4101562-3.0419922.4101562h-1.4765625v5.6464844c0 .0911463-.0296221.1731767-.0888672.2460937-.0592451.0729171-.1572259.1321613-.2939453.1777344-.1367194.0455732-.3190093.0820311-.546875.109375s-.5195295.0410156-.875.0410156c-.3463559 0-.635741-.0136717-.8681641-.0410156-.232423-.0273439-.4169915-.0638018-.5537109-.109375-.1367194-.0455731-.2324216-.1048173-.2871094-.1777344-.0546877-.072917-.0820312-.1549474-.0820312-.2460937v-15.9140625c0-.4283876.1116525-.7496734.3349609-.9638672s.5172508-.321289.881836-.321289h4.1699218c.419273 0 .818032.0159503 1.1962891.0478515s.8317031.1002599 1.3603515.2050781c.5286485.1048183 1.0641249.2985012 1.6064454.5810547.5423204.2825535 1.0048809.6402973 1.3876953 1.0732422s.6744781.9387992.875 1.5175781c.2005218.578779.3007812 1.2281865.3007812 1.9482422zm-3.7597656.2597656c0-.6197947-.1093739-1.1302063-.328125-1.53125-.2187511-.4010436-.4876286-.6972646-.8066406-.8886718s-.6539696-.3121743-1.0048828-.3623047c-.3509133-.0501305-.7132143-.0751953-1.0869141-.0751953h-1.53125v6.0019531h1.6132812c.5742217 0 1.0550111-.0774732 1.4423829-.2324219.3873717-.1549487.7041003-.3714179.9501953-.649414.246095-.2779962.432942-.6106752.5605468-.9980469.1276049-.3873717.1914063-.808917.1914063-1.2646485zm18.6621094-.2597656c0 .9934946-.1549464 1.8730431-.4648438 2.6386719s-.7610647 1.4104792-1.3535156 1.9345703c-.5924509.5240912-1.3193316.9228502-2.1806641 1.1962891-.8613324.2734388-1.8753197.4101562-3.0419922.4101562h-1.4765624v5.6464844c0 .0911463-.0296221.1731767-.0888672.2460937-.0592451.0729171-.1572259.1321613-.2939454.1777344-.1367194.0455732-.3190092.0820311-.546875.109375-.2278657.0273439-.5195294.0410156-.875.0410156-.3463558 0-.635741-.0136717-.868164-.0410156s-.4169915-.0638018-.553711-.109375c-.1367194-.0455731-.2324216-.1048173-.2871093-.1777344-.0546878-.072917-.0820313-.1549474-.0820313-.2460937v-15.9140625c0-.4283876.1116526-.7496734.334961-.9638672s.5172507-.321289.8818359-.321289h4.1699219c.4192729 0 .8180319.0159503 1.196289.0478515s.8317031.1002599 1.3603516.2050781c.5286485.1048183 1.0641249.2985012 1.6064453.5810547s1.0048809.6402973 1.3876953 1.0732422.6744782.9387992.875 1.5175781c.2005219.578779.3007813 1.2281865.3007813 1.9482422zm-3.7597657.2597656c0-.6197947-.1093739-1.1302063-.328125-1.53125-.218751-.4010436-.4876286-.6972646-.8066406-.8886718s-.6539696-.3121743-1.0048828-.3623047c-.3509132-.0501305-.7132143-.0751953-1.086914-.0751953h-1.53125v6.0019531h1.6132812c.5742216 0 1.0550111-.0774732 1.4423828-.2324219s.7041003-.3714179.9501953-.649414c.246095-.2779962.4329421-.6106752.5605469-.9980469s.1914062-.808917.1914062-1.2646485z" fill="#fff" fill-rule="nonzero"/></g></svg>