<svg height="80" viewBox="0 0 80 80" width="80" xmlns="http://www.w3.org/2000/svg"><g fill="none" fill-rule="evenodd"><g transform="translate(5)"><path d="m45 0v21c0 2.209139 1.790861 4 4 4h21v47c0 4.418278-3.581722 8-8 8h-54c-4.418278 0-8-3.581722-8-8v-64c0-4.418278 3.581722-8 8-8z" fill="#64b5f6"/><path d="m45 0 25 25h-21c-2.209139 0-4-1.790861-4-4z" fill="#bbdefb"/></g><path d="m33.5195312 57.3203125c0 .2278657-.0068358.4215487-.0205078.5810547-.0136719.159506-.0341795.2962234-.0615234.4101562-.0273439.1139329-.0638019.2119137-.109375.2939454-.0455731.0820316-.1184891.1754552-.21875.2802734s-.2939439.239257-.5810547.4033203-.6380187.3212883-1.0527344.4716797c-.4147156.1503914-.8886692.2757156-1.421875.3759766-.5332058.1002609-1.1096974.1503906-1.7294921.1503906-1.2122457 0-2.3059848-.1868471-3.28125-.5605469-.9752653-.3736998-1.8046841-.9319624-2.4882813-1.6748047-.6835972-.7428422-1.2076805-1.6702418-1.5722656-2.7822266-.3645852-1.1119847-.546875-2.4062426-.546875-3.8828124 0-1.5039138.2005188-2.8391869.6015625-4.0058594.4010436-1.1666725.9615849-2.1464804 1.6816406-2.9394532.7200557-.7929727 1.5836538-1.3945291 2.5908203-1.8046874 1.0071665-.4101584 2.1168559-.6152344 3.3291016-.6152344.4921899 0 .9661435.0410152 1.421875.1230468.4557314.0820317.8772767.189127 1.2646484.3212891s.7360011.2848299 1.0458985.4580078c.3098973.173178.5263665.3212885.649414.444336s.2073566.2255855.2529297.3076171c.0455731.0820317.0820311.1868484.109375.3144532s.0478515.2779939.0615234.4511718c.013672.173178.0205079.3873686.0205079.6425782 0 .2734388-.0091145.5058584-.0273438.6972656s-.05013.3463536-.0957031.4648438c-.0455732.1184901-.1002601.2050778-.1640625.2597656-.0638024.0546877-.1367184.0820312-.21875.0820312-.1367195 0-.3098948-.0797518-.5195313-.2392578-.2096364-.159506-.4807926-.3372386-.8134765-.5332031-.332684-.1959645-.7291644-.3736971-1.1894532-.5332031-.4602887-.159506-1.0094369-.2392578-1.6474609-.2392578-.7018264 0-1.3284478.1435532-1.8798828.430664-.5514351.2871108-1.0208314.697263-1.4082031 1.2304688-.3873718.5332058-.6813141 1.1780561-.881836 1.9345703-.2005218.7565142-.3007812 1.6087192-.3007812 2.5566406 0 1.0390677.1070953 1.9391238.321289 2.7001953.2141938.7610715.5195293 1.3876929.9160157 1.8798828.3964863.49219.8749972.8590483 1.4355468 1.100586.5605497.2415376 1.1917283.3623046 1.8935547.3623046.638024 0 1.1894508-.0751945 1.6542969-.2255859s.8636051-.3167308 1.1962891-.4990234c.3326839-.1822926.6061187-.3463535.8203125-.4921875.2141937-.1458341.3805332-.21875.4990234-.21875.0911463 0 .1640622.018229.21875.0546875s.1002602.1093744.1367187.21875c.0364586.1093755.063802.2620433.0820313.4580078s.0273437.4580062.0273437.7861328zm13.0703126-2.625c0 .9296921-.1731754 1.7454392-.5195313 2.4472656-.3463559.7018265-.8157522 1.2874326-1.4082031 1.756836s-1.2851523.8225899-2.078125 1.0595703c-.7929727.2369803-1.6406205.3554687-2.5429688.3554687-.6106801 0-1.1780573-.0501297-1.7021484-.1503906-.5240912-.1002609-.9866517-.2210279-1.3876953-.3623047-.4010437-.1412767-.7360013-.2893872-1.0048828-.4443359-.2688816-.1549487-.4625645-.2916661-.5810547-.4101563s-.2027993-.2893869-.2529297-.5126953c-.0501305-.2233084-.0751953-.5445942-.0751953-.9638672 0-.2825535.0091145-.5195303.0273437-.7109375.0182293-.1914072.0478514-.3463535.0888672-.4648437s.0957028-.2027993.1640625-.2529297c.0683597-.0501305.1481115-.0751953.2392578-.0751953.1276048 0 .3076161.0751945.5400391.2255859s.5309226.3167309.8955078.4990234c.3645852.1822926.7998022.3486321 1.3056641.4990235s1.091468.2255859 1.7568359.2255859c.4375022 0 .8294254-.0524083 1.1757813-.1572265.3463558-.1048183.6402982-.2529288.8818359-.444336s.4261061-.428384.5537109-.7109375.1914063-.5970035.1914063-.9433594c0-.4010436-.1093739-.7451157-.328125-1.0322265s-.503579-.5423166-.8544922-.765625-.7496723-.4329417-1.1962891-.6289063c-.4466168-.1959645-.9068986-.4033192-1.3808594-.6220703-.4739607-.2187511-.9342425-.467121-1.3808593-.7451172-.4466168-.2779961-.8453759-.6106751-1.1962891-.9980468-.3509132-.3873718-.6357411-.845375-.8544922-1.3740235s-.328125-1.1621057-.328125-1.9003906c0-.8476605.157225-1.5927702.4716797-2.2353516.3144547-.6425813.7382786-1.1757791 1.2714844-1.5996093.5332058-.4238303 1.1621057-.7405589 1.8867187-.9501953.724613-.2096365 1.492509-.3144532 2.303711-.3144532.4192729 0 .8385395.0319007 1.2578125.0957032.4192729.0638024.8111961.15039 1.1757812.2597656.3645852.1093755.6881497.2324212.9707031.3691406.2825535.1367194.4694006.2506506.5605469.3417969s.1526691.1686194.1845703.2324219c.0319012.0638024.0592447.1481114.0820313.2529296.0227866.1048183.0387369.2369784.0478515.3964844.0091147.159506.0136719.3577462.0136719.5947266 0 .2643242-.0068358.4876293-.0205078.6699218-.0136719.1822926-.0364582.3326817-.0683594.4511719s-.0774736.2050779-.1367187.2597657c-.0592451.0546877-.1389969.0820312-.2392578.0820312s-.2597646-.0638014-.4785156-.1914062c-.2187511-.1276049-.4876287-.2666009-.8066407-.4169922-.319012-.1503914-.6881489-.2871088-1.1074219-.4101563-.4192729-.1230475-.8795547-.1845703-1.3808593-.1845703-.3919291 0-.7337225.0478511-1.0253907.1435547-.2916681.0957036-.5354807.2278637-.7314453.3964844-.1959645.1686206-.3417964.371418-.4375.6083984s-.1435547.4876289-.1435547.7519531c0 .3919291.1070953.7314439.3212891 1.0185547s.5013003.5423166.8613281.765625c.3600279.2233084.7679014.4329417 1.2236328.6289063.4557315.1959645.9205706.4033192 1.3945313.6220703s.9387998.467121 1.3945313.7451172c.4557314.2779961.8613263.6106751 1.2167968.9980468.3554706.3873718.6425771.8430964.8613282 1.3671875.218751.5240912.328125 1.141598.328125 1.8525391zm13.234375 0c0 .9296921-.1731754 1.7454392-.5195313 2.4472656-.3463559.7018265-.8157522 1.2874326-1.4082031 1.756836s-1.2851523.8225899-2.078125 1.0595703c-.7929727.2369803-1.6406205.3554687-2.5429688.3554687-.6106801 0-1.1780573-.0501297-1.7021484-.1503906-.5240912-.1002609-.9866517-.2210279-1.3876953-.3623047-.4010437-.1412767-.7360013-.2893872-1.0048828-.4443359-.2688816-.1549487-.4625645-.2916661-.5810547-.4101563s-.2027993-.2893869-.2529297-.5126953c-.0501305-.2233084-.0751953-.5445942-.0751953-.9638672 0-.2825535.0091145-.5195303.0273437-.7109375.0182293-.1914072.0478514-.3463535.0888672-.4648437s.0957028-.2027993.1640625-.2529297c.0683597-.0501305.1481115-.0751953.2392578-.0751953.1276048 0 .3076161.0751945.5400391.2255859s.5309226.3167309.8955078.4990234c.3645852.1822926.7998022.3486321 1.3056641.4990235s1.091468.2255859 1.7568359.2255859c.4375022 0 .8294254-.0524083 1.1757813-.1572265.3463558-.1048183.6402982-.2529288.8818359-.444336s.4261061-.428384.5537109-.7109375.1914063-.5970035.1914063-.9433594c0-.4010436-.1093739-.7451157-.328125-1.0322265s-.503579-.5423166-.8544922-.765625-.7496723-.4329417-1.1962891-.6289063c-.4466168-.1959645-.9068986-.4033192-1.3808594-.6220703-.4739607-.2187511-.9342425-.467121-1.3808593-.7451172-.4466168-.2779961-.8453759-.6106751-1.1962891-.9980468-.3509132-.3873718-.6357411-.845375-.8544922-1.3740235s-.328125-1.1621057-.328125-1.9003906c0-.8476605.157225-1.5927702.4716797-2.2353516.3144547-.6425813.7382786-1.1757791 1.2714844-1.5996093.5332058-.4238303 1.1621057-.7405589 1.8867187-.9501953.724613-.2096365 1.492509-.3144532 2.303711-.3144532.4192729 0 .8385395.0319007 1.2578125.0957032.4192729.0638024.8111961.15039 1.1757812.2597656.3645852.1093755.6881497.2324212.9707031.3691406.2825535.1367194.4694006.2506506.5605469.3417969s.1526691.1686194.1845703.2324219c.0319012.0638024.0592447.1481114.0820313.2529296.0227866.1048183.0387369.2369784.0478515.3964844.0091147.159506.0136719.3577462.0136719.5947266 0 .2643242-.0068358.4876293-.0205078.6699218-.0136719.1822926-.0364582.3326817-.0683594.4511719s-.0774736.2050779-.1367187.2597657c-.0592451.0546877-.1389969.0820312-.2392578.0820312s-.2597646-.0638014-.4785156-.1914062c-.2187511-.1276049-.4876287-.2666009-.8066407-.4169922-.319012-.1503914-.6881489-.2871088-1.1074219-.4101563-.4192729-.1230475-.8795547-.1845703-1.3808593-.1845703-.3919291 0-.7337225.0478511-1.0253907.1435547-.2916681.0957036-.5354807.2278637-.7314453.3964844-.1959645.1686206-.3417964.371418-.4375.6083984s-.1435547.4876289-.1435547.7519531c0 .3919291.1070953.7314439.3212891 1.0185547s.5013003.5423166.8613281.765625c.3600279.2233084.7679014.4329417 1.2236328.6289063.4557315.1959645.9205706.4033192 1.3945313.6220703s.9387998.467121 1.3945313.7451172c.4557314.2779961.8613263.6106751 1.2167968.9980468.3554706.3873718.6425771.8430964.8613282 1.3671875.218751.5240912.328125 1.141598.328125 1.8525391z" fill="#fff" fill-rule="nonzero"/></g></svg>