<svg height="80" viewBox="0 0 80 80" width="80" xmlns="http://www.w3.org/2000/svg"><g fill="none" fill-rule="evenodd"><g transform="translate(5)"><path d="m45 0v21c0 2.209139 1.790861 4 4 4h21v47c0 4.418278-3.581722 8-8 8h-54c-4.418278 0-8-3.581722-8-8v-64c0-4.418278 3.581722-8 8-8z" fill="#1f7246"/><path d="m45 0 25 25h-21c-2.209139 0-4-1.790861-4-4z" fill="#85be9f"/></g><path d="m32.0019531 57.3203125c0 .2278657-.0068358.4215487-.0205078.5810547-.0136719.159506-.0341795.2962234-.0615234.4101562-.0273439.1139329-.0638019.2119137-.109375.2939454-.0455732.0820316-.1184891.1754552-.21875.2802734s-.2939439.239257-.5810547.4033203-.6380188.3212883-1.0527344.4716797-.8886692.2757156-1.421875.3759766c-.5332058.1002609-1.1096974.1503906-1.7294922.1503906-1.2122456 0-2.3059847-.1868471-3.28125-.5605469s-1.8046841-.9319624-2.4882812-1.6748047c-.6835972-.7428422-1.2076805-1.6702418-1.5722656-2.7822266-.3645852-1.1119847-.546875-2.4062426-.546875-3.8828124 0-1.5039138.2005188-2.8391869.6015624-4.0058594.4010437-1.1666725.961585-2.1464804 1.6816407-2.9394532.7200557-.7929727 1.5836538-1.3945291 2.5908203-1.8046874 1.0071665-.4101584 2.1168559-.6152344 3.3291016-.6152344.4921899 0 .9661435.0410152 1.421875.1230468.4557314.0820317.8772767.189127 1.2646484.3212891s.736001.2848299 1.0458984.4580078c.3098974.173178.5263666.3212885.6494141.444336s.2073565.2255855.2529297.3076171c.0455731.0820317.0820311.1868484.109375.3144532s.0478515.2779939.0615234.4511718c.013672.173178.0205078.3873686.0205078.6425782 0 .2734388-.0091145.5058584-.0273437.6972656-.0182293.1914072-.05013.3463536-.0957031.4648438-.0455732.1184901-.1002601.2050778-.1640626.2597656-.0638024.0546877-.1367183.0820312-.21875.0820312-.1367194 0-.3098947-.0797518-.5195312-.2392578s-.4807926-.3372386-.8134766-.5332031c-.3326839-.1959645-.7291643-.3736971-1.1894531-.5332031-.4602887-.159506-1.0094369-.2392578-1.6474609-.2392578-.7018265 0-1.3284478.1435532-1.8798828.430664-.5514351.2871108-1.0208314.697263-1.4082032 1.2304688-.3873717.5332058-.6813141 1.1780561-.8818359 1.9345703s-.3007813 1.6087192-.3007813 2.5566406c0 1.0390677.1070953 1.9391238.3212891 2.7001953s.5195293 1.3876929.9160156 1.8798828c.3964864.49219.8749972.8590483 1.4355469 1.100586.5605497.2415376 1.1917283.3623046 1.8935547.3623046.638024 0 1.1894508-.0751945 1.6542969-.2255859.464846-.1503914.8636051-.3167308 1.196289-.4990234.332684-.1822926.6061188-.3463535.8203125-.4921875.2141938-.1458341.3805333-.21875.4990235-.21875.0911463 0 .1640622.018229.21875.0546875.0546877.0364585.1002602.1093744.1367187.21875.0364585.1093755.063802.2620433.0820313.4580078.0182292.1959645.0273437.4580062.0273437.7861328zm13.0703125-2.625c0 .9296921-.1731753 1.7454392-.5195312 2.4472656-.3463559.7018265-.8157523 1.2874326-1.4082032 1.756836-.5924508.4694034-1.2851522.8225899-2.078125 1.0595703-.7929727.2369803-1.6406204.3554687-2.5429687.3554687-.6106801 0-1.1780573-.0501297-1.7021484-.1503906-.5240912-.1002609-.9866517-.2210279-1.3876953-.3623047-.4010437-.1412767-.7360013-.2893872-1.0048829-.4443359-.2688815-.1549487-.4625645-.2916661-.5810547-.4101563-.1184901-.1184902-.2027992-.2893869-.2529296-.5126953-.0501305-.2233084-.0751954-.5445942-.0751954-.9638672 0-.2825535.0091145-.5195303.0273438-.7109375s.0478514-.3463535.0888672-.4648437.0957028-.2027993.1640625-.2529297c.0683597-.0501305.1481115-.0751953.2392578-.0751953.1276048 0 .307616.0751945.5400391.2255859.232423.1503914.5309226.3167309.8955078.4990234.3645851.1822926.7998021.3486321 1.305664.4990235s1.0914681.2255859 1.756836.2255859c.4375022 0 .8294253-.0524083 1.1757812-.1572265.3463559-.1048183.6402983-.2529288.881836-.444336.2415376-.1914072.4261061-.428384.5537109-.7109375s.1914063-.5970035.1914063-.9433594c0-.4010436-.109374-.7451157-.328125-1.0322265-.2187511-.2871108-.503579-.5423166-.8544922-.765625-.3509133-.2233084-.7496723-.4329417-1.1962891-.6289063-.4466168-.1959645-.9068987-.4033192-1.3808594-.6220703s-.9342425-.467121-1.3808593-.7451172c-.4466169-.2779961-.8453759-.6106751-1.1962891-.9980468-.3509132-.3873718-.6357411-.845375-.8544922-1.3740235s-.328125-1.1621057-.328125-1.9003906c0-.8476605.157225-1.5927702.4716797-2.2353516.3144547-.6425813.7382786-1.1757791 1.2714844-1.5996093.5332058-.4238303 1.1621057-.7405589 1.8867187-.9501953.724613-.2096365 1.492509-.3144532 2.3037109-.3144532.419273 0 .8385396.0319007 1.2578126.0957032.4192729.0638024.811196.15039 1.1757812.2597656.3645852.1093755.6881496.2324212.9707031.3691406s.4694006.2506506.5605469.3417969.1526691.1686194.1845703.2324219c.0319012.0638024.0592447.1481114.0820313.2529296.0227865.1048183.0387369.2369784.0478515.3964844.0091147.159506.0136719.3577462.0136719.5947266 0 .2643242-.0068359.4876293-.0205078.6699218-.013672.1822926-.0364582.3326817-.0683594.4511719s-.0774736.2050779-.1367187.2597657c-.0592451.0546877-.1389969.0820312-.2392579.0820312-.1002609 0-.2597645-.0638014-.4785156-.1914062-.2187511-.1276049-.4876286-.2666009-.8066406-.4169922-.319012-.1503914-.6881489-.2871088-1.1074219-.4101563-.4192729-.1230475-.8795548-.1845703-1.3808593-.1845703-.3919291 0-.7337225.0478511-1.0253907.1435547-.2916681.0957036-.5354808.2278637-.7314453.3964844-.1959645.1686206-.3417964.371418-.4375.6083984s-.1435547.4876289-.1435547.7519531c0 .3919291.1070953.7314439.3212891 1.0185547s.5013003.5423166.8613281.765625c.3600279.2233084.7679014.4329417 1.2236328.6289063.4557315.1959645.9205706.4033192 1.3945313.6220703s.9387998.467121 1.3945312.7451172c.4557315.2779961.8613264.6106751 1.2167969.9980468.3554705.3873718.642577.8430964.8613281 1.3671875.2187511.5240912.328125 1.141598.328125 1.8525391zm11.265625 4.6757813c-.0455731.1549486-.1048173.2802729-.1777344.3759765-.072917.0957036-.1914054.1686196-.3554687.21875-.1640633.0501305-.3873684.0820312-.6699219.0957031-.2825535.013672-.6516904.0205078-1.1074219.0205078-.3645851 0-.6767565-.0022786-.9365234-.0068359s-.4807933-.0159504-.6630859-.0341797c-.1822926-.0182292-.3304031-.0455727-.444336-.0820312-.1139328-.0364585-.209635-.082031-.2871093-.1367188-.0774744-.0546877-.1367186-.1207678-.1777344-.1982422-.0410158-.0774743-.0797524-.1754551-.116211-.2939453l-5.2636718-15.6816406c-.1093756-.3281266-.1754556-.5878897-.1982422-.7792969s.0227859-.3349604.1367187-.430664c.1139329-.0957036.3076159-.1549478.5810547-.1777344.2734389-.0227866.6562476-.0341797 1.1484375-.0341797.419273 0 .7473947.0091145.984375.0273437.2369804.0182293.4192702.05013.546875.0957032.1276048.0455731.2164711.1139318.2666016.2050781.0501304.0911463.0979815.2050774.1435547.3417969l4.3066406 13.6445312h.0136719l4.2246093-13.5761718c.0364586-.1549487.082031-.280273.1367188-.3759766s.1481113-.1708982.2802734-.225586c.1321622-.0546877.3212879-.0911457.5673828-.109375.246095-.0182292.5833312-.0273437 1.0117188-.0273437.4192729 0 .745116.0136717.9775391.0410156.232423.0273439.3919266.093424.4785156.1982422s.1139324.2529287.0820312.4443359c-.0319012.1914073-.1025385.446613-.211914.765625z" fill="#fff" fill-rule="nonzero"/></g></svg>