<svg height="80" viewBox="0 0 80 80" width="80" xmlns="http://www.w3.org/2000/svg"><g fill="none" fill-rule="evenodd"><g transform="translate(5)"><path d="m45 0v21c0 2.209139 1.790861 4 4 4h21v47c0 4.418278-3.581722 8-8 8h-54c-4.418278 0-8-3.581722-8-8v-64c0-4.418278 3.581722-8 8-8z" fill="#26a69a"/><path d="m45 0 25 25h-21c-2.209139 0-4-1.790861-4-4z" fill="#b2dfdb"/></g><path d="m39.9521484 50.8945312c0 1.622404-.2119119 3.0100854-.6357422 4.163086-.4238302 1.1530005-1.0322225 2.0940719-1.8251953 2.8232422-.7929727.7291703-1.7568302 1.2646467-2.8916015 1.6064453s-2.4859948.5126953-4.053711.5126953h-4.2246093c-.3007828 0-.5537099-.0888663-.7587891-.2666016-.2050792-.1777352-.3076172-.4671204-.3076172-.868164v-15.421875c0-.4010437.102538-.6904288.3076172-.8681641s.4580063-.2666015.7587891-.2666015h4.5390625c1.5768308 0 2.9143825.1845684 4.0126953.5537109s2.0234337.916012 2.7753906 1.640625 1.3238913 1.6201118 1.7158203 2.6865234c.3919291 1.0664116.5878906 2.3014253.5878906 3.7050781zm-3.71875.1230469c0-.8385458-.0979808-1.6178349-.2939453-2.3378906s-.5104145-1.3443984-.9433593-1.8730469c-.4329449-.5286485-.9889289-.9410792-1.6679688-1.2373047-.6790399-.2962254-1.5699815-.4443359-2.6728516-.4443359h-1.8183593v12.03125h1.8730468c.98438 0 1.8137987-.1276029 2.4882813-.3828125.6744825-.2552096 1.2373024-.6402969 1.6884766-1.1552734.4511741-.5149766.7884103-1.1552696 1.0117187-1.9208985.2233084-.7656288.3349609-1.658849.3349609-2.6796875zm19.4824219 3.6777344c0 .6289094-.0865877 1.1985652-.2597656 1.7089844-.173178.5104192-.4124334.9615866-.7177735 1.3535156-.30534.391929-.6699197.7291653-1.09375 1.0117187-.4238302.2825535-.8909479.5149731-1.4013671.6972657-.5104193.1822926-1.0550102.3167313-1.6337891.4033203s-1.2236293.1298828-1.9345703.1298828h-4.703125c-.3007828 0-.5537099-.0888663-.7587891-.2666016-.2050791-.1777352-.3076172-.4671204-.3076172-.868164v-15.421875c0-.4010437.1025381-.6904288.3076172-.8681641.2050792-.1777353.4580063-.2666015.7587891-.2666015h4.4433594c1.0846408 0 2.0029259.0911449 2.7548828.2734374.7519569.1822926 1.3854141.458006 1.9003906.8271485s.9091783.8362602 1.1826172 1.4013672.4101562 1.2304649.4101562 1.9960937c0 .4283876-.0546869.8317039-.1640625 1.209961-.1093755.3782571-.2688791.7223291-.4785156 1.0322265s-.4671209.5833322-.7724609.8203125c-.3053401.2369804-.6539694.4283847-1.0458985.5742188.5013046.0911463.9638651.2506499 1.3876954.4785156.4238302.2278657.7929671.5218081 1.1074218.8818359.3144547.3600279.5628246.7815731.7451172 1.2646485.1822926.4830753.2734375 1.0253876.2734375 1.6269531zm-4.6484375-7.4511719c0-.3554705-.0546869-.6744777-.1640625-.9570312-.1093755-.2825535-.2734364-.5172517-.4921875-.7041016s-.4944645-.3304031-.8271484-.430664c-.332684-.100261-.7770155-.1503907-1.3330078-.1503907h-1.8183594v4.59375h2.0097656c.5195339 0 .9342433-.0615228 1.2441406-.1845703.3098974-.1230475.5673818-.2916656.772461-.5058594.2050791-.2141937.3577469-.4648423.4580078-.7519531s.1503906-.5901677.1503906-.9091797zm.9160156 7.5742188c0-.4101583-.0683587-.7770166-.2050781-1.100586-.1367194-.3235693-.3372382-.5947254-.6015625-.8134765-.2643242-.2187511-.6015604-.3873692-1.0117187-.5058594s-.9433561-.1777344-1.5996094-.1777344h-2.1328125v5.03125h2.5976562c.5013046 0 .9228499-.0524083 1.2646485-.1572265.3417986-.1048183.6380196-.2597646.8886719-.4648438.2506522-.2050791.4466138-.4602849.5878906-.765625.1412767-.3053401.211914-.6539694.211914-1.0458984z" fill="#fff" fill-rule="nonzero"/></g></svg>