<?xml version="1.0" standalone="no"?><!DOCTYPE svg PUBLIC "-//W3C//DTD SVG 1.1//EN" "http://www.w3.org/Graphics/SVG/1.1/DTD/svg11.dtd"><svg t="1747152743656" class="icon" viewBox="0 0 1024 1024" version="1.1" xmlns="http://www.w3.org/2000/svg" p-id="1184" xmlns:xlink="http://www.w3.org/1999/xlink" width="256" height="256"><path d="M96 214.336C96 193.168 112.928 176 133.824 176h288.352a41.6 41.6 0 0 1 38.24 25.552l20.384 48.224h409.376c20.896 0 37.824 17.168 37.824 38.336v450.368c0 21.168-16.928 38.32-37.824 38.32H133.824C112.928 776.8 96 759.648 96 738.48v-524.16z" fill="#FFA000" p-id="1185"></path><path d="M133.824 327.392h756.352q37.824 0 37.824 38.336v459.936Q928 864 890.176 864H133.824Q96 864 96 825.664V365.728q0-38.336 37.824-38.336z" fill="#FFCA28" p-id="1186"></path></svg>