<svg height="80" viewBox="0 0 80 80" width="80" xmlns="http://www.w3.org/2000/svg"><g fill="none" fill-rule="evenodd"><g transform="translate(5)"><path d="m45 0v21c0 2.209139 1.790861 4 4 4h21v47c0 4.418278-3.581722 8-8 8h-54c-4.418278 0-8-3.581722-8-8v-64c0-4.418278 3.581722-8 8-8z" fill="#b0bec5"/><path d="m45 0 25 25h-21c-2.209139 0-4-1.790861-4-4z" fill="#cfd8dc"/></g><path d="m35.9599609 50.8945312c0 1.622404-.2119119 3.0100854-.6357421 4.163086-.4238303 1.1530005-1.0322226 2.0940719-1.8251954 2.8232422-.7929727.7291703-1.7568302 1.2646467-2.8916015 1.6064453s-2.4859948.5126953-4.053711.5126953h-4.2246093c-.3007828 0-.5537099-.0888663-.7587891-.2666016-.2050792-.1777352-.3076172-.4671204-.3076172-.868164v-15.421875c0-.4010437.102538-.6904288.3076172-.8681641s.4580063-.2666015.7587891-.2666015h4.5390625c1.5768308 0 2.9143825.1845684 4.0126953.5537109s2.0234337.916012 2.7753906 1.640625 1.3238913 1.6201118 1.7158203 2.6865234c.3919291 1.0664116.5878906 2.3014253.5878906 3.7050781zm-3.71875.1230469c0-.8385458-.0979808-1.6178349-.2939453-2.3378906s-.5104145-1.3443984-.9433594-1.8730469c-.4329448-.5286485-.9889288-.9410792-1.6679687-1.2373047-.6790399-.2962254-1.5699815-.4443359-2.6728516-.4443359h-1.8183593v12.03125h1.8730468c.98438 0 1.8137987-.1276029 2.4882813-.3828125.6744825-.2552096 1.2373024-.6402969 1.6884765-1.1552734.4511742-.5149766.7884104-1.1552696 1.0117188-1.9208985.2233084-.7656288.3349609-1.658849.3349609-2.6796875zm16.3925782 7.4785157c0 .2734388-.0113932.5035797-.0341797.6904296-.0227866.1868499-.0569659.3417963-.1025391.4648438-.0455731.1230475-.1025387.2119138-.1708984.2666016-.0683597.0546877-.1481115.0820312-.2392578.0820312h-8.1074219c-.3007828 0-.5537099-.0888663-.7587891-.2666016-.2050791-.1777352-.3076172-.4671204-.3076172-.868164v-16.0644532c0-.0911462.0296221-.1731767.0888672-.2460937s.1572259-.1321612.2939453-.1777344c.1367195-.0455731.3212879-.0820311.553711-.109375.232423-.0273439.5218081-.0410156.868164-.0410156.3554706 0 .6471343.0136717.875.0410156.2278658.0273439.4101556.0638019.546875.109375.1367195.0455732.2347003.1048174.2939454.1777344.059245.072917.0888671.1549475.0888671.2460937v14.2324219h5.5644532c.0911463 0 .1708981.0250649.2392578.0751953.0683597.0501305.1253253.1321609.1708984.2460938.0455732.1139328.0797525.264322.1025391.4511719.0227865.1868499.0341797.4169908.0341797.6904297zm11.8398437 0c0 .2734388-.0113931.5035797-.0341797.6904296-.0227865.1868499-.0569659.3417963-.102539.4648438-.0455732.1230475-.1025388.2119138-.1708985.2666016-.0683597.0546877-.1481115.0820312-.2392578.0820312h-8.1074219c-.3007827 0-.5537099-.0888663-.758789-.2666016-.2050792-.1777352-.3076172-.4671204-.3076172-.868164v-16.0644532c0-.0911462.0296221-.1731767.0888672-.2460937s.1572259-.1321612.2939453-.1777344c.1367194-.0455731.3212879-.0820311.5537109-.109375.2324231-.0273439.5218082-.0410156.8681641-.0410156.3554705 0 .6471343.0136717.875.0410156s.4101556.0638019.546875.109375c.1367194.0455732.2347002.1048174.2939453.1777344s.0888672.1549475.0888672.2460937v14.2324219h5.5644531c.0911463 0 .1708981.0250649.2392578.0751953.0683597.0501305.1253253.1321609.1708985.2460938.0455731.1139328.0797525.264322.102539.4511719.0227866.1868499.0341797.4169908.0341797.6904297z" fill="#fff" fill-rule="nonzero"/></g></svg>