<svg height="80" viewBox="0 0 80 80" width="80" xmlns="http://www.w3.org/2000/svg"><g fill="none" fill-rule="evenodd"><g transform="translate(5)"><path d="m45 0v21c0 2.209139 1.790861 4 4 4h21v47c0 4.418278-3.581722 8-8 8h-54c-4.418278 0-8-3.581722-8-8v-64c0-4.418278 3.581722-8 8-8z" fill="#999"/><path d="m45 0 25 25h-21c-2.209139 0-4-1.790861-4-4z" fill="#ccc"/></g><path d="m26.6425781 50.8945312c0 1.622404-.2119119 3.0100854-.6357422 4.163086-.4238302 1.1530005-1.0322226 2.0940719-1.8251953 2.8232422s-1.7568302 1.2646467-2.8916015 1.6064453-2.4859948.5126953-4.053711.5126953h-4.2246093c-.3007828 0-.55371-.0888663-.7587891-.2666016-.2050792-.1777352-.3076172-.4671204-.3076172-.868164v-15.421875c0-.4010437.102538-.6904288.3076172-.8681641.2050791-.1777353.4580063-.2666015.7587891-.2666015h4.5390624c1.5768309 0 2.9143826.1845684 4.0126954.5537109 1.0983127.3691425 2.0234337.916012 2.7753906 1.640625s1.3238913 1.6201118 1.7158203 2.6865234.5878906 2.3014253.5878906 3.7050781zm-3.71875.1230469c0-.8385458-.0979808-1.6178349-.2939453-2.3378906s-.5104145-1.3443984-.9433594-1.8730469c-.4329448-.5286485-.9889289-.9410792-1.6679687-1.2373047-.6790399-.2962254-1.5699815-.4443359-2.6728516-.4443359h-1.8183593v12.03125h1.8730468c.9843799 0 1.8137987-.1276029 2.4882813-.3828125.6744825-.2552096 1.2373024-.6402969 1.6884765-1.1552734.4511742-.5149766.7884104-1.1552696 1.0117188-1.9208985.2233084-.7656288.3349609-1.658849.3349609-2.6796875zm27.2890625 8.4902344c0 .0911463-.0250648.1731767-.0751953.2460937-.0501304.0729171-.1412754.1321613-.2734375.1777344-.1321621.0455732-.3076161.0820311-.5263672.109375s-.4967431.0410156-.8339844.0410156c-.3281266 0-.6015614-.0136717-.8203124-.0410156-.2187511-.0273439-.3919265-.0638018-.5195313-.109375-.1276048-.0455731-.2187497-.1048173-.2734375-.1777344-.0546878-.072917-.0820312-.1549474-.0820312-.2460937v-14.3964844h-.0273438l-5.1269531 14.3828125c-.0364585.1184902-.0957027.216471-.1777344.2939453-.0820317.0774744-.1936842.1389972-.3349609.1845703-.1412768.0455732-.321288.0751953-.5400391.0888672-.2187511.013672-.4830714.0205078-.7929687.0205078-.3098974 0-.5742177-.0113931-.7929688-.0341796-.2187511-.0227866-.3987623-.0592446-.5400391-.109375-.1412767-.0501305-.2529292-.1116533-.3349609-.1845704-.0820317-.072917-.1367186-.1595047-.1640625-.2597656l-4.9492187-14.3828125h-.0273438v14.3964844c0 .0911463-.0250649.1731767-.0751953.2460937-.0501305.0729171-.143554.1321613-.2802735.1777344-.1367194.0455732-.3121734.0820311-.5263671.109375-.2141938.0273439-.4899072.0410156-.8271485.0410156-.3281266 0-.6015614-.0136717-.8203125-.0410156s-.394205-.0638018-.5263672-.109375c-.1321621-.0455731-.223307-.1048173-.2734375-.1777344-.0501304-.072917-.0751953-.1549474-.0751953-.2460937v-15.7636719c0-.464846.1230457-.8203112.3691407-1.0664062.2460949-.246095.5742166-.3691406.984375-.3691406h2.3515624c.419273 0 .7792954.0341793 1.0800782.102539.3007827.0683597.5605458.1822909.7792968.3417969.2187511.159506.401041.3691393.546875.6289062.1458341.259767.273437.5810528.3828126.9638672l3.828125 10.5410157h.0546874l3.9648438-10.5136719c.1184902-.3828144.2483717-.7063789.3896484-.9707031.1412768-.2643243.3053376-.4785149.4921875-.6425782s.4078764-.2802731.663086-.3486328.5514306-.102539.8886719-.102539h2.4199218c.246095 0 .4580069.0319007.6357422.0957031s.3235672.1572259.4375.2802734c.1139329.1230475.2005205.2734366.2597656.4511719s.0888672.3805327.0888672.6083984zm18.046875-14.4511719c0 .2643243-.0113931.4921866-.0341797.6835938-.0227865.1914072-.0546873.3440749-.0957031.4580078-.0410158.1139328-.0911455.1936847-.1503906.2392578s-.1298824.0683594-.2119141.0683594c-.1184902 0-.3098945-.0820305-.5742187-.2460938-.2643243-.1640633-.6152322-.3417959-1.0527344-.5332031s-.9593069-.3691398-1.5654297-.5332031-1.3102173-.2460938-2.1123047-.2460938c-.8567751 0-1.6315069.1481105-2.3242187.444336-.6927118.2962254-1.2851538.715492-1.7773438 1.2578125-.4921899.5423204-.8704414 1.1940066-1.1347656 1.9550781s-.3964844 1.6018834-.3964844 2.5224609c0 1.0117238.1344388 1.9026654.4033203 2.6728516.2688816.7701861.6448544 1.4150365 1.1279297 1.9345703.4830754.5195338 1.0641242.911457 1.7431641 1.1757812.6790398.2643243 1.4287068.3964844 2.2490234.3964844.4010437 0 .7975241-.0455724 1.1894532-.1367187.391929-.0911463.7565087-.2278637 1.09375-.4101563v-4.1015625h-3.3496094c-.1640633 0-.2916662-.102538-.3828125-.3076172-.0911463-.2050791-.1367188-.5537084-.1367188-1.0458984 0-.2552096.0113931-.4694002.0341797-.6425781.0227866-.173178.0569659-.312174.1025391-.4169922.0455731-.1048182.1002601-.1822914.1640625-.2324219.0638024-.0501304.1367183-.0751953.21875-.0751953h5.9746094c.145834 0 .2757155.0250649.3896484.0751953.1139328.0501305.2141923.125325.3007812.2255859.086589.100261.1526691.221028.1982422.3623047.0455732.1412768.0683594.303059.0683594.4853516v7.0410156c0 .2734389-.0478511.5126943-.1435547.7177735-.0957036.2050791-.2916652.3668613-.5878906.4853515-.2962255.1184902-.6630838.2415358-1.1005859.3691407-.4375022.1276048-.8909482.2369787-1.3603516.328125-.4694034.0911462-.943357.1595049-1.421875.2050781-.478518.0455731-.9593075.0683593-1.4423828.0683593-1.4127675 0-2.6774033-.2027974-3.7939453-.6083984-1.1165421-.405601-2.0621706-.9934857-2.8369141-1.7636719-.7747435-.7701861-1.3671854-1.7089788-1.7773438-2.8164062-.4101583-1.1074274-.6152343-2.3629487-.6152343-3.7666016 0-1.449226.2187478-2.7503197.65625-3.9033203.4375022-1.1530005 1.0572876-2.1328085 1.859375-2.9394531.8020873-.8066447 1.7705021-1.4241515 2.9052734-1.8525391 1.1347713-.4283875 2.3994071-.6425781 3.7939453-.6425781.7656289 0 1.4628875.0524083 2.0917969.1572266.6289094.1048182 1.1780575.2324211 1.6474609.3828125.4694034.1503913.859048.3121736 1.1689454.4853515.3098973.173178.5263665.3235671.649414.4511719s.2119138.307616.2666016.5400391c.0546877.232423.0820312.5764951.0820312 1.0322265z" fill="#fff" fill-rule="nonzero"/></g></svg>