<svg height="80" viewBox="0 0 80 80" width="80" xmlns="http://www.w3.org/2000/svg"><g fill="none" fill-rule="evenodd"><g transform="translate(5)"><path d="m45 0v21c0 2.209139 1.790861 4 4 4h21v47c0 4.418278-3.581722 8-8 8h-54c-4.418278 0-8-3.581722-8-8v-64c0-4.418278 3.581722-8 8-8z" fill="#5081be"/><path d="m45 0 25 25h-21c-2.209139 0-4-1.790861-4-4z" fill="#2a579a"/></g><path d="m30.921875 50.8945312c0 1.622404-.2119119 3.0100854-.6357422 4.163086-.4238302 1.1530005-1.0322226 2.0940719-1.8251953 2.8232422s-1.7568303 1.2646467-2.8916016 1.6064453-2.4859947.5126953-4.0537109.5126953h-4.2246094c-.3007827 0-.5537099-.0888663-.758789-.2666016-.2050792-.1777352-.3076172-.4671204-.3076172-.868164v-15.421875c0-.4010437.102538-.6904288.3076172-.8681641.2050791-.1777353.4580063-.2666015.758789-.2666015h4.5390625c1.5768308 0 2.9143826.1845684 4.0126953.5537109 1.0983128.3691425 2.0234338.916012 2.7753907 1.640625.7519568.724613 1.3238912 1.6201118 1.7158203 2.6865234.391929 1.0664116.5878906 2.3014253.5878906 3.7050781zm-3.71875.1230469c0-.8385458-.0979808-1.6178349-.2939453-2.3378906s-.5104145-1.3443984-.9433594-1.8730469-.9889289-.9410792-1.6679687-1.2373047c-.6790399-.2962254-1.5699815-.4443359-2.6728516-.4443359h-1.8183594v12.03125h1.8730469c.9843799 0 1.8137987-.1276029 2.4882813-.3828125.6744825-.2552096 1.2373024-.6402969 1.6884765-1.1552734.4511741-.5149766.7884104-1.1552696 1.0117188-1.9208985.2233084-.7656288.3349609-1.658849.3349609-2.6796875zm22.5859375-.0683593c0 1.4674552-.1822898 2.7799421-.546875 3.9375-.3645852 1.1575578-.9068974 2.1396444-1.6269531 2.946289-.7200557.8066447-1.6109973 1.4218729-2.6728516 1.8457031-1.0618543.4238303-2.2900321.6357422-3.6845703.6357422-1.376309 0-2.5771433-.1800112-3.6025391-.540039-1.0253957-.3600279-1.8798794-.909176-2.5634765-1.647461-.6835972-.7382849-1.1962874-1.6770776-1.538086-2.8164062-.3417985-1.1393286-.5126953-2.4882735-.5126953-4.046875 0-1.4309968.1822899-2.7184188.546875-3.8623047.3645852-1.1438859.9068975-2.116858 1.6269532-2.9189453.7200556-.8020874 1.6109972-1.4173156 2.6728515-1.8457031 1.0618543-.4283876 2.2945893-.6425782 3.6982422-.6425782 1.3398504 0 2.5224558.1777326 3.5478516.5332032 1.0253957.3554705 1.882158.90234 2.5703125 1.640625.6881544.7382849 1.2076805 1.6702417 1.5585937 2.7958984s.5263672 2.4540939.5263672 3.9853516zm-3.7734375.1914062c0-.9296921-.0729159-1.7750613-.21875-2.5361328s-.394204-1.4127577-.7451172-1.9550781c-.3509132-.5423205-.8180309-.9615871-1.4013672-1.2578125-.5833362-.2962255-1.3124956-.444336-2.1875-.444336-.884119 0-1.6223928.1663395-2.2148437.4990235-.5924509.3326839-1.0709617.7770154-1.4355469 1.3330078-.3645852.5559923-.6220696 1.2053999-.7724609 1.9482422-.1503914.7428422-.225586 1.5289672-.225586 2.3583984 0 .9661507.072916 1.834306.21875 2.6044922.1458341.7701861.3919254 1.4287082.7382813 1.9755859.3463559.5468778.811195.9638658 1.3945312 1.2509766.5833363.2871108 1.3170529.430664 2.2011719.430664s1.6223929-.1640608 2.2148437-.4921874c.5924509-.3281267 1.0709618-.7747368 1.4355469-1.3398438.3645852-.565107.6220696-1.2236291.772461-1.9755859.1503913-.7519569.2255859-1.5517536.2255859-2.3994141zm19.03125 6.1796875c0 .2278657-.0068359.4215487-.0205078.5810547-.013672.159506-.0341796.2962234-.0615234.4101562-.0273439.1139329-.0638019.2119137-.109375.2939454-.0455732.0820316-.1184891.1754552-.21875.2802734-.100261.1048182-.2939439.239257-.5810547.4033203s-.6380188.3212883-1.0527344.4716797-.8886692.2757156-1.421875.3759766c-.5332058.1002609-1.1096974.1503906-1.7294922.1503906-1.2122456 0-2.3059847-.1868471-3.28125-.5605469s-1.8046841-.9319624-2.4882813-1.6748047c-.6835971-.7428422-1.2076804-1.6702418-1.5722656-2.7822266-.3645851-1.1119847-.546875-2.4062426-.546875-3.8828124 0-1.5039138.2005189-2.8391869.6015625-4.0058594.4010437-1.1666725.961585-2.1464804 1.6816407-2.9394532.7200556-.7929727 1.5836538-1.3945291 2.5908203-1.8046874 1.0071665-.4101584 2.1168559-.6152344 3.3291015-.6152344.49219 0 .9661436.0410152 1.421875.1230468.4557315.0820317.8772767.189127 1.2646485.3212891.3873717.1321621.736001.2848299 1.0458984.4580078.3098974.173178.5263666.3212885.6494141.444336s.2073565.2255855.2529296.3076171c.0455732.0820317.0820312.1868484.109375.3144532.0273439.1276048.0478515.2779939.0615235.4511718.0136719.173178.0205078.3873686.0205078.6425782 0 .2734388-.0091145.5058584-.0273437.6972656-.0182293.1914072-.05013.3463536-.0957032.4648438-.0455731.1184901-.1002601.2050778-.1640625.2597656-.0638024.0546877-.1367183.0820312-.21875.0820312-.1367194 0-.3098948-.0797518-.5195312-.2392578-.2096365-.159506-.4807926-.3372386-.8134766-.5332031-.3326839-.1959645-.7291644-.3736971-1.1894531-.5332031-.4602888-.159506-1.0094369-.2392578-1.647461-.2392578-.7018264 0-1.3284477.1435532-1.8798828.430664-.551435.2871108-1.0208314.697263-1.4082031 1.2304688s-.6813141 1.1780561-.8818359 1.9345703c-.2005219.7565142-.3007813 1.6087192-.3007813 2.5566406 0 1.0390677.1070953 1.9391238.3212891 2.7001953s.5195293 1.3876929.9160156 1.8798828c.3964864.49219.8749972.8590483 1.4355469 1.100586.5605497.2415376 1.1917282.3623046 1.8935547.3623046.638024 0 1.1894508-.0751945 1.6542968-.2255859.4648461-.1503914.8636052-.3167308 1.1962891-.4990234.332684-.1822926.6061187-.3463535.8203125-.4921875.2141938-.1458341.3805333-.21875.4990234-.21875.0911463 0 .1640623.018229.21875.0546875.0546878.0364585.1002603.1093744.1367188.21875.0364585.1093755.063802.2620433.0820312.4580078.0182293.1959645.0273438.4580062.0273438.7861328z" fill="#fff" fill-rule="nonzero"/></g></svg>