<svg height="80" viewBox="0 0 80 80" width="80" xmlns="http://www.w3.org/2000/svg"><g fill="none" fill-rule="evenodd"><g transform="translate(5)"><path d="m45 0v21c0 2.209139 1.790861 4 4 4h21v47c0 4.418278-3.581722 8-8 8h-54c-4.418278 0-8-3.581722-8-8v-64c0-4.418278 3.581722-8 8-8z" fill="#5081be"/><path d="m45 0 25 25h-21c-2.209139 0-4-1.790861-4-4z" fill="#2a579a"/></g><path d="m25.609375 52.1953125c0 1.390632-.1816388 2.5800732-.5449219 3.5683594-.363283.9882862-.8847622 1.7949187-1.5644531 2.4199219-.6796909.6250031-1.5058545 1.0839829-2.4785156 1.3769531s-2.1308527.4394531-3.4746094.4394531h-3.6210938c-.2578137 0-.4746084-.0761711-.6503906-.2285156-.1757821-.1523445-.2636718-.4003889-.2636718-.7441406v-13.21875c0-.3437518.0878897-.5917962.2636718-.7441407.1757822-.1523445.3925769-.2285156.6503906-.2285156h3.890625c1.3515693 0 2.4980422.1582015 3.4394532.4746094.9414109.3164078 1.7343718.7851531 2.3789062 1.40625.6445345.6210968 1.134764 1.3886673 1.4707032 2.3027343.3359391.9140671.5039062 1.9726503.5039062 3.1757813zm-3.1875.1054687c0-.7187535-.0839835-1.3867156-.2519531-2.0039062s-.4374982-1.1523415-.8085938-1.6054688c-.3710956-.4531272-.8476533-.8066393-1.4296875-1.0605468-.5820341-.2539075-1.3456984-.3808594-2.2910156-.3808594h-1.5585938v10.3125h1.6054688c.8437542 0 1.5546846-.1093739 2.1328125-.328125s1.0605449-.5488259 1.4472656-.9902344c.3867207-.4414084.6757803-.9902311.8671875-1.6464844.1914072-.6562532.2871094-1.4218706.2871094-2.296875zm19.359375-.0585937c0 1.2578188-.1562484 2.3828075-.46875 3.375s-.7773407 1.8339809-1.3945312 2.5253906c-.6171906.6914097-1.3808549 1.2187482-2.2910157 1.5820313-.9101608.363283-1.9628846.5449218-3.1582031.5449218-1.1796934 0-2.20898-.1542953-3.0878906-.4628906-.8789107-.3085953-1.6113252-.7792937-2.1972656-1.4121094-.5859405-.6328156-1.0253892-1.4374951-1.3183594-2.4140624-.2929702-.9765674-.4394532-2.1328059-.4394532-3.46875 0-1.2265687.1562485-2.3300733.46875-3.3105469.3125016-.9804737.7773407-1.8144497 1.3945313-2.5019531.6171906-.6875035 1.3808548-1.214842 2.2910156-1.5820313s1.9667909-.5507813 3.1699219-.5507813c1.1484432 0 2.162105.1523423 3.0410156.4570313.8789107.304689 1.6132783.7734343 2.203125 1.40625s1.0351548 1.4316358 1.3359375 2.3964844c.3007828.9648485.4511719 2.103509.4511719 3.4160156zm-3.234375.1640625c0-.796879-.0624994-1.5214811-.1875-2.1738281s-.3378891-1.2109352-.6386719-1.6757813c-.3007827-.464846-.7011693-.8242175-1.2011719-1.078125-.5000025-.2539075-1.1249962-.3808594-1.875-.3808594-.7578162 0-1.3906224.1425767-1.8984374.4277344-.5078151.2851577-.9179672.6660133-1.2304688 1.1425782-.3125016.4765648-.5332025 1.0331999-.6621094 1.6699218-.1289069.636722-.1933594 1.3105433-.1933594 2.0214844 0 .8281291.0624994 1.5722623.1875 2.2324219.1250007.6601595.3359361 1.224607.6328126 1.6933593.2968764.4687524.6953099.8261707 1.1953124 1.0722657.5000026.246095 1.1289025.3691406 1.8867188.3691406s1.3906225-.1406236 1.8984375-.421875.9179672-.6640601 1.2304687-1.1484375c.3125016-.4843774.5332025-1.0488249.6621094-1.6933594.1289069-.6445344.1933594-1.3300745.1933594-2.0566406zm16.3125 5.296875c0 .1953135-.0058593.3613274-.0175781.4980469-.0117188.1367194-.0292968.2539057-.0527344.3515625-.0234376.0976567-.0546873.1816402-.09375.2519531s-.1015621.1503902-.1875.2402344-.2519519.2050774-.4980469.3457031-.5468732.27539-.9023437.4042969c-.3554706.1289069-.7617165.2363277-1.21875.3222656-.4570336.0859379-.9511692.1289063-1.4824219.1289063-1.0390677 0-1.9765583-.1601547-2.8125-.4804688s-1.5468721-.7988249-2.1328125-1.4355469c-.5859404-.6367219-1.0351547-1.4316358-1.3476563-2.3847656-.3125015-.9531298-.46875-2.0624937-.46875-3.328125 0-1.2890689.1718733-2.4335887.515625-3.4335937.3437518-1.0000051.8242157-1.8398404 1.4414063-2.5195313s1.3574176-1.1953107 2.2207031-1.546875c.8632856-.3515643 1.814448-.5273437 2.8535156-.5273437.4218772 0 .8281231.0351558 1.21875.1054687.390627.0703129.7519515.1621088 1.0839844.2753906s.6308581.2441399.8964844.3925781c.2656263.1484383.4511713.2753901.5566406.3808594s.1777342.193359.2167969.2636719.0703124.1601557.09375.2695313c.0234376.1093755.0410156.2382805.0527344.3867187s.0175781.3320302.0175781.5507813c0 .2343761-.0078124.4335929-.0234375.5976562s-.0429686.2968745-.0820313.3984375c-.0390626.101563-.0859372.175781-.140625.2226563-.0546877.0468752-.1171871.0703124-.1875.0703124-.117188 0-.2656241-.0683586-.4453124-.2050781-.1796884-.1367194-.412108-.2890616-.6972657-.4570312s-.624998-.3203118-1.0195312-.4570313c-.3945332-.1367194-.8652317-.2050781-1.4121094-.2050781-.6015655 0-1.1386695.1230456-1.6113281.3691406s-.8749984.597654-1.2070313 1.0546875c-.3320329.4570336-.5839835 1.0097624-.7558593 1.6582032-.1718759.6484407-.2578126 1.3789021-.2578126 2.1914062 0 .8906295.091796 1.6621061.2753907 2.3144531.1835946.652347.4453108 1.189451.7851562 1.6113281.3398455.4218772.7499976.7363271 1.2304688.9433594.4804711.2070323 1.0214813.3105469 1.6230469.3105469.5468777 0 1.0195292-.0644525 1.4179687-.1933594s.7402329-.2714836 1.0253906-.4277343c.2851577-.1562508.5195304-.2968744.703125-.421875.1835947-.1250007.3261714-.1875.4277344-.1875.0781254 0 .1406248.0156248.1875.046875.0468752.0312501.0859373.0937495.1171875.1875.0312502.0937504.0546874.2246085.0703125.3925781s.0234375.3925767.0234375.6738281zm13.0195312 1.1367188c.1406258.2734388.2324217.4921866.2753907.65625.0429689.1640633.0175786.289062-.0761719.375-.0937505.0859379-.2636706.1406248-.5097656.1640624-.246095.0234377-.5878885.0351563-1.0253906.0351563-.3671894 0-.656249-.0078124-.8671876-.0234375-.2109385-.0156251-.3769525-.0410154-.4980468-.0761719-.1210944-.0351564-.2089841-.083984-.2636719-.1464843-.0546878-.0625004-.1015623-.1406246-.140625-.234375l-2.8476563-5.4726563-2.8359374 5.4726563c-.0468753.0937504-.097656.1718746-.1523438.234375-.0546878.0625003-.1425775.1113279-.2636719.1464843-.1210943.0351565-.2890614.0605468-.5039062.0761719s-.4980451.0234375-.8496094.0234375c-.406252 0-.720702-.0117186-.9433594-.0351563-.2226573-.0234376-.3730465-.0781245-.4511719-.1640624-.0781253-.085938-.0937502-.2109367-.046875-.375.0468753-.1640634.1445306-.3828112.2929688-.65625l3.6328125-6.6210938-3.375-6.2226562c-.1406257-.2812515-.2363279-.5058586-.2871094-.6738282s-.0312504-.2929683.0585938-.375c.0898442-.0820316.2558581-.1328124.4980469-.1523437.2421887-.0195314.5859352-.0292969 1.03125-.0292969.3671893 0 .658202.0078124.8730468.0234375s.384765.0410154.5097656.0761719c.1250007.0351564.2128904.083984.2636719.1464844.0507815.0625003.0996092.1406245.1464844.234375l2.6601563 5.015625 2.5898437-5.015625c.0468752-.0937505.0957029-.1718747.1464844-.234375.0507815-.0625004.1328119-.111328.2460937-.1464844.1132818-.0351565.2695303-.0605468.46875-.0761719.1992198-.0156251.4746076-.0234375.8261719-.0234375.390627 0 .6992176.0097655.9257813.0292969.2265636.0195313.382812.0722652.46875.1582031.0859379.0859379.107422.2109367.0644531.375-.042969.1640633-.1308587.3867173-.2636719.6679688l-3.375 6.1875z" fill="#fff" fill-rule="nonzero"/></g></svg>