<svg height="80" viewBox="0 0 80 80" width="80" xmlns="http://www.w3.org/2000/svg"><g fill="none" fill-rule="evenodd"><g transform="translate(5)"><path d="m45 0v21c0 2.209139 1.790861 4 4 4h21v47c0 4.418278-3.581722 8-8 8h-54c-4.418278 0-8-3.581722-8-8v-64c0-4.418278 3.581722-8 8-8z" fill="#f88702"/><path d="m45 0 25 25h-21c-2.209139 0-4-1.790861-4-4z" fill="#ffbd70"/></g><path d="m31.5166016 58.5917969c0 .2643242-.0113932.4853506-.0341797.6630859-.0227866.1777353-.0569659.3212885-.1025391.4306641-.0455731.1093755-.1025387.1891273-.1708984.2392578-.0683597.0501304-.1435543.0751953-.225586.0751953h-8.8867187c-.3007828 0-.5537099-.0888663-.7587891-.2666016-.2050791-.1777352-.3076172-.4671204-.3076172-.868164v-15.421875c0-.4010437.1025381-.6904288.3076172-.8681641.2050792-.1777353.4580063-.2666015.7587891-.2666015h8.8320312c.0820317 0 .1549476.0227862.21875.0683593.0638024.0455732.1184894.125325.1640625.2392578.0455732.1139329.0797525.2597648.1025391.4375.0227866.1777353.0341797.403319.0341797.6767579 0 .2552096-.0113931.4716787-.0341797.649414s-.0569659.3212885-.1025391.4306641c-.0455731.1093755-.1002601.1891273-.1640625.2392578-.0638024.0501304-.1367183.0751953-.21875.0751953h-6.3164062v4.3203125h5.3457031c.0820317 0 .1572262.0250649.225586.0751953.0683597.0501305.1253252.1276037.1708984.2324219.0455731.1048182.0797525.2460928.102539.4238281.0227866.1777353.0341797.3942045.0341797.6494141 0 .2643242-.0113931.483072-.0341797.65625-.0227865.1731779-.0569659.3121739-.102539.4169922-.0455732.1048182-.1025387.1800128-.1708984.2255859-.0683598.0455731-.1435543.0683594-.225586.0683594h-5.3457031v4.9902344h6.3710937c.0820317 0 .1572263.0250648.225586.0751953.0683597.0501304.1253253.1298822.1708984.2392578.0455732.1093755.0797525.2529288.1025391.430664.0227865.1777353.0341797.3987617.0341797.663086zm15.2851562-10.9101563c0 .9934946-.1549464 1.8730431-.4648437 2.6386719-.3098974.7656288-.7610648 1.4104792-1.3535157 1.9345703-.5924508.5240912-1.3193316.9228502-2.180664 1.1962891-.8613325.2734388-1.8753197.4101562-3.0419922.4101562h-1.4765625v5.6464844c0 .0911463-.0296221.1731767-.0888672.2460937-.0592451.0729171-.1572259.1321613-.2939453.1777344-.1367194.0455732-.3190093.0820311-.546875.109375s-.5195295.0410156-.875.0410156c-.3463559 0-.635741-.0136717-.8681641-.0410156-.232423-.0273439-.4169915-.0638018-.5537109-.109375-.1367194-.0455731-.2324216-.1048173-.2871094-.1777344-.0546878-.072917-.0820312-.1549474-.0820312-.2460937v-15.9140625c0-.4283876.1116525-.7496734.3349609-.9638672s.5172508-.321289.8818359-.321289h4.1699219c.4192729 0 .818032.0159503 1.1962891.0478515s.8317031.1002599 1.3603515.2050781c.5286485.1048183 1.0641249.2985012 1.6064453.5810547.5423205.2825535 1.0048809.6402973 1.3876954 1.0732422.3828144.4329449.6744781.9387992.875 1.5175781.2005218.578779.3007812 1.2281865.3007812 1.9482422zm-3.7597656.2597656c0-.6197947-.1093739-1.1302063-.328125-1.53125-.2187511-.4010436-.4876286-.6972646-.8066406-.8886718s-.6539696-.3121743-1.0048828-.3623047c-.3509133-.0501305-.7132143-.0751953-1.0869141-.0751953h-1.53125v6.0019531h1.6132812c.5742217 0 1.0550111-.0774732 1.4423829-.2324219.3873717-.1549487.7041003-.3714179.9501953-.649414.2460949-.2779962.432942-.6106752.5605468-.9980469s.1914063-.808917.1914063-1.2646485zm17.0351562 6.7539063c0 .9296921-.1731753 1.7454392-.5195312 2.4472656-.3463559.7018265-.8157523 1.2874326-1.4082031 1.756836-.5924509.4694034-1.2851523.8225899-2.078125 1.0595703-.7929728.2369803-1.6406205.3554687-2.5429688.3554687-.6106801 0-1.1780573-.0501297-1.7021484-.1503906-.5240912-.1002609-.9866517-.2210279-1.3876953-.3623047-.4010437-.1412767-.7360013-.2893872-1.0048828-.4443359-.2688816-.1549487-.4625646-.2916661-.5810547-.4101563-.1184902-.1184902-.2027993-.2893869-.2529297-.5126953-.0501305-.2233084-.0751953-.5445942-.0751953-.9638672 0-.2825535.0091145-.5195303.0273437-.7109375.0182293-.1914072.0478514-.3463535.0888672-.4648437s.0957028-.2027993.1640625-.2529297c.0683597-.0501305.1481115-.0751953.2392578-.0751953.1276048 0 .307616.0751945.5400391.2255859.232423.1503914.5309226.3167309.8955078.4990234.3645851.1822926.7998021.3486321 1.305664.4990235.505862.1503914 1.0914681.2255859 1.756836.2255859.4375022 0 .8294253-.0524083 1.1757812-.1572265.3463559-.1048183.6402983-.2529288.881836-.444336.2415376-.1914072.4261061-.428384.5537109-.7109375s.1914063-.5970035.1914063-.9433594c0-.4010436-.1093739-.7451157-.328125-1.0322265s-.503579-.5423166-.8544922-.765625-.7496723-.4329417-1.1962891-.6289063c-.4466168-.1959645-.9068987-.4033192-1.3808594-.6220703s-.9342425-.467121-1.3808593-.7451172c-.4466169-.2779961-.8453759-.6106751-1.1962891-.9980468-.3509132-.3873718-.6357411-.845375-.8544922-1.3740235s-.328125-1.1621057-.328125-1.9003906c0-.8476605.157225-1.5927702.4716797-2.2353516.3144547-.6425813.7382786-1.1757791 1.2714844-1.5996093.5332058-.4238303 1.1621057-.7405589 1.8867187-.9501953.724613-.2096365 1.492509-.3144532 2.303711-.3144532.4192729 0 .8385395.0319007 1.2578125.0957032.4192729.0638024.8111961.15039 1.1757812.2597656.3645852.1093755.6881496.2324212.9707031.3691406s.4694006.2506506.5605469.3417969.1526691.1686194.1845703.2324219c.0319012.0638024.0592447.1481114.0820313.2529296.0227865.1048183.0387369.2369784.0478515.3964844.0091147.159506.0136719.3577462.0136719.5947266 0 .2643242-.0068359.4876293-.0205078.6699218-.0136719.1822926-.0364582.3326817-.0683594.4511719s-.0774736.2050779-.1367187.2597657c-.0592451.0546877-.1389969.0820312-.2392578.0820312-.100261 0-.2597646-.0638014-.4785157-.1914062-.2187511-.1276049-.4876286-.2666009-.8066406-.4169922-.319012-.1503914-.6881489-.2871088-1.1074219-.4101563-.4192729-.1230475-.8795547-.1845703-1.3808593-.1845703-.3919291 0-.7337225.0478511-1.0253907.1435547-.2916681.0957036-.5354808.2278637-.7314453.3964844-.1959645.1686206-.3417964.371418-.4375.6083984s-.1435547.4876289-.1435547.7519531c0 .3919291.1070953.7314439.3212891 1.0185547s.5013003.5423166.8613281.765625c.3600279.2233084.7679014.4329417 1.2236328.6289063.4557315.1959645.9205706.4033192 1.3945313.6220703s.9387998.467121 1.3945312.7451172c.4557315.2779961.8613264.6106751 1.2167969.9980468.3554705.3873718.642577.8430964.8613281 1.3671875.2187511.5240912.328125 1.141598.328125 1.8525391z" fill="#fff" fill-rule="nonzero"/></g></svg>