<svg height="80" viewBox="0 0 80 80" width="80" xmlns="http://www.w3.org/2000/svg"><g fill="none" fill-rule="evenodd"><g transform="translate(5)"><path d="m45 0v21c0 2.209139 1.790861 4 4 4h21v47c0 4.418278-3.581722 8-8 8h-54c-4.418278 0-8-3.581722-8-8v-64c0-4.418278 3.581722-8 8-8z" fill="#0266b8"/><path d="m45 0 25 25h-21c-2.209139 0-4-1.790861-4-4z" fill="#02aef0"/></g><path d="m31.0449219 58.5917969c0 .2643242-.0113931.4853506-.0341797.6630859s-.0569659.3212885-.1025391.4306641c-.0455731.1093755-.1025387.1891273-.1708984.2392578-.0683597.0501304-.1435543.0751953-.2255859.0751953h-8.8867188c-.3007828 0-.5537099-.0888663-.7587891-.2666016-.2050791-.1777352-.3076171-.4671204-.3076171-.868164v-15.421875c0-.4010437.102538-.6904288.3076171-.8681641.2050792-.1777353.4580063-.2666015.7587891-.2666015h8.8320312c.0820317 0 .1549476.0227862.21875.0683593.0638025.0455732.1184894.125325.1640626.2392578.0455731.1139329.0797524.2597648.102539.4375.0227866.1777353.0341797.403319.0341797.6767579 0 .2552096-.0113931.4716787-.0341797.649414s-.0569659.3212885-.102539.4306641c-.0455732.1093755-.1002601.1891273-.1640626.2392578-.0638024.0501304-.1367183.0751953-.21875.0751953h-6.3164062v4.3203125h5.3457031c.0820317 0 .1572262.0250649.225586.0751953.0683597.0501305.1253253.1276037.1708984.2324219s.0797525.2460928.1025391.4238281c.0227865.1777353.0341796.3942045.0341796.6494141 0 .2643242-.0113931.483072-.0341796.65625-.0227866.1731779-.056966.3121739-.1025391.4169922-.0455731.1048182-.1025387.1800128-.1708984.2255859-.0683598.0455731-.1435543.0683594-.225586.0683594h-5.3457031v4.9902344h6.3710938c.0820316 0 .1572262.0250648.2255859.0751953.0683597.0501304.1253253.1298822.1708984.2392578.0455732.1093755.0797525.2529288.1025391.430664.0227866.1777353.0341797.3987617.0341797.663086zm15.7773437.0546875c.1640633.319012.2711586.5742178.3212891.765625.0501304.1914072.0205083.3372391-.0888672.4375s-.3076158.1640623-.5947266.1914062-.6858698.0410156-1.196289.0410156c-.4283876 0-.7656238-.0091144-1.0117188-.0273437s-.4397779-.0478514-.5810547-.0888672c-.1412767-.0410158-.2438147-.0979814-.3076172-.1708984-.0638024-.0729171-.1184893-.164062-.1640624-.2734375l-3.3222657-6.3847656-3.3085937 6.3847656c-.0546878.1093755-.113932.2005204-.1777344.2734375-.0638024.072917-.1663404.1298826-.3076172.1708984-.1412767.0410158-.3372383.0706379-.5878906.0888672s-.5810526.0273437-.991211.0273437c-.4739607 0-.840819-.0136717-1.1005859-.0410156s-.4352209-.0911453-.5263672-.1914062-.1093752-.2460928-.0546875-.4375c.0546878-.1914072.168619-.446613.3417969-.765625l4.2382813-7.7246094-3.9375-7.2597656c-.1640634-.3281267-.2757159-.5901683-.334961-.7861328-.0592451-.1959646-.0364588-.3417964.0683594-.4375s.2985012-.1549478.5810547-.1777344.6835911-.0341797 1.203125-.0341797c.4283875 0 .7679024.0091145 1.0185547.0273437.2506523.0182293.4488925.0478514.5947265.0888672.1458341.0410159.2483721.0979814.3076172.1708985.0592451.072917.1162107.1640619.1708985.2734375l3.1035156 5.8515625 3.0214844-5.8515625c.0546877-.1093756.1116533-.2005205.1708984-.2734375.0592451-.0729171.1549472-.1298826.2871094-.1708985.1321621-.0410158.3144519-.0706379.546875-.0888672.232423-.0182292.5537088-.0273437.9638672-.0273437.4557314 0 .8157538.0113931 1.0800781.0341797.2643242.0227866.4466141.0843094.546875.1845703s.1253257.2460928.0751953.4375c-.0501305.1914072-.1526685.4511702-.3076172.7792969l-3.9375 7.21875zm13.3027344-.0546875c0 .2643242-.0113931.4853506-.0341797.6630859s-.0569659.3212885-.1025391.4306641c-.0455731.1093755-.1025387.1891273-.1708984.2392578-.0683597.0501304-.1435543.0751953-.2255859.0751953h-8.8867188c-.3007827 0-.5537099-.0888663-.758789-.2666016-.2050792-.1777352-.3076172-.4671204-.3076172-.868164v-15.421875c0-.4010437.102538-.6904288.3076172-.8681641.2050791-.1777353.4580063-.2666015.758789-.2666015h8.8320313c.0820316 0 .1549476.0227862.21875.0683593.0638024.0455732.1184893.125325.1640625.2392578.0455731.1139329.0797525.2597648.102539.4375.0227866.1777353.0341797.403319.0341797.6767579 0 .2552096-.0113931.4716787-.0341797.649414-.0227865.1777353-.0569659.3212885-.102539.4306641-.0455732.1093755-.1002601.1891273-.1640625.2392578-.0638024.0501304-.1367184.0751953-.21875.0751953h-6.3164063v4.3203125h5.3457031c.0820317 0 .1572263.0250649.225586.0751953.0683597.0501305.1253253.1276037.1708984.2324219.0455732.1048182.0797525.2460928.1025391.4238281s.0341797.3942045.0341797.6494141c0 .2643242-.0113931.483072-.0341797.65625-.0227866.1731779-.0569659.3121739-.1025391.4169922-.0455731.1048182-.1025387.1800128-.1708984.2255859s-.1435543.0683594-.225586.0683594h-5.3457031v4.9902344h6.3710938c.0820316 0 .1572262.0250648.2255859.0751953.0683597.0501304.1253253.1298822.1708984.2392578.0455732.1093755.0797525.2529288.1025391.430664.0227866.1777353.0341797.3987617.0341797.663086z" fill="#fff" fill-rule="nonzero"/></g></svg>