<svg height="80" viewBox="0 0 80 80" width="80" xmlns="http://www.w3.org/2000/svg"><g fill="none" fill-rule="evenodd"><g transform="translate(5)"><path d="m45 0v21c0 2.209139 1.790861 4 4 4h21v47c0 4.418278-3.581722 8-8 8h-54c-4.418278 0-8-3.581722-8-8v-64c0-4.418278 3.581722-8 8-8z" fill="#9575cd"/><path d="m45 0 25 25h-21c-2.209139 0-4-1.790861-4-4z" fill="#d1c4e9"/></g><path d="m32.3232422 43.7851562c0 .2734389-.0113931.5035798-.0341797.6904297s-.0592445.3349604-.109375.444336c-.0501305.1093755-.107096.191406-.1708984.2460937-.0638024.0546878-.1367184.0820313-.21875.0820313h-5.7832032v4.7578125h5.4277344c.0820317 0 .1549476.0227862.21875.0683594.0638024.0455731.120768.1230463.1708985.2324218.0501304.1093756.0865884.2552074.109375.4375.0227865.1822926.0341796.4101549.0341796.6835938 0 .2734388-.0113931.5013011-.0341796.6835937-.0227866.1822926-.0592446.3326817-.109375.4511719-.0501305.1184902-.1070961.2027992-.1708985.2529297-.0638024.0501304-.1367183.0751953-.21875.0751953h-5.4277344v6.5898438c0 .1002609-.0273434.1868485-.0820312.2597656-.0546878.072917-.1526686.1344398-.2939453.1845703-.1412768.0501304-.3258452.088867-.553711.1162109-.2278657.0273439-.5195294.0410156-.875.0410156-.3463559 0-.635741-.0136717-.868164-.0410156-.2324231-.0273439-.4169915-.0660805-.553711-.1162109-.1367194-.0501305-.2347002-.1116533-.2939453-.1845703-.0592451-.0729171-.0888672-.1595047-.0888672-.2597656v-16.0371094c0-.4010437.1025381-.6904288.3076172-.8681641.2050792-.1777353.4580063-.2666015.7587891-.2666015h8.3261719c.0820316 0 .1549476.0250648.21875.0751953.0638024.0501304.1207679.1321609.1708984.2460937.0501305.1139329.0865884.2666006.109375.4580078s.0341797.4238268.0341797.6972656zm12.6464844 14.7109376c0 .2734388-.0113932.5035797-.0341797.6904296-.0227866.1868499-.0569659.3417963-.1025391.4648438-.0455731.1230475-.1025387.2119138-.1708984.2666016-.0683597.0546877-.1481115.0820312-.2392578.0820312h-8.1074219c-.3007828 0-.5537099-.0888663-.7587891-.2666016-.2050791-.1777352-.3076172-.4671204-.3076172-.868164v-16.0644532c0-.0911462.0296221-.1731767.0888672-.2460937s.1572259-.1321612.2939453-.1777344c.1367195-.0455731.3212879-.0820311.553711-.109375.232423-.0273439.5218081-.0410156.868164-.0410156.3554706 0 .6471343.0136717.875.0410156.2278658.0273439.4101556.0638019.546875.109375.1367195.0455732.2347003.1048174.2939453.1777344.0592451.072917.0888672.1549475.0888672.2460937v14.2324219h5.5644532c.0911463 0 .1708981.0250649.2392578.0751953.0683597.0501305.1253253.1321609.1708984.2460938.0455732.1139328.0797525.264322.1025391.4511719.0227865.1868499.0341797.4169908.0341797.6904297zm8.7363281.875c-.0455732.1549486-.1048174.2802729-.1777344.3759765s-.1914054.1686196-.3554687.21875c-.1640634.0501305-.3873684.0820312-.6699219.0957031-.2825535.013672-.6516904.0205078-1.1074219.0205078-.3645851 0-.6767565-.0022786-.9365234-.0068359s-.4807934-.0159504-.663086-.0341797c-.1822925-.0182292-.330403-.0455727-.4443359-.0820312s-.209635-.082031-.2871094-.1367188c-.0774743-.0546877-.1367185-.1207678-.1777344-.1982422-.0410158-.0774743-.0797524-.1754551-.1162109-.2939453l-5.2636719-15.6816406c-.1093755-.3281266-.1754556-.5878897-.1982422-.7792969-.0227865-.1914072.0227859-.3349604.1367188-.430664s.3076158-.1549478.5810547-.1777344.6562475-.0341797 1.1484375-.0341797c.4192729 0 .7473946.0091145.984375.0273437.2369803.0182293.4192702.05013.546875.0957032.1276048.0455731.2164711.1139318.2666015.2050781.0501305.0911463.0979816.2050774.1435547.3417969l4.3066407 13.6445312h.0136718l4.2246094-13.5761718c.0364585-.1549487.082031-.280273.1367188-.3759766.0546877-.0957036.1481113-.1708982.2802734-.225586.1321621-.0546877.3212878-.0911457.5673828-.109375.246095-.0182292.5833312-.0273437 1.0117188-.0273437.4192729 0 .745116.0136717.977539.0410156.2324231.0273439.3919267.093424.4785156.1982422.086589.1048182.1139325.2529287.0820313.4443359-.0319012.1914073-.1025385.446613-.2119141.765625z" fill="#fff" fill-rule="nonzero"/></g></svg>