<svg width="1230" height="1025" xmlns="http://www.w3.org/2000/svg" class="icon">
  <g>
    <title>background</title>
    <rect x="-1" y="-1" width="1232" height="1027" id="canvas_background" fill="none" />
  </g>

  <defs>
    <linearGradient id="diagonalGradient" x1="0%" y1="0%" x2="100%" y2="100%">
      <stop offset="0%" stop-color="#2d5cf6" />
      <stop offset="100%" stop-color="#6183f4" />
    </linearGradient>
  </defs>

  <g>
    <title>Layer 1</title>
    <path
      d="m1195.565639,845.564653l-1163.75679,0l0,-696.63131l1076.98836,0c23.01682,0 45.0401,9.10738 61.26779,25.33506s25.33506,38.25097 25.33506,61.26779l0,610.02846l0.16558,0zm-436.49159,-696.63131c0,-80.31048 -65.24191,-145.55239 -145.55239,-145.55239l-472.92109,0c-60.10867,0 -108.95731,48.84864 -108.95731,108.95731l0,36.59508l727.43079,0"
      fill="#154cff" class="selected" id="svg_1" />
    <path d="m174.980296,215.168793l872.81759,0l0,436.49159l-872.81759,0l0,-436.49159z" fill="#FFFFFF" id="svg_2" />
    <path
      d="m1195.184686,937.631923l0,-564.82277c0,-19.20828 -7.61707,-37.7542 -21.36093,-51.33247c-13.57826,-13.57826 -32.12419,-21.36093 -51.33247,-21.36093l-1018.2044,0c-19.20828,0 -37.7542,7.61708 -51.33247,21.36093c-13.57826,13.57827 -21.36093,32.12419 -21.36093,51.33247l0,564.82277c0,23.84476 9.43855,46.5304 26.32859,63.42044c16.89004,16.89004 39.57568,26.32859 63.42044,26.32859l984.25873,0c23.84476,0 46.5304,-9.43855 63.42044,-26.32859c16.72445,-16.89004 26.163,-39.57568 26.163,-63.42044zm0,0"
      fill="url(#diagonalGradient)" id="svg_3" />
  </g>
</svg>