<svg height="80" viewBox="0 0 80 80" width="80" xmlns="http://www.w3.org/2000/svg"><g fill="none" fill-rule="evenodd"><g transform="translate(5)"><path d="m45 0v21c0 2.209139 1.790861 4 4 4h21v47c0 4.418278-3.581722 8-8 8h-54c-4.418278 0-8-3.581722-8-8v-64c0-4.418278 3.581722-8 8-8z" fill="#4fc3f7"/><path d="m45 0 25 25h-21c-2.209139 0-4-1.790861-4-4z" fill="#b3e5fc"/></g><path d="m37.0400391 45.0566406c0 .2643243-.0113932.4921866-.0341797.6835938-.0227866.1914072-.0546873.3440749-.0957032.4580078-.0410158.1139328-.0911455.1936847-.1503906.2392578s-.1298824.0683594-.211914.0683594c-.1184902 0-.3098945-.0820305-.5742188-.2460938-.2643242-.1640633-.6152322-.3417959-1.0527344-.5332031s-.9593068-.3691398-1.5654296-.5332031c-.6061229-.1640633-1.3102174-.2460938-2.1123047-.2460938-.8567752 0-1.631507.1481105-2.3242188.444336-.6927118.2962254-1.2851538.715492-1.7773437 1.2578125-.49219.5423204-.8704414 1.1940066-1.1347657 1.9550781-.2643242.7610715-.3964843 1.6018834-.3964843 2.5224609 0 1.0117238.1344387 1.9026654.4033203 2.6728516.2688815.7701861.6448543 1.4150365 1.1279297 1.9345703.4830753.5195338 1.0641242.911457 1.743164 1.1757812.6790399.2643243 1.4287069.3964844 2.2490235.3964844.4010436 0 .797524-.0455724 1.1894531-.1367187.391929-.0911463.7565087-.2278637 1.09375-.4101563v-4.1015625h-3.3496094c-.1640633 0-.2916662-.102538-.3828125-.3076172-.0911463-.2050791-.1367187-.5537084-.1367187-1.0458984 0-.2552096.0113931-.4694002.0341796-.6425781.0227866-.173178.056966-.312174.1025391-.4169922.0455732-.1048182.1002601-.1822914.1640625-.2324219.0638024-.0501304.1367184-.0751953.21875-.0751953h5.9746094c.1458341 0 .2757156.0250649.3896484.0751953.1139329.0501305.2141923.125325.3007813.2255859.0865889.100261.152669.221028.1982422.3623047.0455731.1412768.0683593.303059.0683593.4853516v7.0410156c0 .2734389-.047851.5126943-.1435546.7177735-.0957037.2050791-.2916652.3668613-.5878907.4853515-.2962254.1184902-.6630837.2415358-1.1005859.3691407-.4375022.1276048-.8909482.2369787-1.3603516.328125-.4694034.0911462-.943357.1595049-1.421875.2050781-.478518.0455731-.9593075.0683593-1.4423828.0683593-1.4127675 0-2.6774033-.2027974-3.7939453-.6083984s-2.0621706-.9934857-2.8369141-1.7636719c-.7747434-.7701861-1.3671854-1.7089788-1.7773437-2.8164062s-.6152344-2.3629487-.6152344-3.7666016c0-1.449226.2187478-2.7503197.65625-3.9033203.4375022-1.1530005 1.0572877-2.1328085 1.859375-2.9394531.8020874-.8066447 1.7705022-1.4241515 2.9052735-1.8525391 1.1347712-.4283875 2.399407-.6425781 3.7939453-.6425781.7656288 0 1.4628874.0524083 2.0917968.1572266.6289094.1048182 1.1780576.2324211 1.647461.3828125.4694034.1503913.8590479.3121736 1.1689453.4853515.3098974.173178.5263666.3235671.649414.4511719.1230475.1276048.2119138.307616.2666016.5400391.0546878.232423.0820313.5764951.0820313 1.0322265zm7.2597656 14.4511719c0 .0911463-.0296221.1731767-.0888672.2460937-.0592451.0729171-.1572259.1321613-.2939453.1777344-.1367194.0455732-.3190093.0820311-.546875.109375s-.5195295.0410156-.875.0410156c-.3463559 0-.635741-.0136717-.8681641-.0410156-.232423-.0273439-.4169915-.0638018-.5537109-.109375-.1367194-.0455731-.2347002-.1048173-.2939453-.1777344-.0592451-.072917-.0888672-.1549474-.0888672-.2460937v-16.7070313c0-.0911462.0296221-.1731767.0888672-.2460937s.1595045-.1321612.3007812-.1777344c.1412768-.0455731.3258452-.0820311.553711-.109375.2278657-.0273439.5149722-.0410156.8613281-.0410156.3554705 0 .6471343.0136717.875.0410156s.4101556.0638019.546875.109375c.1367194.0455732.2347002.1048174.2939453.1777344s.0888672.1549475.0888672.2460937zm13.78125-15.7226563c0 .2734389-.0113931.5035798-.0341797.6904297s-.0592445.3349604-.109375.444336c-.0501305.1093755-.107096.191406-.1708984.2460937-.0638024.0546878-.1367184.0820313-.21875.0820313h-5.7832032v4.7578125h5.4277344c.0820317 0 .1549476.0227862.21875.0683594.0638024.0455731.120768.1230463.1708984.2324218.0501305.1093756.0865885.2552074.109375.4375.0227866.1822926.0341797.4101549.0341797.6835938 0 .2734388-.0113931.5013011-.0341797.6835937-.0227865.1822926-.0592445.3326817-.109375.4511719-.0501304.1184902-.107096.2027992-.1708984.2529297-.0638024.0501304-.1367183.0751953-.21875.0751953h-5.4277344v6.5898438c0 .1002609-.0273434.1868485-.0820312.2597656-.0546878.072917-.1526686.1344398-.2939453.1845703-.1412768.0501304-.3258452.088867-.553711.1162109-.2278657.0273439-.5195294.0410156-.875.0410156-.3463559 0-.635741-.0136717-.868164-.0410156-.2324231-.0273439-.4169915-.0660805-.553711-.1162109-.1367194-.0501305-.2347002-.1116533-.2939453-.1845703-.0592451-.0729171-.0888672-.1595047-.0888672-.2597656v-16.0371094c0-.4010437.1025381-.6904288.3076172-.8681641.2050792-.1777353.4580063-.2666015.7587891-.2666015h8.3261719c.0820316 0 .1549476.0250648.21875.0751953.0638024.0501304.1207679.1321609.1708984.2460937.0501305.1139329.0865884.2666006.109375.4580078s.0341797.4238268.0341797.6972656z" fill="#fff" fill-rule="nonzero"/></g></svg>