<svg height="80" viewBox="0 0 80 80" width="80" xmlns="http://www.w3.org/2000/svg"><g fill="none" fill-rule="evenodd"><g transform="translate(5)"><path d="m45 0v21c0 2.209139 1.790861 4 4 4h21v47c0 4.418278-3.581722 8-8 8h-54c-4.418278 0-8-3.581722-8-8v-64c0-4.418278 3.581722-8 8-8z" fill="#64b5f6"/><path d="m45 0 25 25h-21c-2.209139 0-4-1.790861-4-4z" fill="#bbdefb"/></g><path d="m24.4140625 59.578125c0 .0781254-.0253904.1484372-.0761719.2109375s-.134765.1132811-.2519531.1523437c-.1171881.0390627-.2734365.0703124-.46875.09375-.1953135.0234377-.4414048.0351563-.7382813.0351563-.304689 0-.5566396-.0117186-.7558593-.0351563-.1992198-.0234376-.3554682-.0546873-.46875-.09375-.1132818-.0390626-.1953123-.0898434-.2460938-.1523437s-.0761719-.1328121-.0761719-.2109375v-6.1289062h-5.671875v6.1289062c0 .0781254-.0234372.1484372-.0703124.2109375-.0468753.0625003-.1289057.1132811-.2460938.1523437-.1171881.0390627-.2734365.0703124-.46875.09375-.1953135.0234377-.445311.0351563-.75.0351563-.2968765 0-.5449209-.0117186-.7441406-.0351563-.1992198-.0234376-.3574213-.0546873-.4746094-.09375-.1171881-.0390626-.2011716-.0898434-.2519531-.1523437s-.0761719-.1328121-.0761719-.2109375v-14.3203125c0-.0781254.0253904-.1484372.0761719-.2109375s.134765-.1132811.2519531-.1523438c.1171881-.0390626.2753896-.0703123.4746094-.09375.1992197-.0234376.4472641-.0351562.7441406-.0351562.304689 0 .5546865.0117186.75.0351562.1953135.0234377.3515619.0546874.46875.09375.1171881.0390627.1992185.0898435.2460938.1523438.0468752.0625003.0703124.1328121.0703124.2109375v5.5664063h5.671875v-5.5664063c0-.0781254.0253904-.1484372.0761719-.2109375s.132812-.1132811.2460938-.1523438c.1132818-.0390626.2695302-.0703123.46875-.09375.1992197-.0234376.4511703-.0351562.7558593-.0351562.2968765 0 .5429678.0117186.7382813.0351562.1953135.0234377.3515619.0546874.46875.09375.1171881.0390627.2011716.0898435.2519531.1523438s.0761719.1328121.0761719.2109375zm13.3945313-13.4765625c0 .2265636-.0097656.4199211-.0292969.5800781-.0195314.1601571-.048828.289062-.0878907.3867188-.0390626.0976567-.0878903.1699216-.1464843.2167968-.0585941.0468753-.1230465.0703126-.1933594.0703126h-3.796875v12.2226562c0 .0781254-.0253904.1484372-.0761719.2109375s-.134765.1132811-.2519531.1523437c-.1171881.0390627-.2753896.0703124-.4746094.09375-.1992197.0234377-.4472641.0351563-.7441406.0351563s-.5449209-.0117186-.7441406-.0351563c-.1992198-.0234376-.3574213-.0546873-.4746094-.09375-.1171881-.0390626-.2011716-.0898434-.2519531-.1523437s-.0761719-.1328121-.0761719-.2109375v-12.2226562h-3.796875c-.0781254 0-.144531-.0234373-.1992187-.0703126-.0546878-.0468752-.1015624-.1191401-.140625-.2167968-.0390627-.0976568-.0683593-.2265617-.0878907-.3867188-.0195313-.160157-.0292969-.3535145-.0292969-.5800781 0-.2343762.0097656-.4335929.0292969-.5976563.0195314-.1640633.048828-.2949213.0878907-.3925781.0390626-.0976567.0859372-.1679685.140625-.2109375.0546877-.0429689.1210933-.0644531.1992187-.0644531h10.6875c.0703129 0 .1347653.0214842.1933594.0644531.058594.042969.1074217.1132808.1464843.2109375.0390627.0976568.0683593.2285148.0878907.3925781.0195313.1640634.0292969.3632801.0292969.5976563zm19.4648437 13.4765625c0 .0781254-.0214842.1484372-.0644531.2109375-.042969.0625003-.1210932.1132811-.234375.1523437-.1132818.0390627-.263671.0703124-.4511719.09375-.1875009.0234377-.4257798.0351563-.7148437.0351563-.2812515 0-.5156241-.0117186-.703125-.0351563-.187501-.0234376-.335937-.0546873-.4453126-.09375-.1093755-.0390626-.1874997-.0898434-.234375-.1523437-.0468752-.0625003-.0703124-.1328121-.0703124-.2109375v-12.3398438h-.0234376l-4.3945312 12.328125c-.0312502.1015631-.0820309.1855466-.1523438.2519532-.0703128.0664066-.166015.1191404-.2871093.1582031-.1210944.0390627-.2753897.0644531-.4628907.0761719-.1875009.0117188-.4140611.0175781-.6796874.0175781-.2656264 0-.4921866-.0097655-.6796876-.0292969-.1875009-.0195313-.3417962-.050781-.4628906-.09375-.1210943-.0429689-.2167965-.0957028-.2871094-.1582031-.0703128-.0625003-.1171873-.1367183-.140625-.2226563l-4.2421874-12.328125h-.0234376v12.3398438c0 .0781254-.0214841.1484372-.0644531.2109375-.0429689.0625003-.1230463.1132811-.2402343.1523437-.1171881.0390627-.2675773.0703124-.4511719.09375-.1835947.0234377-.4199205.0351563-.7089844.0351563-.2812514 0-.5156241-.0117186-.703125-.0351563-.1875009-.0234376-.3378901-.0546873-.4511719-.09375-.1132818-.0390626-.191406-.0898434-.234375-.1523437-.0429689-.0625003-.0644531-.1328121-.0644531-.2109375v-13.5117188c0-.3984394.1054677-.7031239.3164063-.9140624.2109385-.2109386.4921857-.3164063.84375-.3164063h2.015625c.3593767 0 .6679674.0292966.9257812.0878906.2578138.0585941.4804678.1562493.6679688.2929688.1875009.1367194.3437493.3164051.46875.5390625.1250006.2226573.2343745.4980452.328125.8261718l3.28125 9.0351563h.046875l3.3984374-9.0117187c.1015631-.3281267.2128901-.6054677.3339844-.8320313.1210944-.2265636.261718-.4101555.421875-.5507813.1601571-.1406257.3496083-.240234.5683594-.2988281.2187511-.058594.4726548-.0878906.7617188-.0878906h2.0742187c.2109386 0 .3925774.0273435.5449219.0820313.1523445.0546877.2773432.134765.375.2402343.0976567.1054693.1718747.2343743.2226562.3867188s.0761719.3261709.0761719.5214843zm11.6367187-.8671875c0 .2343762-.0097655.4316398-.0292968.5917969-.0195314.160157-.048828.2929682-.0878906.3984375-.0390627.1054693-.0878904.1816404-.1464844.2285156-.0585941.0468752-.1269528.0703125-.2050782.0703125h-6.9492187c-.2578138 0-.4746085-.0761711-.6503906-.2285156-.1757822-.1523445-.2636719-.4003889-.2636719-.7441406v-13.7695313c0-.0781254.0253904-.1484372.0761719-.2109375s.134765-.1132811.2519531-.1523438c.1171881-.0390626.2753896-.0703123.4746094-.09375.1992197-.0234376.4472641-.0351562.7441406-.0351562.304689 0 .5546865.0117186.75.0351562.1953135.0234377.3515619.0546874.46875.09375.1171881.0390627.2011716.0898435.2519531.1523438s.0761719.1328121.0761719.2109375v12.1992187h4.7695312c.0781254 0 .1464841.0214842.2050782.0644532.058594.0429689.1074217.1132807.1464844.2109375.0390626.0976567.0683592.2265617.0878906.3867187.0195313.1601571.0292968.3574207.0292968.5917969z" fill="#fff" fill-rule="nonzero"/></g></svg>