<svg height="80" viewBox="0 0 80 80" width="80" xmlns="http://www.w3.org/2000/svg"><g fill="none" fill-rule="evenodd"><g transform="translate(5)"><path d="m45 0v21c0 2.209139 1.790861 4 4 4h21v47c0 4.418278-3.581722 8-8 8h-54c-4.418278 0-8-3.581722-8-8v-64c0-4.418278 3.581722-8 8-8z" fill="#4fc3f7"/><path d="m45 0 25 25h-21c-2.209139 0-4-1.790861-4-4z" fill="#b3e5fc"/></g><path d="m25.0292969 59.5078125c0 .0911463-.0296221.1731767-.0888672.2460937-.0592451.0729171-.1572259.1321613-.2939453.1777344-.1367195.0455732-.3190093.0820311-.546875.109375s-.5195295.0410156-.875.0410156c-.3463559 0-.6357411-.0136717-.8681641-.0410156s-.4169915-.0638018-.5537109-.109375c-.1367195-.0455731-.2347002-.1048173-.2939453-.1777344-.0592451-.072917-.0888672-.1549474-.0888672-.2460937v-16.7070313c0-.0911462.0296221-.1731767.0888672-.2460937s.1595045-.1321612.3007812-.1777344c.1412768-.0455731.3258452-.0820311.5537109-.109375.2278658-.0273439.5149723-.0410156.8613282-.0410156.3554705 0 .6471343.0136717.875.0410156s.4101555.0638019.546875.109375c.1367194.0455732.2347002.1048174.2939453.1777344s.0888672.1549475.0888672.2460937zm16.0917969-2.1875c0 .2278657-.0068359.4215487-.0205079.5810547-.0136719.159506-.0341795.2962234-.0615234.4101562-.0273439.1139329-.0638019.2119137-.109375.2939454-.0455731.0820316-.1184891.1754552-.21875.2802734s-.2939439.239257-.5810547.4033203-.6380187.3212883-1.0527344.4716797c-.4147156.1503914-.8886692.2757156-1.421875.3759766-.5332058.1002609-1.1096974.1503906-1.7294922.1503906-1.2122456 0-2.3059847-.1868471-3.28125-.5605469-.9752652-.3736998-1.804684-.9319624-2.4882812-1.6748047-.6835972-.7428422-1.2076805-1.6702418-1.5722656-2.7822266-.3645852-1.1119847-.546875-2.4062426-.546875-3.8828124 0-1.5039138.2005188-2.8391869.6015625-4.0058594.4010436-1.1666725.9615849-2.1464804 1.6816406-2.9394532.7200557-.7929727 1.5836538-1.3945291 2.5908203-1.8046874 1.0071665-.4101584 2.1168559-.6152344 3.3291016-.6152344.4921899 0 .9661435.0410152 1.421875.1230468.4557314.0820317.8772767.189127 1.2646484.3212891s.7360011.2848299 1.0458984.4580078c.3098974.173178.5263666.3212885.6494141.444336s.2073566.2255855.2529297.3076171c.0455731.0820317.0820311.1868484.109375.3144532s.0478515.2779939.0615234.4511718c.013672.173178.0205078.3873686.0205078.6425782 0 .2734388-.0091144.5058584-.0273437.6972656s-.05013.3463536-.0957031.4648438c-.0455732.1184901-.1002601.2050778-.1640625.2597656-.0638024.0546877-.1367184.0820312-.21875.0820312-.1367195 0-.3098948-.0797518-.5195313-.2392578-.2096364-.159506-.4807926-.3372386-.8134765-.5332031-.332684-.1959645-.7291644-.3736971-1.1894532-.5332031-.4602887-.159506-1.0094369-.2392578-1.6474609-.2392578-.7018264 0-1.3284478.1435532-1.8798828.430664-.5514351.2871108-1.0208314.697263-1.4082031 1.2304688-.3873718.5332058-.6813141 1.1780561-.881836 1.9345703-.2005218.7565142-.3007812 1.6087192-.3007812 2.5566406 0 1.0390677.1070953 1.9391238.321289 2.7001953.2141938.7610715.5195293 1.3876929.9160157 1.8798828.3964863.49219.8749972.8590483 1.4355468 1.100586.5605497.2415376 1.1917283.3623046 1.8935547.3623046.638024 0 1.1894508-.0751945 1.6542969-.2255859s.8636051-.3167308 1.1962891-.4990234c.3326839-.1822926.6061187-.3463535.8203125-.4921875.2141937-.1458341.3805332-.21875.4990234-.21875.0911463 0 .1640622.018229.21875.0546875s.1002602.1093744.1367188.21875c.0364585.1093755.0638019.2620433.0820312.4580078s.0273438.4580062.0273438.7861328zm18.2929687-6.3710937c0 1.4674552-.1822898 2.7799421-.546875 3.9375-.3645852 1.1575578-.9068974 2.1396444-1.6269531 2.946289-.7200557.8066447-1.6109973 1.4218729-2.6728516 1.8457031-1.0618543.4238303-2.2900321.6357422-3.6845703.6357422-1.376309 0-2.5771433-.1800112-3.6025391-.540039-1.0253957-.3600279-1.8798794-.909176-2.5634765-1.647461-.6835972-.7382849-1.1962874-1.6770776-1.538086-2.8164062-.3417985-1.1393286-.5126953-2.4882735-.5126953-4.046875 0-1.4309968.1822899-2.7184188.546875-3.8623047.3645852-1.1438859.9068975-2.116858 1.6269532-2.9189453.7200556-.8020874 1.6109972-1.4173156 2.6728515-1.8457031 1.0618543-.4283876 2.2945893-.6425782 3.6982422-.6425782 1.3398504 0 2.5224558.1777326 3.5478516.5332032 1.0253957.3554705 1.882158.90234 2.5703125 1.640625.6881544.7382849 1.2076805 1.6702417 1.5585937 2.7958984s.5263672 2.4540939.5263672 3.9853516zm-3.7734375.1914062c0-.9296921-.0729159-1.7750613-.21875-2.5361328s-.394204-1.4127577-.7451172-1.9550781c-.3509132-.5423205-.8180309-.9615871-1.4013672-1.2578125-.5833362-.2962255-1.3124956-.444336-2.1875-.444336-.884119 0-1.6223928.1663395-2.2148437.4990235-.5924509.3326839-1.0709617.7770154-1.4355469 1.3330078-.3645852.5559923-.6220696 1.2053999-.7724609 1.9482422-.1503914.7428422-.225586 1.5289672-.225586 2.3583984 0 .9661507.072916 1.834306.21875 2.6044922.1458341.7701861.3919254 1.4287082.7382813 1.9755859.3463559.5468778.811195.9638658 1.3945312 1.2509766.5833363.2871108 1.3170529.430664 2.2011719.430664s1.6223929-.1640608 2.2148437-.4921874c.5924509-.3281267 1.0709618-.7747368 1.4355469-1.3398438.3645852-.565107.6220696-1.2236291.772461-1.9755859.1503913-.7519569.2255859-1.5517536.2255859-2.3994141z" fill="#fff" fill-rule="nonzero"/></g></svg>