<svg height="80" viewBox="0 0 80 80" width="80" xmlns="http://www.w3.org/2000/svg"><g fill="none" fill-rule="evenodd"><g transform="translate(5)"><path d="m45 0v21c0 2.209139 1.790861 4 4 4h21v47c0 4.418278-3.581722 8-8 8h-54c-4.418278 0-8-3.581722-8-8v-64c0-4.418278 3.581722-8 8-8z" fill="#b0bec5"/><path d="m45 0 25 25h-21c-2.209139 0-4-1.790861-4-4z" fill="#cfd8dc"/></g><path d="m28.8505859 59.5078125c0 .0911463-.0296221.1731767-.0888671.2460937-.0592451.0729171-.1572259.1321613-.2939454.1777344-.1367194.0455732-.3190092.0820311-.546875.109375-.2278657.0273439-.5195294.0410156-.875.0410156-.3463559 0-.635741-.0136717-.868164-.0410156-.2324231-.0273439-.4169915-.0638018-.553711-.109375-.1367194-.0455731-.2347002-.1048173-.2939453-.1777344-.0592451-.072917-.0888672-.1549474-.0888672-.2460937v-16.7070313c0-.0911462.0296221-.1731767.0888672-.2460937s.1595045-.1321612.3007813-.1777344c.1412767-.0455731.3258452-.0820311.5537109-.109375s.5149722-.0410156.8613281-.0410156c.3554706 0 .6471343.0136717.875.0410156.2278658.0273439.4101556.0638019.546875.109375.1367195.0455732.2347003.1048174.2939454.1777344.059245.072917.0888671.1549475.0888671.2460937zm18.4433594-.765625c0 .2096365-.036458.3964836-.109375.5605469s-.1708978.3007807-.2939453.4101562c-.1230475.1093756-.2688794.1891274-.4375.2392578-.1686206.0501305-.3395174.0751954-.5126953.0751954h-1.53125c-.319012 0-.5947254-.0319008-.8271485-.0957032-.232423-.0638024-.4466136-.1800122-.6425781-.3486328s-.3850902-.3964829-.5673828-.6835937-.3873686-.6585264-.6152344-1.1142579l-4.4023437-8.2714843c-.2552096-.49219-.5149726-1.0231092-.7792969-1.5927735-.2643242-.5696643-.501301-1.1233697-.7109375-1.6611328h-.0273437c.0364585.6562533.063802 1.3102181.0820312 1.9619141.0182293.651696.0273438 1.3238898.0273438 2.0166015v9.2558594c0 .0911463-.0250649.1731767-.0751953.2460938-.0501305.072917-.1367182.1344398-.2597657.1845703-.1230475.0501304-.2893869.088867-.4990234.1162109s-.478514.0410156-.8066406.0410156c-.319012 0-.5833323-.0136717-.7929688-.0410156s-.3736973-.0660805-.4921875-.1162109c-.1184902-.0501305-.2005206-.1116533-.2460937-.1845703-.0455732-.0729171-.0683594-.1549475-.0683594-.2460938v-15.9003906c0-.4283876.1253243-.7496734.3759765-.9638672.2506523-.2141938.5582665-.321289.9228516-.321289h1.9277344c.3463559 0 .6380196.029622.875.0888671.2369803.0592451.4488923.1572259.6357422.2939453.1868499.1367195.3623038.3258452.5263672.5673829.1640633.2415376.3326814.5400372.5058593.8955078l3.4453125 6.4667969c.2005219.391929.3987621.7770163.5947266 1.1552734s.3850902.7565085.5673828 1.1347656.3600252.7496727.5332031 1.1142578c.173178.3645852.3417961.7291649.5058594 1.09375h.0136719c-.0273439-.638024-.0478515-1.3033819-.0615234-1.9960937-.013672-.6927118-.0205079-1.3535125-.0205079-1.9824219v-8.2988281c0-.0911463.0273435-.1731767.0820313-.2460938.0546878-.072917.1458327-.1367185.2734375-.1914062.1276048-.0546878.2962229-.0934244.5058594-.116211.2096364-.0227865.4785139-.0341797.8066406-.0341797.3098974 0 .5696604.0113932.7792969.0341797.2096364.0227866.3714187.0615232.4853515.116211.1139329.0546877.1936847.1184892.2392578.1914062.0455732.0729171.0683594.1549475.0683594.2460938zm7.4648438.765625c0 .0911463-.0296221.1731767-.0888672.2460937-.0592451.0729171-.1572259.1321613-.2939453.1777344-.1367195.0455732-.3190093.0820311-.546875.109375-.2278658.0273439-.5195295.0410156-.875.0410156-.3463559 0-.6357411-.0136717-.8681641-.0410156s-.4169915-.0638018-.5537109-.109375c-.1367195-.0455731-.2347003-.1048173-.2939454-.1777344-.059245-.072917-.0888671-.1549474-.0888671-.2460937v-16.7070313c0-.0911462.0296221-.1731767.0888671-.2460937.0592451-.072917.1595046-.1321612.3007813-.1777344.1412767-.0455731.3258452-.0820311.5537109-.109375.2278658-.0273439.5149723-.0410156.8613282-.0410156.3554705 0 .6471342.0136717.875.0410156.2278657.0273439.4101555.0638019.546875.109375.1367194.0455732.2347002.1048174.2939453.1777344s.0888672.1549475.0888672.2460937z" fill="#fff" fill-rule="nonzero"/></g></svg>