<svg height="80" viewBox="0 0 80 80" width="80" xmlns="http://www.w3.org/2000/svg"><g fill="none" fill-rule="evenodd"><g transform="translate(5)"><path d="m45 0v21c0 2.209139 1.790861 4 4 4h21v47c0 4.418278-3.581722 8-8 8h-54c-4.418278 0-8-3.581722-8-8v-64c0-4.418278 3.581722-8 8-8z" fill="#b0bec5"/><path d="m45 0 25 25h-21c-2.209139 0-4-1.790861-4-4z" fill="#cfd8dc"/></g><path d="m25.7197266 59.5078125c0 .0911463-.0296221.1731767-.0888672.2460937-.0592451.0729171-.1572259.1321613-.2939453.1777344-.1367195.0455732-.3190093.0820311-.546875.109375-.2278658.0273439-.5195295.0410156-.875.0410156-.3463559 0-.6357411-.0136717-.8681641-.0410156s-.4169915-.0638018-.5537109-.109375c-.1367195-.0455731-.2347003-.1048173-.2939453-.1777344-.0592451-.072917-.0888672-.1549474-.0888672-.2460937v-16.7070313c0-.0911462.0296221-.1731767.0888672-.2460937.059245-.072917.1595045-.1321612.3007812-.1777344.1412767-.0455731.3258452-.0820311.5537109-.109375.2278658-.0273439.5149723-.0410156.8613282-.0410156.3554705 0 .6471342.0136717.875.0410156.2278657.0273439.4101555.0638019.546875.109375.1367194.0455732.2347002.1048174.2939453.1777344s.0888672.1549475.0888672.2460937zm14.3417968-4.8125c0 .9296921-.1731753 1.7454392-.5195312 2.4472656-.3463559.7018265-.8157523 1.2874326-1.4082031 1.756836-.5924509.4694034-1.2851523.8225899-2.078125 1.0595703-.7929728.2369803-1.6406205.3554687-2.5429688.3554687-.6106801 0-1.1780573-.0501297-1.7021484-.1503906-.5240912-.1002609-.9866517-.2210279-1.3876953-.3623047-.4010437-.1412767-.7360013-.2893872-1.0048828-.4443359-.2688816-.1549487-.4625646-.2916661-.5810547-.4101563-.1184902-.1184902-.2027993-.2893869-.2529297-.5126953-.0501305-.2233084-.0751953-.5445942-.0751953-.9638672 0-.2825535.0091145-.5195303.0273437-.7109375.0182293-.1914072.0478514-.3463535.0888672-.4648437s.0957028-.2027993.1640625-.2529297c.0683597-.0501305.1481115-.0751953.2392578-.0751953.1276048 0 .307616.0751945.5400391.2255859.232423.1503914.5309226.3167309.8955078.4990234.3645851.1822926.7998021.3486321 1.305664.4990235.505862.1503914 1.0914681.2255859 1.756836.2255859.4375022 0 .8294253-.0524083 1.1757812-.1572265.3463559-.1048183.6402983-.2529288.881836-.444336.2415376-.1914072.4261061-.428384.5537109-.7109375s.1914063-.5970035.1914063-.9433594c0-.4010436-.1093739-.7451157-.328125-1.0322265s-.503579-.5423166-.8544922-.765625-.7496723-.4329417-1.1962891-.6289063c-.4466168-.1959645-.9068987-.4033192-1.3808594-.6220703s-.9342425-.467121-1.3808593-.7451172c-.4466169-.2779961-.8453759-.6106751-1.1962891-.9980468-.3509132-.3873718-.6357411-.845375-.8544922-1.3740235s-.328125-1.1621057-.328125-1.9003906c0-.8476605.157225-1.5927702.4716797-2.2353516.3144547-.6425813.7382786-1.1757791 1.2714844-1.5996093.5332058-.4238303 1.1621057-.7405589 1.8867187-.9501953.724613-.2096365 1.492509-.3144532 2.303711-.3144532.4192729 0 .8385395.0319007 1.2578125.0957032.4192729.0638024.8111961.15039 1.1757812.2597656.3645852.1093755.6881496.2324212.9707031.3691406s.4694006.2506506.5605469.3417969.1526691.1686194.1845703.2324219c.0319012.0638024.0592447.1481114.0820313.2529296.0227865.1048183.0387369.2369784.0478515.3964844.0091147.159506.0136719.3577462.0136719.5947266 0 .2643242-.0068359.4876293-.0205078.6699218-.0136719.1822926-.0364582.3326817-.0683594.4511719s-.0774736.2050779-.1367187.2597657c-.0592451.0546877-.1389969.0820312-.2392578.0820312-.100261 0-.2597646-.0638014-.4785157-.1914062-.2187511-.1276049-.4876286-.2666009-.8066406-.4169922-.319012-.1503914-.6881489-.2871088-1.1074219-.4101563-.4192729-.1230475-.8795547-.1845703-1.3808593-.1845703-.3919291 0-.7337225.0478511-1.0253907.1435547-.2916681.0957036-.5354808.2278637-.7314453.3964844-.1959645.1686206-.3417964.371418-.4375.6083984s-.1435547.4876289-.1435547.7519531c0 .3919291.1070953.7314439.3212891 1.0185547s.5013003.5423166.8613281.765625c.3600279.2233084.7679014.4329417 1.2236328.6289063.4557315.1959645.9205706.4033192 1.3945313.6220703s.9387998.467121 1.3945312.7451172c.4557315.2779961.8613264.6106751 1.2167969.9980468.3554705.3873718.642577.8430964.8613281 1.3671875.2187511.5240912.328125 1.141598.328125 1.8525391zm18.6621094-3.7460937c0 1.4674552-.1822898 2.7799421-.546875 3.9375-.3645851 1.1575578-.9068974 2.1396444-1.6269531 2.946289-.7200557.8066447-1.6109973 1.4218729-2.6728516 1.8457031-1.0618542.4238303-2.2900321.6357422-3.6845703.6357422-1.376309 0-2.5771433-.1800112-3.602539-.540039-1.0253958-.3600279-1.8798794-.909176-2.5634766-1.647461-.6835972-.7382849-1.1962874-1.6770776-1.538086-2.8164062-.3417985-1.1393286-.5126953-2.4882735-.5126953-4.046875 0-1.4309968.1822899-2.7184188.546875-3.8623047.3645852-1.1438859.9068975-2.116858 1.6269532-2.9189453.7200556-.8020874 1.6109973-1.4173156 2.6728515-1.8457031 1.0618543-.4283876 2.2945894-.6425782 3.6982422-.6425782 1.3398505 0 2.5224558.1777326 3.5478516.5332032 1.0253957.3554705 1.882158.90234 2.5703125 1.640625.6881545.7382849 1.2076805 1.6702417 1.5585937 2.7958984s.5263672 2.4540939.5263672 3.9853516zm-3.7734375.1914062c0-.9296921-.0729159-1.7750613-.21875-2.5361328s-.394204-1.4127577-.7451172-1.9550781c-.3509132-.5423205-.8180309-.9615871-1.4013672-1.2578125-.5833362-.2962255-1.3124956-.444336-2.1875-.444336-.884119 0-1.6223928.1663395-2.2148437.4990235-.5924509.3326839-1.0709617.7770154-1.4355469 1.3330078-.3645851.5559923-.6220695 1.2053999-.7724609 1.9482422-.1503914.7428422-.225586 1.5289672-.225586 2.3583984 0 .9661507.072916 1.834306.21875 2.6044922.1458341.7701861.3919254 1.4287082.7382813 1.9755859.3463559.5468778.811195.9638658 1.3945312 1.2509766.5833363.2871108 1.3170529.430664 2.2011719.430664s1.6223929-.1640608 2.2148438-.4921874c.5924508-.3281267 1.0709617-.7747368 1.4355468-1.3398438.3645852-.565107.6220696-1.2236291.772461-1.9755859.1503914-.7519569.2255859-1.5517536.2255859-2.3994141z" fill="#fff" fill-rule="nonzero"/></g></svg>