<svg height="80" viewBox="0 0 80 80" width="80" xmlns="http://www.w3.org/2000/svg"><g fill="none" fill-rule="evenodd"><g transform="translate(5)"><path d="m45 0v21c0 2.209139 1.790861 4 4 4h21v47c0 4.418278-3.581722 8-8 8h-54c-4.418278 0-8-3.581722-8-8v-64c0-4.418278 3.581722-8 8-8z" fill="#58829f"/><path d="m45 0 25 25h-21c-2.209139 0-4-1.790861-4-4z" fill="#ffc48d"/></g><path d="m26.6767578 55.078125c0 .8020873-.0751945 1.5244108-.2255859 2.1669922-.1503914.6425813-.4055972 1.1894509-.765625 1.640625-.3600279.4511741-.8317028.7952462-1.4150391 1.0322266-.5833362.2369803-1.3033811.3554687-2.1601562.3554687-.2734389 0-.544595-.0205076-.8134766-.0615234-.2688816-.0410159-.5149728-.0934242-.7382812-.1572266-.2233085-.0638024-.4169914-.1321611-.5810547-.2050781-.1640634-.0729171-.2734373-.1389971-.328125-.1982422-.0546878-.0592451-.1002603-.1207679-.1367188-.1845703s-.0683592-.1481115-.0957031-.2529297-.0455729-.2346998-.0546875-.3896484c-.0091146-.1549487-.0136719-.3509103-.0136719-.5878907 0-.3098974.0068359-.571939.0205078-.7861328.013672-.2141938.0364582-.3828119.0683594-.5058594s.0774737-.2096351.1367188-.2597656c.059245-.0501304.1344396-.0751953.2255859-.0751953.0820316 0 .1777338.0296221.2871094.0888672.1093755.0592451.2324212.1207679.3691406.1845703s.296223.1253252.4785156.1845703.3964832.0888672.6425781.0888672c.246095 0 .4625642-.0341793.6494141-.1025391.1868499-.0683597.3417963-.1868481.4648437-.3554687.1230475-.1686206.2164711-.3942043.2802735-.6767578s.0957031-.6471332.0957031-1.09375v-12.1542969c0-.0911463.0296221-.1708981.0888672-.2392578s.1549473-.1253253.2871094-.1708985c.1321621-.0455731.3167306-.0797524.5537109-.102539.2369804-.0227866.5286441-.0341797.875-.0341797s.6334624.0113931.8613281.0341797c.2278658.0227866.4124342.0569659.553711.102539.1412767.0455732.2415361.1025388.3007812.1708985s.0888672.1481115.0888672.2392578zm17.7050781 3.5820312c.1093756.3281267.1777343.5878897.2050782.7792969.0273438.1914072-.0091141.3349605-.109375.4306641-.100261.0957036-.2779936.1549478-.5332032.1777344-.2552096.0227865-.6061175.0341796-1.0527343.0341796-.4648461 0-.8271472-.0068358-1.0869141-.0205078-.2597669-.0136719-.4580071-.0410154-.5947266-.0820312-.1367194-.0410158-.2324216-.0979814-.2871093-.1708984-.0546878-.0729171-.1002603-.1686192-.1367188-.2871094l-1.1894531-3.5546875h-6.6445313l-1.1210937 3.4589843c-.0364585.1276049-.0843096.2347001-.1435547.3212891s-.1549473.1549477-.2871094.2050781c-.1321621.0501305-.3190092.0843098-.5605468.1025391-.2415377.0182293-.5582663.0273437-.9501954.0273437-.4192729 0-.7473946-.0136717-.984375-.0410156-.2369803-.0273439-.4010412-.0934239-.4921875-.1982422-.0911463-.1048182-.123047-.2529287-.0957031-.4443359s.0957026-.446613.2050781-.765625l5.4550782-15.6953125c.0546877-.1549487.1184892-.280273.1914062-.3759766s.1891268-.1686195.3486328-.21875c.159506-.0501304.3805325-.0820311.663086-.0957031.2825535-.0136719.6562476-.0205078 1.1210937-.0205078.5377631 0 .9661443.0068359 1.2851563.0205078.319012.013672.5673819.0455727.7451171.0957031.1777353.0501305.3053382.1253251.3828126.225586.0774743.1002609.1435544.2369783.1982421.4101562zm-8.1210937-12.9746093h-.0136719l-2.5019531 7.5195312h5.0175781zm23.7207031 13.8496093c0 .100261-.018229.18457-.0546875.2529297-.0364585.0683598-.1230462.1253253-.2597656.1708985-.1367194.0455731-.3372383.0774738-.6015625.0957031-.2643243.0182293-.6243467.0273437-1.0800781.0273437-.3828145 0-.6881499-.0091144-.9160157-.0273437-.2278657-.0182293-.4078769-.0524086-.540039-.1025391-.1321621-.0501304-.2255857-.1139319-.2802735-.1914062-.0546877-.0774744-.1002602-.1708979-.1367187-.2802734l-1.5859375-3.9511719c-.1914072-.4466168-.3782543-.8430973-.5605469-1.1894531-.1822926-.3463559-.38509-.6357411-.6083984-.8681641s-.4807928-.407877-.772461-.5263672c-.2916681-.1184902-.6289043-.1777344-1.0117187-.1777344h-1.1210938v6.7402344c0 .0911463-.0296221.1731767-.0888672.2460937-.059245.0729171-.1572258.1321613-.2939453.1777344-.1367194.0455732-.3190092.0820311-.546875.109375-.2278657.0273439-.5195294.0410156-.875.0410156-.3463559 0-.635741-.0136717-.868164-.0410156-.2324231-.0273439-.4169915-.0638018-.553711-.109375-.1367194-.0455731-.2324216-.1048173-.2871093-.1777344-.0546878-.072917-.0820313-.1549474-.0820313-.2460937v-16.0644531c0-.4010437.102538-.6904288.3076172-.8681641s.4580063-.2666015.7587891-.2666015h4.5800781c.4648461 0 .8476547.0091144 1.1484375.0273437.3007827.0182293.5742175.0410155.8203125.0683594.710941.1002609 1.3512341.2734362 1.9208984.5195312s1.0527324.5673809 1.4492188.9638672c.3964863.3964864.6995432.8658827.9091797 1.4082031.2096364.5423205.3144531 1.1643845.3144531 1.866211 0 .5924509-.0751946 1.1324845-.2255859 1.6201172-.1503914.4876326-.3714179.9228496-.663086 1.305664s-.6516906.7154934-1.0800781.9980469c-.4283876.2825535-.9160129.5104158-1.4628906.6835937.2643242.1276049.5126941.2825512.7451171.4648438.2324231.1822926.4511709.403319.65625.6630859.2050792.259767.3987622.555988.5810547.8886719.1822926.332684.3600252.7086568.5332032 1.1279297l1.4902343 3.4863281c.1367195.3463559.2278644.5992831.2734375.7587891.0455732.159506.0683594.2848303.0683594.3759765zm-4.6347656-12.0039062c0-.5833363-.1321601-1.0755188-.3964844-1.4765625-.2643242-.4010437-.6972626-.6835929-1.2988281-.8476563-.1822926-.0455731-.3896473-.0820311-.6220703-.109375-.2324231-.0273438-.5537089-.0410156-.9638672-.0410156h-1.6132813v5.0175782h1.8320313c.5104192 0 .9570293-.0615229 1.3398437-.1845704.3828145-.1230475.7018217-.2962228.9570313-.5195312s.4466139-.4899073.5742187-.7998047.1914063-.6562481.1914063-1.0390625z" fill="#fff" fill-rule="nonzero"/></g></svg>