<svg height="80" viewBox="0 0 80 80" width="80" xmlns="http://www.w3.org/2000/svg"><g fill="none" fill-rule="evenodd"><g transform="translate(5)"><path d="m45 0v21c0 2.209139 1.790861 4 4 4h21v47c0 4.418278-3.581722 8-8 8h-54c-4.418278 0-8-3.581722-8-8v-64c0-4.418278 3.581722-8 8-8z" fill="#58829f"/><path d="m45 0 25 25h-21c-2.209139 0-4-1.790861-4-4z" fill="#ffc48d"/></g><path d="m19.2597656 55.078125c0 .8020873-.0751945 1.5244108-.2255859 2.1669922-.1503914.6425813-.4055972 1.1894509-.765625 1.640625-.3600279.4511741-.8317028.7952462-1.4150391 1.0322266-.5833362.2369803-1.3033811.3554687-2.1601562.3554687-.2734389 0-.544595-.0205076-.8134766-.0615234-.2688815-.0410159-.5149728-.0934242-.7382812-.1572266s-.4169914-.1321611-.5810547-.2050781c-.1640633-.0729171-.2734373-.1389971-.328125-.1982422-.0546878-.0592451-.1002603-.1207679-.1367188-.1845703s-.0683592-.1481115-.0957031-.2529297-.0455729-.2346998-.0546875-.3896484c-.0091146-.1549487-.0136719-.3509103-.0136719-.5878907 0-.3098974.0068359-.571939.0205078-.7861328.013672-.2141938.0364582-.3828119.0683594-.5058594s.0774737-.2096351.1367188-.2597656c.0592451-.0501304.1344396-.0751953.2255859-.0751953.0820317 0 .1777338.0296221.2871094.0888672.1093755.0592451.2324212.1207679.3691406.1845703s.296223.1253252.4785156.1845703.3964832.0888672.6425781.0888672c.246095 0 .4625642-.0341793.6494141-.1025391.1868499-.0683597.3417963-.1868481.4648438-.3554687s.216471-.3942043.2802734-.6767578.0957031-.6471332.0957031-1.09375v-12.1542969c0-.0911463.0296221-.1708981.0888672-.2392578s.1549473-.1253253.2871094-.1708985c.1321621-.0455731.3167306-.0797524.5537109-.102539.2369804-.0227866.5286441-.0341797.875-.0341797s.6334624.0113931.8613281.0341797c.2278658.0227866.4124342.0569659.553711.102539.1412767.0455732.2415361.1025388.3007812.1708985s.0888672.1481115.0888672.2392578zm17.7050782 3.5820312c.1093755.3281267.1777342.5878897.2050781.7792969s-.0091141.3349605-.109375.4306641-.2779935.1549478-.5332031.1777344c-.2552097.0227865-.6061176.0341796-1.0527344.0341796-.4648461 0-.8271472-.0068358-1.0869141-.0205078-.2597669-.0136719-.4580071-.0410154-.5947265-.0820312-.1367195-.0410158-.2324217-.0979814-.2871094-.1708984-.0546878-.0729171-.1002603-.1686192-.1367188-.2871094l-1.1894531-3.5546875h-6.6445313l-1.1210937 3.4589843c-.0364585.1276049-.0843096.2347001-.1435547.3212891s-.1549472.1549477-.2871094.2050781c-.1321621.0501305-.3190092.0843098-.5605468.1025391-.2415377.0182293-.5582663.0273437-.9501954.0273437-.4192729 0-.7473946-.0136717-.984375-.0410156-.2369803-.0273439-.4010412-.0934239-.4921874-.1982422-.0911463-.1048182-.1230471-.2529287-.0957032-.4443359s.0957026-.446613.2050782-.765625l5.4550781-15.6953125c.0546877-.1549487.1184892-.280273.1914062-.3759766.0729171-.0957036.1891268-.1686195.3486328-.21875.159506-.0501304.3805325-.0820311.663086-.0957031.2825535-.0136719.6562477-.0205078 1.1210937-.0205078.5377631 0 .9661443.0068359 1.2851563.0205078.319012.013672.5673819.0455727.7451172.0957031.1777352.0501305.3053381.1253251.3828125.225586.0774743.1002609.1435544.2369783.1982422.4101562zm-8.1210938-12.9746093h-.0136719l-2.5019531 7.5195312h5.0175781zm17.9648437 13.6855469c-.0455731.1549486-.1048173.2802729-.1777343.3759765-.0729171.0957036-.1914055.1686196-.3554688.21875-.1640633.0501305-.3873684.0820312-.6699219.0957031-.2825534.013672-.6516904.0205078-1.1074218.0205078-.3645852 0-.6767565-.0022786-.9365235-.0068359-.2597669-.0045573-.4807933-.0159504-.6630859-.0341797-.1822926-.0182292-.3304031-.0455727-.4443359-.0820312-.1139329-.0364585-.2096351-.082031-.2871094-.1367188-.0774744-.0546877-.1367186-.1207678-.1777344-.1982422-.0410158-.0774743-.0797524-.1754551-.1162109-.2939453l-5.2636719-15.6816406c-.1093755-.3281266-.1754556-.5878897-.1982422-.7792969s.0227859-.3349604.1367188-.430664c.1139328-.0957036.3076158-.1549478.5810546-.1777344.2734389-.0227866.6562476-.0341797 1.1484375-.0341797.419273 0 .7473947.0091145.984375.0273437.2369804.0182293.4192702.05013.546875.0957032.1276049.0455731.2164712.1139318.2666016.2050781.0501305.0911463.0979816.2050774.1435547.3417969l4.3066406 13.6445312h.0136719l4.2246094-13.5761718c.0364585-.1549487.082031-.280273.1367187-.3759766.0546878-.0957036.1481113-.1708982.2802735-.225586.1321621-.0546877.3212878-.0911457.5673828-.109375.246095-.0182292.5833312-.0273437 1.0117187-.0273437.419273 0 .7451161.0136717.9775391.0410156s.3919266.093424.4785156.1982422.1139325.2529287.0820313.4443359c-.0319012.1914073-.1025386.446613-.2119141.765625zm20.7539063-.7109376c.1093755.3281267.1777342.5878897.2050781.7792969s-.0091141.3349605-.109375.4306641-.2779935.1549478-.5332031.1777344c-.2552096.0227865-.6061176.0341796-1.0527344.0341796-.464846 0-.8271471-.0068358-1.086914-.0205078-.259767-.0136719-.4580072-.0410154-.5947266-.0820312s-.2324216-.0979814-.2871094-.1708984c-.0546877-.0729171-.1002602-.1686192-.1367187-.2871094l-1.1894531-3.5546875h-6.6445313l-1.1210937 3.4589843c-.0364586.1276049-.0843096.2347001-.1435547.3212891s-.1549473.1549477-.2871094.2050781c-.1321621.0501305-.3190092.0843098-.5605469.1025391s-.5582663.0273437-.9501953.0273437c-.4192729 0-.7473946-.0136717-.984375-.0410156s-.4010412-.0934239-.4921875-.1982422c-.0911463-.1048182-.123047-.2529287-.0957031-.4443359s.0957026-.446613.2050781-.765625l5.4550781-15.6953125c.0546878-.1549487.1184892-.280273.1914063-.3759766.072917-.0957036.1891268-.1686195.3486328-.21875.159506-.0501304.3805324-.0820311.6630859-.0957031.2825535-.0136719.6562477-.0205078 1.1210938-.0205078.5377631 0 .9661442.0068359 1.2851562.0205078.319012.013672.5673819.0455727.7451172.0957031.1777353.0501305.3053382.1253251.3828125.225586.0774744.1002609.1435544.2369783.1982422.4101562zm-8.1210938-12.9746093h-.0136718l-2.5019532 7.5195312h5.0175782z" fill="#fff" fill-rule="nonzero"/></g></svg>