<?xml version="1.0" standalone="no"?><!DOCTYPE svg PUBLIC "-//W3C//DTD SVG 1.1//EN" "http://www.w3.org/Graphics/SVG/1.1/DTD/svg11.dtd"><svg t="1747153064039" class="icon" viewBox="0 0 1024 1024" version="1.1" xmlns="http://www.w3.org/2000/svg" p-id="1588" xmlns:xlink="http://www.w3.org/1999/xlink" width="256" height="256"><path d="M595.758603 2.553616l334.523691 340.652369v561.795511c0 65.883292-52.604489 118.998504-116.955611 118.998504H211.18404c-64.861845 0-116.955611-53.625935-116.955611-118.998504V121.55212C94.228429 55.668828 146.832918 2.553616 211.18404 2.553616h384.574563z" fill="#FF5562" p-id="1589"></path><path d="M929.771571 343.205985h-211.439401c-64.351122 0-123.084289-59.24389-123.08429-125.127182V2.553616l334.523691 340.652369z" fill="#FFFFFF" fill-opacity=".4" p-id="1590"></path><path d="M771.447382 713.480299l-105.719701-164.452868c-3.064339-5.107232-8.682294-7.660848-14.30025-7.660847-5.617955 0-11.23591 3.064339-14.300249 7.660847l-56.690274 87.844389-127.170075-205.310723c-3.064339-5.107232-8.682294-7.660848-14.300249-7.660848-5.617955 0-11.23591 3.064339-14.30025 7.660848l-174.156608 281.919202c-3.575062 5.107232-3.575062 11.746633 0 16.853866 2.553616 5.617955 8.171571 8.682294 14.300249 8.682294H757.147132c6.128678 0 11.746633-3.575062 15.321696-8.682294 2.553616-5.107232 2.042893-11.746633-1.021446-16.853866z m-143.513217-311.541147c0 17.364589 10.214464 32.686284 26.046882 39.325686 15.832419 6.639401 34.218454 3.064339 45.965088-9.193018 12.257357-12.257357 15.832419-30.132668 9.193017-45.965087s-21.961097-26.046883-39.325686-26.046883c-22.982544 0-41.879302 18.896758-41.879301 41.879302zM245.402494 939.21995l14.810972-10.725187c7.660848 13.278803 16.853865 18.386035 28.600499 18.386035 17.875312 0 26.557606-10.214464 26.557606-35.2399v-114.401995h20.428928v116.444888c0 28.089776-13.278803 51.072319-44.943641 51.072319-21.450374 0.510723-36.261347-8.682294-45.454364-25.53616zM380.233416 797.238903h46.986534c37.282793 0 61.797506 12.257357 61.797506 48.518703 0 34.729177-24.514713 51.072319-60.776059 51.072319h-27.06833v65.372569h-20.939651v-164.963591z m45.454365 82.737157c29.111222 0 42.900748-10.725187 42.900748-34.218454 0-24.00399-14.810973-31.664838-43.411472-31.664838h-23.493266v65.372569h24.00399zM522.214464 797.238903h94.994514v17.364588h-74.054863v51.583043h62.308229v17.875311h-62.308229v60.265337h76.608479v17.875312H522.214464v-164.963591zM644.78803 879.97606c0-53.115212 31.664838-85.801496 75.587032-85.801496 22.982544 0 37.793516 10.214464 47.497257 20.428927l-11.23591 13.278803c-8.171571-8.682294-18.896758-15.832419-35.750623-15.832419-33.197007 0-54.647382 25.53616-54.647382 66.904738s19.407481 67.415461 54.647382 67.415462c11.746633 0 23.493267-3.575062 30.132668-9.703741V893.765586H716.289277v-17.364588h54.136658v69.458354c-10.725187 11.23591-28.600499 18.896758-51.072319 18.896758-43.411471 0.510723-74.565586-31.154115-74.565586-84.78005z" fill="#FFFFFF" p-id="1591"></path></svg>