<svg height="80" viewBox="0 0 80 80" width="80" xmlns="http://www.w3.org/2000/svg"><g fill="none" fill-rule="evenodd"><g transform="translate(5)"><path d="m45 0v21c0 2.209139 1.790861 4 4 4h21v47c0 4.418278-3.581722 8-8 8h-54c-4.418278 0-8-3.581722-8-8v-64c0-4.418278 3.581722-8 8-8z" fill="#4fc3f7"/><path d="m45 0 25 25h-21c-2.209139 0-4-1.790861-4-4z" fill="#b3e5fc"/></g><path d="m26.3623047 55.078125c0 .8020873-.0751946 1.5244108-.2255859 2.1669922-.1503914.6425813-.4055972 1.1894509-.765625 1.640625-.3600279.4511741-.8317029.7952462-1.4150391 1.0322266-.5833363.2369803-1.3033811.3554687-2.1601563.3554687-.2734388 0-.544595-.0205076-.8134765-.0615234-.2688816-.0410159-.5149729-.0934242-.7382813-.1572266s-.4169913-.1321611-.5810547-.2050781c-.1640633-.0729171-.2734372-.1389971-.328125-.1982422-.0546877-.0592451-.1002602-.1207679-.1367187-.1845703s-.0683593-.1481115-.0957031-.2529297c-.0273439-.1048182-.0455729-.2346998-.0546875-.3896484-.0091147-.1549487-.0136719-.3509103-.0136719-.5878907 0-.3098974.0068359-.571939.0205078-.7861328s.0364582-.3828119.0683594-.5058594.0774736-.2096351.1367187-.2597656c.0592451-.0501304.1344397-.0751953.225586-.0751953.0820316 0 .1777338.0296221.2871093.0888672.1093756.0592451.2324212.1207679.3691407.1845703.1367194.0638024.296223.1253252.4785156.1845703s.3964831.0888672.6425781.0888672.4625642-.0341793.6494141-.1025391c.1868499-.0683597.3417962-.1868481.4648437-.3554687s.2164711-.3942043.2802735-.6767578.0957031-.6471332.0957031-1.09375v-12.1542969c0-.0911463.0296221-.1708981.0888672-.2392578s.1549472-.1253253.2871093-.1708985c.1321622-.0455731.3167306-.0797524.553711-.102539.2369803-.0227866.5286441-.0341797.875-.0341797s.6334624.0113931.8613281.0341797.4124342.0569659.5537109.102539c.1412768.0455732.2415362.1025388.3007813.1708985s.0888672.1481115.0888672.2392578zm15.9414062-7.3964844c0 .9934946-.1549463 1.8730431-.4648437 2.6386719s-.7610648 1.4104792-1.3535156 1.9345703c-.5924509.5240912-1.3193317.9228502-2.1806641 1.1962891-.8613324.2734388-1.8753197.4101562-3.0419922.4101562h-1.4765625v5.6464844c0 .0911463-.0296221.1731767-.0888672.2460937-.0592451.0729171-.1572259.1321613-.2939453.1777344-.1367194.0455732-.3190093.0820311-.546875.109375s-.5195295.0410156-.875.0410156c-.3463559 0-.635741-.0136717-.8681641-.0410156-.232423-.0273439-.4169915-.0638018-.5537109-.109375-.1367194-.0455731-.2324216-.1048173-.2871094-.1777344-.0546877-.072917-.0820312-.1549474-.0820312-.2460937v-15.9140625c0-.4283876.1116525-.7496734.3349609-.9638672s.5172508-.321289.881836-.321289h4.1699218c.419273 0 .818032.0159503 1.1962891.0478515s.8317031.1002599 1.3603516.2050781c.5286484.1048183 1.0641249.2985012 1.6064453.5810547s1.0048809.6402973 1.3876953 1.0732422.6744782.9387992.875 1.5175781c.2005218.578779.3007812 1.2281865.3007812 1.9482422zm-3.7597656.2597656c0-.6197947-.1093739-1.1302063-.328125-1.53125-.2187511-.4010436-.4876286-.6972646-.8066406-.8886718s-.6539696-.3121743-1.0048828-.3623047c-.3509132-.0501305-.7132143-.0751953-1.0869141-.0751953h-1.53125v6.0019531h1.6132813c.5742216 0 1.055011-.0774732 1.4423828-.2324219.3873717-.1549487.7041003-.3714179.9501953-.649414.246095-.2779962.4329421-.6106752.5605469-.9980469s.1914062-.808917.1914062-1.2646485zm20.7402344-2.8847656c0 .2643243-.0113931.4921866-.0341797.6835938s-.0546873.3440749-.0957031.4580078c-.0410159.1139328-.0911456.1936847-.1503907.2392578-.059245.0455731-.1298824.0683594-.211914.0683594-.1184902 0-.3098945-.0820305-.5742188-.2460938-.2643242-.1640633-.6152321-.3417959-1.0527343-.5332031s-.9593069-.3691398-1.5654297-.5332031-1.3102174-.2460938-2.1123047-.2460938c-.8567751 0-1.631507.1481105-2.3242188.444336-.6927118.2962254-1.2851538.715492-1.7773437 1.2578125-.49219.5423204-.8704414 1.1940066-1.1347656 1.9550781-.2643243.7610715-.3964844 1.6018834-.3964844 2.5224609 0 1.0117238.1344387 1.9026654.4033203 2.6728516.2688816.7701861.6448544 1.4150365 1.1279297 1.9345703s1.0641242.911457 1.743164 1.1757812c.6790399.2643243 1.4287069.3964844 2.2490235.3964844.4010437 0 .7975241-.0455724 1.1894531-.1367187.3919291-.0911463.7565087-.2278637 1.09375-.4101563v-4.1015625h-3.3496094c-.1640633 0-.2916662-.102538-.3828125-.3076172-.0911463-.2050791-.1367187-.5537084-.1367187-1.0458984 0-.2552096.0113931-.4694002.0341797-.6425781.0227865-.173178.0569659-.312174.102539-.4169922.0455732-.1048182.1002601-.1822914.1640625-.2324219.0638024-.0501304.1367184-.0751953.21875-.0751953h5.9746094c.1458341 0 .2757156.0250649.3896484.0751953.1139329.0501305.2141923.125325.3007813.2255859.086589.100261.152669.221028.1982422.3623047.0455731.1412768.0683594.303059.0683594.4853516v7.0410156c0 .2734389-.0478511.5126943-.1435547.7177735-.0957036.2050791-.2916652.3668613-.5878906.4853515-.2962255.1184902-.6630838.2415358-1.100586.3691407-.4375022.1276048-.8909482.2369787-1.3603516.328125-.4694033.0911462-.9433569.1595049-1.421875.2050781-.478518.0455731-.9593074.0683593-1.4423828.0683593-1.4127674 0-2.6774032-.2027974-3.7939453-.6083984-1.116542-.405601-2.0621706-.9934857-2.836914-1.7636719-.7747435-.7701861-1.3671855-1.7089788-1.7773438-2.8164062s-.6152344-2.3629487-.6152344-3.7666016c0-1.449226.2187478-2.7503197.65625-3.9033203.4375022-1.1530005 1.0572877-2.1328085 1.859375-2.9394531.8020874-.8066447 1.7705022-1.4241515 2.9052735-1.8525391 1.1347713-.4283875 2.3994071-.6425781 3.7939453-.6425781.7656288 0 1.4628875.0524083 2.0917969.1572266.6289094.1048182 1.1780575.2324211 1.6474609.3828125.4694034.1503913.8590479.3121736 1.1689453.4853515.3098974.173178.5263666.3235671.6494141.4511719s.2119138.307616.2666015.5400391c.0546878.232423.0820313.5764951.0820313 1.0322265z" fill="#fff" fill-rule="nonzero"/></g></svg>