<svg height="80" viewBox="0 0 80 80" width="80" xmlns="http://www.w3.org/2000/svg"><g fill="none" fill-rule="evenodd"><g transform="translate(5)"><path d="m45 0v21c0 2.209139 1.790861 4 4 4h21v47c0 4.418278-3.581722 8-8 8h-54c-4.418278 0-8-3.581722-8-8v-64c0-4.418278 3.581722-8 8-8z" fill="#64b5f6"/><path d="m45 0 25 25h-21c-2.209139 0-4-1.790861-4-4z" fill="#bbdefb"/></g><path d="m36.1171875 55.078125c0 .8020873-.0751946 1.5244108-.2255859 2.1669922-.1503914.6425813-.4055972 1.1894509-.765625 1.640625-.3600279.4511741-.8317028.7952462-1.4150391 1.0322266-.5833363.2369803-1.3033811.3554687-2.1601563.3554687-.2734388 0-.544595-.0205076-.8134765-.0615234-.2688816-.0410159-.5149729-.0934242-.7382813-.1572266s-.4169913-.1321611-.5810546-.2050781c-.1640634-.0729171-.2734373-.1389971-.328125-.1982422-.0546878-.0592451-.1002603-.1207679-.1367188-.1845703s-.0683592-.1481115-.0957031-.2529297-.0455729-.2346998-.0546875-.3896484c-.0091147-.1549487-.0136719-.3509103-.0136719-.5878907 0-.3098974.0068359-.571939.0205078-.7861328.013672-.2141938.0364582-.3828119.0683594-.5058594s.0774736-.2096351.1367187-.2597656c.0592451-.0501304.1344397-.0751953.225586-.0751953.0820316 0 .1777338.0296221.2871094.0888672.1093755.0592451.2324211.1207679.3691406.1845703.1367194.0638024.296223.1253252.4785156.1845703s.3964831.0888672.6425781.0888672.4625642-.0341793.6494141-.1025391c.1868499-.0683597.3417962-.1868481.4648437-.3554687s.2164711-.3942043.2802735-.6767578.0957031-.6471332.0957031-1.09375v-12.1542969c0-.0911463.0296221-.1708981.0888672-.2392578s.1549472-.1253253.2871094-.1708985c.1321621-.0455731.3167305-.0797524.5537109-.102539s.5286441-.0341797.875-.0341797.6334624.0113931.8613281.0341797.4124342.0569659.553711.102539c.1412767.0455732.2415361.1025388.3007812.1708985s.0888672.1481115.0888672.2392578zm14.3144531-.3828125c0 .9296921-.1731753 1.7454392-.5195312 2.4472656-.3463559.7018265-.8157523 1.2874326-1.4082032 1.756836-.5924508.4694034-1.2851522.8225899-2.078125 1.0595703-.7929727.2369803-1.6406204.3554687-2.5429687.3554687-.6106801 0-1.1780573-.0501297-1.7021484-.1503906-.5240912-.1002609-.9866517-.2210279-1.3876953-.3623047-.4010437-.1412767-.7360013-.2893872-1.0048829-.4443359-.2688815-.1549487-.4625645-.2916661-.5810547-.4101563-.1184901-.1184902-.2027992-.2893869-.2529296-.5126953-.0501305-.2233084-.0751954-.5445942-.0751954-.9638672 0-.2825535.0091145-.5195303.0273438-.7109375s.0478514-.3463535.0888672-.4648437.0957028-.2027993.1640625-.2529297c.0683597-.0501305.1481115-.0751953.2392578-.0751953.1276048 0 .307616.0751945.5400391.2255859.232423.1503914.5309226.3167309.8955078.4990234.3645851.1822926.7998021.3486321 1.305664.4990235s1.0914681.2255859 1.756836.2255859c.4375022 0 .8294253-.0524083 1.1757812-.1572265.3463559-.1048183.6402983-.2529288.881836-.444336.2415376-.1914072.4261061-.428384.5537109-.7109375s.1914063-.5970035.1914063-.9433594c0-.4010436-.109374-.7451157-.328125-1.0322265-.2187511-.2871108-.503579-.5423166-.8544922-.765625-.3509133-.2233084-.7496723-.4329417-1.1962891-.6289063-.4466168-.1959645-.9068987-.4033192-1.3808594-.6220703s-.9342425-.467121-1.3808593-.7451172c-.4466169-.2779961-.8453759-.6106751-1.1962891-.9980468-.3509132-.3873718-.6357411-.845375-.8544922-1.3740235s-.328125-1.1621057-.328125-1.9003906c0-.8476605.157225-1.5927702.4716797-2.2353516.3144547-.6425813.7382786-1.1757791 1.2714844-1.5996093.5332058-.4238303 1.1621057-.7405589 1.8867187-.9501953.724613-.2096365 1.492509-.3144532 2.3037109-.3144532.419273 0 .8385396.0319007 1.2578126.0957032.4192729.0638024.811196.15039 1.1757812.2597656.3645852.1093755.6881496.2324212.9707031.3691406s.4694006.2506506.5605469.3417969.1526691.1686194.1845703.2324219c.0319012.0638024.0592447.1481114.0820313.2529296.0227865.1048183.0387369.2369784.0478515.3964844.0091147.159506.0136719.3577462.0136719.5947266 0 .2643242-.0068359.4876293-.0205078.6699218-.013672.1822926-.0364582.3326817-.0683594.4511719s-.0774736.2050779-.1367187.2597657c-.0592451.0546877-.1389969.0820312-.2392579.0820312-.1002609 0-.2597645-.0638014-.4785156-.1914062-.2187511-.1276049-.4876286-.2666009-.8066406-.4169922-.319012-.1503914-.6881489-.2871088-1.1074219-.4101563-.4192729-.1230475-.8795548-.1845703-1.3808593-.1845703-.3919291 0-.7337225.0478511-1.0253907.1435547-.2916681.0957036-.5354808.2278637-.7314453.3964844-.1959645.1686206-.3417964.371418-.4375.6083984s-.1435547.4876289-.1435547.7519531c0 .3919291.1070953.7314439.3212891 1.0185547s.5013003.5423166.8613281.765625c.3600279.2233084.7679014.4329417 1.2236328.6289063.4557315.1959645.9205706.4033192 1.3945313.6220703s.9387998.467121 1.3945312.7451172c.4557315.2779961.8613264.6106751 1.2167969.9980468.3554705.3873718.642577.8430964.8613281 1.3671875.2187511.5240912.328125 1.141598.328125 1.8525391z" fill="#fff" fill-rule="nonzero"/></g></svg>