<svg height="80" viewBox="0 0 80 80" width="80" xmlns="http://www.w3.org/2000/svg"><g fill="none" fill-rule="evenodd"><g transform="translate(5)"><path d="m45 0v21c0 2.209139 1.790861 4 4 4h21v47c0 4.418278-3.581722 8-8 8h-54c-4.418278 0-8-3.581722-8-8v-64c0-4.418278 3.581722-8 8-8z" fill="#64b5f6"/><path d="m45 0 25 25h-21c-2.209139 0-4-1.790861-4-4z" fill="#bbdefb"/></g><path d="m20.6523438 55.78125c0 .6875034-.0644525 1.3066379-.1933594 1.8574219s-.3476547 1.0195293-.65625 1.40625-.7128881.6816396-1.2128906.8847656c-.5000026.203126-1.1171839.3046875-1.8515626.3046875-.2343761 0-.4667957-.0175779-.6972656-.0527344-.2304699-.0351564-.4414053-.0800778-.6328125-.1347656s-.3574211-.1132809-.4980469-.1757812c-.1406257-.0625004-.2343747-.1191404-.28125-.1699219-.0468752-.0507815-.0859373-.1035154-.1171874-.1582031-.0312502-.0546878-.0585937-.1269527-.0820313-.2167969s-.0390625-.2011712-.046875-.3339844-.0117187-.3007802-.0117187-.5039063c0-.2656263.0058593-.4902334.0175781-.6738281.0117188-.1835946.0312498-.3281244.0585937-.4335937s.066406-.1796873.1171875-.2226563c.0507815-.0429689.115234-.0644531.1933594-.0644531.0703129 0 .1523433.0253904.2460937.0761719.0937505.0507815.1992182.1035153.3164063.1582031s.2539055.1074216.4101563.1582031c.1562507.0507815.3398426.0761719.5507812.0761719s.3964836-.0292966.5566406-.0878906c.1601571-.0585941.2929682-.1601556.3984375-.3046875.1054693-.144532.1855466-.3378894.2402344-.5800781.0546878-.2421888.0820313-.5546856.0820313-.9375v-10.4179688c0-.0781254.0253903-.1464841.0761718-.2050781.0507815-.0585941.132812-.1074217.2460938-.1464844s.2714833-.0683593.4746094-.0878906c.203126-.0195314.4531235-.0292969.75-.0292969.2968764 0 .5429677.0097655.7382812.0292969.1953135.0195313.353515.0488279.4746094.0878906.1210943.0390627.207031.0878903.2578125.1464844.0507815.058594.0761719.1269527.0761719.2050781zm12.2695312-.328125c0 .796879-.148436 1.4960907-.4453125 2.0976562-.2968765.6015656-.6992162 1.1035137-1.2070313 1.5058594-.507815.4023458-1.1015591.7050771-1.78125.9082032-.6796908.203126-1.4062461.3046874-2.1796874.3046874-.5234402 0-1.0097634-.0429683-1.4589844-.1289062s-.8457014-.1894525-1.1894532-.3105469c-.3437517-.1210943-.6308582-.2480462-.8613281-.3808593-.2304699-.1328132-.3964838-.2499995-.4980469-.3515626-.101563-.101563-.1738279-.2480459-.2167968-.4394531-.042969-.1914072-.0644532-.4667951-.0644532-.8261719 0-.2421887.0078125-.4453116.0234376-.609375.015625-.1640633.0410154-.2968744.0761718-.3984374.0351565-.1015631.082031-.173828.140625-.2167969.0585941-.042969.1269528-.0644531.2050782-.0644531.1093755 0 .2636708.0644524.4628906.1933593.1992197.1289069.4550765.2714836.7675781.4277344s.6855447.2988275 1.1191406.4277344.935544.1933593 1.5058594.1933593c.3750019 0 .710936-.0449214 1.0078125-.1347656s.5488271-.216796.7558594-.3808594c.2070323-.1640633.3652338-.3671862.4746094-.609375.1093755-.2421887.1640624-.5117172.1640624-.8085937 0-.3437517-.093749-.6386706-.28125-.8847656-.1875009-.246095-.4316391-.4648428-.7324218-.65625-.3007828-.1914072-.6425762-.3710929-1.0253906-.5390625-.3828145-.1679696-.7773418-.3457022-1.1835938-.5332032-.406252-.1875009-.8007793-.4003894-1.1835938-.6386718-.3828144-.2382825-.7246078-.5234359-1.0253906-.8554688-.3007827-.3320329-.5449209-.7246071-.7324218-1.1777344-.187501-.4531272-.28125-.9960905-.28125-1.6289062 0-.7265661.1347642-1.3652316.4042968-1.9160156s.6328102-1.0078107 1.0898438-1.3710938c.4570335-.363283.9960906-.6347647 1.6171875-.8144531.6210968-.1796884 1.2792934-.2695313 1.9746093-.2695313.3593768 0 .7187483.0273435 1.078125.0820313.3593768.0546878.695311.1289058 1.0078126.2226563.3125015.0937504.5898425.1992181.8320312.3164062s.4023434.2148434.4804688.2929688c.0781253.0781253.1308592.1445309.1582031.1992187s.0507811.1269527.0703125.2167969c.0195313.0898442.0332031.2031243.0410156.3398437.0078125.1367195.0117188.3066396.0117188.5097657 0 .2265636-.0058594.4179679-.0175782.5742187s-.0312498.2851557-.0585937.3867187c-.0273439.1015631-.066406.1757811-.1171875.2226563s-.1191402.0703125-.2050782.0703125c-.0859379 0-.2226553-.054687-.4101562-.1640625s-.4179674-.228515-.6914062-.3574219c-.2734389-.1289069-.589842-.2460932-.9492188-.3515625s-.7539041-.1582031-1.1835938-.1582031c-.3359391 0-.6289049.0410152-.8789062.1230469-.2500013.0820316-.4589835.1953118-.6269531.3398437-.1679696.144532-.2929684.3183584-.375.5214844-.0820317.203126-.1230469.4179676-.1230469.6445312 0 .3359392.091796.6269519.2753906.8730469.1835947.246095.429686.4648428.7382813.65625s.6582011.3710929 1.0488281.5390625.7890605.3457022 1.1953125.5332032c.406252.1875009.8046855.4003894 1.1953125.6386718.390627.2382825.7382797.5234359 1.0429688.8554688.304689.3320329.5507803.722654.7382812 1.171875s.28125.9785126.28125 1.5878906zm15.9960938-3.2109375c0 1.2578188-.1562485 2.3828075-.46875 3.375-.3125016.9921925-.7773407 1.8339809-1.3945313 2.5253906s-1.3808548 1.2187482-2.2910156 1.5820313c-.9101608.363283-1.9628847.5449218-3.1582031.5449218-1.1796934 0-2.20898-.1542953-3.0878907-.4628906-.8789106-.3085953-1.6113252-.7792937-2.1972656-1.4121094-.5859404-.6328156-1.0253892-1.4374951-1.3183594-2.4140624-.2929702-.9765674-.4394531-2.1328059-.4394531-3.46875 0-1.2265687.1562484-2.3300733.46875-3.3105469.3125016-.9804737.7773407-1.8144497 1.3945312-2.5019531.6171906-.6875035 1.3808549-1.214842 2.2910157-1.5820313s1.9667908-.5507813 3.1699219-.5507813c1.1484432 0 2.1621049.1523423 3.0410156.4570313.8789106.304689 1.6132783.7734343 2.203125 1.40625s1.0351547 1.4316358 1.3359375 2.3964844c.3007827.9648485.4511719 2.103509.4511719 3.4160156zm-3.234375.1640625c0-.796879-.0624994-1.5214811-.1875-2.1738281-.1250007-.652347-.3378892-1.2109352-.6386719-1.6757813-.3007828-.464846-.7011694-.8242175-1.2011719-1.078125s-1.1249962-.3808594-1.875-.3808594c-.7578163 0-1.3906225.1425767-1.8984375.4277344s-.9179672.6660133-1.2304687 1.1425782c-.3125016.4765648-.5332025 1.0331999-.6621094 1.6699218-.1289069.636722-.1933594 1.3105433-.1933594 2.0214844 0 .8281291.0624994 1.5722623.1875 2.2324219.1250006.6601595.335936 1.224607.6328125 1.6933593.2968765.4687524.69531.8261707 1.1953125 1.0722657s1.1289025.3691406 1.8867188.3691406c.7578162 0 1.3906224-.1406236 1.8984374-.421875.5078151-.2812514.9179672-.6640601 1.2304688-1.1484375s.5332025-1.0488249.6621094-1.6933594c.1289069-.6445344.1933594-1.3300745.1933594-2.0566406zm18.328125 6.515625c0 .1796884-.0312497.339843-.09375.4804688-.0625004.1406257-.1464839.257812-.2519532.3515624-.1054693.0937505-.230468.1621092-.375.2050782-.1445319.0429689-.2910149.0644531-.4394531.0644531h-1.3125c-.2734389 0-.5097646-.0273435-.7089844-.0820313-.1992197-.0546877-.3828116-.1542961-.5507812-.2988281-.1679696-.1445319-.3300774-.3398425-.4863281-.5859375-.1562508-.246095-.3320303-.5644511-.5273438-.9550781l-3.7734375-7.0898437c-.2187511-.4218772-.4414051-.8769507-.6679687-1.3652344-.2265637-.4882837-.4296867-.9628883-.609375-1.4238282h-.0234376c.0312502.5625029.0546875 1.1230441.0703126 1.6816407.015625.5585965.0234374 1.1347626.0234374 1.7285156v7.9335937c0 .0781254-.0214841.1484372-.0644531.2109376-.0429689.0625003-.1171869.1152341-.2226562.1582031-.1054693.0429689-.248046.0761717-.4277344.0996093-.1796884.0234377-.4101548.0351563-.6914063.0351563-.2734388 0-.4999991-.0117186-.6796874-.0351563-.1796884-.0234376-.320312-.0566404-.421875-.0996093-.1015631-.042969-.1718749-.0957028-.2109376-.1582031-.0390626-.0625004-.0585937-.1328122-.0585937-.2109376v-13.6289062c0-.3671893.1074208-.6425772.3222656-.8261719.2148448-.1835946.4785141-.2753906.7910157-.2753906h1.6523437c.2968765 0 .546874.0253904.75.0761719s.3847648.134765.5449219.2519531c.160157.1171881.3105461.2792958.4511718.4863281.1406258.2070323.2851556.4628891.4335938.7675782l2.953125 5.5429687c.1718759.3359392.341796.666014.5097656.9902344.1679696.3242203.3300774.6484359.4863282.9726562.1562507.3242204.308593.6425766.4570312.9550781.1484375.3125016.292968.6249985.4335938.9375h.0117187c-.0234376-.5468777-.0410156-1.1171845-.0527344-1.7109374-.0117188-.593753-.0175781-1.1601536-.0175781-1.6992188v-7.1132812c0-.0781254.0234373-.1484372.0703125-.2109376.0468752-.0625003.1249995-.1171872.234375-.1640624.1093755-.0468753.2539054-.0800781.4335937-.0996094.1796884-.0195314.4101549-.0292969.6914063-.0292969.2656263 0 .4882804.0097655.6679687.0292969.1796884.0195313.3183589.0527341.4160157.0996094.0976567.0468752.1660154.1015621.2050781.1640624.0390627.0625004.0585938.1328122.0585938.2109376z" fill="#fff" fill-rule="nonzero"/></g></svg>