<svg height="80" viewBox="0 0 80 80" width="80" xmlns="http://www.w3.org/2000/svg"><g fill="none" fill-rule="evenodd"><g transform="translate(5)"><path d="m45 0v21c0 2.209139 1.790861 4 4 4h21v47c0 4.418278-3.581722 8-8 8h-54c-4.418278 0-8-3.581722-8-8v-64c0-4.418278 3.581722-8 8-8z" fill="#b0bec5"/><path d="m45 0 25 25h-21c-2.209139 0-4-1.790861-4-4z" fill="#cfd8dc"/></g><path d="m27.5859375 58.4960938c0 .2734388-.0113931.5035797-.0341797.6904296s-.0569659.3417963-.102539.4648438c-.0455732.1230475-.1025388.2119138-.1708985.2666016-.0683597.0546877-.1481115.0820312-.2392578.0820312h-8.1074219c-.3007827 0-.5537099-.0888663-.758789-.2666016-.2050792-.1777352-.3076172-.4671204-.3076172-.868164v-16.0644532c0-.0911462.0296221-.1731767.0888672-.2460937s.1572258-.1321612.2939453-.1777344c.1367194-.0455731.3212879-.0820311.5537109-.109375s.5218082-.0410156.8681641-.0410156c.3554705 0 .6471343.0136717.875.0410156s.4101555.0638019.546875.109375c.1367194.0455732.2347002.1048174.2939453.1777344s.0888672.1549475.0888672.2460937v14.2324219h5.5644531c.0911463 0 .1708981.0250649.2392578.0751953.0683597.0501305.1253253.1321609.1708985.2460938.0455731.1139328.0797524.264322.102539.4511719s.0341797.4169908.0341797.6904297zm17.5410156-7.546875c0 1.4674552-.1822898 2.7799421-.546875 3.9375-.3645851 1.1575578-.9068974 2.1396444-1.6269531 2.946289-.7200557.8066447-1.6109973 1.4218729-2.6728516 1.8457031-1.0618542.4238303-2.2900321.6357422-3.6845703.6357422-1.3763089 0-2.5771433-.1800112-3.602539-.540039-1.0253958-.3600279-1.8798794-.909176-2.5634766-1.647461-.6835972-.7382849-1.1962874-1.6770776-1.5380859-2.8164062-.3417986-1.1393286-.5126954-2.4882735-.5126954-4.046875 0-1.4309968.1822899-2.7184188.546875-3.8623047.3645852-1.1438859.9068975-2.116858 1.6269532-2.9189453.7200557-.8020874 1.6109973-1.4173156 2.6728515-1.8457031 1.0618543-.4283876 2.2945894-.6425782 3.6982422-.6425782 1.3398505 0 2.5224558.1777326 3.5478516.5332032 1.0253957.3554705 1.882158.90234 2.5703125 1.640625.6881545.7382849 1.2076805 1.6702417 1.5585937 2.7958984.3509133 1.1256567.5263672 2.4540939.5263672 3.9853516zm-3.7734375.1914062c0-.9296921-.0729159-1.7750613-.21875-2.5361328-.145834-.7610715-.3942039-1.4127577-.7451172-1.9550781-.3509132-.5423205-.8180309-.9615871-1.4013672-1.2578125-.5833362-.2962255-1.3124956-.444336-2.1875-.444336-.884119 0-1.6223928.1663395-2.2148437.4990235-.5924509.3326839-1.0709617.7770154-1.4355469 1.3330078-.3645851.5559923-.6220695 1.2053999-.7724609 1.9482422-.1503914.7428422-.2255859 1.5289672-.2255859 2.3583984 0 .9661507.0729159 1.834306.21875 2.6044922.145834.7701861.3919253 1.4287082.7382812 1.9755859.3463559.5468778.811195.9638658 1.3945312 1.2509766.5833363.2871108 1.3170529.430664 2.2011719.430664s1.6223929-.1640608 2.2148438-.4921874c.5924509-.3281267 1.0709617-.7747368 1.4355469-1.3398438.3645851-.565107.6220695-1.2236291.7724609-1.9755859.1503914-.7519569.2255859-1.5517536.2255859-2.3994141zm20.9863282-6.0839844c0 .2643243-.0113932.4921866-.0341797.6835938-.0227866.1914072-.0546873.3440749-.0957032.4580078-.0410158.1139328-.0911455.1936847-.1503906.2392578s-.1298824.0683594-.2119141.0683594c-.1184901 0-.3098945-.0820305-.5742187-.2460938s-.6152322-.3417959-1.0527344-.5332031-.9593068-.3691398-1.5654297-.5332031c-.6061228-.1640633-1.3102173-.2460938-2.1123046-.2460938-.8567752 0-1.631507.1481105-2.3242188.444336-.6927118.2962254-1.2851538.715492-1.7773438 1.2578125-.4921899.5423204-.8704413 1.1940066-1.1347656 1.9550781-.2643242.7610715-.3964844 1.6018834-.3964844 2.5224609 0 1.0117238.1344388 1.9026654.4033204 2.6728516.2688815.7701861.6448543 1.4150365 1.1279296 1.9345703.4830754.5195338 1.0641243.911457 1.7431641 1.1757812.6790399.2643243 1.4287068.3964844 2.2490235.3964844.4010436 0 .797524-.0455724 1.1894531-.1367187.391929-.0911463.7565087-.2278637 1.09375-.4101563v-4.1015625h-3.3496094c-.1640633 0-.2916662-.102538-.3828125-.3076172-.0911463-.2050791-.1367188-.5537084-.1367188-1.0458984 0-.2552096.0113932-.4694002.0341797-.6425781.0227866-.173178.056966-.312174.1025391-.4169922s.1002601-.1822914.1640625-.2324219c.0638024-.0501304.1367183-.0751953.21875-.0751953h5.9746094c.145834 0 .2757156.0250649.3896484.0751953.1139329.0501305.2141923.125325.3007813.2255859.0865889.100261.152669.221028.1982422.3623047.0455731.1412768.0683593.303059.0683593.4853516v7.0410156c0 .2734389-.0478511.5126943-.1435547.7177735-.0957036.2050791-.2916651.3668613-.5878906.4853515-.2962254.1184902-.6630837.2415358-1.1005859.3691407-.4375022.1276048-.8909482.2369787-1.3603516.328125-.4694034.0911462-.943357.1595049-1.421875.2050781-.478518.0455731-.9593075.0683593-1.4423828.0683593-1.4127675 0-2.6774033-.2027974-3.7939453-.6083984-1.1165421-.405601-2.0621706-.9934857-2.8369141-1.7636719-.7747434-.7701861-1.3671854-1.7089788-1.7773437-2.8164062s-.6152344-2.3629487-.6152344-3.7666016c0-1.449226.2187478-2.7503197.65625-3.9033203.4375022-1.1530005 1.0572877-2.1328085 1.859375-2.9394531.8020873-.8066447 1.7705021-1.4241515 2.9052734-1.8525391 1.1347713-.4283875 2.3994071-.6425781 3.7939454-.6425781.7656288 0 1.4628874.0524083 2.0917968.1572266.6289094.1048182 1.1780576.2324211 1.647461.3828125.4694034.1503913.8590479.3121736 1.1689453.4853515.3098974.173178.5263665.3235671.649414.4511719s.2119138.307616.2666016.5400391c.0546878.232423.0820313.5764951.0820313 1.0322265z" fill="#fff" fill-rule="nonzero"/></g></svg>