<?xml version="1.0" standalone="no"?><!DOCTYPE svg PUBLIC "-//W3C//DTD SVG 1.1//EN" "http://www.w3.org/Graphics/SVG/1.1/DTD/svg11.dtd"><svg t="1747152832246" class="icon" viewBox="0 0 1024 1024" version="1.1" xmlns="http://www.w3.org/2000/svg" p-id="1861" xmlns:xlink="http://www.w3.org/1999/xlink" width="256" height="256"><path d="M146.879977 0A52.335992 52.335992 0 0 0 95.999985 51.167992v921.647856a49.039992 49.039992 0 0 0 15.279998 35.791994A49.839992 49.839992 0 0 0 146.863977 1023.99984h746.287883a48.559992 48.559992 0 0 0 35.567995-15.359998A50.719992 50.719992 0 0 0 943.999853 972.815848V290.015955L655.679898 0H146.847977h0.016z" fill="#EB2F96" p-id="1862"></path><path d="M943.999853 287.999955H706.84789A52.127992 52.127992 0 0 1 655.999898 237.199963V0l287.951955 287.999955H943.999853z" fill="#FFFFFF" fill-opacity=".7" p-id="1863"></path><path d="M267.327958 751.999883h40.959994v-65.27999c0-18.943997-3.583999-47.359993-5.887999-66.04799h1.024l15.359997 45.567993 25.855996 69.631989h25.087996l25.599996-69.631989 15.871998-45.567993h1.28c-2.56 18.687997-6.143999 47.103993-6.143999 66.04799V751.999883h41.727993V561.279912H398.399938l-29.183996 82.431987c-3.583999 11.007998-6.655999 23.039996-10.495998 34.559995h-1.28c-3.583999-11.519998-6.655999-23.551996-10.495998-34.559995l-30.207995-82.431987h-49.407993V751.999883z m288.255955 0h42.495994v-43.263994h20.991996V673.919895H598.079907v-107.775983h-56.319992l-66.303989 110.847982v31.743995h80.127987V751.999883z m0-78.079988h-36.607994l21.759997-37.375994c5.375999-11.007998 10.495998-21.503997 15.359997-32.255995h1.024c-0.512 12.031998-1.536 30.463995-1.536 42.495993v27.135996zM623.679903 751.999883h46.591992l11.007999-43.775994h56.319991L748.607883 751.999883h48.127993L737.599885 561.279912h-54.783992L623.679903 751.999883z m66.303989-79.103988l4.096-16.127998c4.863999-18.943997 9.983998-41.215994 14.591997-61.18399h1.024c5.119999 19.455997 9.983998 42.239993 15.103998 61.18399l4.095999 16.127998h-38.911994z" fill="#FFFFFF" p-id="1864"></path></svg>