<?xml version="1.0" standalone="no"?><!DOCTYPE svg PUBLIC "-//W3C//DTD SVG 1.1//EN" "http://www.w3.org/Graphics/SVG/1.1/DTD/svg11.dtd"><svg t="1747152788408" class="icon" viewBox="0 0 1024 1024" version="1.1" xmlns="http://www.w3.org/2000/svg" p-id="1693" xmlns:xlink="http://www.w3.org/1999/xlink" width="256" height="256"><path d="M146.879977 0A52.335992 52.335992 0 0 0 95.999985 51.167992v921.647856a49.039992 49.039992 0 0 0 15.279998 35.791994A49.839992 49.839992 0 0 0 146.863977 1023.99984h746.287883a48.559992 48.559992 0 0 0 35.567995-15.359998A50.719992 50.719992 0 0 0 943.999853 972.815848V290.015955L655.679898 0H146.847977h0.016z" fill="#3662EC" p-id="1694"></path><path d="M943.999853 287.999955H706.84789A52.127992 52.127992 0 0 1 655.999898 237.199963V0l287.951955 287.999955H943.999853z" fill="#FFFFFF" fill-opacity=".7" p-id="1695"></path><path d="M246.847961 751.999883h40.959994v-65.27999c0-18.943997-3.583999-47.359993-5.887999-66.04799h1.024l15.359997 45.567993 25.855996 69.631989h25.087996l25.599996-69.631989 15.871998-45.567993h1.28c-2.56 18.687997-6.143999 47.103993-6.143999 66.04799V751.999883h41.727993V561.279912H377.919941l-29.183995 82.431987c-3.583999 11.007998-6.655999 23.039996-10.495999 34.559995h-1.28c-3.583999-11.519998-6.655999-23.551996-10.495998-34.559995l-30.207995-82.431987h-49.407993V751.999883z m224.511965 0h45.823993V561.279912H471.359926V751.999883z m89.599986 0h57.343991c55.551991 0 93.951985-29.951995 93.951986-96.255985s-38.399994-94.463985-96.511985-94.463986H560.959912V751.999883z m45.823993-36.863995v-117.247981h6.143999c30.719995 0 52.479992 12.543998 52.479992 57.855991s-21.759997 59.391991-52.479992 59.39199h-6.143999z m140.799978 36.863995h45.823993V561.279912h-45.823993V751.999883z" fill="#FFFFFF" p-id="1696"></path></svg>