<?xml version="1.0" standalone="no"?><!DOCTYPE svg PUBLIC "-//W3C//DTD SVG 1.1//EN" "http://www.w3.org/Graphics/SVG/1.1/DTD/svg11.dtd"><svg t="1747152843371" class="icon" viewBox="0 0 1024 1024" version="1.1" xmlns="http://www.w3.org/2000/svg" p-id="2031" xmlns:xlink="http://www.w3.org/1999/xlink" width="256" height="256"><path d="M146.879977 0A52.335992 52.335992 0 0 0 95.999985 51.167992v921.647856a49.039992 49.039992 0 0 0 15.279998 35.791994A49.839992 49.839992 0 0 0 146.863977 1023.99984h746.287883a48.559992 48.559992 0 0 0 35.567995-15.359998A50.719992 50.719992 0 0 0 943.999853 972.815848V290.015955L655.679898 0H146.847977h0.016z" fill="#EB2F96" p-id="2032"></path><path d="M943.999853 287.999955H706.84789A52.127992 52.127992 0 0 1 655.999898 237.199963V0l287.951955 287.999955H943.999853z" fill="#FFFFFF" fill-opacity=".7" p-id="2033"></path><path d="M259.519959 751.999883h40.959994v-65.27999c0-18.943997-3.583999-47.359993-5.887999-66.04799h1.024l15.359997 45.567993 25.855996 69.631989h25.087996l25.599996-69.631989 15.871998-45.567993h1.28c-2.56 18.687997-6.143999 47.103993-6.143999 66.04799V751.999883h41.727993V561.279912h-49.663992l-29.183995 82.431987c-3.583999 11.007998-6.655999 23.039996-10.495999 34.559995h-1.28c-3.583999-11.519998-6.655999-23.551996-10.495998-34.559995l-30.207995-82.431987H259.519959V751.999883z m224.511965 0h45.823993v-49.919993l20.735997-28.159995L595.647907 751.999883h49.919992l-68.351989-114.175983 57.599991-76.543988H584.639909l-54.015992 75.519989h-0.768v-75.519989h-45.823993V751.999883z m208.639968 0h55.039991L804.799874 561.279912h-46.591992l-21.503997 87.039987c-5.375999 20.479997-9.215999 39.935994-14.847998 60.92799h-1.28c-5.375999-20.991997-9.215999-40.447994-14.847997-60.92799l-21.759997-87.039987h-48.383992L692.671892 751.999883z" fill="#FFFFFF" p-id="2034"></path></svg>