<svg height="80" viewBox="0 0 80 80" width="80" xmlns="http://www.w3.org/2000/svg"><g fill="none" fill-rule="evenodd"><g transform="translate(5)"><path d="m45 0v21c0 2.209139 1.790861 4 4 4h21v47c0 4.418278-3.581722 8-8 8h-54c-4.418278 0-8-3.581722-8-8v-64c0-4.418278 3.581722-8 8-8z" fill="#9575cd"/><path d="m45 0 25 25h-21c-2.209139 0-4-1.790861-4-4z" fill="#d1c4e9"/></g><path d="m32.8017578 59.5078125c0 .0911463-.0250648.1731767-.0751953.2460937-.0501305.0729171-.1412754.1321613-.2734375.1777344-.1321621.0455732-.3076161.0820311-.5263672.109375s-.4967431.0410156-.8339844.0410156c-.3281266 0-.6015614-.0136717-.8203125-.0410156s-.3919264-.0638018-.5195312-.109375c-.1276048-.0455731-.2187497-.1048173-.2734375-.1777344-.0546878-.072917-.0820313-.1549474-.0820313-.2460937v-14.3964844h-.0273437l-5.1269531 14.3828125c-.0364586.1184902-.0957028.216471-.1777344.2939453-.0820317.0774744-.1936842.1389972-.3349609.1845703-.1412768.0455732-.321288.0751953-.5400391.0888672-.2187511.013672-.4830714.0205078-.7929688.0205078-.3098973 0-.5742176-.0113931-.7929687-.0341796-.2187511-.0227866-.3987623-.0592446-.5400391-.109375-.1412767-.0501305-.2529293-.1116533-.3349609-.1845704-.0820317-.072917-.1367186-.1595047-.1640625-.2597656l-4.9492188-14.3828125h-.0273437v14.3964844c0 .0911463-.0250649.1731767-.0751953.2460937-.0501305.0729171-.143554.1321613-.2802735.1777344-.1367194.0455732-.3121734.0820311-.5263672.109375-.2141937.0273439-.4899071.0410156-.8271484.0410156-.3281266 0-.6015614-.0136717-.8203125-.0410156s-.3942051-.0638018-.5263672-.109375c-.1321621-.0455731-.223307-.1048173-.2734375-.1777344-.0501304-.072917-.0751953-.1549474-.0751953-.2460937v-15.7636719c0-.464846.1230457-.8203112.3691406-1.0664062.246095-.246095.5742167-.3691406.984375-.3691406h2.3515625c.419273 0 .7792954.0341793 1.0800782.102539.3007827.0683597.5605457.1822909.7792968.3417969s.401041.3691393.546875.6289062c.1458341.259767.273437.5810528.3828125.9638672l3.828125 10.5410157h.0546875l3.9648438-10.5136719c.1184902-.3828144.2483717-.7063789.3896484-.9707031.1412768-.2643243.3053376-.4785149.4921875-.6425782s.4078764-.2802731.663086-.3486328.5514306-.102539.8886718-.102539h2.4199219c.246095 0 .4580069.0319007.6357422.0957031s.3235671.1572259.4375.2802734.2005205.2734366.2597656.4511719.0888672.3805327.0888672.6083984zm19.7695313-8.5585937c0 1.4674552-.1822899 2.7799421-.546875 3.9375-.3645852 1.1575578-.9068975 2.1396444-1.6269532 2.946289-.7200556.8066447-1.6109973 1.4218729-2.6728515 1.8457031-1.0618543.4238303-2.2900321.6357422-3.6845703.6357422-1.376309 0-2.5771433-.1800112-3.6025391-.540039-1.0253958-.3600279-1.8798794-.909176-2.5634766-1.647461-.6835971-.7382849-1.1962873-1.6770776-1.5380859-2.8164062s-.5126953-2.4882735-.5126953-4.046875c0-1.4309968.1822898-2.7184188.546875-3.8623047.3645851-1.1438859.9068974-2.116858 1.6269531-2.9189453.7200557-.8020874 1.6109973-1.4173156 2.6728516-1.8457031 1.0618542-.4283876 2.2945893-.6425782 3.6982422-.6425782 1.3398504 0 2.5224558.1777326 3.5478515.5332032 1.0253958.3554705 1.882158.90234 2.5703125 1.640625.6881545.7382849 1.2076806 1.6702417 1.5585938 2.7958984s.5263672 2.4540939.5263672 3.9853516zm-3.7734375.1914062c0-.9296921-.072916-1.7750613-.21875-2.5361328-.1458341-.7610715-.394204-1.4127577-.7451172-1.9550781-.3509132-.5423205-.818031-.9615871-1.4013672-1.2578125-.5833363-.2962255-1.3124956-.444336-2.1875-.444336-.884119 0-1.6223929.1663395-2.2148438.4990235-.5924508.3326839-1.0709617.7770154-1.4355468 1.3330078-.3645852.5559923-.6220696 1.2053999-.772461 1.9482422-.1503914.7428422-.2255859 1.5289672-.2255859 2.3583984 0 .9661507.0729159 1.834306.21875 2.6044922.1458341.7701861.3919253 1.4287082.7382812 1.9755859.3463559.5468778.811195.9638658 1.3945313 1.2509766.5833362.2871108 1.3170529.430664 2.2011719.430664s1.6223928-.1640608 2.2148437-.4921874c.5924509-.3281267 1.0709617-.7747368 1.4355469-1.3398438.3645851-.565107.6220695-1.2236291.7724609-1.9755859.1503914-.7519569.225586-1.5517536.225586-2.3994141zm15.1210937 8.2304688c-.0455731.1549486-.1048173.2802729-.1777344.3759765-.072917.0957036-.1914054.1686196-.3554687.21875-.1640633.0501305-.3873684.0820312-.6699219.0957031-.2825535.013672-.6516904.0205078-1.1074219.0205078-.3645851 0-.6767565-.0022786-.9365234-.0068359s-.4807934-.0159504-.6630859-.0341797c-.1822926-.0182292-.3304031-.0455727-.444336-.0820312-.1139328-.0364585-.209635-.082031-.2871093-.1367188-.0774744-.0546877-.1367186-.1207678-.1777344-.1982422-.0410159-.0774743-.0797524-.1754551-.116211-.2939453l-5.2636718-15.6816406c-.1093756-.3281266-.1754557-.5878897-.1982422-.7792969-.0227866-.1914072.0227859-.3349604.1367187-.430664.1139329-.0957036.3076158-.1549478.5810547-.1777344s.6562476-.0341797 1.1484375-.0341797c.4192729 0 .7473947.0091145.984375.0273437.2369804.0182293.4192702.05013.546875.0957032.1276048.0455731.2164711.1139318.2666016.2050781.0501304.0911463.0979815.2050774.1435547.3417969l4.3066406 13.6445312h.0136719l4.2246093-13.5761718c.0364586-.1549487.082031-.280273.1367188-.3759766s.1481113-.1708982.2802734-.225586c.1321621-.0546877.3212879-.0911457.5673828-.109375.246095-.0182292.5833312-.0273437 1.0117188-.0273437.4192729 0 .745116.0136717.977539.0410156.2324231.0273439.3919267.093424.4785157.1982422.0865889.1048182.1139324.2529287.0820312.4443359-.0319012.1914073-.1025385.446613-.211914.765625z" fill="#fff" fill-rule="nonzero"/></g></svg>