<?xml version="1.0" standalone="no"?><!DOCTYPE svg PUBLIC "-//W3C//DTD SVG 1.1//EN" "http://www.w3.org/Graphics/SVG/1.1/DTD/svg11.dtd"><svg t="1747152848839" class="icon" viewBox="0 0 1024 1024" version="1.1" xmlns="http://www.w3.org/2000/svg" p-id="2201" xmlns:xlink="http://www.w3.org/1999/xlink" width="256" height="256"><path d="M146.879977 0A52.335992 52.335992 0 0 0 95.999985 51.167992v921.647856a49.039992 49.039992 0 0 0 15.279998 35.791994A49.839992 49.839992 0 0 0 146.863977 1023.99984h746.287883a48.559992 48.559992 0 0 0 35.567995-15.359998A50.719992 50.719992 0 0 0 943.999853 972.815848V290.015955L655.679898 0H146.847977h0.016z" fill="#FF8F1F" p-id="2202"></path><path d="M943.999853 287.999955H706.84789A52.127992 52.127992 0 0 1 655.999898 237.199963V0l287.951955 287.999955H943.999853z" fill="#FFFFFF" fill-opacity=".7" p-id="2203"></path><path d="M263.871959 751.999883h40.959993v-65.27999c0-18.943997-3.583999-47.359993-5.887999-66.04799h1.024l15.359998 45.567993 25.855996 69.631989h25.087996l25.599996-69.631989 15.871997-45.567993h1.28c-2.56 18.687997-6.143999 47.103993-6.143999 66.04799V751.999883h41.727994V561.279912h-49.663993l-29.183995 82.431987c-3.583999 11.007998-6.655999 23.039996-10.495999 34.559995h-1.279999c-3.583999-11.519998-6.655999-23.551996-10.495999-34.559995L313.279951 561.279912h-49.407992V751.999883z m224.511965 0h45.823993v-63.231991h22.271996c40.447994 0 75.263988-19.967997 75.263988-65.279989 0-47.103993-34.559995-62.20799-76.287988-62.207991h-67.071989V751.999883z m45.823993-99.327985v-55.039991h18.687997c22.015997 0 34.303995 6.655999 34.303994 25.855996 0 18.687997-10.751998 29.183995-33.023995 29.183995h-19.967996zM652.991898 751.999883h132.095979v-38.399994h-35.071994c-8.703999 0-21.759997 1.28-31.231995 2.559999 28.671996-29.695995 57.599991-62.71999 57.599991-93.695985 0-36.351994-25.599996-59.903991-62.463991-59.903991-27.135996 0-44.543993 9.727998-63.23199 29.439996l24.831996 24.575996c9.215999-9.215999 19.199997-18.431997 32.255995-18.431997 15.359998 0 24.831996 9.215999 24.831997 26.879995 0 26.111996-33.535995 57.855991-79.615988 100.863985V751.999883z" fill="#FFFFFF" p-id="2204"></path></svg>