<svg height="80" viewBox="0 0 80 80" width="80" xmlns="http://www.w3.org/2000/svg"><g fill="none" fill-rule="evenodd"><g transform="translate(5)"><path d="m45 0v21c0 2.209139 1.790861 4 4 4h21v47c0 4.418278-3.581722 8-8 8h-54c-4.418278 0-8-3.581722-8-8v-64c0-4.418278 3.581722-8 8-8z" fill="#ec407a"/><path d="m45 0 25 25h-21c-2.209139 0-4-1.790861-4-4z" fill="#f48fb1"/></g><path d="m35.7617188 59.5078125c0 .0911463-.0250649.1731767-.0751954.2460937-.0501304.0729171-.1412753.1321613-.2734375.1777344-.1321621.0455732-.3076161.0820311-.5263671.109375-.2187511.0273439-.4967432.0410156-.8339844.0410156-.3281267 0-.6015614-.0136717-.8203125-.0410156s-.3919265-.0638018-.5195313-.109375c-.1276048-.0455731-.2187497-.1048173-.2734375-.1777344-.0546877-.072917-.0820312-.1549474-.0820312-.2460937v-14.3964844h-.0273438l-5.1269531 14.3828125c-.0364585.1184902-.0957027.216471-.1777344.2939453-.0820316.0774744-.1936842.1389972-.3349609.1845703-.1412768.0455732-.321288.0751953-.5400391.0888672-.2187511.013672-.4830713.0205078-.7929687.0205078s-.5742177-.0113931-.7929688-.0341796c-.2187511-.0227866-.3987623-.0592446-.540039-.109375-.1412768-.0501305-.2529293-.1116533-.334961-.1845704-.0820316-.072917-.1367186-.1595047-.1640625-.2597656l-4.9492187-14.3828125h-.0273438v14.3964844c0 .0911463-.0250648.1731767-.0751953.2460937-.0501304.0729171-.143554.1321613-.2802734.1777344-.1367195.0455732-.3121734.0820311-.5263672.109375s-.4899072.0410156-.8271484.0410156c-.3281267 0-.6015615-.0136717-.8203126-.0410156-.218751-.0273439-.394205-.0638018-.5263671-.109375-.1321622-.0455731-.2233071-.1048173-.2734375-.1777344-.0501305-.072917-.0751954-.1549474-.0751954-.2460937v-15.7636719c0-.464846.1230457-.8203112.3691407-1.0664062s.5742167-.3691406.984375-.3691406h2.3515625c.4192729 0 .7792953.0341793 1.0800781.102539s.5605458.1822909.7792969.3417969.4010409.3691393.546875.6289062c.145834.259767.2734369.5810528.3828125.9638672l3.828125 10.5410157h.0546875l3.9648437-10.5136719c.1184902-.3828144.2483717-.7063789.3896485-.9707031.1412767-.2643243.3053376-.4785149.4921875-.6425782s.4078763-.2802731.6630859-.3486328.5514306-.102539.8886719-.102539h2.4199219c.2460949 0 .4580069.0319007.6357421.0957031.1777353.0638024.3235672.1572259.4375.2802734.1139329.1230475.2005206.2734366.2597657.4511719s.0888672.3805327.0888672.6083984zm15.96875-11.8261719c0 .9934946-.1549464 1.8730431-.4648438 2.6386719s-.7610647 1.4104792-1.3535156 1.9345703c-.5924509.5240912-1.3193317.9228502-2.1806641 1.1962891-.8613324.2734388-1.8753197.4101562-3.0419922.4101562h-1.4765625v5.6464844c0 .0911463-.0296221.1731767-.0888672.2460937-.0592451.0729171-.1572258.1321613-.2939453.1777344-.1367194.0455732-.3190093.0820311-.546875.109375s-.5195294.0410156-.875.0410156c-.3463559 0-.635741-.0136717-.868164-.0410156-.2324231-.0273439-.4169915-.0638018-.553711-.109375-.1367194-.0455731-.2324216-.1048173-.2871093-.1777344-.0546878-.072917-.0820313-.1549474-.0820313-.2460937v-15.9140625c0-.4283876.1116525-.7496734.3349609-.9638672s.5172508-.321289.881836-.321289h4.1699218c.419273 0 .818032.0159503 1.1962891.0478515s.8317031.1002599 1.3603516.2050781c.5286485.1048183 1.0641249.2985012 1.6064453.5810547s1.0048809.6402973 1.3876953 1.0732422.6744782.9387992.875 1.5175781c.2005218.578779.3007813 1.2281865.3007813 1.9482422zm-3.7597657.2597656c0-.6197947-.1093739-1.1302063-.328125-1.53125-.2187511-.4010436-.4876286-.6972646-.8066406-.8886718s-.6539696-.3121743-1.0048828-.3623047c-.3509132-.0501305-.7132143-.0751953-1.0869141-.0751953h-1.53125v6.0019531h1.6132813c.5742216 0 1.0550111-.0774732 1.4423828-.2324219s.7041003-.3714179.9501953-.649414c.246095-.2779962.4329421-.6106752.5605469-.9980469s.1914062-.808917.1914062-1.2646485zm17.609375 6.8769532c0 .884119-.1686181 1.6679653-.5058593 2.3515625-.3372413.6835971-.8066377 1.2578102-1.4082032 1.7226562-.6015655.4648461-1.3216104.8180327-2.1601562 1.0595703-.8385459.2415377-1.7545523.3623047-2.7480469.3623047-.6015655 0-1.166664-.0432938-1.6953125-.1298828s-.9957662-.1936842-1.4013672-.3212891c-.405601-.1276048-.7405586-.2597649-1.0048828-.3964843-.2643242-.1367195-.4374996-.2415361-.5195312-.3144531-.0820317-.0729171-.1435545-.1549475-.1845704-.2460938-.0410158-.0911463-.0774738-.1982416-.109375-.3212891s-.0546874-.2779938-.0683593-.4648437c-.013672-.1868499-.0205079-.4124336-.0205079-.6767578 0-.4375022.036458-.7405591.109375-.9091797.0729171-.1686206.182291-.2529297.328125-.2529297.0911463 0 .2483713.0615228.4716797.1845703s.5081363.2552076.8544922.3964844c.3463559.1412767.7519508.2734369 1.2167969.3964844s.9934866.1845703 1.5859375.1845703c.5013046 0 .9433575-.0592442 1.3261719-.1777344s.7086575-.2848297.977539-.4990234c.2688816-.2141938.4694004-.4739568.6015625-.7792969.1321622-.3053401.1982422-.6448549.1982422-1.0185547 0-.4101583-.0797518-.7792952-.2392578-1.1074219-.159506-.3281266-.3964828-.6083973-.7109375-.8408203s-.7109351-.4124342-1.1894531-.540039c-.478518-.1276049-1.0413379-.1914063-1.6884766-.1914063h-1.53125c-.1184902 0-.2187496-.0159504-.3007812-.0478516-.0820317-.0319012-.1503904-.0979812-.2050781-.1982421-.0546878-.100261-.0934244-.239257-.116211-.4169922-.0227866-.1777353-.0341797-.4078762-.0341797-.6904297 0-.2643243.0113931-.4807935.0341797-.6494141s.0592446-.2985021.109375-.3896484c.0501305-.0911463.1139319-.1549478.1914063-.1914063.0774743-.0364585.1708979-.0546875.2802734-.0546875h1.5449219c.5286485 0 .9980448-.0615228 1.4082031-.1845703s.7542304-.2985015 1.0322266-.5263672c.2779961-.2278657.4899081-.5035791.6357421-.8271484.1458341-.3235693.21875-.6813132.21875-1.0732422 0-.3007828-.0501297-.5856106-.1503906-.8544922-.1002609-.2688815-.2483714-.5013011-.4443359-.6972656s-.4488917-.3509109-.7587891-.4648438c-.3098974-.1139328-.674477-.1708984-1.09375-.1708984-.4739607 0-.9205708.0706373-1.3398437.2119141-.419273.1412767-.7952458.2962231-1.1279297.4648437-.332684.1686206-.6152332.3258456-.8476563.4716797-.232423.1458341-.4033197.21875-.5126953.21875-.072917 0-.1367185-.0159504-.1914062-.0478516-.0546878-.0319012-.1002603-.093424-.1367188-.1845703s-.063802-.2233064-.0820312-.3964843c-.0182293-.173178-.0273438-.3964831-.0273438-.6699219 0-.2278657.0045573-.4169915.0136719-.5673828.0091146-.1503914.0273436-.2757157.0546875-.3759766s.0615232-.1868486.1025391-.2597656c.0410158-.0729171.1070959-.1526689.1982421-.2392578.0911463-.086589.2779934-.2164705.5605469-.3896485.2825535-.1731779.6380187-.341796 1.0664063-.5058594.4283875-.1640633.9228487-.3030593 1.4833984-.4169921.5605497-.1139329 1.168942-.1708985 1.8251953-.1708985.8567751 0 1.6155566.1002594 2.2763672.3007813.6608106.2005218 1.2167946.4899069 1.6679688.868164.4511741.3782571.7929676.8430962 1.0253906 1.3945313.232423.551435.3486328 1.1734991.3486328 1.8662109 0 .5377631-.0683587 1.0390602-.2050781 1.5039063-.1367195.464846-.3372383.8795554-.6015625 1.2441406-.2643243.3645852-.5947246.6744779-.991211.9296875-.3964863.2552096-.8544896.4466139-1.3740234.5742187v.0410157c.6197948.072917 1.1757788.230142 1.6679687.4716797.49219.2415376.909178.5445945 1.2509766.9091796.3417986.3645852.6038402.777016.7861328 1.2373047.1822926.4602888.2734375.95475.2734375 1.4833985z" fill="#fff" fill-rule="nonzero"/></g></svg>