<svg height="80" viewBox="0 0 80 80" width="80" xmlns="http://www.w3.org/2000/svg"><g fill="none" fill-rule="evenodd"><g transform="translate(5)"><path d="m45 0v21c0 2.209139 1.790861 4 4 4h21v47c0 4.418278-3.581722 8-8 8h-54c-4.418278 0-8-3.581722-8-8v-64c0-4.418278 3.581722-8 8-8z" fill="#9575cd"/><path d="m45 0 25 25h-21c-2.209139 0-4-1.790861-4-4z" fill="#d1c4e9"/></g><path d="m35.7617188 59.5078125c0 .0911463-.0250649.1731767-.0751954.2460937-.0501304.0729171-.1412753.1321613-.2734375.1777344-.1321621.0455732-.3076161.0820311-.5263671.109375-.2187511.0273439-.4967432.0410156-.8339844.0410156-.3281267 0-.6015614-.0136717-.8203125-.0410156s-.3919265-.0638018-.5195313-.109375c-.1276048-.0455731-.2187497-.1048173-.2734375-.1777344-.0546877-.072917-.0820312-.1549474-.0820312-.2460937v-14.3964844h-.0273438l-5.1269531 14.3828125c-.0364585.1184902-.0957027.216471-.1777344.2939453-.0820316.0774744-.1936842.1389972-.3349609.1845703-.1412768.0455732-.321288.0751953-.5400391.0888672-.2187511.013672-.4830713.0205078-.7929687.0205078s-.5742177-.0113931-.7929688-.0341796c-.2187511-.0227866-.3987623-.0592446-.540039-.109375-.1412768-.0501305-.2529293-.1116533-.334961-.1845704-.0820316-.072917-.1367186-.1595047-.1640625-.2597656l-4.9492187-14.3828125h-.0273438v14.3964844c0 .0911463-.0250648.1731767-.0751953.2460937-.0501304.0729171-.143554.1321613-.2802734.1777344-.1367195.0455732-.3121734.0820311-.5263672.109375s-.4899072.0410156-.8271484.0410156c-.3281267 0-.6015615-.0136717-.8203126-.0410156-.218751-.0273439-.394205-.0638018-.5263671-.109375-.1321622-.0455731-.2233071-.1048173-.2734375-.1777344-.0501305-.072917-.0751954-.1549474-.0751954-.2460937v-15.7636719c0-.464846.1230457-.8203112.3691407-1.0664062s.5742167-.3691406.984375-.3691406h2.3515625c.4192729 0 .7792953.0341793 1.0800781.102539s.5605458.1822909.7792969.3417969.4010409.3691393.546875.6289062c.145834.259767.2734369.5810528.3828125.9638672l3.828125 10.5410157h.0546875l3.9648437-10.5136719c.1184902-.3828144.2483717-.7063789.3896485-.9707031.1412767-.2643243.3053376-.4785149.4921875-.6425782s.4078763-.2802731.6630859-.3486328.5514306-.102539.8886719-.102539h2.4199219c.2460949 0 .4580069.0319007.6357421.0957031.1777353.0638024.3235672.1572259.4375.2802734.1139329.1230475.2005206.2734366.2597657.4511719s.0888672.3805327.0888672.6083984zm15.96875-11.8261719c0 .9934946-.1549464 1.8730431-.4648438 2.6386719s-.7610647 1.4104792-1.3535156 1.9345703c-.5924509.5240912-1.3193317.9228502-2.1806641 1.1962891-.8613324.2734388-1.8753197.4101562-3.0419922.4101562h-1.4765625v5.6464844c0 .0911463-.0296221.1731767-.0888672.2460937-.0592451.0729171-.1572258.1321613-.2939453.1777344-.1367194.0455732-.3190093.0820311-.546875.109375s-.5195294.0410156-.875.0410156c-.3463559 0-.635741-.0136717-.868164-.0410156-.2324231-.0273439-.4169915-.0638018-.553711-.109375-.1367194-.0455731-.2324216-.1048173-.2871093-.1777344-.0546878-.072917-.0820313-.1549474-.0820313-.2460937v-15.9140625c0-.4283876.1116525-.7496734.3349609-.9638672s.5172508-.321289.881836-.321289h4.1699218c.419273 0 .818032.0159503 1.1962891.0478515s.8317031.1002599 1.3603516.2050781c.5286485.1048183 1.0641249.2985012 1.6064453.5810547s1.0048809.6402973 1.3876953 1.0732422.6744782.9387992.875 1.5175781c.2005218.578779.3007813 1.2281865.3007813 1.9482422zm-3.7597657.2597656c0-.6197947-.1093739-1.1302063-.328125-1.53125-.2187511-.4010436-.4876286-.6972646-.8066406-.8886718s-.6539696-.3121743-1.0048828-.3623047c-.3509132-.0501305-.7132143-.0751953-1.0869141-.0751953h-1.53125v6.0019531h1.6132813c.5742216 0 1.0550111-.0774732 1.4423828-.2324219s.7041003-.3714179.9501953-.649414c.246095-.2779962.4329421-.6106752.5605469-.9980469s.1914062-.808917.1914062-1.2646485zm18.2382813 6.9726563c0 .4648461-.0478511.8180326-.1435547 1.0595703s-.2255851.3623047-.3896485.3623047h-1.5722656v3.1992187c0 .0911463-.0273435.1708981-.0820312.2392579-.0546878.0683597-.15039.1253253-.2871094.1708984s-.314452.0797525-.5332031.1025391c-.2187511.0227865-.5013004.0341796-.8476563.0341796-.3281266 0-.60384-.0113931-.8271484-.0341796-.2233084-.0227866-.401041-.056966-.5332031-.1025391-.1321622-.0455731-.2233071-.1025387-.2734375-.1708984-.0501305-.0683598-.0751954-.1481116-.0751954-.2392579v-3.1992187h-6.7675781c-.1276048 0-.2415359-.0159504-.3417969-.0478516-.1002609-.0319012-.1845699-.1048171-.2529296-.21875-.0683598-.1139328-.1184895-.2779937-.1503907-.4921875-.0319012-.2141937-.0478515-.4990216-.0478515-.8544922 0-.2916681.0068358-.5445952.0205078-.758789.0136719-.2141938.0364582-.4078768.0683594-.5810547s.0774736-.3372388.1367187-.4921875.1344397-.3190096.2255859-.4921875l5.4960938-9.6933594c.0455731-.0820316.1230463-.1526689.2324219-.211914.1093755-.0592451.2620433-.1093748.4580078-.1503907.1959645-.0410158.4443344-.0706379.7451172-.0888672.3007827-.0182292.6653624-.0273437 1.09375-.0273437.464846 0 .8613265.0113931 1.1894531.0341797s.5901683.0592445.7861328.109375c.1959645.0501304.3395178.1116533.4306641.1845703s.1367187.1595047.1367187.2597656v10.6503907h1.5722656c.1458341 0 .2711584.1116525.3759766.3349609s.1572266.594724.1572266 1.1142578zm-5.5644532-9.5839844h-.0273437l-4.6621094 8.1347657h4.6894531z" fill="#fff" fill-rule="nonzero"/></g></svg>