<svg height="80" viewBox="0 0 80 80" width="80" xmlns="http://www.w3.org/2000/svg"><g fill="none" fill-rule="evenodd"><g transform="translate(5)"><path d="m45 0v21c0 2.209139 1.790861 4 4 4h21v47c0 4.418278-3.581722 8-8 8h-54c-4.418278 0-8-3.581722-8-8v-64c0-4.418278 3.581722-8 8-8z" fill="#00c853"/><path d="m45 0 25 25h-21c-2.209139 0-4-1.790861-4-4z" fill="#88fc74"/></g><path d="m18.4394531 56.3710938c0 .1048182-.018229.1982417-.0546875.2802734-.0364585.0820316-.0854489.1503903-.1469726.2050781-.0615238.0546878-.1344397.0945637-.21875.1196289s-.1697587.0375977-.2563477.0375977h-.765625c-.159506 0-.2973627-.0159504-.4135742-.0478516s-.2233068-.0900061-.3212891-.1743164c-.0979822-.0843103-.1925451-.1982415-.2836914-.3417969s-.1936843-.3292632-.3076172-.5571289l-2.2011718-4.1357422c-.1276048-.2460949-.2574864-.5115545-.3896485-.7963867-.1321621-.2848321-.2506505-.5616848-.3554687-.8305664h-.0136719c.0182293.3281267.031901.6551091.0410156.980957.0091147.325848.0136719.6619449.0136719 1.0083008v4.6279297c0 .0455732-.0125324.0865884-.0375977.1230469-.0250652.0364585-.068359.0672199-.1298828.0922851-.0615237.0250653-.1446935.0444336-.2495117.0581055-.1048182.013672-.239257.0205078-.4033203.0205078-.159506 0-.2916661-.0068358-.3964844-.0205078-.1048182-.0136719-.1868486-.0330402-.2460937-.0581055-.0592451-.0250652-.1002603-.0558266-.1230469-.0922851s-.0341797-.0774737-.0341797-.1230469v-7.9501953c0-.2141938.0626621-.3748367.1879883-.4819336.1253261-.1070969.2791332-.1606445.4614258-.1606445h.9638672c.1731779 0 .3190098.014811.4375.0444336.1184901.0296225.2244461.0786129.3178711.1469726.0934249.0683597.1811519.1629226.2631836.2836914.0820316.1207689.1663407.2700187.2529296.4477539l1.7226563 3.2333985c.1002609.1959645.199381.3885081.2973633.5776367.0979822.1891285.1925451.3782543.2836914.5673828.0911463.1891286.1800126.3748363.2666015.5571289.086589.1822926.1708981.3645824.2529297.546875h.006836c-.013672-.319012-.0239258-.651691-.0307618-.9980469-.0068359-.3463559-.0102539-.6767562-.0102539-.9912109v-4.1494141c0-.0455731.0136718-.0865883.0410157-.1230468.0273438-.0364586.0729163-.0683593.1367187-.0957032.0638024-.0273438.1481115-.0467121.2529297-.0581054s.239257-.0170899.4033203-.0170899c.1549487 0 .2848302.0056966.3896485.0170899.1048182.0113933.1857093.0307616.2426757.0581054.0569665.0273439.0968424.0592446.1196289.0957032.0227866.0364585.0341797.0774737.0341797.1230468zm9.1464844-2.6660157c0 .5423204-.0797518 1.0276672-.2392578 1.4560547-.159506.4283876-.3942042.7906886-.7041016 1.0869141-.3098974.2962254-.692706.5218091-1.1484375.6767578-.4557314.1549487-.9798147.2324219-1.5722656.2324219-.5559924 0-1.0550108-.069498-1.4970703-.2084961s-.8157537-.3497708-1.1210938-.6323243c-.30534-.2825534-.5388989-.6346007-.7006836-1.0561523-.1617846-.4215516-.2426757-.9148735-.2426757-1.4799805v-5.3798828c0-.0455731.0136717-.0865883.0410156-.1230468.0273439-.0364586.0763343-.0660807.1469726-.0888672.0706384-.0227866.1629227-.0410156.2768555-.0546875.1139329-.013672.2597647-.0205079.4375-.0205079.173178 0 .3167312.0068359.4306641.0205079.1139328.0136719.2050778.0319009.2734375.0546875.0683597.0227865.1173501.0524086.1469726.0888672.0296226.0364585.0444336.0774737.0444336.1230468v5.2226563c0 .3509132.0432939.6551094.1298828.9125976.086589.2574883.210774.4705396.3725586.6391602.1617847.1686206.3554677.2950842.5810547.3793945.2255871.0843103.4773749.1264649.7553711.1264649.2825535 0 .5354807-.0432939.7587891-.1298829.2233084-.0865889.4124341-.2130525.5673828-.3793945s.2745764-.371418.3588867-.6152344c.0843103-.2438163.1264649-.520669.1264649-.8305664v-5.3251953c0-.0455731.0136717-.0865883.0410156-.1230468.0273439-.0364586.0751949-.0660807.1435547-.0888672.0683597-.0227866.1606439-.0410156.2768554-.0546875.1162115-.013672.2609041-.0205079.4340821-.0205079.1731779 0 .3155919.0068359.4272461.0205079.1116542.0136719.2016598.0319009.2700195.0546875.0683597.0227865.1162108.0524086.1435547.0888672.0273439.0364585.0410156.0774737.0410156.1230468zm12.2294922 3.0488281c0 .0455732-.0125324.0865884-.0375977.1230469-.0250652.0364585-.0706377.0660806-.1367187.0888672-.0660811.0227866-.1538081.0410156-.2631836.0546875-.1093756.013672-.2483716.0205078-.4169922.0205078-.1640633 0-.3007807-.0068358-.4101563-.0205078-.1093755-.0136719-.1959632-.0319009-.2597656-.0546875s-.1093748-.0524087-.1367187-.0888672-.0410157-.0774737-.0410157-.1230469v-7.1982421h-.0136718l-2.5634766 7.1914062c-.0182292.0592451-.0478513.1082355-.0888672.1469727-.0410158.0387371-.0968421.0694986-.1674804.0922851-.0706384.0227866-.160644.0375976-.2700196.0444336-.1093755.006836-.2415357.0102539-.3964844.0102539-.1549486 0-.2871088-.0056965-.3964843-.0170898-.1093756-.0113933-.1993812-.0296223-.2700196-.0546875-.0706383-.0250652-.1264646-.0558267-.1674804-.0922852-.0410159-.0364585-.0683593-.0797523-.0820313-.1298828l-2.4746094-7.1914062h-.0136718v7.1982421c0 .0455732-.0125325.0865884-.0375977.1230469s-.071777.0660806-.1401367.0888672-.1560867.0410156-.2631836.0546875c-.1070969.013672-.2449536.0205078-.4135742.0205078-.1640633 0-.3007807-.0068358-.4101563-.0205078-.1093755-.0136719-.1971025-.0319009-.2631836-.0546875-.066081-.0227866-.1116535-.0524087-.1367187-.0888672s-.0375977-.0774737-.0375977-.1230469v-7.8818359c0-.232423.0615229-.4101556.1845703-.5332031.1230475-.1230475.2871084-.1845703.4921876-.1845703h1.1757812c.2096365 0 .3896477.0170896.5400391.0512695.1503913.0341799.2802729.0911454.3896484.1708984s.2005205.1845697.2734375.3144532c.072917.1298834.1367185.2905264.1914062.4819336l1.9140626 5.2705078h.0273437l1.9824219-5.256836c.0592451-.1914072.1241858-.3531894.1948242-.4853515s.1526688-.2392574.2460937-.3212891c.093425-.0820316.2039382-.1401365.331543-.1743164s.2757153-.0512695.4443359-.0512695h1.209961c.1230475 0 .2290034.0159503.3178711.0478515.0888676.0319012.1617836.078613.21875.1401368.0569664.0615237.1002602.1367183.1298828.2255859.0296225.0888676.0444336.1902664.0444336.3041992zm8.3330078-2.40625c0 .3144547-.0432938.5992826-.1298828.8544922s-.2062167.4807933-.3588867.6767578c-.1526701.1959646-.3349599.3645827-.546875.5058594-.2119152.1412768-.445474.2574865-.7006836.3486328s-.5275051.1583657-.8168946.2016602c-.2893894.0432945-.6118146.0649414-.9672851.0649414h-2.3515625c-.1503914 0-.276855-.0444331-.3793945-.1333008-.1025396-.0888676-.1538086-.2335602-.1538086-.434082v-7.7109375c0-.2005218.051269-.3452144.1538086-.434082.1025395-.0888677.2290031-.1333008.3793945-.1333008h2.2216797c.5423204 0 1.0014629.0455724 1.3774414.1367187.3759784.0911463.692707.229003.9501953.4135742.2574883.1845713.4545892.4181301.5913086.7006836s.2050781.6152325.2050781.9980469c0 .2141938-.0273435.4158519-.0820312.6049805-.0546878.1891285-.1344396.3611646-.2392579.5161133-.1048182.1549487-.2335604.291666-.3862304.4101562-.1526701.1184902-.3269847.2141924-.5229492.2871094.2506523.0455731.4819325.1253249.6938476.2392578s.3964836.260904.553711.440918c.1572273.1800139.2814123.3907865.3725586.6323242.0911462.2415377.1367187.5126938.1367187.8134765zm-2.3242187-3.7255859c0-.1777353-.0273435-.3372389-.0820313-.4785156-.0546878-.1412768-.1367182-.2586258-.2460937-.3520508-.1093756-.0934249-.2472323-.1652016-.4135743-.215332-.1663419-.0501305-.3885077-.0751953-.6665039-.0751953h-.9091797v2.296875h1.0048829c.2597669 0 .4671216-.0307614.6220703-.0922852.1549487-.0615237.2836909-.1458328.3862304-.2529297.1025396-.1070969.1788735-.2324211.2290039-.3759765.0501305-.1435554.0751954-.2950839.0751954-.4545899zm.4580078 3.7871094c0-.2050792-.0341794-.3885083-.1025391-.550293-.0683597-.1617846-.1686191-.2973627-.3007813-.4067383-.1321621-.1093755-.3007802-.1936846-.5058593-.2529296-.2050792-.0592451-.4716781-.0888672-.7998047-.0888672h-1.0664063v2.515625h1.2988282c.2506523 0 .4614249-.0262042.6323242-.0786133s.3190098-.1298823.4443359-.2324219c.1253262-.1025396.223307-.2301425.2939453-.3828125.0706384-.15267.1059571-.3269847.1059571-.5229492zm8.5517578 1.8867187c0 .1321622-.0056966.2426754-.0170899.331543s-.0284829.1606443-.0512695.215332c-.0227866.0546878-.0512694.0945637-.0854492.1196289-.0341799.0250653-.0717772.0375977-.112793.0375977h-4.4433594c-.1503913 0-.2768549-.0444331-.3793945-.1333008-.1025396-.0888676-.1538086-.2335602-.1538086-.434082v-7.7109375c0-.2005218.051269-.3452144.1538086-.434082.1025396-.0888677.2290032-.1333008.3793945-.1333008h4.4160157c.0410158 0 .0774738.0113931.109375.0341797.0319012.0227865.0592446.0626624.0820312.1196289.0227866.0569664.0398763.1298823.0512695.21875.0113933.0888676.0170899.2016594.0170899.3383789 0 .1276048-.0056966.2358394-.0170899.324707-.0113932.0888676-.0284829.1606443-.0512695.215332-.0227866.0546878-.05013.0945637-.0820312.1196289-.0319012.0250653-.0683592.0375977-.109375.0375977h-3.1582032v2.1601562h2.6728516c.0410158 0 .0786131.0125325.112793.0375977.0341798.0250652.0626626.0638018.0854492.1162109.0227866.0524092.0398762.1230465.0512695.2119141s.0170899.1971022.0170899.324707c0 .1321622-.0056966.2415361-.0170899.328125-.0113933.086589-.0284829.156087-.0512695.2084961s-.0512694.0900064-.0854492.112793c-.0341799.0227866-.0717772.0341797-.112793.0341797h-2.6728516v2.4951172h3.1855469c.0410158 0 .0786131.0125324.112793.0375976.0341798.0250653.0626626.0649412.0854492.1196289.0227866.0546878.0398762.1264644.0512695.2153321.0113933.0888676.0170899.1993808.0170899.3315429zm8.1484375.4716797c0 .0501305-.0091145.092285-.0273438.1264649-.0182292.0341798-.0615231.0626626-.1298828.0854492s-.1686191.0387369-.3007812.0478516c-.1321622.0091146-.3121734.0136718-.5400391.0136718-.1914072 0-.344075-.0045572-.4580078-.0136718-.1139329-.0091147-.2039385-.0262044-.2700195-.0512696-.0660811-.0250652-.1127929-.0569659-.1401368-.0957031-.0273438-.0387372-.0501301-.085449-.0683593-.1401367l-.7929688-1.975586c-.0957036-.2233084-.1891271-.4215486-.2802734-.5947265-.0911463-.173178-.192545-.3178705-.3041992-.4340821-.1116542-.1162115-.2403964-.2039385-.3862305-.2631836-.1458341-.059245-.3144522-.0888671-.5058594-.0888671h-.5605469v3.3701171c0 .0455732-.014811.0865884-.0444336.1230469-.0296225.0364585-.0786129.0660806-.1469726.0888672s-.1595047.0410156-.2734375.0546875c-.1139329.013672-.2597647.0205078-.4375.0205078-.173178 0-.3178705-.0068358-.434082-.0205078-.1162116-.0136719-.2084958-.0319009-.2768555-.0546875s-.1162108-.0524087-.1435547-.0888672-.0410156-.0774737-.0410156-.1230469v-8.0322265c0-.2005218.051269-.3452144.1538086-.434082.1025395-.0888677.2290031-.1333008.3793945-.1333008h2.2900391c.232423 0 .4238273.0045572.5742187.0136719.1503914.0091146.2871088.0205077.4101563.0341796.3554705.0501305.675617.1367182.9604492.2597657.2848321.1230475.5263662.2836904.7246094.4819336.1982431.1982431.3497716.4329413.4545898.7041015s.1572266.5821923.1572266.9331055c0 .2962254-.0375973.5662423-.112793.8100586s-.1857089.4614248-.331543.652832c-.145834.1914072-.3258453.3577467-.540039.4990235-.2141938.1412767-.4580065.2552079-.7314453.3417968.1321621.0638024.256347.1412756.3725585.2324219.1162116.0911463.2255855.2016595.328125.331543.1025396.1298834.1993811.2779939.2905274.4443359s.1800126.3543284.2666015.5639648l.7451172 1.7431641c.0683598.173178.1139322.2996415.1367188.3793945s.0341797.1424152.0341797.1879883zm-2.3173828-6.0019531c0-.2916681-.0660801-.5377594-.1982422-.7382812-.1321621-.2005219-.3486313-.3417965-.6494141-.4238282-.0911463-.0227865-.1948236-.0410155-.3110351-.0546875-.1162116-.0136719-.2768545-.0205078-.4819336-.0205078h-.8066407v2.5087891h.9160157c.2552096 0 .4785146-.0307614.6699218-.0922852.1914072-.0615237.3509109-.1481114.4785157-.2597656s.2233069-.2449537.2871093-.3999024c.0638024-.1549486.0957032-.328124.0957032-.5195312zm8.743164 3.5820312c0 .4648461-.0865877.8727196-.2597656 1.2236329-.1731779.3509132-.4078761.6437162-.7041016.8784179-.2962254.2347017-.6425761.411295-1.0390625.5297852-.3964863.1184902-.8203102.1777344-1.2714843.1777344-.3053401 0-.5890287-.0250649-.8510743-.0751954-.2620455-.0501304-.4933258-.1105139-.6938476-.1811523s-.3680006-.1446936-.5024414-.222168c-.1344408-.0774743-.2312823-.145833-.2905274-.2050781s-.1013996-.1446934-.1264648-.2563476-.0375977-.2722972-.0375977-.4819336c0-.1412768.0045573-.2597652.0136719-.3554688s.0239257-.1731768.0444336-.2324219.0478514-.1013996.0820313-.1264648c.0341798-.0250652.0740557-.0375977.1196289-.0375977.0638024 0 .153808.0375973.2700195.112793s.2654613.1583654.4477539.2495117.3999011.1743161.652832.2495117c.252931.0751957.545734.112793.878418.112793.2187511 0 .4147127-.0262042.5878906-.0786133.173178-.0524091.3201492-.1264643.440918-.2221679s.2130531-.214192.2768555-.3554688c.0638024-.1412767.0957031-.2985017.0957031-.4716797 0-.2005218-.054687-.3725579-.1640625-.5161133-.1093756-.1435554-.2517895-.2711583-.4272461-.3828125s-.3748361-.2164708-.5981445-.3144531c-.2233084-.0979822-.4534494-.2016596-.6904297-.3110351-.2369804-.1093756-.4671213-.2335605-.6904297-.3725586s-.4226879-.3053376-.5981445-.4990235c-.1754567-.1936858-.3178706-.4226874-.4272461-.6870117-.1093756-.2643242-.1640625-.5810528-.1640625-.9501953 0-.4238302.0786125-.7963851.2358398-1.1176758.1572274-.3212907.3691393-.5878895.6357422-.7998047.2666029-.2119151.5810529-.3702794.9433594-.4750976.3623065-.1048183.7462545-.1572266 1.1518554-.1572266.2096365 0 .4192698.0159504.6289063.0478516s.405598.075195.5878906.1298828.3440748.1162106.4853516.1845703c.1412767.0683597.2347003.1253253.2802734.1708984.0455732.0455732.0763346.0843098.0922852.116211s.0296223.0740557.0410156.1264648.0193685.1184892.0239258.1982422.0068359.1788731.0068359.2973633c0 .1321621-.0034179.2438146-.0102539.3349609s-.0182291.1663409-.0341797.225586-.0387368.1025389-.0683594.1298828c-.0296225.0273439-.0694984.0410156-.1196289.0410156-.0501304 0-.1298822-.0319007-.2392578-.0957031-.1093755-.0638024-.2438143-.1333004-.4033203-.2084961s-.3440745-.1435544-.5537109-.2050781c-.2096365-.0615238-.4397774-.0922852-.6904297-.0922852-.1959645 0-.3668613.0239255-.5126953.0717773-.1458341.0478518-.2677404.1139319-.3657227.1982422-.0979822.0843103-.1708982.1857091-.21875.3041992-.0478518.1184902-.0717773.2438145-.0717773.3759766 0 .1959645.0535476.365722.1606445.5092774s.2506501.2711583.4306641.3828125c.1800139.1116542.3839507.2164708.6118164.3144531.2278657.0979822.4602852.2016596.6972656.3110351.2369804.1093756.4693999.2335605.6972656.3725586s.4306632.3053376.6083985.4990235c.1777352.1936858.3212885.4215481.430664.6835937.1093756.2620456.1640625.570799.1640625.9262695z" fill="#fff" fill-rule="nonzero"/></g></svg>