<svg height="80" viewBox="0 0 80 80" width="80" xmlns="http://www.w3.org/2000/svg"><g fill="none" fill-rule="evenodd"><g transform="translate(5)"><path d="m45 0v21c0 2.209139 1.790861 4 4 4h21v47c0 4.418278-3.581722 8-8 8h-54c-4.418278 0-8-3.581722-8-8v-64c0-4.418278 3.581722-8 8-8z" fill="#3c6586"/><path d="m45 0 25 25h-21c-2.209139 0-4-1.790861-4-4z" fill="#e1e8ee"/></g><path d="m32.8154297 50.9492188c0 1.4674552-.1822899 2.7799421-.546875 3.9375-.3645852 1.1575578-.9068975 2.1396444-1.6269531 2.946289-.7200557.8066447-1.6109973 1.4218729-2.6728516 1.8457031-1.0618543.4238303-2.2900321.6357422-3.6845703.6357422-1.376309 0-2.5771433-.1800112-3.6025391-.540039-1.0253957-.3600279-1.8798794-.909176-2.5634765-1.647461-.6835972-.7382849-1.1962874-1.6770776-1.538086-2.8164062s-.5126953-2.4882735-.5126953-4.046875c0-1.4309968.1822899-2.7184188.546875-3.8623047.3645852-1.1438859.9068975-2.116858 1.6269531-2.9189453.7200557-.8020874 1.6109973-1.4173156 2.6728516-1.8457031 1.0618543-.4283876 2.2945893-.6425782 3.6982422-.6425782 1.3398504 0 2.5224558.1777326 3.5478515.5332032 1.0253958.3554705 1.8821581.90234 2.5703126 1.640625.6881544.7382849 1.2076805 1.6702417 1.5585937 2.7958984s.5263672 2.4540939.5263672 3.9853516zm-3.7734375.1914062c0-.9296921-.0729159-1.7750613-.21875-2.5361328s-.394204-1.4127577-.7451172-1.9550781c-.3509132-.5423205-.8180309-.9615871-1.4013672-1.2578125-.5833362-.2962255-1.3124956-.444336-2.1875-.444336-.884119 0-1.6223929.1663395-2.2148437.4990235-.5924509.3326839-1.0709618.7770154-1.4355469 1.3330078-.3645852.5559923-.6220696 1.2053999-.772461 1.9482422-.1503913.7428422-.2255859 1.5289672-.2255859 2.3583984 0 .9661507.0729159 1.834306.21875 2.6044922.1458341.7701861.3919254 1.4287082.7382813 1.9755859.3463559.5468778.811195.9638658 1.3945312 1.2509766.5833363.2871108 1.3170529.430664 2.2011719.430664s1.6223929-.1640608 2.2148437-.4921874c.5924509-.3281267 1.0709618-.7747368 1.4355469-1.3398438.3645852-.565107.6220696-1.2236291.7724609-1.9755859.1503914-.7519569.225586-1.5517536.225586-2.3994141zm21.4921875-.2460938c0 1.622404-.211912 3.0100854-.6357422 4.163086-.4238302 1.1530005-1.0322226 2.0940719-1.8251953 2.8232422s-1.7568303 1.2646467-2.8916016 1.6064453-2.4859947.5126953-4.0537109.5126953h-4.2246094c-.3007827 0-.5537099-.0888663-.7587891-.2666016-.2050791-.1777352-.3076171-.4671204-.3076171-.868164v-15.421875c0-.4010437.102538-.6904288.3076171-.8681641.2050792-.1777353.4580064-.2666015.7587891-.2666015h4.5390625c1.5768308 0 2.9143825.1845684 4.0126953.5537109s2.0234338.916012 2.7753907 1.640625c.7519568.724613 1.3238912 1.6201118 1.7158203 2.6865234.391929 1.0664116.5878906 2.3014253.5878906 3.7050781zm-3.71875.1230469c0-.8385458-.0979808-1.6178349-.2939453-2.3378906s-.5104145-1.3443984-.9433594-1.8730469-.9889289-.9410792-1.6679688-1.2373047c-.6790398-.2962254-1.5699814-.4443359-2.6728515-.4443359h-1.8183594v12.03125h1.8730469c.9843799 0 1.8137987-.1276029 2.4882812-.3828125.6744826-.2552096 1.2373025-.6402969 1.6884766-1.1552734.4511741-.5149766.7884103-1.1552696 1.0117188-1.9208985.2233084-.7656288.3349609-1.658849.3349609-2.6796875zm18.046875-7.2324219c0 .2643243-.0113931.489908-.0341797.6767579s-.0569659.337239-.1025391.4511718c-.0455731.1139329-.1025387.198242-.1708984.2529297-.0683597.0546878-.1435543.0820313-.2255859.0820313h-4.4296875v14.2597656c0 .0911463-.0296221.1731767-.0888672.2460937-.0592451.0729171-.1572259.1321613-.2939453.1777344-.1367195.0455732-.3212879.0820311-.553711.109375-.232423.0273439-.5218081.0410156-.868164.0410156s-.6357411-.0136717-.8681641-.0410156-.4169915-.0638018-.5537109-.109375c-.1367195-.0455731-.2347003-.1048173-.2939454-.1777344-.059245-.072917-.0888671-.1549474-.0888671-.2460937v-14.2597656h-4.4296875c-.0911463 0-.1686195-.0273435-.2324219-.0820313-.0638024-.0546877-.1184894-.1389968-.1640625-.2529297-.0455732-.1139328-.0797525-.2643219-.1025391-.4511718-.0227865-.1868499-.0341797-.4124336-.0341797-.6767579 0-.2734388.0113932-.5058584.0341797-.6972656.0227866-.1914072.0569659-.3440749.1025391-.4580078.0455731-.1139328.1002601-.1959633.1640625-.2460937.0638024-.0501305.1412756-.0751953.2324219-.0751953h12.46875c.0820316 0 .1572262.0250648.2255859.0751953.0683597.0501304.1253253.1321609.1708984.2460937.0455732.1139329.0797525.2666006.1025391.4580078s.0341797.4238268.0341797.6972656z" fill="#fff" fill-rule="nonzero"/></g></svg>