<?xml version="1.0" standalone="no"?><!DOCTYPE svg PUBLIC "-//W3C//DTD SVG 1.1//EN" "http://www.w3.org/Graphics/SVG/1.1/DTD/svg11.dtd"><svg t="1747152864257" class="icon" viewBox="0 0 1024 1024" version="1.1" xmlns="http://www.w3.org/2000/svg" p-id="2371" xmlns:xlink="http://www.w3.org/1999/xlink" width="256" height="256"><path d="M146.879977 0A52.335992 52.335992 0 0 0 95.999985 51.167992v921.647856a49.039992 49.039992 0 0 0 15.279998 35.791994A49.839992 49.839992 0 0 0 146.863977 1023.99984h746.287883a48.559992 48.559992 0 0 0 35.567995-15.359998A50.719992 50.719992 0 0 0 943.999853 972.815848V290.015955L655.679898 0H146.847977h0.016z" fill="#E44A46" p-id="2372"></path><path d="M943.999853 287.999955H706.84789A52.127992 52.127992 0 0 1 655.999898 237.199963V0l287.951955 287.999955H943.999853z" fill="#FFFFFF" fill-opacity=".7" p-id="2373"></path><path d="M332.351948 755.583882c51.967992 0 87.295986-37.375994 87.295986-99.839984 0-62.20799-35.327994-97.791985-87.295986-97.791985s-87.295986 35.327994-87.295986 97.791985 35.327994 99.839984 87.295986 99.839984z m0-39.423994c-25.087996 0-40.447994-23.551996-40.447994-60.41599s15.359998-58.623991 40.447994-58.623991 40.703994 21.759997 40.703994 58.623991c0 36.863994-15.615998 60.415991-40.703994 60.41599z m208.383968 39.423994c26.623996 0 50.175992-10.495998 63.48799-23.295996V643.1999h-70.911989v37.375994h30.207995v30.719995c-4.095999 3.072-11.263998 4.863999-17.919997 4.863999-35.583994 0-52.479992-22.015997-52.479992-59.903991 0-37.119994 20.223997-59.135991 48.383992-59.13599 15.871998 0 25.855996 6.399999 35.327995 14.847997l24.063996-29.183995c-13.055998-13.055998-33.023995-24.831996-60.92799-24.831996-50.943992 0-93.695985 36.351994-93.695986 99.839984 0 64.51199 41.727993 97.791985 94.463986 97.791985z m187.64797 0c26.623996 0 50.175992-10.495998 63.48799-23.295996V643.1999H720.959887v37.375994h30.207996v30.719995c-4.095999 3.072-11.263998 4.863999-17.919998 4.863999-35.583994 0-52.479992-22.015997-52.479991-59.903991 0-37.119994 20.223997-59.135991 48.383992-59.13599 15.871998 0 25.855996 6.399999 35.327995 14.847997l24.063996-29.183995c-13.055998-13.055998-33.023995-24.831996-60.927991-24.831996-50.943992 0-93.695985 36.351994-93.695985 99.839984 0 64.51199 41.727993 97.791985 94.463985 97.791985z" fill="#FFFFFF" p-id="2374"></path></svg>