<svg height="80" viewBox="0 0 80 80" width="80" xmlns="http://www.w3.org/2000/svg"><g fill="none" fill-rule="evenodd"><path d="m31.3388672 47.6816406c0 .9934946-.1549464 1.8730431-.4648438 2.6386719-.3098973.7656288-.7610647 1.4104792-1.3535156 1.9345703-.5924509.5240912-1.3193316.9228502-2.180664 1.1962891-.8613325.2734388-1.8753197.4101562-3.0419922.4101562h-1.4765625v5.6464844c0 .0911463-.0296221.1731767-.0888672.2460937-.0592451.0729171-.1572259.1321613-.2939453.1777344-.1367195.0455732-.3190093.0820311-.546875.109375-.2278658.0273439-.5195295.0410156-.875.0410156-.3463559 0-.6357411-.0136717-.8681641-.0410156s-.4169915-.0638018-.5537109-.109375c-.1367195-.0455731-.2324216-.1048173-.2871094-.1777344-.0546878-.072917-.0820313-.1549474-.0820313-.2460937v-15.9140625c0-.4283876.1116526-.7496734.334961-.9638672s.5172508-.321289.8818359-.321289h4.1699219c.4192729 0 .818032.0159503 1.1962891.0478515.378257.0319012.831703.1002599 1.3603515.2050781.5286485.1048183 1.0641249.2985012 1.6064453.5810547s1.0048809.6402973 1.3876953 1.0732422c.3828145.4329449.6744782.9387992.875 1.5175781.2005219.578779.3007813 1.2281865.3007813 1.9482422zm-3.7597656.2597656c0-.6197947-.1093739-1.1302063-.328125-1.53125-.2187511-.4010436-.4876287-.6972646-.8066407-.8886718s-.6539696-.3121743-1.0048828-.3623047c-.3509132-.0501305-.7132143-.0751953-1.086914-.0751953h-1.53125v6.0019531h1.6132812c.5742216 0 1.0550111-.0774732 1.4423828-.2324219.3873718-.1549487.7041004-.3714179.9501953-.649414.246095-.2779962.4329421-.6106752.5605469-.9980469s.1914063-.808917.1914063-1.2646485zm21.2460937 2.953125c0 1.622404-.2119119 3.0100854-.6357422 4.163086-.4238302 1.1530005-1.0322226 2.0940719-1.8251953 2.8232422s-1.7568303 1.2646467-2.8916016 1.6064453c-1.1347712.3417986-2.4859947.5126953-4.0537109.5126953h-4.2246094c-.3007827 0-.5537099-.0888663-.758789-.2666016-.2050792-.1777352-.3076172-.4671204-.3076172-.868164v-15.421875c0-.4010437.102538-.6904288.3076172-.8681641.2050791-.1777353.4580063-.2666015.758789-.2666015h4.5390625c1.5768308 0 2.9143826.1845684 4.0126954.5537109 1.0983127.3691425 2.0234337.916012 2.7753906 1.640625s1.3238912 1.6201118 1.7158203 2.6865234c.391929 1.0664116.5878906 2.3014253.5878906 3.7050781zm-3.71875.1230469c0-.8385458-.0979808-1.6178349-.2939453-2.3378906s-.5104145-1.3443984-.9433594-1.8730469c-.4329448-.5286485-.9889289-.9410792-1.6679687-1.2373047-.6790399-.2962254-1.5699815-.4443359-2.6728516-.4443359h-1.8183594v12.03125h1.8730469c.9843799 0 1.8137987-.1276029 2.4882813-.3828125.6744825-.2552096 1.2373024-.6402969 1.6884765-1.1552734.4511742-.5149766.7884104-1.1552696 1.0117188-1.9208985.2233084-.7656288.3349609-1.658849.3349609-2.6796875zm16.5976563-7.2324219c0 .2734389-.0113932.5035798-.0341797.6904297-.0227866.1868499-.0592446.3349604-.109375.444336-.0501305.1093755-.1070961.191406-.1708985.2460937-.0638024.0546878-.1367183.0820313-.21875.0820313h-5.7832031v4.7578125h5.4277344c.0820316 0 .1549476.0227862.21875.0683594.0638024.0455731.120768.1230463.1708984.2324218.0501305.1093756.0865885.2552074.109375.4375.0227866.1822926.0341797.4101549.0341797.6835938 0 .2734388-.0113931.5013011-.0341797.6835937-.0227865.1822926-.0592445.3326817-.109375.4511719-.0501304.1184902-.107096.2027992-.1708984.2529297-.0638024.0501304-.1367184.0751953-.21875.0751953h-5.4277344v6.5898438c0 .1002609-.0273435.1868485-.0820312.2597656-.0546878.072917-.1526686.1344398-.2939453.1845703-.1412768.0501304-.3258453.088867-.553711.1162109s-.5195295.0410156-.875.0410156c-.3463559 0-.635741-.0136717-.868164-.0410156-.2324231-.0273439-.4169916-.0660805-.553711-.1162109-.1367194-.0501305-.2347002-.1116533-.2939453-.1845703-.0592451-.0729171-.0888672-.1595047-.0888672-.2597656v-16.0371094c0-.4010437.102538-.6904288.3076172-.8681641s.4580063-.2666015.7587891-.2666015h8.3261718c.0820317 0 .1549476.0250648.21875.0751953.0638024.0501304.120768.1321609.1708985.2460937.0501304.1139329.0865884.2666006.109375.4580078.0227865.1914072.0341797.4238268.0341797.6972656z" fill="#fff" fill-rule="nonzero"/><g transform="translate(5)"><path d="m45 0v21c0 2.209139 1.790861 4 4 4h21v47c0 4.418278-3.581722 8-8 8h-54c-4.418278 0-8-3.581722-8-8v-64c0-4.418278 3.581722-8 8-8z" fill="#b0bec5"/><path d="m45 0 25 25h-21c-2.209139 0-4-1.790861-4-4z" fill="#cfd8dc"/></g></g></svg>