<svg height="80" viewBox="0 0 80 80" width="80" xmlns="http://www.w3.org/2000/svg"><g fill="none" fill-rule="evenodd"><g transform="translate(5)"><path d="m45 0v21c0 2.209139 1.790861 4 4 4h21v47c0 4.418278-3.581722 8-8 8h-54c-4.418278 0-8-3.581722-8-8v-64c0-4.418278 3.581722-8 8-8z" fill="#ffa726"/><path d="m45 0 25 25h-21c-2.209139 0-4-1.790861-4-4z" fill="#ffcc80"/></g><path d="m21.9262695 50.3212891c0 .7806028-.1217435 1.4716766-.3652343 2.0732421-.2434908.6015656-.5979795 1.1082337-1.0634766 1.5200196s-1.0366177.7250966-1.7133789.9399414-1.4734655.3222656-2.3901367.3222656h-1.1601563v4.4365234c0 .071615-.0232745.1360675-.0698242.1933594-.0465497.057292-.1235346.103841-.230957.1396485-.1074224.0358074-.2506502.064453-.4296875.0859375-.1790374.0214844-.4082018.0322265-.6875.0322265-.2721368 0-.4995108-.0107421-.6821289-.0322265-.1826181-.0214845-.3276362-.0501301-.4350586-.0859375-.1074224-.0358075-.182617-.0823565-.225586-.1396485-.0429689-.0572919-.0644531-.1217444-.0644531-.1933594v-12.5039062c0-.3365902.087727-.5890291.2631836-.7573242s.4064113-.2524414.6928711-.2524414h3.2763672c.3294287 0 .6427394.0125324.9399414.0375976.297202.0250653.653481.0787757 1.0688476.1611328.4153667.0823572.8360982.2345367 1.2622071.456543s.7895493.5030908 1.090332.8432617c.3007828.340171.5299471.737628.6875 1.1923828.1575529.4547549.2363281.9650037.2363281 1.5307618zm-2.9541015.2041015c0-.4869816-.0859367-.8880192-.2578125-1.203125-.1718759-.3151057-.3831368-.5478508-.6337891-.6982422-.2506523-.1503913-.5138333-.2452797-.7895508-.2846679s-.5603826-.0590821-.8540039-.0590821h-1.203125v4.7158204h1.2675781c.4511742 0 .8289373-.0608718 1.1333008-.1826172s.5532217-.2918284.7465821-.5102539c.1933603-.2184256.3401687-.4798162.4404296-.7841797.100261-.3043635.1503907-.6355777.1503907-.9936524zm15.0390625 8.421875c.0859379.2578138.1396483.4619133.1611328.6123047s-.0071611.2631832-.0859375.3383789c-.0787765.0751957-.2184235.1217447-.4189453.1396485-.2005219.0179037-.4762353.0268554-.8271485.0268554-.3652362 0-.6499013-.005371-.8540039-.0161133-.2041026-.0107422-.3598627-.0322264-.4672851-.0644531s-.182617-.0769854-.225586-.1342773c-.0429689-.057292-.0787759-.1324865-.1074218-.225586l-.9345704-2.7929687h-5.2207031l-.8808594 2.7177734c-.0286459.1002609-.0662432.1844072-.1127929.2524414s-.1217443.1217446-.225586.1611328c-.1038416.0393883-.2506501.0662435-.4404296.0805665-.1897796.0143229-.4386378.0214843-.7465821.0214843-.3294287 0-.5872386-.0107421-.7734375-.0322265-.1861988-.0214845-.3151038-.0734046-.3867187-.1557618-.071615-.0823571-.0966798-.1987297-.0751953-.349121.0214844-.1503914.0751948-.3509103.1611328-.6015626l4.2861328-12.3320312c.0429689-.1217454.0930987-.2202145.1503906-.2954102.057292-.0751956.1485996-.1324867.2739258-.171875.1253261-.0393882.2989898-.064453.5209961-.0751953.2220063-.0107422.5156232-.0161133.8808594-.0161133.4225281 0 .7591133.0053711 1.0097656.0161133.2506523.0107423.4458001.0358071.5854492.0751953.1396491.0393883.2399085.0984697.3007813.1772461.0608727.0787765.1127927.1861973.1557617.3222657zm-6.3808594-10.1943359h-.0107422l-1.9658203 5.9082031h3.9423828zm19.2070312-.4941406c0 .2076833-.0089517.386718-.0268554.5371093-.0179038.1503914-.0429686.2703446-.0751953.3598633-.0322268.0895187-.0716144.1521808-.1181641.1879883s-.1020505.0537109-.1665039.0537109c-.0930994 0-.2434886-.0644524-.4511719-.1933593s-.4833967-.268554-.8271484-.4189454c-.3437517-.1503913-.7537411-.2900384-1.2299805-.4189453-.4762393-.1289069-1.0294565-.1933593-1.659668-.1933593-.6731804 0-1.2818983.1163725-1.8261718.3491211-.5442736.2327485-1.0097637.5621723-1.3964844.9882812s-.6839182.9381481-.8916016 1.5361328c-.2076833.5979848-.3115234 1.2586227-.3115234 1.9819336 0 .7949259.1056304 1.4949514.3168945 2.1000977.2112641.6051462.5066713 1.1118143.8862305 1.5200195s.8360976.7161448 1.3696289.9238281c.5335313.2076834 1.1225554.3115235 1.7670898.3115235.3151058 0 .6266261-.035807.9345704-.1074219.3079442-.071615.5943997-.1790358.859375-.3222656v-3.2226563h-2.631836c-.1289069 0-.2291663-.0805656-.3007812-.2416992-.071615-.1611336-.1074219-.4350567-.1074219-.8217773 0-.2005219.0089517-.3688145.0268555-.5048829.0179037-.1360684.0447589-.2452795.0805664-.3276367.0358074-.0823572.0787758-.143229.1289062-.1826172.0501305-.0393882.1074216-.059082.171875-.059082h4.694336c.1145839 0 .2166336.0196938.3061523.059082s.1682939.0984697.2363281.1772461c.0680342.0787765.1199543.1736648.1557617.284668.0358075.1110032.053711.2381178.053711.3813477v5.5322265c0 .2148448-.0375973.4028312-.112793.5639649-.0751957.1611336-.2291655.2882482-.461914.3813476-.2327486.0930994-.5209944.1897782-.8647461.2900391-.3437518.1002609-.7000308.1861975-1.0688477.2578125-.3688169.0716149-.7412091.1253253-1.1171875.1611328s-.7537416.0537109-1.1333008.0537109c-1.1100316 0-2.103674-.1593408-2.980957-.4780273s-1.6202769-.780596-2.2290039-1.3857422c-.608727-.6051463-1.0742172-1.3427691-1.3964844-2.2128906-.3222672-.8701216-.4833984-1.8566026-.4833984-2.9594727 0-1.1386776.1718733-2.1609655.515625-3.0668945s.830726-1.6757781 1.4609375-2.3095703c.6302115-.6337923 1.3911088-1.1189762 2.2827148-1.4555664.891606-.3365903 1.8852484-.5048829 2.980957-.5048829.6015656 0 1.1494116.041178 1.6435547.1235352s.9256167.1826166 1.2944336.3007813c.368817.1181646.6749663.2452792.9184571.3813476s.4135737.2542313.5102539.3544922c.0966801.1002609.1665037.2416983.2094726.4243164.042969.1826181.0644531.4529605.0644531.8110352zm11.1074219 10.6347656c0 .2076833-.0089517.3813469-.0268554.5209961-.0179038.1396491-.044759.252441-.0805665.3383789-.0358074.0859379-.0805661.1486001-.1342773.1879883s-.1127926.059082-.1772461.059082h-6.9824219c-.2363293 0-.4350578-.0698235-.5961914-.2094727-.1611336-.1396491-.2416992-.3670231-.2416992-.6821289v-12.1171875c0-.3151057.0805656-.5424797.2416992-.6821289.1611336-.1396491.3598621-.2094726.5961914-.2094726h6.9394532c.0644534 0 .1217445.0179034.171875.0537109.0501304.0358075.0930987.0984696.1289062.1879883s.0626627.2041009.0805664.34375.0268555.3168935.0268555.5317383c0 .2005218-.0089518.3706047-.0268555.5102539-.0179037.1396491-.0447589.252441-.0805664.3383789s-.0787758.1486001-.1289062.1879883c-.0501305.0393882-.1074216.059082-.171875.059082h-4.9628907v3.3945312h4.2001953c.0644535 0 .1235349.0196939.1772461.0590821s.0984699.10026.1342774.1826172.0626627.1933586.0805664.3330078c.0179037.1396491.0268555.3097321.0268555.5102539 0 .2076833-.0089518.3795566-.0268555.515625s-.0447589.2452795-.0805664.3276367-.0805662.1414386-.1342774.1772461-.1127926.0537109-.1772461.0537109h-4.2001953v3.9208985h5.0058594c.0644535 0 .1235349.0196938.1772461.059082s.0984699.1020504.1342773.1879883c.0358075.0859379.0626627.1987298.0805665.3383789.0179037.1396491.0268554.3133128.0268554.5209961zm10.5166016-3.0615235c0 .7304725-.1360664 1.3714166-.4082031 1.9228516-.2721368.5514351-.6409482 1.0115542-1.1064454 1.3803711-.4654971.368817-1.0097625.6463207-1.6328125.8325195-.6230499.1861989-1.2890589.2792969-1.9980468.2792969-.4798201 0-.9256165-.0393876-1.3374024-.1181641-.4117859-.0787764-.7752263-.1736648-1.090332-.2846679-.3151057-.1110032-.5782867-.2273757-.7895508-.3491211s-.3634435-.2291662-.456543-.3222656c-.0930994-.0930995-.1593422-.2273755-.1987304-.4028321s-.0590821-.4278955-.0590821-.7573242c0-.2220063.0071614-.4082024.0214844-.5585937.014323-.1503914.0375975-.272135.0698242-.3652344.0322268-.0930994.0751951-.1593423.1289063-.1987305s.1163733-.059082.1879883-.059082c.1002609 0 .2416983.0590814.4243164.1772461.1826181.1181646.4171535.2488599.7036133.3920898.2864597.1432299.6284159.2739252 1.0258789.3920899.3974629.1181646.857582.1772461 1.3803711.1772461.3437517 0 .6516913-.041178.9238281-.1235352s.5030915-.1987297.6928711-.3491211.3347977-.3365874.4350586-.5585937c.1002609-.2220064.1503906-.4690742.1503906-.741211 0-.3151057-.0859366-.5854481-.2578125-.8110351-.1718759-.2255871-.3956692-.4261059-.6713867-.6015625s-.5890282-.3401685-.9399414-.4941407c-.3509132-.1539721-.7125633-.3168936-1.084961-.4887695-.3723977-.1718758-.7340477-.3670236-1.0849609-.5854492s-.6642239-.4798162-.9399414-.7841797-.4995109-.6642232-.6713867-1.0795898c-.1718759-.4153667-.2578125-.9130831-.2578125-1.4931641 0-.666019.1235339-1.2514623.3706054-1.7563477.2470716-.5048853.5800761-.9238264.9990235-1.2568359s.9130831-.5818677 1.4824218-.746582c.5693388-.1647144 1.1726857-.2470703 1.8100586-.2470703.3294288 0 .6588526.0250648.9882813.0751953.3294287.0501304.6373684.1181636.9238281.2041015.2864598.085938.540689.1826167.7626953.2900391s.3688148.1969397.4404297.2685547c.071615.0716149.1199543.1324867.1450196.1826172.0250652.0501304.0465493.1163733.0644531.1987304.0179037.0823572.0304361.1861973.0375976.3115235.0071615.1253261.0107422.2810863.0107422.4672851 0 .2076834-.005371.3831373-.0161133.5263672-.0107422.1432299-.0286457.2613928-.0537109.3544922s-.0608722.1611326-.1074219.2041016c-.0465497.0429689-.1092118.0644531-.1879883.0644531-.0787764 0-.2041007-.0501297-.3759765-.1503906-.1718759-.1002609-.3831368-.2094721-.6337891-.3276367-.2506523-.1181647-.5406884-.2255855-.8701172-.3222657-.3294287-.0966801-.6910787-.1450195-1.0849609-.1450195-.3079443 0-.5764963.0375973-.8056641.112793s-.4207349.1790358-.574707.3115234-.2685543.2918285-.34375.4780273c-.0751957.1861989-.112793.383137-.112793.5908204 0 .3079442.0841463.5747059.2524414.8002929.1682951.2255871.3938788.4261059.6767579.6015625.282879.1754566.603351.3401685.9614257.4941407.3580747.1539721.7233055.3168936 1.0957032.4887695.3723977.1718758.7376284.3670236 1.0957031.5854492s.6767564.4798162.9560547.7841797c.2792982.3043635.5048819.6624328.6767578 1.0742187.1718758.411786.2578125.8969699.2578125 1.4555664z" fill="#fff" fill-rule="nonzero"/></g></svg>