<svg height="80" viewBox="0 0 80 80" width="80" xmlns="http://www.w3.org/2000/svg"><g fill="none" fill-rule="evenodd"><g transform="translate(5)"><path d="m45 0v21c0 2.209139 1.790861 4 4 4h21v47c0 4.418278-3.581722 8-8 8h-54c-4.418278 0-8-3.581722-8-8v-64c0-4.418278 3.581722-8 8-8z" fill="#8792bf"/><path d="m45 0 25 25h-21c-2.209139 0-4-1.790861-4-4z" fill="#c6ceef"/></g><path d="m30.3066406 47.6816406c0 .9934946-.1549463 1.8730431-.4648437 2.6386719s-.7610648 1.4104792-1.3535157 1.9345703c-.5924508.5240912-1.3193316.9228502-2.180664 1.1962891-.8613324.2734388-1.8753197.4101562-3.0419922.4101562h-1.4765625v5.6464844c0 .0911463-.0296221.1731767-.0888672.2460937-.0592451.0729171-.1572259.1321613-.2939453.1777344-.1367194.0455732-.3190093.0820311-.546875.109375s-.5195295.0410156-.875.0410156c-.3463559 0-.635741-.0136717-.8681641-.0410156-.232423-.0273439-.4169915-.0638018-.5537109-.109375-.1367194-.0455731-.2324216-.1048173-.2871094-.1777344-.0546877-.072917-.0820312-.1549474-.0820312-.2460937v-15.9140625c0-.4283876.1116525-.7496734.3349609-.9638672s.5172508-.321289.8818359-.321289h4.1699219c.419273 0 .818032.0159503 1.1962891.0478515s.8317031.1002599 1.3603516.2050781c.5286484.1048183 1.0641248.2985012 1.6064453.5810547.5423204.2825535 1.0048809.6402973 1.3876953 1.0732422s.6744781.9387992.875 1.5175781c.2005218.578779.3007812 1.2281865.3007812 1.9482422zm-3.7597656.2597656c0-.6197947-.1093739-1.1302063-.328125-1.53125-.2187511-.4010436-.4876286-.6972646-.8066406-.8886718s-.6539696-.3121743-1.0048828-.3623047c-.3509133-.0501305-.7132143-.0751953-1.0869141-.0751953h-1.53125v6.0019531h1.6132813c.5742216 0 1.055011-.0774732 1.4423828-.2324219.3873717-.1549487.7041003-.3714179.9501953-.649414.246095-.2779962.432942-.6106752.5605469-.9980469.1276048-.3873717.1914062-.808917.1914062-1.2646485zm20.3574219 11.5664063c0 .0911463-.0296221.1731767-.0888672.2460937-.0592451.0729171-.1572259.1321613-.2939453.1777344-.1367195.0455732-.3190093.0820311-.546875.109375s-.5149723.0410156-.8613282.0410156c-.3554705 0-.6494129-.0136717-.8818359-.0410156s-.4147129-.0638018-.546875-.109375c-.1321621-.0455731-.2278643-.1048173-.2871094-.1777344-.0592451-.072917-.0888671-.1549474-.0888671-.2460937v-7.1503906h-6.6171876v7.1503906c0 .0911463-.0273434.1731767-.0820312.2460937-.0546878.0729171-.1503899.1321613-.2871094.1777344-.1367194.0455732-.3190093.0820311-.546875.109375s-.5195294.0410156-.875.0410156c-.3463559 0-.635741-.0136717-.868164-.0410156-.2324231-.0273439-.4169915-.0638018-.553711-.109375-.1367194-.0455731-.2347002-.1048173-.2939453-.1777344-.0592451-.072917-.0888672-.1549474-.0888672-.2460937v-16.7070313c0-.0911462.0296221-.1731767.0888672-.2460937s.1572259-.1321612.2939453-.1777344c.1367195-.0455731.3212879-.0820311.553711-.109375.232423-.0273439.5218081-.0410156.868164-.0410156.3554706 0 .6471343.0136717.875.0410156s.4101556.0638019.546875.109375c.1367195.0455732.2324216.1048174.2871094.1777344s.0820312.1549475.0820312.2460937v6.4941407h6.6171876v-6.4941407c0-.0911462.029622-.1731767.0888671-.2460937s.1549473-.1321612.2871094-.1777344c.1321621-.0455731.314452-.0820311.546875-.109375s.5263654-.0410156.8818359-.0410156c.3463559 0 .6334625.0136717.8613282.0410156s.4101555.0638019.546875.109375c.1367194.0455732.2347002.1048174.2939453.1777344s.0888672.1549475.0888672.2460937zm15.96875-11.8261719c0 .9934946-.1549464 1.8730431-.4648438 2.6386719s-.7610647 1.4104792-1.3535156 1.9345703c-.5924509.5240912-1.3193316.9228502-2.1806641 1.1962891-.8613324.2734388-1.8753196.4101562-3.0419922.4101562h-1.4765624v5.6464844c0 .0911463-.0296221.1731767-.0888672.2460937-.0592451.0729171-.1572259.1321613-.2939454.1777344-.1367194.0455732-.3190092.0820311-.546875.109375-.2278657.0273439-.5195294.0410156-.875.0410156-.3463558 0-.635741-.0136717-.868164-.0410156s-.4169915-.0638018-.553711-.109375c-.1367194-.0455731-.2324216-.1048173-.2871093-.1777344-.0546878-.072917-.0820313-.1549474-.0820313-.2460937v-15.9140625c0-.4283876.1116526-.7496734.334961-.9638672s.5172507-.321289.8818359-.321289h4.1699219c.4192729 0 .8180319.0159503 1.196289.0478515s.8317031.1002599 1.3603516.2050781c.5286485.1048183 1.0641249.2985012 1.6064453.5810547s1.0048809.6402973 1.3876953 1.0732422.6744782.9387992.875 1.5175781c.2005219.578779.3007813 1.2281865.3007813 1.9482422zm-3.7597657.2597656c0-.6197947-.1093739-1.1302063-.328125-1.53125-.218751-.4010436-.4876286-.6972646-.8066406-.8886718s-.6539696-.3121743-1.0048828-.3623047c-.3509132-.0501305-.7132143-.0751953-1.086914-.0751953h-1.53125v6.0019531h1.6132812c.5742216 0 1.0550111-.0774732 1.4423828-.2324219s.7041003-.3714179.9501953-.649414c.246095-.2779962.4329421-.6106752.5605469-.9980469s.1914062-.808917.1914062-1.2646485z" fill="#fff" fill-rule="nonzero"/></g></svg>