<svg height="80" viewBox="0 0 80 80" width="80" xmlns="http://www.w3.org/2000/svg"><g fill="none" fill-rule="evenodd"><g transform="translate(5)"><path d="m45 0v21c0 2.209139 1.790861 4 4 4h21v47c0 4.418278-3.581722 8-8 8h-54c-4.418278 0-8-3.581722-8-8v-64c0-4.418278 3.581722-8 8-8z" fill="#4fc3f7"/><path d="m45 0 25 25h-21c-2.209139 0-4-1.790861-4-4z" fill="#b3e5fc"/></g><path d="m28.4472656 47.6816406c0 .9934946-.1549463 1.8730431-.4648437 2.6386719s-.7610648 1.4104792-1.3535157 1.9345703c-.5924508.5240912-1.3193316.9228502-2.180664 1.1962891-.8613324.2734388-1.8753197.4101562-3.0419922.4101562h-1.4765625v5.6464844c0 .0911463-.0296221.1731767-.0888672.2460937-.0592451.0729171-.1572259.1321613-.2939453.1777344-.1367194.0455732-.3190093.0820311-.546875.109375s-.5195295.0410156-.875.0410156c-.3463559 0-.635741-.0136717-.8681641-.0410156-.232423-.0273439-.4169915-.0638018-.5537109-.109375-.1367194-.0455731-.2324216-.1048173-.2871094-.1777344-.0546877-.072917-.0820312-.1549474-.0820312-.2460937v-15.9140625c0-.4283876.1116525-.7496734.3349609-.9638672s.5172508-.321289.8818359-.321289h4.1699219c.419273 0 .818032.0159503 1.1962891.0478515s.8317031.1002599 1.3603516.2050781c.5286484.1048183 1.0641248.2985012 1.6064453.5810547.5423204.2825535 1.0048809.6402973 1.3876953 1.0732422s.6744781.9387992.875 1.5175781c.2005218.578779.3007812 1.2281865.3007812 1.9482422zm-3.7597656.2597656c0-.6197947-.1093739-1.1302063-.328125-1.53125-.2187511-.4010436-.4876286-.6972646-.8066406-.8886718s-.6539696-.3121743-1.0048828-.3623047c-.3509133-.0501305-.7132143-.0751953-1.0869141-.0751953h-1.53125v6.0019531h1.6132813c.5742216 0 1.055011-.0774732 1.4423828-.2324219.3873717-.1549487.7041003-.3714179.9501953-.649414.246095-.2779962.432942-.6106752.5605469-.9980469.1276048-.3873717.1914062-.808917.1914062-1.2646485zm21.1367188 10.8007813c0 .2096365-.036458.3964836-.109375.5605469-.0729171.1640633-.1708979.3007807-.2939454.4101562-.1230475.1093756-.2688793.1891274-.4375.2392578-.1686206.0501305-.3395173.0751954-.5126953.0751954h-1.53125c-.319012 0-.5947254-.0319008-.8271484-.0957032s-.4466136-.1800122-.6425781-.3486328c-.1959646-.1686206-.3850903-.3964829-.5673828-.6835937-.1822926-.2871108-.3873687-.6585264-.6152344-1.1142579l-4.4023438-8.2714843c-.2552096-.49219-.5149726-1.0231092-.7792968-1.5927735-.2643243-.5696643-.5013011-1.1233697-.7109376-1.6611328h-.0273437c.0364585.6562533.063802 1.3102181.0820313 1.9619141.0182292.651696.0273437 1.3238898.0273437 2.0166015v9.2558594c0 .0911463-.0250649.1731767-.0751953.2460938-.0501305.072917-.1367181.1344398-.2597656.1845703-.1230475.0501304-.289387.088867-.4990235.1162109-.2096364.0273439-.478514.0410156-.8066406.0410156-.319012 0-.5833323-.0136717-.7929687-.0410156-.2096365-.0273439-.3736974-.0660805-.4921876-.1162109-.1184901-.0501305-.2005206-.1116533-.2460937-.1845703-.0455731-.0729171-.0683594-.1549475-.0683594-.2460938v-15.9003906c0-.4283876.1253243-.7496734.3759766-.9638672s.5582664-.321289.9228515-.321289h1.9277344c.3463559 0 .6380197.029622.875.0888671.2369804.0592451.4488923.1572259.6357422.2939453.1868499.1367195.3623039.3258452.5263672.5673829.1640633.2415376.3326814.5400372.5058594.8955078l3.4453125 6.4667969c.2005218.391929.398762.7770163.5947265 1.1552734.1959646.3782571.3850903.7565085.5673828 1.1347656.1822926.3782571.3600252.7496727.5332032 1.1142578.1731779.3645852.341796.7291649.5058594 1.09375h.0136718c-.0273439-.638024-.0478515-1.3033819-.0615234-1.9960937-.013672-.6927118-.0205078-1.3535125-.0205078-1.9824219v-8.2988281c0-.0911463.0273435-.1731767.0820312-.2460938.0546878-.072917.1458327-.1367185.2734375-.1914062.1276048-.0546878.2962229-.0934244.5058594-.116211.2096365-.0227865.478514-.0341797.8066406-.0341797.3098974 0 .5696604.0113932.7792969.0341797.2096365.0227866.3714187.0615232.4853516.116211.1139328.0546877.1936846.1184892.2392578.1914062.0455731.0729171.0683594.1549475.0683594.2460938zm18.046875-13.6855469c0 .2643243-.0113932.4921866-.0341797.6835938-.0227866.1914072-.0546873.3440749-.0957032.4580078-.0410158.1139328-.0911455.1936847-.1503906.2392578s-.1298824.0683594-.2119141.0683594c-.1184901 0-.3098945-.0820305-.5742187-.2460938s-.6152322-.3417959-1.0527344-.5332031-.9593068-.3691398-1.5654297-.5332031c-.6061228-.1640633-1.3102173-.2460938-2.1123046-.2460938-.8567752 0-1.631507.1481105-2.3242188.444336-.6927118.2962254-1.2851538.715492-1.7773438 1.2578125-.4921899.5423204-.8704413 1.1940066-1.1347656 1.9550781-.2643242.7610715-.3964844 1.6018834-.3964844 2.5224609 0 1.0117238.1344388 1.9026654.4033204 2.6728516.2688815.7701861.6448543 1.4150365 1.1279296 1.9345703.4830754.5195338 1.0641243.911457 1.7431641 1.1757812.6790399.2643243 1.4287068.3964844 2.2490235.3964844.4010436 0 .797524-.0455724 1.1894531-.1367187.391929-.0911463.7565087-.2278637 1.09375-.4101563v-4.1015625h-3.3496094c-.1640633 0-.2916662-.102538-.3828125-.3076172-.0911463-.2050791-.1367188-.5537084-.1367188-1.0458984 0-.2552096.0113932-.4694002.0341797-.6425781.0227866-.173178.056966-.312174.1025391-.4169922s.1002601-.1822914.1640625-.2324219c.0638024-.0501304.1367183-.0751953.21875-.0751953h5.9746094c.145834 0 .2757156.0250649.3896484.0751953.1139329.0501305.2141923.125325.3007813.2255859.0865889.100261.152669.221028.1982422.3623047.0455731.1412768.0683593.303059.0683593.4853516v7.0410156c0 .2734389-.0478511.5126943-.1435547.7177735-.0957036.2050791-.2916651.3668613-.5878906.4853515-.2962254.1184902-.6630837.2415358-1.1005859.3691407-.4375022.1276048-.8909482.2369787-1.3603516.328125-.4694034.0911462-.943357.1595049-1.421875.2050781-.478518.0455731-.9593075.0683593-1.4423828.0683593-1.4127675 0-2.6774033-.2027974-3.7939453-.6083984-1.1165421-.405601-2.0621706-.9934857-2.8369141-1.7636719-.7747434-.7701861-1.3671854-1.7089788-1.7773437-2.8164062s-.6152344-2.3629487-.6152344-3.7666016c0-1.449226.2187478-2.7503197.65625-3.9033203.4375022-1.1530005 1.0572877-2.1328085 1.859375-2.9394531.8020873-.8066447 1.7705021-1.4241515 2.9052734-1.8525391 1.1347713-.4283875 2.3994071-.6425781 3.7939454-.6425781.7656288 0 1.4628874.0524083 2.0917968.1572266.6289094.1048182 1.1780576.2324211 1.647461.3828125.4694034.1503913.8590479.3121736 1.1689453.4853515.3098974.173178.5263665.3235671.649414.4511719s.2119138.307616.2666016.5400391c.0546878.232423.0820313.5764951.0820313 1.0322265z" fill="#fff" fill-rule="nonzero"/></g></svg>