<svg height="80" viewBox="0 0 80 80" width="80" xmlns="http://www.w3.org/2000/svg"><g fill="none" fill-rule="evenodd"><g transform="translate(5)"><path d="m45 0v21c0 2.209139 1.790861 4 4 4h21v47c0 4.418278-3.581722 8-8 8h-54c-4.418278 0-8-3.581722-8-8v-64c0-4.418278 3.581722-8 8-8z" fill="#d04526"/><path d="m45 0 25 25h-21c-2.209139 0-4-1.790861-4-4z" fill="#ef9a9a"/></g><path d="m32.2480469 47.6816406c0 .9934946-.1549464 1.8730431-.4648438 2.6386719s-.7610647 1.4104792-1.3535156 1.9345703c-.5924509.5240912-1.3193316.9228502-2.1806641 1.1962891-.8613324.2734388-1.8753196.4101562-3.0419922.4101562h-1.4765624v5.6464844c0 .0911463-.0296221.1731767-.0888672.2460937-.0592451.0729171-.1572259.1321613-.2939454.1777344-.1367194.0455732-.3190092.0820311-.546875.109375-.2278657.0273439-.5195294.0410156-.875.0410156-.3463558 0-.635741-.0136717-.868164-.0410156s-.4169915-.0638018-.553711-.109375c-.1367194-.0455731-.2324216-.1048173-.2871093-.1777344-.0546878-.072917-.0820313-.1549474-.0820313-.2460937v-15.9140625c0-.4283876.1116526-.7496734.334961-.9638672s.5172507-.321289.8818359-.321289h4.1699219c.4192729 0 .8180319.0159503 1.196289.0478515s.8317031.1002599 1.3603516.2050781c.5286485.1048183 1.0641249.2985012 1.6064453.5810547s1.0048809.6402973 1.3876953 1.0732422.6744782.9387992.875 1.5175781c.2005219.578779.3007813 1.2281865.3007813 1.9482422zm-3.7597657.2597656c0-.6197947-.1093739-1.1302063-.328125-1.53125-.218751-.4010436-.4876286-.6972646-.8066406-.8886718s-.6539696-.3121743-1.0048828-.3623047c-.3509132-.0501305-.7132143-.0751953-1.086914-.0751953h-1.53125v6.0019531h1.6132812c.5742216 0 1.0550111-.0774732 1.4423828-.2324219s.7041003-.3714179.9501953-.649414c.246095-.2779962.4329421-.6106752.5605469-.9980469s.1914062-.808917.1914062-1.2646485zm18.6621094-.2597656c0 .9934946-.1549463 1.8730431-.4648437 2.6386719s-.7610648 1.4104792-1.3535157 1.9345703c-.5924508.5240912-1.3193316.9228502-2.180664 1.1962891-.8613324.2734388-1.8753197.4101562-3.0419922.4101562h-1.4765625v5.6464844c0 .0911463-.0296221.1731767-.0888672.2460937-.0592451.0729171-.1572259.1321613-.2939453.1777344-.1367194.0455732-.3190093.0820311-.546875.109375s-.5195295.0410156-.875.0410156c-.3463559 0-.635741-.0136717-.8681641-.0410156-.232423-.0273439-.4169915-.0638018-.5537109-.109375-.1367194-.0455731-.2324216-.1048173-.2871094-.1777344-.0546877-.072917-.0820312-.1549474-.0820312-.2460937v-15.9140625c0-.4283876.1116525-.7496734.3349609-.9638672s.5172508-.321289.8818359-.321289h4.1699219c.419273 0 .818032.0159503 1.1962891.0478515s.8317031.1002599 1.3603516.2050781c.5286484.1048183 1.0641248.2985012 1.6064453.5810547.5423204.2825535 1.0048809.6402973 1.3876953 1.0732422s.6744781.9387992.875 1.5175781c.2005218.578779.3007812 1.2281865.3007812 1.9482422zm-3.7597656.2597656c0-.6197947-.1093739-1.1302063-.328125-1.53125-.2187511-.4010436-.4876286-.6972646-.8066406-.8886718s-.6539696-.3121743-1.0048828-.3623047c-.3509133-.0501305-.7132143-.0751953-1.0869141-.0751953h-1.53125v6.0019531h1.6132813c.5742216 0 1.055011-.0774732 1.4423828-.2324219.3873717-.1549487.7041003-.3714179.9501953-.649414.246095-.2779962.432942-.6106752.5605469-.9980469.1276048-.3873717.1914062-.808917.1914062-1.2646485zm18.2382812-4.15625c0 .2643243-.0113931.489908-.0341796.6767579-.0227866.1868499-.056966.337239-.1025391.4511718-.0455731.1139329-.1025387.198242-.1708984.2529297-.0683598.0546878-.1435543.0820313-.225586.0820313h-4.4296875v14.2597656c0 .0911463-.0296221.1731767-.0888672.2460937-.0592451.0729171-.1572258.1321613-.2939453.1777344-.1367194.0455732-.3212879.0820311-.5537109.109375s-.5218082.0410156-.8681641.0410156-.635741-.0136717-.868164-.0410156c-.2324231-.0273439-.4169915-.0638018-.553711-.109375-.1367194-.0455731-.2347002-.1048173-.2939453-.1777344-.0592451-.072917-.0888672-.1549474-.0888672-.2460937v-14.2597656h-4.4296875c-.0911463 0-.1686194-.0273435-.2324219-.0820313-.0638024-.0546877-.1184893-.1389968-.1640624-.2529297-.0455732-.1139328-.0797525-.2643219-.1025391-.4511718s-.0341797-.4124336-.0341797-.6767579c0-.2734388.0113931-.5058584.0341797-.6972656s.0569659-.3440749.1025391-.4580078c.0455731-.1139328.10026-.1959633.1640624-.2460937.0638025-.0501305.1412756-.0751953.2324219-.0751953h12.46875c.0820317 0 .1572262.0250648.225586.0751953.0683597.0501304.1253253.1321609.1708984.2460937.0455731.1139329.0797525.2666006.1025391.4580078.0227865.1914072.0341796.4238268.0341796.6972656z" fill="#fff" fill-rule="nonzero"/></g></svg>