<svg height="80" viewBox="0 0 80 80" width="80" xmlns="http://www.w3.org/2000/svg"><g fill="none" fill-rule="evenodd"><g transform="translate(5)"><path d="m45 0v21c0 2.209139 1.790861 4 4 4h21v47c0 4.418278-3.581722 8-8 8h-54c-4.418278 0-8-3.581722-8-8v-64c0-4.418278 3.581722-8 8-8z" fill="#d04526"/><path d="m45 0 25 25h-21c-2.209139 0-4-1.790861-4-4z" fill="#ef9a9a"/></g><path d="m26.7460938 49.4414062c0 .8515668-.1328112 1.6054655-.3984376 2.2617188-.2656263.6562533-.6523412 1.2089821-1.1601562 1.6582031s-1.1308557.7910145-1.8691406 1.0253907c-.738285.2343761-1.6074169.3515624-2.6074219.3515624h-1.265625v4.8398438c0 .0781254-.0253904.1484372-.0761719.2109375s-.134765.1132811-.2519531.1523437c-.1171881.0390627-.2734365.0703124-.46875.09375-.1953135.0234377-.445311.0351563-.75.0351563-.2968765 0-.5449209-.0117186-.7441406-.0351563-.1992198-.0234376-.3574213-.0546873-.4746094-.09375-.1171881-.0390626-.1992185-.0898434-.2460937-.1523437-.0468753-.0625003-.0703126-.1328121-.0703126-.2109375v-13.640625c0-.3671893.0957022-.6425772.2871094-.8261719.1914072-.1835946.4433578-.2753906.7558594-.2753906h3.5742188c.3593767 0 .7011702.0136717 1.0253906.0410156.3242203.0273439.7128883.0859371 1.1660156.1757813s.9121071.2558581 1.3769531.4980468c.4648461.2421888.8613265.5488263 1.1894531.9199219.3281267.3710956.5781242.804685.75 1.3007813.1718759.4960962.2578126 1.0527313.2578126 1.6699218zm-3.2226563.2226563c0-.5312527-.0937491-.9687483-.28125-1.3125s-.4179674-.5976554-.6914063-.7617187c-.2734388-.1640634-.5605453-.267578-.8613281-.3105469-.3007827-.042969-.6113265-.0644531-.9316406-.0644531h-1.3125v5.1445312h1.3828125c.49219 0 .9042952-.0664056 1.2363281-.1992188.3320329-.1328131.6035146-.3183581.8144531-.5566406.2109386-.2382824.3710933-.5234358.4804688-.8554687s.1640625-.6933574.1640625-1.0839844zm15.9960937-.2226563c0 .8515668-.1328111 1.6054655-.3984374 2.2617188-.2656264.6562533-.6523413 1.2089821-1.1601563 1.6582031s-1.1308557.7910145-1.8691406 1.0253907c-.738285.2343761-1.6074169.3515624-2.6074219.3515624h-1.265625v4.8398438c0 .0781254-.0253904.1484372-.0761719.2109375s-.134765.1132811-.2519531.1523437c-.1171881.0390627-.2734365.0703124-.46875.09375-.1953135.0234377-.445311.0351563-.75.0351563-.2968765 0-.5449209-.0117186-.7441406-.0351563-.1992198-.0234376-.3574213-.0546873-.4746094-.09375-.1171881-.0390626-.1992185-.0898434-.2460938-.1523437-.0468752-.0625003-.0703124-.1328121-.0703124-.2109375v-13.640625c0-.3671893.0957021-.6425772.2871093-.8261719.1914072-.1835946.4433578-.2753906.7558594-.2753906h3.5742187c.3593768 0 .7011703.0136717 1.0253907.0410156.3242203.0273439.7128883.0859371 1.1660156.1757813s.9121071.2558581 1.3769531.4980468c.4648461.2421888.8613265.5488263 1.1894532.9199219.3281266.3710956.5781241.804685.75 1.3007813.1718758.4960962.2578124 1.0527313.2578124 1.6699218zm-3.2226562.2226563c0-.5312527-.0937491-.9687483-.28125-1.3125s-.4179674-.5976554-.6914062-.7617187c-.2734389-.1640634-.5605454-.267578-.8613282-.3105469-.3007827-.042969-.6113265-.0644531-.9316406-.0644531h-1.3125v5.1445312h1.3828125c.49219 0 .9042952-.0664056 1.2363281-.1992188.3320329-.1328131.6035146-.3183581.8144532-.5566406.2109385-.2382824.3710932-.5234358.4804687-.8554687s.1640625-.6933574.1640625-1.0839844zm15.6328125-3.5625c0 .2265636-.0097655.4199211-.0292969.5800781-.0195313.1601571-.0488279.289062-.0878906.3867188-.0390627.0976567-.0878903.1699216-.1464844.2167968-.058594.0468753-.1230465.0703126-.1933594.0703126h-3.796875v12.2226562c0 .0781254-.0253903.1484372-.0761718.2109375s-.1347651.1132811-.2519532.1523437c-.117188.0390627-.2753896.0703124-.4746093.09375-.1992198.0234377-.4472642.0351563-.7441407.0351563-.2968764 0-.5449208-.0117186-.7441406-.0351563-.1992197-.0234376-.3574213-.0546873-.4746094-.09375-.117188-.0390626-.2011716-.0898434-.2519531-.1523437s-.0761719-.1328121-.0761719-.2109375v-12.2226562h-3.796875c-.0781253 0-.1445309-.0234373-.1992187-.0703126-.0546878-.0468752-.1015623-.1191401-.140625-.2167968-.0390627-.0976568-.0683593-.2265617-.0878906-.3867188-.0195314-.160157-.0292969-.3535145-.0292969-.5800781 0-.2343762.0097655-.4335929.0292969-.5976563.0195313-.1640633.0488279-.2949213.0878906-.3925781.0390627-.0976567.0859372-.1679685.140625-.2109375.0546878-.0429689.1210934-.0644531.1992187-.0644531h10.6875c.0703129 0 .1347654.0214842.1933594.0644531.0585941.042969.1074217.1132808.1464844.2109375.0390627.0976568.0683593.2285148.0878906.3925781.0195314.1640634.0292969.3632801.0292969.5976563zm12.5976563 12.7382813c.1406257.2734388.2324216.4921866.2753906.65625.0429689.1640633.0175786.289062-.0761719.375-.0937505.0859379-.2636706.1406248-.5097656.1640624-.246095.0234377-.5878885.0351563-1.0253906.0351563-.3671894 0-.656249-.0078124-.8671875-.0234375-.2109386-.0156251-.3769526-.0410154-.4980469-.0761719-.1210944-.0351564-.2089841-.083984-.2636719-.1464843-.0546878-.0625004-.1015623-.1406246-.140625-.234375l-2.8476562-5.4726563-2.8359376 5.4726563c-.0468752.0937504-.0976559.1718746-.1523437.234375-.0546878.0625003-.1425775.1113279-.2636719.1464843-.1210943.0351565-.2890614.0605468-.5039062.0761719s-.4980451.0234375-.8496094.0234375c-.406252 0-.720702-.0117186-.9433594-.0351563-.2226573-.0234376-.3730465-.0781245-.4511718-.1640624-.0781254-.085938-.0937503-.2109367-.046875-.375.0468752-.1640634.1445305-.3828112.2929687-.65625l3.6328125-6.6210938-3.375-6.2226562c-.1406257-.2812515-.2363279-.5058586-.2871094-.6738282s-.0312504-.2929683.0585938-.375c.0898442-.0820316.2558581-.1328124.4980468-.1523437.2421888-.0195314.5859353-.0292969 1.03125-.0292969.3671894 0 .6582021.0078124.8730469.0234375s.384765.0410154.5097657.0761719c.1250006.0351564.2128903.083984.2636718.1464844.0507815.0625003.0996092.1406245.1464844.234375l2.6601562 5.015625 2.5898438-5.015625c.0468752-.0937505.0957029-.1718747.1464844-.234375.0507815-.0625004.1328119-.111328.2460937-.1464844.1132818-.0351565.2695303-.0605468.46875-.0761719.1992198-.0156251.4746076-.0234375.8261719-.0234375.390627 0 .6992176.0097655.9257812.0292969.2265637.0195313.3828121.0722652.46875.1582031.085938.0859379.1074221.2109367.0644532.375-.042969.1640633-.1308587.3867173-.2636719.6679688l-3.375 6.1875z" fill="#fff" fill-rule="nonzero"/></g></svg>