<svg height="80" viewBox="0 0 80 80" width="80" xmlns="http://www.w3.org/2000/svg"><g fill="none" fill-rule="evenodd"><g transform="translate(5)"><path d="m45 0v21c0 2.209139 1.790861 4 4 4h21v47c0 4.418278-3.581722 8-8 8h-54c-4.418278 0-8-3.581722-8-8v-64c0-4.418278 3.581722-8 8-8z" fill="#4fc3f7"/><path d="m45 0 25 25h-21c-2.209139 0-4-1.790861-4-4z" fill="#024459"/></g><path d="m31.1474609 47.6816406c0 .9934946-.1549463 1.8730431-.4648437 2.6386719s-.7610648 1.4104792-1.3535156 1.9345703c-.5924509.5240912-1.3193317.9228502-2.1806641 1.1962891-.8613324.2734388-1.8753197.4101562-3.0419922.4101562h-1.4765625v5.6464844c0 .0911463-.0296221.1731767-.0888672.2460937-.0592451.0729171-.1572259.1321613-.2939453.1777344-.1367194.0455732-.3190093.0820311-.546875.109375s-.5195295.0410156-.875.0410156c-.3463559 0-.635741-.0136717-.8681641-.0410156-.232423-.0273439-.4169915-.0638018-.5537109-.109375-.1367194-.0455731-.2324216-.1048173-.2871094-.1777344-.0546877-.072917-.0820312-.1549474-.0820312-.2460937v-15.9140625c0-.4283876.1116525-.7496734.3349609-.9638672s.5172508-.321289.881836-.321289h4.1699218c.419273 0 .818032.0159503 1.1962891.0478515s.8317031.1002599 1.3603516.2050781c.5286484.1048183 1.0641249.2985012 1.6064453.5810547s1.0048809.6402973 1.3876953 1.0732422.6744782.9387992.875 1.5175781c.2005218.578779.3007812 1.2281865.3007812 1.9482422zm-3.7597656.2597656c0-.6197947-.1093739-1.1302063-.328125-1.53125-.2187511-.4010436-.4876286-.6972646-.8066406-.8886718s-.6539696-.3121743-1.0048828-.3623047c-.3509132-.0501305-.7132143-.0751953-1.0869141-.0751953h-1.53125v6.0019531h1.6132813c.5742216 0 1.055011-.0774732 1.4423828-.2324219.3873717-.1549487.7041003-.3714179.9501953-.649414.246095-.2779962.4329421-.6106752.5605469-.9980469s.1914062-.808917.1914062-1.2646485zm17.0351563 6.7539063c0 .9296921-.1731754 1.7454392-.5195313 2.4472656-.3463559.7018265-.8157522 1.2874326-1.4082031 1.756836s-1.2851523.8225899-2.078125 1.0595703c-.7929727.2369803-1.6406205.3554687-2.5429688.3554687-.6106801 0-1.1780572-.0501297-1.7021484-.1503906s-.9866516-.2210279-1.3876953-.3623047c-.4010437-.1412767-.7360013-.2893872-1.0048828-.4443359-.2688816-.1549487-.4625645-.2916661-.5810547-.4101563s-.2027992-.2893869-.2529297-.5126953-.0751953-.5445942-.0751953-.9638672c0-.2825535.0091145-.5195303.0273437-.7109375.0182293-.1914072.0478514-.3463535.0888672-.4648437.0410159-.1184902.0957028-.2027993.1640625-.2529297.0683597-.0501305.1481115-.0751953.2392578-.0751953.1276048 0 .3076161.0751945.5400391.2255859s.5309227.3167309.8955078.4990234c.3645852.1822926.7998022.3486321 1.3056641.4990235s1.091468.2255859 1.7568359.2255859c.4375022 0 .8294254-.0524083 1.1757813-.1572265.3463559-.1048183.6402982-.2529288.8818359-.444336s.4261061-.428384.5537109-.7109375.1914063-.5970035.1914063-.9433594c0-.4010436-.1093739-.7451157-.328125-1.0322265s-.503579-.5423166-.8544922-.765625-.7496722-.4329417-1.1962891-.6289063c-.4466168-.1959645-.9068986-.4033192-1.3808593-.6220703s-.9342426-.467121-1.3808594-.7451172c-.4466168-.2779961-.8453759-.6106751-1.1962891-.9980468-.3509132-.3873718-.6357411-.845375-.8544922-1.3740235s-.328125-1.1621057-.328125-1.9003906c0-.8476605.157225-1.5927702.4716797-2.2353516.3144547-.6425813.7382786-1.1757791 1.2714844-1.5996093.5332058-.4238303 1.1621058-.7405589 1.8867187-.9501953.724613-.2096365 1.492509-.3144532 2.303711-.3144532.4192729 0 .8385396.0319007 1.2578125.0957032.4192729.0638024.8111961.15039 1.1757812.2597656.3645852.1093755.6881497.2324212.9707032.3691406s.4694005.2506506.5605468.3417969.1526691.1686194.1845703.2324219c.0319013.0638024.0592447.1481114.0820313.2529296.0227866.1048183.0387369.2369784.0478516.3964844.0091146.159506.0136718.3577462.0136718.5947266 0 .2643242-.0068358.4876293-.0205078.6699218-.0136719.1822926-.0364581.3326817-.0683593.4511719-.0319013.1184902-.0774737.2050779-.1367188.2597657-.0592451.0546877-.1389969.0820312-.2392578.0820312s-.2597645-.0638014-.4785156-.1914062c-.2187511-.1276049-.4876287-.2666009-.8066407-.4169922-.319012-.1503914-.6881489-.2871088-1.1074218-.4101563-.419273-.1230475-.8795548-.1845703-1.3808594-.1845703-.3919291 0-.7337225.0478511-1.0253906.1435547-.2916682.0957036-.5354808.2278637-.7314453.3964844-.1959646.1686206-.3417964.371418-.4375.6083984-.0957037.2369804-.1435547.4876289-.1435547.7519531 0 .3919291.1070952.7314439.321289 1.0185547s.5013003.5423166.8613281.765625c.3600279.2233084.7679014.4329417 1.2236329.6289063.4557314.1959645.9205705.4033192 1.3945312.6220703s.9387998.467121 1.3945313.7451172c.4557314.2779961.8613263.6106751 1.2167968.9980468.3554706.3873718.6425771.8430964.8613282 1.3671875.2187511.5240912.328125 1.141598.328125 1.8525391zm17.4453125-3.8007813c0 1.622404-.211912 3.0100854-.6357422 4.163086-.4238303 1.1530005-1.0322226 2.0940719-1.8251953 2.8232422-.7929728.7291703-1.7568303 1.2646467-2.8916016 1.6064453s-2.4859948.5126953-4.0537109.5126953h-4.2246094c-.3007828 0-.5537099-.0888663-.7587891-.2666016-.2050791-.1777352-.3076172-.4671204-.3076172-.868164v-15.421875c0-.4010437.1025381-.6904288.3076172-.8681641.2050792-.1777353.4580063-.2666015.7587891-.2666015h4.5390625c1.5768308 0 2.9143825.1845684 4.0126953.5537109s2.0234337.916012 2.7753906 1.640625 1.3238913 1.6201118 1.7158203 2.6865234c.3919291 1.0664116.5878907 2.3014253.5878907 3.7050781zm-3.71875.1230469c0-.8385458-.0979808-1.6178349-.2939453-2.3378906-.1959646-.7200557-.5104146-1.3443984-.9433594-1.8730469-.4329449-.5286485-.9889289-.9410792-1.6679688-1.2373047-.6790398-.2962254-1.5699814-.4443359-2.6728515-.4443359h-1.8183594v12.03125h1.8730469c.9843799 0 1.8137987-.1276029 2.4882812-.3828125.6744826-.2552096 1.2373024-.6402969 1.6884766-1.1552734.4511741-.5149766.7884103-1.1552696 1.0117187-1.9208985.2233084-.7656288.334961-1.658849.334961-2.6796875z" fill="#fff" fill-rule="nonzero"/></g></svg>