<svg height="80" viewBox="0 0 80 80" width="80" xmlns="http://www.w3.org/2000/svg"><g fill="none" fill-rule="evenodd"><g transform="translate(5)"><path d="m45 0v21c0 2.209139 1.790861 4 4 4h21v47c0 4.418278-3.581722 8-8 8h-54c-4.418278 0-8-3.581722-8-8v-64c0-4.418278 3.581722-8 8-8z" fill="#64b5f6"/><path d="m45 0 25 25h-21c-2.209139 0-4-1.790861-4-4z" fill="#bbdefb"/></g><path d="m39.4052734 47.6816406c0 .9934946-.1549463 1.8730431-.4648437 2.6386719s-.7610648 1.4104792-1.3535156 1.9345703c-.5924509.5240912-1.3193317.9228502-2.1806641 1.1962891-.8613324.2734388-1.8753197.4101562-3.0419922.4101562h-1.4765625v5.6464844c0 .0911463-.0296221.1731767-.0888672.2460937-.0592451.0729171-.1572259.1321613-.2939453.1777344-.1367194.0455732-.3190093.0820311-.546875.109375s-.5195295.0410156-.875.0410156c-.3463559 0-.635741-.0136717-.868164-.0410156-.2324231-.0273439-.4169916-.0638018-.553711-.109375-.1367194-.0455731-.2324216-.1048173-.2871094-.1777344-.0546877-.072917-.0820312-.1549474-.0820312-.2460937v-15.9140625c0-.4283876.1116525-.7496734.3349609-.9638672s.5172508-.321289.881836-.321289h4.1699218c.419273 0 .818032.0159503 1.1962891.0478515s.8317031.1002599 1.3603516.2050781c.5286484.1048183 1.0641249.2985012 1.6064453.5810547s1.0048809.6402973 1.3876953 1.0732422.6744782.9387992.875 1.5175781c.2005218.578779.3007812 1.2281865.3007812 1.9482422zm-3.7597656.2597656c0-.6197947-.1093739-1.1302063-.328125-1.53125-.2187511-.4010436-.4876286-.6972646-.8066406-.8886718s-.6539696-.3121743-1.0048828-.3623047c-.3509132-.0501305-.7132143-.0751953-1.0869141-.0751953h-1.53125v6.0019531h1.6132813c.5742216 0 1.055011-.0774732 1.4423828-.2324219.3873717-.1549487.7041003-.3714179.9501953-.649414.246095-.2779962.4329421-.6106752.5605469-.9980469s.1914062-.808917.1914062-1.2646485zm13.5214844 5.3457032v6.2207031c0 .0911463-.0296221.1731767-.0888672.2460937-.0592451.0729171-.1572259.1321613-.2939453.1777344-.1367194.0455732-.3212879.0820311-.5537109.109375-.2324231.0273439-.5218082.0410156-.8681641.0410156-.3554705 0-.6471343-.0136717-.875-.0410156s-.4124342-.0638018-.5537109-.109375c-.1412768-.0455731-.2392576-.1048173-.2939454-.1777344-.0546877-.072917-.0820312-.1549474-.0820312-.2460937v-6.2207031l-4.8398438-9.6386719c-.1731779-.3372413-.2848304-.5992829-.3349609-.7861328s-.022787-.3281245.0820313-.4238281c.1048182-.0957036.2985011-.1549478.5810546-.1777344s.6744767-.0341797 1.1757813-.0341797c.4192729 0 .7542305.0091145 1.0048828.0273437.2506523.0182293.4488925.0524087.5947266.1025391.145834.0501305.2529293.1162105.321289.1982422s.1344398.1868483.1982422.3144531l1.96875 4.3476563c.1914072.4192729.3805329.8613258.5673828 1.3261719.1868499.464846.3759756.9524714.5673828 1.4628906h.0273438c.1731779-.49219.3509105-.9707008.5332031-1.4355469s.3600252-.9068989.5332031-1.3261719l1.9414063-4.3203125c.0455731-.145834.1025387-.2620438.1708984-.3486328s.1708978-.1572263.3076172-.2119141c.1367194-.0546877.3235665-.0911457.5605469-.109375.2369803-.0182292.5514303-.0273437.9433594-.0273437.5195338 0 .9228501.0113931 1.2099609.0341797s.4830724.0820308.5878906.1777344c.1048183.0957036.1298831.2392568.0751953.430664-.0546877.1914072-.1640616.4511703-.328125.7792969z" fill="#fff" fill-rule="nonzero"/></g></svg>