<svg height="80" viewBox="0 0 80 80" width="80" xmlns="http://www.w3.org/2000/svg"><g fill="none" fill-rule="evenodd"><g transform="translate(5)"><path d="m45 0v21c0 2.209139 1.790861 4 4 4h21v47c0 4.418278-3.581722 8-8 8h-54c-4.418278 0-8-3.581722-8-8v-64c0-4.418278 3.581722-8 8-8z" fill="#3f73ea"/><path d="m45 0 25 25h-21c-2.209139 0-4-1.790861-4-4z" fill="#769aed"/></g><g transform="translate(5)"><path d="m45 0v21c0 2.209139 1.790861 4 4 4h21v47c0 4.418278-3.581722 8-8 8h-54c-4.418278 0-8-3.581722-8-8v-64c0-4.418278 3.581722-8 8-8z" fill="#4caf50"/><path d="m45 0 25 25h-21c-2.209139 0-4-1.790861-4-4z" fill="#81c784"/></g><path d="m30.8056641 59.5351562c0 .100261-.018229.18457-.0546875.2529297-.0364586.0683598-.1230462.1253253-.2597657.1708985-.1367194.0455731-.3372382.0774738-.6015625.0957031-.2643242.0182293-.6243466.0273437-1.0800781.0273437-.3828144 0-.6881499-.0091144-.9160156-.0273437s-.407877-.0524086-.5400391-.1025391c-.1321621-.0501304-.2255856-.1139319-.2802734-.1914062-.0546878-.0774744-.1002602-.1708979-.1367188-.2802734l-1.5859375-3.9511719c-.1914072-.4466168-.3782543-.8430973-.5605468-1.1894531-.1822926-.3463559-.3850901-.6357411-.6083985-.8681641s-.4807928-.407877-.7724609-.5263672-.6289043-.1777344-1.0117188-.1777344h-1.1210937v6.7402344c0 .0911463-.0296221.1731767-.0888672.2460937-.0592451.0729171-.1572259.1321613-.2939453.1777344-.1367194.0455732-.3190093.0820311-.546875.109375s-.5195295.0410156-.875.0410156c-.3463559 0-.635741-.0136717-.8681641-.0410156-.232423-.0273439-.4169915-.0638018-.5537109-.109375-.1367194-.0455731-.2324216-.1048173-.2871094-.1777344-.0546878-.072917-.0820312-.1549474-.0820312-.2460937v-16.0644531c0-.4010437.102538-.6904288.3076171-.8681641.2050792-.1777353.4580064-.2666015.7587891-.2666015h4.5800781c.4648461 0 .8476548.0091144 1.1484375.0273437.3007828.0182293.5742176.0410155.8203125.0683594.7109411.1002609 1.3512342.2734362 1.9208985.5195312s1.0527324.5673809 1.4492187.9638672c.3964864.3964864.6995432.8658827.9091797 1.4082031.2096365.5423205.3144531 1.1643845.3144531 1.866211 0 .5924509-.0751945 1.1324845-.2255859 1.6201172-.1503914.4876326-.3714178.9228496-.6630859 1.305664-.2916682.3828144-.6516906.7154934-1.0800782.9980469-.4283875.2825535-.9160129.5104158-1.4628906.6835937.2643243.1276049.5126942.2825512.7451172.4648438s.4511708.403319.65625.6630859c.2050792.259767.3987621.555988.5810547.8886719.1822926.332684.3600252.7086568.5332031 1.1279297l1.4902344 3.4863281c.1367194.3463559.2278643.5992831.2734375.7587891.0455731.159506.0683594.2848303.0683594.3759765zm-4.6347657-12.0039062c0-.5833363-.1321601-1.0755188-.3964843-1.4765625-.2643243-.4010437-.6972627-.6835929-1.2988282-.8476563-.1822925-.0455731-.3896472-.0820311-.6220703-.109375-.232423-.0273438-.5537089-.0410156-.9638672-.0410156h-1.6132812v5.0175782h1.8320312c.5104193 0 .9570294-.0615229 1.3398438-.1845704s.7018216-.2962228.9570312-.5195312.446614-.4899073.5742188-.7998047.1914062-.6562481.1914062-1.0390625zm21.765625 11.1289062c.1093756.3281267.1777343.5878897.2050782.7792969.0273438.1914072-.0091141.3349605-.109375.4306641-.100261.0957036-.2779936.1549478-.5332032.1777344-.2552096.0227865-.6061175.0341796-1.0527343.0341796-.4648461 0-.8271472-.0068358-1.0869141-.0205078-.2597669-.0136719-.4580071-.0410154-.5947266-.0820312-.1367194-.0410158-.2324216-.0979814-.2871093-.1708984-.0546878-.0729171-.1002603-.1686192-.1367188-.2871094l-1.1894531-3.5546875h-6.6445313l-1.1210937 3.4589843c-.0364585.1276049-.0843096.2347001-.1435547.3212891s-.1549473.1549477-.2871094.2050781c-.1321621.0501305-.3190092.0843098-.5605469.1025391-.2415376.0182293-.5582662.0273437-.9501953.0273437-.4192729 0-.7473946-.0136717-.984375-.0410156-.2369803-.0273439-.4010412-.0934239-.4921875-.1982422-.0911463-.1048182-.123047-.2529287-.0957031-.4443359s.0957026-.446613.2050781-.765625l5.4550782-15.6953125c.0546877-.1549487.1184892-.280273.1914062-.3759766s.1891268-.1686195.3486328-.21875c.159506-.0501304.3805325-.0820311.663086-.0957031.2825535-.0136719.6562476-.0205078 1.1210937-.0205078.5377631 0 .9661443.0068359 1.2851563.0205078.319012.013672.5673819.0455727.7451172.0957031.1777352.0501305.3053381.1253251.3828124.225586.0774744.1002609.1435545.2369783.1982422.4101562zm-8.1210937-12.9746093h-.0136719l-2.5019531 7.5195312h5.0175781zm23.7207031 13.8496093c0 .100261-.018229.18457-.0546875.2529297-.0364585.0683598-.1230462.1253253-.2597656.1708985-.1367194.0455731-.3372383.0774738-.6015625.0957031-.2643243.0182293-.6243467.0273437-1.0800781.0273437-.3828145 0-.6881499-.0091144-.9160157-.0273437-.2278657-.0182293-.4078769-.0524086-.540039-.1025391-.1321621-.0501304-.2255857-.1139319-.2802735-.1914062-.0546877-.0774744-.1002602-.1708979-.1367187-.2802734l-1.5859375-3.9511719c-.1914072-.4466168-.3782543-.8430973-.5605469-1.1894531-.1822926-.3463559-.38509-.6357411-.6083984-.8681641s-.4807928-.407877-.772461-.5263672c-.2916681-.1184902-.6289043-.1777344-1.0117187-.1777344h-1.1210938v6.7402344c0 .0911463-.0296221.1731767-.0888671.2460937-.0592451.0729171-.1572259.1321613-.2939454.1777344-.1367194.0455732-.3190092.0820311-.546875.109375-.2278657.0273439-.5195294.0410156-.875.0410156-.3463559 0-.635741-.0136717-.868164-.0410156-.2324231-.0273439-.4169915-.0638018-.553711-.109375-.1367194-.0455731-.2324216-.1048173-.2871093-.1777344-.0546878-.072917-.0820313-.1549474-.0820313-.2460937v-16.0644531c0-.4010437.102538-.6904288.3076172-.8681641s.4580063-.2666015.7587891-.2666015h4.5800781c.4648461 0 .8476547.0091144 1.1484375.0273437.3007827.0182293.5742175.0410155.8203125.0683594.710941.1002609 1.3512341.2734362 1.9208984.5195312s1.0527324.5673809 1.4492188.9638672c.3964863.3964864.6995432.8658827.9091797 1.4082031.2096364.5423205.3144531 1.1643845.3144531 1.866211 0 .5924509-.0751946 1.1324845-.225586 1.6201172-.1503913.4876326-.3714178.9228496-.6630859 1.305664s-.6516906.7154934-1.0800781.9980469c-.4283876.2825535-.9160129.5104158-1.4628906.6835937.2643242.1276049.5126941.2825512.7451172.4648438.232423.1822926.4511708.403319.65625.6630859.2050791.259767.3987621.555988.5810546.8886719.1822926.332684.3600252.7086568.5332032 1.1279297l1.4902343 3.4863281c.1367195.3463559.2278644.5992831.2734375.7587891.0455732.159506.0683594.2848303.0683594.3759765zm-4.6347656-12.0039062c0-.5833363-.1321601-1.0755188-.3964844-1.4765625-.2643242-.4010437-.6972626-.6835929-1.2988281-.8476563-.1822926-.0455731-.3896473-.0820311-.6220703-.109375-.2324231-.0273438-.5537089-.0410156-.9638672-.0410156h-1.6132813v5.0175782h1.8320313c.5104192 0 .9570293-.0615229 1.3398437-.1845704.3828145-.1230475.7018217-.2962228.9570313-.5195312s.4466139-.4899073.5742187-.7998047.1914063-.6562481.1914063-1.0390625z" fill="#fff" fill-rule="nonzero"/></g></svg>