<svg height="80" viewBox="0 0 80 80" width="80" xmlns="http://www.w3.org/2000/svg"><g fill="none" fill-rule="evenodd"><g transform="translate(5)"><path d="m45 0v21c0 2.209139 1.790861 4 4 4h21v47c0 4.418278-3.581722 8-8 8h-54c-4.418278 0-8-3.581722-8-8v-64c0-4.418278 3.581722-8 8-8z" fill="#b0bec5"/><path d="m45 0 25 25h-21c-2.209139 0-4-1.790861-4-4z" fill="#cfd8dc"/></g><path d="m33.9501953 59.5351562c0 .100261-.018229.18457-.0546875.2529297-.0364585.0683598-.1230462.1253253-.2597656.1708985-.1367194.0455731-.3372383.0774738-.6015625.0957031-.2643243.0182293-.6243467.0273437-1.0800781.0273437-.3828145 0-.6881499-.0091144-.9160157-.0273437-.2278657-.0182293-.4078769-.0524086-.540039-.1025391-.1321621-.0501304-.2255857-.1139319-.2802735-.1914062-.0546877-.0774744-.1002602-.1708979-.1367187-.2802734l-1.5859375-3.9511719c-.1914072-.4466168-.3782543-.8430973-.5605469-1.1894531-.1822926-.3463559-.38509-.6357411-.6083984-.8681641s-.4807928-.407877-.772461-.5263672c-.2916681-.1184902-.6289043-.1777344-1.0117187-.1777344h-1.1210938v6.7402344c0 .0911463-.0296221.1731767-.0888672.2460937-.059245.0729171-.1572258.1321613-.2939453.1777344-.1367194.0455732-.3190092.0820311-.546875.109375-.2278657.0273439-.5195294.0410156-.875.0410156-.3463559 0-.635741-.0136717-.868164-.0410156-.2324231-.0273439-.4169915-.0638018-.553711-.109375-.1367194-.0455731-.2324216-.1048173-.2871093-.1777344-.0546878-.072917-.0820313-.1549474-.0820313-.2460937v-16.0644531c0-.4010437.102538-.6904288.3076172-.8681641s.4580063-.2666015.7587891-.2666015h4.5800781c.4648461 0 .8476547.0091144 1.1484375.0273437.3007827.0182293.5742175.0410155.8203125.0683594.710941.1002609 1.3512341.2734362 1.9208984.5195312s1.0527324.5673809 1.4492188.9638672c.3964863.3964864.6995432.8658827.9091797 1.4082031.2096364.5423205.3144531 1.1643845.3144531 1.866211 0 .5924509-.0751946 1.1324845-.2255859 1.6201172-.1503914.4876326-.3714179.9228496-.663086 1.305664s-.6516906.7154934-1.0800781.9980469c-.4283876.2825535-.9160129.5104158-1.4628906.6835937.2643242.1276049.5126941.2825512.7451171.4648438.2324231.1822926.4511709.403319.65625.6630859.2050792.259767.3987622.555988.5810547.8886719.1822926.332684.3600252.7086568.5332032 1.1279297l1.4902343 3.4863281c.1367195.3463559.2278644.5992831.2734375.7587891.0455732.159506.0683594.2848303.0683594.3759765zm-4.6347656-12.0039062c0-.5833363-.1321601-1.0755188-.3964844-1.4765625-.2643242-.4010437-.6972626-.6835929-1.2988281-.8476563-.1822926-.0455731-.3896473-.0820311-.6220703-.109375-.2324231-.0273438-.5537089-.0410156-.9638672-.0410156h-1.6132813v5.0175782h1.8320313c.5104192 0 .9570293-.0615229 1.3398437-.1845704.3828145-.1230475.7018217-.2962228.9570313-.5195312s.4466139-.4899073.5742187-.7998047.1914063-.6562481.1914063-1.0390625zm18.7714844-3.7460938c0 .2643243-.0113932.489908-.0341797.6767579-.0227866.1868499-.0569659.337239-.1025391.4511718-.0455731.1139329-.1025387.198242-.1708984.2529297-.0683597.0546878-.1435543.0820313-.225586.0820313h-4.4296875v14.2597656c0 .0911463-.0296221.1731767-.0888672.2460937-.059245.0729171-.1572258.1321613-.2939453.1777344-.1367194.0455732-.3212879.0820311-.5537109.109375s-.5218082.0410156-.8681641.0410156-.635741-.0136717-.868164-.0410156c-.2324231-.0273439-.4169915-.0638018-.553711-.109375-.1367194-.0455731-.2347002-.1048173-.2939453-.1777344-.0592451-.072917-.0888672-.1549474-.0888672-.2460937v-14.2597656h-4.4296875c-.0911463 0-.1686194-.0273435-.2324218-.0820313-.0638024-.0546877-.1184894-.1389968-.1640625-.2529297-.0455732-.1139328-.0797525-.2643219-.1025391-.4511718s-.0341797-.4124336-.0341797-.6767579c0-.2734388.0113931-.5058584.0341797-.6972656s.0569659-.3440749.1025391-.4580078c.0455731-.1139328.1002601-.1959633.1640625-.2460937.0638024-.0501305.1412755-.0751953.2324218-.0751953h12.46875c.0820317 0 .1572263.0250648.225586.0751953.0683597.0501304.1253253.1321609.1708984.2460937.0455732.1139329.0797525.2666006.1025391.4580078.0227865.1914072.0341797.4238268.0341797.6972656zm12.0175781 0c0 .2734389-.0113931.5035798-.0341797.6904297s-.0592445.3349604-.109375.444336c-.0501305.1093755-.107096.191406-.1708984.2460937-.0638024.0546878-.1367184.0820313-.21875.0820313h-5.7832032v4.7578125h5.4277344c.0820317 0 .1549476.0227862.21875.0683594.0638024.0455731.120768.1230463.1708985.2324218.0501304.1093756.0865884.2552074.109375.4375.0227865.1822926.0341796.4101549.0341796.6835938 0 .2734388-.0113931.5013011-.0341796.6835937-.0227866.1822926-.0592446.3326817-.109375.4511719-.0501305.1184902-.1070961.2027992-.1708985.2529297-.0638024.0501304-.1367183.0751953-.21875.0751953h-5.4277344v6.5898438c0 .1002609-.0273434.1868485-.0820312.2597656-.0546878.072917-.1526686.1344398-.2939453.1845703-.1412768.0501304-.3258452.088867-.553711.1162109-.2278657.0273439-.5195294.0410156-.875.0410156-.3463559 0-.635741-.0136717-.868164-.0410156-.2324231-.0273439-.4169915-.0660805-.553711-.1162109-.1367194-.0501305-.2347002-.1116533-.2939453-.1845703-.0592451-.0729171-.0888672-.1595047-.0888672-.2597656v-16.0371094c0-.4010437.1025381-.6904288.3076172-.8681641.2050792-.1777353.4580063-.2666015.7587891-.2666015h8.3261719c.0820316 0 .1549476.0250648.21875.0751953.0638024.0501304.1207679.1321609.1708984.2460937.0501305.1139329.0865884.2666006.109375.4580078s.0341797.4238268.0341797.6972656z" fill="#fff" fill-rule="nonzero"/></g></svg>