<svg height="80" viewBox="0 0 80 80" width="80" xmlns="http://www.w3.org/2000/svg"><g fill="none" fill-rule="evenodd"><g transform="translate(5)"><path d="m45 0v21c0 2.209139 1.790861 4 4 4h21v47c0 4.418278-3.581722 8-8 8h-54c-4.418278 0-8-3.581722-8-8v-64c0-4.418278 3.581722-8 8-8z" fill="#26a69a"/><path d="m45 0 25 25h-21c-2.209139 0-4-1.790861-4-4z" fill="#b2dfdb"/></g><path d="m30.2724609 54.6953125c0 .9296921-.1731753 1.7454392-.5195312 2.4472656-.3463559.7018265-.8157523 1.2874326-1.4082031 1.756836-.5924509.4694034-1.2851523.8225899-2.078125 1.0595703-.7929728.2369803-1.6406205.3554687-2.5429688.3554687-.6106801 0-1.1780573-.0501297-1.7021484-.1503906-.5240912-.1002609-.9866517-.2210279-1.3876953-.3623047-.4010437-.1412767-.7360013-.2893872-1.0048829-.4443359-.2688815-.1549487-.4625645-.2916661-.5810546-.4101563-.1184902-.1184902-.2027993-.2893869-.2529297-.5126953-.0501305-.2233084-.0751953-.5445942-.0751953-.9638672 0-.2825535.0091145-.5195303.0273437-.7109375.0182293-.1914072.0478514-.3463535.0888672-.4648437s.0957028-.2027993.1640625-.2529297c.0683597-.0501305.1481115-.0751953.2392578-.0751953.1276048 0 .307616.0751945.5400391.2255859.232423.1503914.5309226.3167309.8955078.4990234.3645851.1822926.7998021.3486321 1.3056641.4990235.5058619.1503914 1.091468.2255859 1.7568359.2255859.4375022 0 .8294253-.0524083 1.1757812-.1572265.3463559-.1048183.6402983-.2529288.881836-.444336.2415376-.1914072.4261061-.428384.5537109-.7109375s.1914063-.5970035.1914063-.9433594c0-.4010436-.1093739-.7451157-.328125-1.0322265s-.503579-.5423166-.8544922-.765625-.7496723-.4329417-1.1962891-.6289063c-.4466168-.1959645-.9068987-.4033192-1.3808594-.6220703s-.9342425-.467121-1.3808593-.7451172c-.4466169-.2779961-.8453759-.6106751-1.1962891-.9980468-.3509132-.3873718-.6357411-.845375-.8544922-1.3740235s-.328125-1.1621057-.328125-1.9003906c0-.8476605.157225-1.5927702.4716797-2.2353516.3144547-.6425813.7382786-1.1757791 1.2714844-1.5996093.5332058-.4238303 1.1621057-.7405589 1.8867187-.9501953.724613-.2096365 1.492509-.3144532 2.303711-.3144532.4192729 0 .8385395.0319007 1.2578125.0957032.4192729.0638024.8111961.15039 1.1757812.2597656.3645852.1093755.6881496.2324212.9707031.3691406s.4694006.2506506.5605469.3417969.1526691.1686194.1845703.2324219c.0319012.0638024.0592447.1481114.0820313.2529296.0227865.1048183.0387369.2369784.0478515.3964844.0091147.159506.0136719.3577462.0136719.5947266 0 .2643242-.0068359.4876293-.0205078.6699218-.0136719.1822926-.0364582.3326817-.0683594.4511719s-.0774736.2050779-.1367187.2597657c-.0592451.0546877-.1389969.0820312-.2392578.0820312-.100261 0-.2597646-.0638014-.4785157-.1914062-.2187511-.1276049-.4876286-.2666009-.8066406-.4169922-.319012-.1503914-.6881489-.2871088-1.1074219-.4101563-.4192729-.1230475-.8795547-.1845703-1.3808593-.1845703-.3919291 0-.7337225.0478511-1.0253907.1435547-.2916681.0957036-.5354808.2278637-.7314453.3964844-.1959645.1686206-.3417964.371418-.4375.6083984s-.1435547.4876289-.1435547.7519531c0 .3919291.1070953.7314439.3212891 1.0185547s.5013003.5423166.8613281.765625c.3600279.2233084.7679014.4329417 1.2236328.6289063.4557315.1959645.9205706.4033192 1.3945313.6220703s.9387998.467121 1.3945312.7451172c.4557315.2779961.8613264.6106751 1.2167969.9980468.3554705.3873718.642577.8430964.8613281 1.3671875.2187511.5240912.328125 1.141598.328125 1.8525391zm20.3300782 6.9863281c0 .3281267-.0159504.5924469-.0478516.7929688-.0319012.2005218-.075195.3554682-.1298828.4648437-.0546878.1093756-.113932.1800129-.1777344.2119141s-.1321611.0478516-.2050781.0478516c-.3007828 0-.6949846-.0820305-1.1826172-.2460938s-1.0139946-.3987615-1.5791016-.7041016c-.565107-.30534-1.1415986-.6790342-1.7294922-1.1210937-.5878935-.4420595-1.1324844-.9501925-1.633789-1.5244141-.4192729.1914072-.9274059.3577467-1.5244141.4990235-.5970082.1412767-1.2600875.211914-1.9892578.211914-1.376309 0-2.5771433-.1754539-3.6025391-.5263672-1.0253957-.3509132-1.8798793-.8955041-2.5634765-1.633789-.6835972-.738285-1.1962874-1.6793563-1.5380859-2.8232422-.3417986-1.1438859-.5126954-2.5042239-.5126954-4.0810547 0-1.4309967.1822899-2.7184188.546875-3.8623047.3645852-1.1438859.9068975-2.1145793 1.6269532-2.9121094.7200556-.79753 1.6109973-1.4104796 2.6728515-1.8388671 1.0618543-.4283876 2.2945894-.6425782 3.6982422-.6425782 1.3216212 0 2.4905548.1777326 3.5068359.5332032 1.0162812.3554705 1.8730434.9000614 2.5703126 1.633789.6972691.7337276 1.2259096 1.6611272 1.5859374 2.7822266.3600279 1.1210993.5400391 2.4472579.5400391 3.9785156 0 .7929727-.0524083 1.5380825-.1572265 2.2353516-.1048183.6972691-.257486 1.3421194-.4580079 1.9345703-.2005218.5924509-.4466131 1.1347631-.7382812 1.6269531s-.6243471.9251283-.9980469 1.2988281c.565107.49219 1.0664041.8658842 1.5039063 1.1210938s.8043605.4466139 1.1005859.5742187.5332022.2210284.7109375.2802735.3167313.1367182.4169922.2324218.1731768.2597645.21875.4921875c.0455731.2324231.0683594.5537089.0683594.9638672zm-5.4414063-10.5683594c0-.9205775-.0729159-1.7591108-.21875-2.515625-.1458341-.7565141-.394204-1.4059217-.7451172-1.9482421-.3509132-.5423205-.8180309-.9615871-1.4013672-1.2578125-.5833362-.2962255-1.3124956-.444336-2.1875-.444336-.884119 0-1.6223928.1640609-2.2148437.4921875-.5924509.3281267-1.0709617.7701795-1.4355469 1.3261719-.3645851.5559924-.6220695 1.2053999-.7724609 1.9482422-.1503914.7428422-.225586 1.5244099-.225586 2.3447266 0 .9752652.072916 1.8502565.21875 2.625.1458341.7747434.3919254 1.4355441.7382813 1.9824218.3463559.5468778.811195.9638658 1.3945312 1.2509766.5833363.2871108 1.3170529.430664 2.2011719.430664s1.6223929-.1640608 2.2148438-.4921874c.5924508-.3281267 1.0709617-.7747368 1.4355468-1.3398438.3645852-.565107.6220696-1.2259077.772461-1.9824219s.2255859-1.5631467.2255859-2.4199219zm16.7890625 7.3828126c0 .2734388-.0113931.5035797-.0341797.6904296-.0227865.1868499-.0569659.3417963-.102539.4648438-.0455732.1230475-.1025388.2119138-.1708985.2666016-.0683597.0546877-.1481115.0820312-.2392578.0820312h-8.1074219c-.3007827 0-.5537099-.0888663-.758789-.2666016-.2050792-.1777352-.3076172-.4671204-.3076172-.868164v-16.0644532c0-.0911462.0296221-.1731767.0888672-.2460937s.1572259-.1321612.2939453-.1777344c.1367194-.0455731.3212879-.0820311.5537109-.109375.2324231-.0273439.5218082-.0410156.8681641-.0410156.3554705 0 .6471343.0136717.875.0410156s.4101556.0638019.546875.109375c.1367194.0455732.2347002.1048174.2939453.1777344s.0888672.1549475.0888672.2460937v14.2324219h5.5644531c.0911463 0 .1708981.0250649.2392578.0751953.0683597.0501305.1253253.1321609.1708985.2460938.0455731.1139328.0797525.264322.102539.4511719.0227866.1868499.0341797.4169908.0341797.6904297z" fill="#fff" fill-rule="nonzero"/></g></svg>