<svg height="80" viewBox="0 0 80 80" width="80" xmlns="http://www.w3.org/2000/svg"><g fill="none" fill-rule="evenodd"><g transform="translate(5)"><path d="m45 0v21c0 2.209139 1.790861 4 4 4h21v47c0 4.418278-3.581722 8-8 8h-54c-4.418278 0-8-3.581722-8-8v-64c0-4.418278 3.581722-8 8-8z" fill="#f88702"/><path d="m45 0 25 25h-21c-2.209139 0-4-1.790861-4-4z" fill="#ffbd70"/></g><path d="m28.9804688 54.6953125c0 .9296921-.1731754 1.7454392-.5195313 2.4472656-.3463559.7018265-.8157522 1.2874326-1.4082031 1.756836s-1.2851523.8225899-2.078125 1.0595703c-.7929727.2369803-1.6406205.3554687-2.5429688.3554687-.6106801 0-1.1780573-.0501297-1.7021484-.1503906-.5240912-.1002609-.9866517-.2210279-1.3876953-.3623047-.4010437-.1412767-.7360013-.2893872-1.0048828-.4443359-.2688816-.1549487-.4625645-.2916661-.5810547-.4101563s-.2027993-.2893869-.2529297-.5126953c-.0501305-.2233084-.0751953-.5445942-.0751953-.9638672 0-.2825535.0091145-.5195303.0273437-.7109375.0182293-.1914072.0478514-.3463535.0888672-.4648437s.0957028-.2027993.1640625-.2529297c.0683597-.0501305.1481115-.0751953.2392578-.0751953.1276048 0 .3076161.0751945.5400391.2255859s.5309226.3167309.8955078.4990234c.3645852.1822926.7998022.3486321 1.3056641.4990235s1.091468.2255859 1.7568359.2255859c.4375022 0 .8294254-.0524083 1.1757813-.1572265.3463558-.1048183.6402982-.2529288.8818359-.444336s.4261061-.428384.5537109-.7109375.1914063-.5970035.1914063-.9433594c0-.4010436-.1093739-.7451157-.328125-1.0322265s-.503579-.5423166-.8544922-.765625-.7496723-.4329417-1.1962891-.6289063c-.4466168-.1959645-.9068986-.4033192-1.3808594-.6220703-.4739607-.2187511-.9342425-.467121-1.3808593-.7451172-.4466168-.2779961-.8453759-.6106751-1.1962891-.9980468-.3509132-.3873718-.6357411-.845375-.8544922-1.3740235s-.328125-1.1621057-.328125-1.9003906c0-.8476605.157225-1.5927702.4716797-2.2353516.3144547-.6425813.7382786-1.1757791 1.2714844-1.5996093.5332058-.4238303 1.1621057-.7405589 1.8867187-.9501953.724613-.2096365 1.492509-.3144532 2.303711-.3144532.4192729 0 .8385395.0319007 1.2578125.0957032.4192729.0638024.8111961.15039 1.1757812.2597656.3645852.1093755.6881497.2324212.9707031.3691406.2825535.1367194.4694006.2506506.5605469.3417969s.1526691.1686194.1845703.2324219c.0319012.0638024.0592447.1481114.0820313.2529296.0227866.1048183.0387369.2369784.0478515.3964844.0091147.159506.0136719.3577462.0136719.5947266 0 .2643242-.0068358.4876293-.0205078.6699218-.0136719.1822926-.0364582.3326817-.0683594.4511719s-.0774736.2050779-.1367187.2597657c-.0592451.0546877-.1389969.0820312-.2392578.0820312s-.2597646-.0638014-.4785156-.1914062c-.2187511-.1276049-.4876287-.2666009-.8066407-.4169922-.319012-.1503914-.6881489-.2871088-1.1074219-.4101563-.4192729-.1230475-.8795547-.1845703-1.3808593-.1845703-.3919291 0-.7337225.0478511-1.0253907.1435547-.2916681.0957036-.5354807.2278637-.7314453.3964844-.1959645.1686206-.3417964.371418-.4375.6083984s-.1435547.4876289-.1435547.7519531c0 .3919291.1070953.7314439.3212891 1.0185547s.5013003.5423166.8613281.765625c.3600279.2233084.7679014.4329417 1.2236328.6289063.4557315.1959645.9205706.4033192 1.3945313.6220703s.9387998.467121 1.3945313.7451172c.4557314.2779961.8613263.6106751 1.2167968.9980468.3554706.3873718.6425771.8430964.8613282 1.3671875.218751.5240912.328125 1.141598.328125 1.8525391zm11.265625 4.6757813c-.0455732.1549486-.1048174.2802729-.1777344.3759765-.0729171.0957036-.1914055.1686196-.3554688.21875-.1640633.0501305-.3873684.0820312-.6699218.0957031-.2825535.013672-.6516905.0205078-1.1074219.0205078-.3645852 0-.6767565-.0022786-.9365235-.0068359-.2597669-.0045573-.4807933-.0159504-.6630859-.0341797-.1822926-.0182292-.3304031-.0455727-.4443359-.0820312-.1139329-.0364585-.2096351-.082031-.2871094-.1367188-.0774744-.0546877-.1367186-.1207678-.1777344-.1982422-.0410158-.0774743-.0797524-.1754551-.1162109-.2939453l-5.2636719-15.6816406c-.1093755-.3281266-.1754556-.5878897-.1982422-.7792969s.0227859-.3349604.1367188-.430664c.1139328-.0957036.3076158-.1549478.5810546-.1777344.2734389-.0227866.6562476-.0341797 1.1484376-.0341797.4192729 0 .7473946.0091145.984375.0273437.2369803.0182293.4192701.05013.546875.0957032.1276048.0455731.2164711.1139318.2666015.2050781.0501305.0911463.0979816.2050774.1435547.3417969l4.3066406 13.6445312h.0136719l4.2246094-13.5761718c.0364585-.1549487.082031-.280273.1367187-.3759766.0546878-.0957036.1481113-.1708982.2802735-.225586.1321621-.0546877.3212878-.0911457.5673828-.109375.246095-.0182292.5833312-.0273437 1.0117187-.0273437.419273 0 .7451161.0136717.9775391.0410156s.3919266.093424.4785156.1982422.1139325.2529287.0820313.4443359c-.0319012.1914073-.1025386.446613-.2119141.765625zm21.4648437-14.3144532c0 .2643243-.0113931.4921866-.0341797.6835938s-.0546873.3440749-.0957031.4580078c-.0410158.1139328-.0911455.1936847-.1503906.2392578s-.1298824.0683594-.2119141.0683594c-.1184902 0-.3098945-.0820305-.5742188-.2460938-.2643242-.1640633-.6152321-.3417959-1.0527343-.5332031s-.9593069-.3691398-1.5654297-.5332031-1.3102174-.2460938-2.1123047-.2460938c-.8567751 0-1.631507.1481105-2.3242187.444336-.6927118.2962254-1.2851538.715492-1.7773438 1.2578125-.49219.5423204-.8704414 1.1940066-1.1347656 1.9550781-.2643243.7610715-.3964844 1.6018834-.3964844 2.5224609 0 1.0117238.1344388 1.9026654.4033203 2.6728516.2688816.7701861.6448544 1.4150365 1.1279297 1.9345703s1.0641242.911457 1.7431641 1.1757812c.6790398.2643243 1.4287068.3964844 2.2490234.3964844.4010437 0 .7975241-.0455724 1.1894531-.1367187.3919291-.0911463.7565088-.2278637 1.09375-.4101563v-4.1015625h-3.3496094c-.1640633 0-.2916662-.102538-.3828124-.3076172-.0911463-.2050791-.1367188-.5537084-.1367188-1.0458984 0-.2552096.0113931-.4694002.0341797-.6425781.0227866-.173178.0569659-.312174.1025391-.4169922.0455731-.1048182.10026-.1822914.1640624-.2324219.0638025-.0501304.1367184-.0751953.21875-.0751953h5.9746094c.1458341 0 .2757156.0250649.3896485.0751953.1139328.0501305.2141922.125325.3007812.2255859.086589.100261.1526691.221028.1982422.3623047.0455731.1412768.0683594.303059.0683594.4853516v7.0410156c0 .2734389-.0478511.5126943-.1435547.7177735-.0957036.2050791-.2916652.3668613-.5878906.4853515-.2962255.1184902-.6630838.2415358-1.100586.3691407-.4375022.1276048-.8909481.2369787-1.3603515.328125-.4694034.0911462-.943357.1595049-1.421875.2050781-.4785181.0455731-.9593075.0683593-1.4423829.0683593-1.4127674 0-2.6774032-.2027974-3.7939453-.6083984-1.116542-.405601-2.0621706-.9934857-2.836914-1.7636719-.7747435-.7701861-1.3671855-1.7089788-1.7773438-2.8164062s-.6152343-2.3629487-.6152343-3.7666016c0-1.449226.2187478-2.7503197.65625-3.9033203.4375021-1.1530005 1.0572876-2.1328085 1.859375-2.9394531.8020873-.8066447 1.7705021-1.4241515 2.9052734-1.8525391 1.1347713-.4283875 2.3994071-.6425781 3.7939453-.6425781.7656288 0 1.4628875.0524083 2.0917969.1572266.6289094.1048182 1.1780575.2324211 1.6474609.3828125.4694034.1503913.8590479.3121736 1.1689453.4853515.3098974.173178.5263666.3235671.6494141.4511719s.2119138.307616.2666015.5400391c.0546878.232423.0820313.5764951.0820313 1.0322265z" fill="#fff" fill-rule="nonzero"/></g></svg>