<svg height="80" viewBox="0 0 80 80" width="80" xmlns="http://www.w3.org/2000/svg"><g fill="none" fill-rule="evenodd"><g transform="translate(5)"><path d="m45 0v21c0 2.209139 1.790861 4 4 4h21v47c0 4.418278-3.581722 8-8 8h-54c-4.418278 0-8-3.581722-8-8v-64c0-4.418278 3.581722-8 8-8z" fill="#4caf50"/><path d="m45 0 25 25h-21c-2.209139 0-4-1.790861-4-4z" fill="#81c784"/></g><path d="m31.5029297 43.7851562c0 .2643243-.0113931.489908-.0341797.6767579s-.0569659.337239-.1025391.4511718c-.0455731.1139329-.1025387.198242-.1708984.2529297-.0683597.0546878-.1435543.0820313-.2255859.0820313h-4.4296875v14.2597656c0 .0911463-.0296221.1731767-.0888672.2460937-.0592451.0729171-.1572259.1321613-.2939453.1777344-.1367195.0455732-.3212879.0820311-.553711.109375-.232423.0273439-.5218081.0410156-.868164.0410156s-.6357411-.0136717-.8681641-.0410156-.4169915-.0638018-.5537109-.109375c-.1367195-.0455731-.2347003-.1048173-.2939454-.1777344-.059245-.072917-.0888671-.1549474-.0888671-.2460937v-14.2597656h-4.4296875c-.0911463 0-.1686195-.0273435-.2324219-.0820313-.0638024-.0546877-.1184894-.1389968-.1640625-.2529297-.0455732-.1139328-.0797525-.2643219-.1025391-.4511718-.0227865-.1868499-.0341797-.4124336-.0341797-.6767579 0-.2734388.0113932-.5058584.0341797-.6972656.0227866-.1914072.0569659-.3440749.1025391-.4580078.0455731-.1139328.1002601-.1959633.1640625-.2460937.0638024-.0501305.1412756-.0751953.2324219-.0751953h12.46875c.0820316 0 .1572262.0250648.2255859.0751953.0683597.0501304.1253253.1321609.1708984.2460937.0455732.1139329.0797525.2666006.1025391.4580078s.0341797.4238268.0341797.6972656zm14.3828125 14.875c.1093755.3281267.1777342.5878897.2050781.7792969s-.0091141.3349605-.109375.4306641-.2779935.1549478-.5332031.1777344c-.2552096.0227865-.6061176.0341796-1.0527344.0341796-.4648461 0-.8271471-.0068358-1.086914-.0205078-.259767-.0136719-.4580072-.0410154-.5947266-.0820312s-.2324216-.0979814-.2871094-.1708984c-.0546878-.0729171-.1002602-.1686192-.1367187-.2871094l-1.1894532-3.5546875h-6.6445312l-1.1210938 3.4589843c-.0364585.1276049-.0843096.2347001-.1435547.3212891-.059245.086589-.1549472.1549477-.2871093.2050781-.1321621.0501305-.3190092.0843098-.5605469.1025391s-.5582663.0273437-.9501953.0273437c-.4192729 0-.7473947-.0136717-.984375-.0410156-.2369804-.0273439-.4010412-.0934239-.4921875-.1982422-.0911463-.1048182-.123047-.2529287-.0957031-.4443359.0273438-.1914072.0957025-.446613.2050781-.765625l5.4550781-15.6953125c.0546878-.1549487.1184892-.280273.1914063-.3759766.072917-.0957036.1891268-.1686195.3486328-.21875.159506-.0501304.3805324-.0820311.6630859-.0957031.2825535-.0136719.6562477-.0205078 1.1210938-.0205078.5377631 0 .9661442.0068359 1.2851562.0205078.319012.013672.5673819.0455727.7451172.0957031.1777353.0501305.3053382.1253251.3828125.225586s.1435544.2369783.1982422.4101562zm-8.1210938-12.9746093h-.0136718l-2.5019532 7.5195312h5.0175782zm23.7207032 13.8496093c0 .100261-.018229.18457-.0546875.2529297-.0364586.0683598-.1230462.1253253-.2597657.1708985-.1367194.0455731-.3372382.0774738-.6015625.0957031-.2643242.0182293-.6243466.0273437-1.0800781.0273437-.3828144 0-.6881499-.0091144-.9160156-.0273437s-.407877-.0524086-.5400391-.1025391c-.1321621-.0501304-.2255856-.1139319-.2802734-.1914062-.0546878-.0774744-.1002602-.1708979-.1367188-.2802734l-1.5859375-3.9511719c-.1914072-.4466168-.3782543-.8430973-.5605468-1.1894531-.1822926-.3463559-.3850901-.6357411-.6083985-.8681641s-.4807928-.407877-.7724609-.5263672-.6289043-.1777344-1.0117188-.1777344h-1.1210937v6.7402344c0 .0911463-.0296221.1731767-.0888672.2460937-.0592451.0729171-.1572259.1321613-.2939453.1777344-.1367194.0455732-.3190093.0820311-.546875.109375s-.5195295.0410156-.875.0410156c-.3463559 0-.635741-.0136717-.8681641-.0410156-.232423-.0273439-.4169915-.0638018-.5537109-.109375-.1367194-.0455731-.2324216-.1048173-.2871094-.1777344-.0546878-.072917-.0820312-.1549474-.0820312-.2460937v-16.0644531c0-.4010437.102538-.6904288.3076172-.8681641.2050791-.1777353.4580063-.2666015.758789-.2666015h4.5800781c.4648461 0 .8476548.0091144 1.1484375.0273437.3007828.0182293.5742176.0410155.8203125.0683594.7109411.1002609 1.3512342.2734362 1.9208985.5195312s1.0527324.5673809 1.4492187.9638672c.3964864.3964864.6995432.8658827.9091797 1.4082031.2096365.5423205.3144531 1.1643845.3144531 1.866211 0 .5924509-.0751945 1.1324845-.2255859 1.6201172-.1503914.4876326-.3714178.9228496-.6630859 1.305664-.2916682.3828144-.6516906.7154934-1.0800782.9980469-.4283875.2825535-.9160129.5104158-1.4628906.6835937.2643243.1276049.5126942.2825512.7451172.4648438s.4511708.403319.65625.6630859c.2050792.259767.3987621.555988.5810547.8886719.1822926.332684.3600252.7086568.5332031 1.1279297l1.4902344 3.4863281c.1367194.3463559.2278643.5992831.2734375.7587891.0455731.159506.0683594.2848303.0683594.3759765zm-4.6347657-12.0039062c0-.5833363-.1321601-1.0755188-.3964843-1.4765625-.2643243-.4010437-.6972627-.6835929-1.2988282-.8476563-.1822925-.0455731-.3896472-.0820311-.6220703-.109375-.232423-.0273438-.5537089-.0410156-.9638672-.0410156h-1.6132812v5.0175782h1.8320312c.5104193 0 .9570294-.0615229 1.3398438-.1845704s.7018216-.2962228.9570312-.5195312.446614-.4899073.5742188-.7998047.1914062-.6562481.1914062-1.0390625z" fill="#fff" fill-rule="nonzero"/></g></svg>