<svg height="80" viewBox="0 0 80 80" width="80" xmlns="http://www.w3.org/2000/svg"><g fill="none" fill-rule="evenodd"><g transform="translate(5)"><path d="m45 0v21c0 2.209139 1.790861 4 4 4h21v47c0 4.418278-3.581722 8-8 8h-54c-4.418278 0-8-3.581722-8-8v-64c0-4.418278 3.581722-8 8-8z" fill="#4fc3f7"/><path d="m45 0 25 25h-21c-2.209139 0-4-1.790861-4-4z" fill="#b3e5fc"/></g><path d="m30.1835938 43.7851562c0 .2643243-.0113932.489908-.0341797.6767579-.0227866.1868499-.056966.337239-.1025391.4511718-.0455731.1139329-.1025387.198242-.1708984.2529297-.0683598.0546878-.1435543.0820313-.225586.0820313h-4.4296875v14.2597656c0 .0911463-.0296221.1731767-.0888672.2460937-.0592451.0729171-.1572258.1321613-.2939453.1777344-.1367194.0455732-.3212879.0820311-.5537109.109375s-.5218082.0410156-.8681641.0410156-.635741-.0136717-.868164-.0410156c-.2324231-.0273439-.4169915-.0638018-.553711-.109375-.1367194-.0455731-.2347002-.1048173-.2939453-.1777344-.0592451-.072917-.0888672-.1549474-.0888672-.2460937v-14.2597656h-4.4296875c-.0911463 0-.1686194-.0273435-.2324218-.0820313-.0638025-.0546877-.1184894-.1389968-.1640626-.2529297-.0455731-.1139328-.0797524-.2643219-.102539-.4511718s-.0341797-.4124336-.0341797-.6767579c0-.2734388.0113931-.5058584.0341797-.6972656s.0569659-.3440749.102539-.4580078c.0455732-.1139328.1002601-.1959633.1640626-.2460937.0638024-.0501305.1412755-.0751953.2324218-.0751953h12.46875c.0820317 0 .1572262.0250648.225586.0751953.0683597.0501304.1253253.1321609.1708984.2460937.0455731.1139329.0797525.2666006.1025391.4580078.0227865.1914072.0341797.4238268.0341797.6972656zm5.7011718 15.7226563c0 .0911463-.0296221.1731767-.0888672.2460937-.0592451.0729171-.1572258.1321613-.2939453.1777344-.1367194.0455732-.3190093.0820311-.546875.109375s-.5195294.0410156-.875.0410156c-.3463559 0-.635741-.0136717-.868164-.0410156-.2324231-.0273439-.4169915-.0638018-.553711-.109375-.1367194-.0455731-.2347002-.1048173-.2939453-.1777344-.0592451-.072917-.0888672-.1549474-.0888672-.2460937v-16.7070313c0-.0911462.0296221-.1731767.0888672-.2460937s.1595045-.1321612.3007813-.1777344c.1412767-.0455731.3258452-.0820311.5537109-.109375s.5149722-.0410156.8613281-.0410156c.3554706 0 .6471343.0136717.875.0410156s.4101556.0638019.546875.109375c.1367195.0455732.2347002.1048174.2939453.1777344s.0888672.1549475.0888672.2460937zm13.78125-15.7226563c0 .2734389-.0113931.5035798-.0341797.6904297-.0227865.1868499-.0592445.3349604-.109375.444336-.0501304.1093755-.107096.191406-.1708984.2460937-.0638024.0546878-.1367183.0820313-.21875.0820313h-5.7832031v4.7578125h5.4277344c.0820316 0 .1549475.0227862.21875.0683594.0638024.0455731.1207679.1230463.1708984.2324218.0501304.1093756.0865884.2552074.109375.4375s.0341797.4101549.0341797.6835938c0 .2734388-.0113931.5013011-.0341797.6835937s-.0592446.3326817-.109375.4511719c-.0501305.1184902-.107096.2027992-.1708984.2529297-.0638025.0501304-.1367184.0751953-.21875.0751953h-5.4277344v6.5898438c0 .1002609-.0273435.1868485-.0820313.2597656-.0546877.072917-.1526685.1344398-.2939453.1845703-.1412767.0501304-.3258452.088867-.5537109.1162109s-.5195295.0410156-.875.0410156c-.3463559 0-.6357411-.0136717-.8681641-.0410156s-.4169915-.0660805-.5537109-.1162109c-.1367195-.0501305-.2347002-.1116533-.2939453-.1845703-.0592451-.0729171-.0888672-.1595047-.0888672-.2597656v-16.0371094c0-.4010437.102538-.6904288.3076172-.8681641.2050791-.1777353.4580063-.2666015.758789-.2666015h8.3261719c.0820317 0 .1549476.0250648.21875.0751953.0638024.0501304.120768.1321609.1708984.2460937.0501305.1139329.0865885.2666006.109375.4580078.0227866.1914072.0341797.4238268.0341797.6972656zm12.8515625 0c0 .2734389-.0113931.5035798-.0341797.6904297-.0227865.1868499-.0592445.3349604-.109375.444336-.0501304.1093755-.107096.191406-.1708984.2460937-.0638024.0546878-.1367183.0820313-.21875.0820313h-5.7832031v4.7578125h5.4277343c.0820317 0 .1549476.0227862.21875.0683594.0638025.0455731.120768.1230463.1708985.2324218.0501304.1093756.0865884.2552074.109375.4375s.0341797.4101549.0341797.6835938c0 .2734388-.0113931.5013011-.0341797.6835937s-.0592446.3326817-.109375.4511719c-.0501305.1184902-.107096.2027992-.1708985.2529297-.0638024.0501304-.1367183.0751953-.21875.0751953h-5.4277343v6.5898438c0 .1002609-.0273435.1868485-.0820313.2597656-.0546877.072917-.1526685.1344398-.2939453.1845703-.1412767.0501304-.3258452.088867-.5537109.1162109s-.5195295.0410156-.875.0410156c-.3463559 0-.6357411-.0136717-.8681641-.0410156s-.4169915-.0660805-.5537109-.1162109c-.1367195-.0501305-.2347002-.1116533-.2939453-.1845703-.0592451-.0729171-.0888672-.1595047-.0888672-.2597656v-16.0371094c0-.4010437.102538-.6904288.3076172-.8681641.2050791-.1777353.4580063-.2666015.758789-.2666015h8.3261719c.0820317 0 .1549476.0250648.21875.0751953.0638024.0501304.120768.1321609.1708984.2460937.0501305.1139329.0865885.2666006.109375.4580078.0227866.1914072.0341797.4238268.0341797.6972656z" fill="#fff" fill-rule="nonzero"/></g></svg>