<svg height="80" viewBox="0 0 80 80" width="80" xmlns="http://www.w3.org/2000/svg"><g fill="none" fill-rule="evenodd"><g transform="translate(5)"><path d="m45 0v21c0 2.209139 1.790861 4 4 4h21v47c0 4.418278-3.581722 8-8 8h-54c-4.418278 0-8-3.581722-8-8v-64c0-4.418278 3.581722-8 8-8z" fill="#b0bec5"/><path d="m45 0 25 25h-21c-2.209139 0-4-1.790861-4-4z" fill="#cfd8dc"/></g><path d="m32.125 43.7851562c0 .2643243-.0113931.489908-.0341797.6767579s-.0569659.337239-.1025391.4511718c-.0455731.1139329-.1025387.198242-.1708984.2529297-.0683597.0546878-.1435543.0820313-.2255859.0820313h-4.4296875v14.2597656c0 .0911463-.0296221.1731767-.0888672.2460937-.0592451.0729171-.1572259.1321613-.2939453.1777344-.1367195.0455732-.3212879.0820311-.553711.109375-.232423.0273439-.5218081.0410156-.868164.0410156s-.6357411-.0136717-.8681641-.0410156-.4169915-.0638018-.5537109-.109375c-.1367195-.0455731-.2347002-.1048173-.2939453-.1777344-.0592451-.072917-.0888672-.1549474-.0888672-.2460937v-14.2597656h-4.4296875c-.0911463 0-.1686195-.0273435-.2324219-.0820313-.0638024-.0546877-.1184894-.1389968-.1640625-.2529297-.0455731-.1139328-.0797525-.2643219-.1025391-.4511718-.0227865-.1868499-.0341796-.4124336-.0341796-.6767579 0-.2734388.0113931-.5058584.0341796-.6972656.0227866-.1914072.056966-.3440749.1025391-.4580078.0455731-.1139328.1002601-.1959633.1640625-.2460937.0638024-.0501305.1412756-.0751953.2324219-.0751953h12.46875c.0820316 0 .1572262.0250648.2255859.0751953.0683597.0501304.1253253.1321609.1708984.2460937.0455732.1139329.0797525.2666006.1025391.4580078s.0341797.4238268.0341797.6972656zm14.6972656 14.8613282c.1640633.319012.2711586.5742178.3212891.765625.0501304.1914072.0205083.3372391-.0888672.4375s-.3076158.1640623-.5947266.1914062-.6858698.0410156-1.196289.0410156c-.4283876 0-.7656238-.0091144-1.0117188-.0273437s-.4397779-.0478514-.5810547-.0888672c-.1412767-.0410158-.2438147-.0979814-.3076172-.1708984-.0638024-.0729171-.1184893-.164062-.1640624-.2734375l-3.3222657-6.3847656-3.3085937 6.3847656c-.0546878.1093755-.113932.2005204-.1777344.2734375-.0638024.072917-.1663404.1298826-.3076172.1708984-.1412767.0410158-.3372383.0706379-.5878906.0888672s-.5810526.0273437-.991211.0273437c-.4739607 0-.840819-.0136717-1.1005859-.0410156s-.4352209-.0911453-.5263672-.1914062-.1093752-.2460928-.0546875-.4375c.0546878-.1914072.168619-.446613.3417969-.765625l4.2382813-7.7246094-3.9375-7.2597656c-.1640634-.3281267-.2757159-.5901683-.334961-.7861328-.0592451-.1959646-.0364588-.3417964.0683594-.4375s.2985012-.1549478.5810547-.1777344.6835911-.0341797 1.203125-.0341797c.4283875 0 .7679024.0091145 1.0185547.0273437.2506523.0182293.4488925.0478514.5947265.0888672.1458341.0410159.2483721.0979814.3076172.1708985.0592451.072917.1162107.1640619.1708985.2734375l3.1035156 5.8515625 3.0214844-5.8515625c.0546877-.1093756.1116533-.2005205.1708984-.2734375.0592451-.0729171.1549472-.1298826.2871094-.1708985.1321621-.0410158.3144519-.0706379.546875-.0888672.232423-.0182292.5537088-.0273437.9638672-.0273437.4557314 0 .8157538.0113931 1.0800781.0341797.2643242.0227866.4466141.0843094.546875.1845703s.1253257.2460928.0751953.4375c-.0501305.1914072-.1526685.4511702-.3076172.7792969l-3.9375 7.21875zm14.5878906-14.8613282c0 .2643243-.0113931.489908-.0341796.6767579-.0227866.1868499-.056966.337239-.1025391.4511718-.0455731.1139329-.1025387.198242-.1708984.2529297-.0683598.0546878-.1435543.0820313-.225586.0820313h-4.4296875v14.2597656c0 .0911463-.0296221.1731767-.0888672.2460937-.0592451.0729171-.1572258.1321613-.2939453.1777344-.1367194.0455732-.3212879.0820311-.5537109.109375s-.5218082.0410156-.8681641.0410156-.635741-.0136717-.868164-.0410156c-.2324231-.0273439-.4169915-.0638018-.553711-.109375-.1367194-.0455731-.2347002-.1048173-.2939453-.1777344-.0592451-.072917-.0888672-.1549474-.0888672-.2460937v-14.2597656h-4.4296875c-.0911463 0-.1686194-.0273435-.2324219-.0820313-.0638024-.0546877-.1184893-.1389968-.1640624-.2529297-.0455732-.1139328-.0797525-.2643219-.1025391-.4511718s-.0341797-.4124336-.0341797-.6767579c0-.2734388.0113931-.5058584.0341797-.6972656s.0569659-.3440749.1025391-.4580078c.0455731-.1139328.10026-.1959633.1640624-.2460937.0638025-.0501305.1412756-.0751953.2324219-.0751953h12.46875c.0820317 0 .1572262.0250648.225586.0751953.0683597.0501304.1253253.1321609.1708984.2460937.0455731.1139329.0797525.2666006.1025391.4580078.0227865.1914072.0341796.4238268.0341796.6972656z" fill="#fff" fill-rule="nonzero"/></g></svg>