<svg height="80" viewBox="0 0 80 80" width="80" xmlns="http://www.w3.org/2000/svg"><g fill="none" fill-rule="evenodd"><g transform="translate(5)"><path d="m45 0v21c0 2.209139 1.790861 4 4 4h21v47c0 4.418278-3.581722 8-8 8h-54c-4.418278 0-8-3.581722-8-8v-64c0-4.418278 3.581722-8 8-8z" fill="#ec407a"/><path d="m45 0 25 25h-21c-2.209139 0-4-1.790861-4-4z" fill="#f48fb1"/></g><path d="m32.4736328 59.0839844c-.0546878.2187511-.1298823.394205-.2255859.5263672-.0957036.1321621-.2392569.2324215-.4306641.3007812s-.4374985.1139322-.7382812.1367188c-.3007828.0227865-.6835915.0341796-1.1484375.0341796-.5195339 0-.9365219-.0113931-1.2509766-.0341796-.3144547-.0227866-.5628246-.0683591-.7451172-.1367188s-.3144527-.1686191-.3964844-.3007812c-.0820316-.1321622-.1458331-.3076161-.1914062-.5263672l-2.8300781-11.2109375h-.0273438l-2.6796875 11.2109375c-.0455731.2096364-.1093746.3805332-.1914062.5126953-.0820317.1321621-.2119132.2347001-.3896485.3076172-.1777352.072917-.4192693.1207681-.7246093.1435547-.3053401.0227865-.7086564.0341796-1.209961.0341796-.5286485 0-.9501937-.0113931-1.2646484-.0341796-.3144547-.0227866-.5628246-.0683591-.7451172-.1367188s-.3144527-.1686191-.3964844-.3007812c-.0820316-.1321622-.1503903-.3076161-.2050781-.5263672l-4.0195313-15.4355469c-.0820316-.3281266-.1276041-.585611-.1367187-.7724609s.0432937-.3304032.1572266-.4306641c.1139328-.1002609.3007799-.1617837.5605468-.1845703s.622068-.0341797 1.0869141-.0341797c.4283875 0 .7679024.0068359 1.0185547.0205078.2506523.013672.439778.0455727.5673828.0957031.1276048.0501305.2141925.1230464.2597656.21875.0455732.0957036.0820311.2301424.109375.4033204l3.1035156 13.5488281h.0136719l3.2265625-13.453125c.0364585-.173178.0843096-.3144526.1435547-.4238281.0592451-.1093756.1595045-.1936846.3007813-.2529297.1412767-.0592451.3349597-.1002603.5810546-.1230469.246095-.0227866.5742167-.0341797.984375-.0341797.4375022 0 .7861316.0091145 1.0458985.0273437.2597669.0182293.4602857.0569659.6015625.116211.1412767.0592451.2438148.1435541.3076172.2529297.0638024.1093755.1139321.2552074.1503906.4375l3.3359375 13.453125h.0273437l3.1035157-13.5078125c.0273438-.1458341.0638018-.2711584.109375-.3759766.0455731-.1048182.1321608-.1868486.2597656-.2460937s.3098946-.1002603.546875-.1230469c.2369803-.0227866.5696593-.0341797.9980469-.0341797.4010436 0 .713215.0113931.9365234.0341797s.3850906.0843094.4853516.1845703c.1002609.1002609.1435547.2483714.1298828.4443359-.013672.1959646-.0615231.4625635-.1435547.7998047zm19.9335938-.4238282c.1093755.3281267.1777342.5878897.2050781.7792969s-.0091141.3349605-.109375.4306641-.2779935.1549478-.5332031.1777344c-.2552096.0227865-.6061176.0341796-1.0527344.0341796-.4648461 0-.8271472-.0068358-1.0869141-.0205078-.2597669-.0136719-.4580071-.0410154-.5947265-.0820312-.1367195-.0410158-.2324216-.0979814-.2871094-.1708984-.0546878-.0729171-.1002602-.1686192-.1367188-.2871094l-1.1894531-3.5546875h-6.6445312l-1.1210938 3.4589843c-.0364585.1276049-.0843096.2347001-.1435547.3212891s-.1549472.1549477-.2871093.2050781c-.1321622.0501305-.3190093.0843098-.5605469.1025391-.2415377.0182293-.5582663.0273437-.9501953.0273437-.419273 0-.7473947-.0136717-.984375-.0410156-.2369804-.0273439-.4010412-.0934239-.4921875-.1982422-.0911463-.1048182-.123047-.2529287-.0957032-.4443359.0273439-.1914072.0957026-.446613.2050782-.765625l5.4550781-15.6953125c.0546878-.1549487.1184892-.280273.1914062-.3759766.0729171-.0957036.1891268-.1686195.3486329-.21875.159506-.0501304.3805324-.0820311.6630859-.0957031.2825535-.0136719.6562477-.0205078 1.1210937-.0205078.5377631 0 .9661443.0068359 1.2851563.0205078.319012.013672.5673819.0455727.7451172.0957031.1777352.0501305.3053381.1253251.3828125.225586.0774743.1002609.1435544.2369783.1982422.4101562zm-8.1210938-12.9746093h-.0136719l-2.5019531 7.5195312h5.0175781zm17.9648438 13.6855469c-.0455732.1549486-.1048174.2802729-.1777344.3759765s-.1914054.1686196-.3554688.21875c-.1640633.0501305-.3873683.0820312-.6699218.0957031-.2825535.013672-.6516905.0205078-1.1074219.0205078-.3645852 0-.6767565-.0022786-.9365234-.0068359-.259767-.0045573-.4807934-.0159504-.663086-.0341797-.1822926-.0182292-.3304031-.0455727-.4443359-.0820312-.1139329-.0364585-.2096351-.082031-.2871094-.1367188-.0774743-.0546877-.1367185-.1207678-.1777344-.1982422-.0410158-.0774743-.0797524-.1754551-.1162109-.2939453l-5.2636719-15.6816406c-.1093755-.3281266-.1754556-.5878897-.1982422-.7792969-.0227865-.1914072.0227859-.3349604.1367188-.430664.1139328-.0957036.3076158-.1549478.5810547-.1777344.2734388-.0227866.6562475-.0341797 1.1484375-.0341797.4192729 0 .7473946.0091145.984375.0273437.2369803.0182293.4192702.05013.546875.0957032.1276048.0455731.2164711.1139318.2666015.2050781.0501305.0911463.0979816.2050774.1435547.3417969l4.3066406 13.6445312h.0136719l4.2246094-13.5761718c.0364585-.1549487.082031-.280273.1367187-.3759766.0546878-.0957036.1481114-.1708982.2802735-.225586.1321621-.0546877.3212878-.0911457.5673828-.109375.246095-.0182292.5833312-.0273437 1.0117187-.0273437.419273 0 .7451161.0136717.9775391.0410156s.3919267.093424.4785156.1982422c.086589.1048182.1139325.2529287.0820313.4443359-.0319012.1914073-.1025385.446613-.2119141.765625z" fill="#fff" fill-rule="nonzero"/></g></svg>