<?xml version="1.0" standalone="no"?><!DOCTYPE svg PUBLIC "-//W3C//DTD SVG 1.1//EN" "http://www.w3.org/Graphics/SVG/1.1/DTD/svg11.dtd"><svg t="1747152876748" class="icon" viewBox="0 0 1024 1024" version="1.1" xmlns="http://www.w3.org/2000/svg" p-id="2709" xmlns:xlink="http://www.w3.org/1999/xlink" width="256" height="256"><path d="M146.879977 0A52.335992 52.335992 0 0 0 95.999985 51.167992v921.647856a49.039992 49.039992 0 0 0 15.279998 35.791994A49.839992 49.839992 0 0 0 146.863977 1023.99984h746.287883a48.559992 48.559992 0 0 0 35.567995-15.359998A50.719992 50.719992 0 0 0 943.999853 972.815848V290.015955L655.679898 0H146.847977h0.016z" fill="#8A38F5" p-id="2710"></path><path d="M943.999853 287.999955H706.84789A52.127992 52.127992 0 0 1 655.999898 237.199963V0l287.951955 287.999955H943.999853z" fill="#FFFFFF" fill-opacity=".7" p-id="2711"></path><path d="M156.863975 751.999883h56.575992l16.639997-82.943988c2.816-14.591998 5.119999-29.951995 7.679999-44.287993h1.024c1.792 14.335998 4.351999 29.695995 7.423999 44.287993L263.359959 751.999883h57.599991l33.023995-190.719971H310.719951l-12.543998 87.039987c-2.304 19.711997-4.863999 39.935994-7.167998 60.41599h-1.28c-3.839999-20.479997-7.167999-40.959994-11.007999-60.41599l-19.711996-87.039987h-38.655994l-19.455997 87.039987c-3.839999 19.711997-7.679999 39.935994-11.263999 60.41599h-1.023999c-2.56-20.479997-5.119999-40.447994-7.679999-60.41599l-12.031998-87.039987H122.303981L156.863975 751.999883z m222.975966 0h123.64798v-38.399994h-77.823988v-40.447994h63.743991v-38.399994h-63.743991v-35.327995h75.007989V561.279912H379.839941V751.999883z m161.279974 0h71.935989c41.471994 0 74.495988-17.407997 74.495989-56.319992 0-25.343996-14.591998-39.679994-33.791995-44.799993v-1.024c15.359998-5.887999 24.831996-24.319996 24.831996-41.215993 0-36.607994-31.487995-47.359993-70.911989-47.359993h-66.55999V751.999883z m45.823993-114.943983v-40.703993h18.943997c19.199997 0 28.159996 5.631999 28.159996 19.199997 0 13.055998-8.703999 21.503997-28.159996 21.503996h-18.943997z m0 79.871988v-46.335993h22.783997c22.271997 0 33.279995 6.399999 33.279995 22.015997 0 16.383997-11.263998 24.319996-33.279995 24.319996h-22.783997zM719.039888 751.999883h40.959993v-65.27999c0-18.943997-3.583999-47.359993-5.887999-66.04799h1.024l15.359998 45.567993 25.855996 69.631989h25.087996l25.599996-69.631989 15.871997-45.567993h1.28c-2.56 18.687997-6.143999 47.103993-6.143999 66.04799V751.999883h41.727993V561.279912h-49.663992l-29.183995 82.431987c-3.583999 11.007998-6.655999 23.039996-10.495999 34.559995h-1.279999c-3.583999-11.519998-6.655999-23.551996-10.495999-34.559995l-30.207995-82.431987H719.039888V751.999883z" fill="#FFFFFF" p-id="2712"></path></svg>