<?xml version="1.0" standalone="no"?><!DOCTYPE svg PUBLIC "-//W3C//DTD SVG 1.1//EN" "http://www.w3.org/Graphics/SVG/1.1/DTD/svg11.dtd"><svg t="1747152906517" class="icon" viewBox="0 0 1024 1024" version="1.1" xmlns="http://www.w3.org/2000/svg" p-id="1184" xmlns:xlink="http://www.w3.org/1999/xlink" width="256" height="256"><path d="M146.879977 0A52.335992 52.335992 0 0 0 95.999985 51.167992v921.647856a49.039992 49.039992 0 0 0 15.279998 35.791994A49.839992 49.839992 0 0 0 146.863977 1023.99984h746.287883a48.559992 48.559992 0 0 0 35.567995-15.359998A50.719992 50.719992 0 0 0 943.999853 972.815848V290.015955L655.679898 0H146.847977h0.016z" fill="#6A53EF" p-id="1185"></path><path d="M943.999853 287.999955H706.84789A52.127992 52.127992 0 0 1 655.999898 237.199963V0l287.951955 287.999955H943.999853z" fill="#FFFFFF" fill-opacity=".7" p-id="1186"></path><path d="M181.183972 751.999883h56.575991l16.639997-82.943988c2.816-14.591998 5.119999-29.951995 7.679999-44.287993h1.024c1.792 14.335998 4.351999 29.695995 7.423999 44.287993L287.679955 751.999883h57.599991l33.023995-190.719971H335.039948l-12.543998 87.039987c-2.304 19.711997-4.863999 39.935994-7.167999 60.41599h-1.28c-3.839999-20.479997-7.167999-40.959994-11.007998-60.41599l-19.711997-87.039987h-38.655994l-19.455997 87.039987c-3.839999 19.711997-7.679999 39.935994-11.263998 60.41599h-1.024c-2.56-20.479997-5.119999-40.447994-7.679999-60.41599l-12.031998-87.039987H146.623977L181.183972 751.999883z m222.975965 0h123.647981v-38.399994h-77.823988v-40.447994h63.74399v-38.399994h-63.74399v-35.327995h75.007988V561.279912H404.159937V751.999883z m161.279975 0h71.935988c41.471994 0 74.495988-17.407997 74.495989-56.319992 0-25.343996-14.591998-39.679994-33.791995-44.799993v-1.024c15.359998-5.887999 24.831996-24.319996 24.831996-41.215993 0-36.607994-31.487995-47.359993-70.911989-47.359993h-66.559989V751.999883z m45.823992-114.943983v-40.703993h18.943998c19.199997 0 28.159996 5.631999 28.159995 19.199997 0 13.055998-8.703999 21.503997-28.159995 21.503996h-18.943998z m0 79.871988v-46.335993h22.783997c22.271997 0 33.279995 6.399999 33.279995 22.015997 0 16.383997-11.263998 24.319996-33.279995 24.319996h-22.783997zM743.359884 751.999883h45.823993v-63.231991h22.271996c40.447994 0 75.263988-19.967997 75.263988-65.279989 0-47.103993-34.559995-62.20799-76.287988-62.207991H743.359884V751.999883z m45.823993-99.327985v-55.039991h18.687997c22.015997 0 34.303995 6.655999 34.303994 25.855996 0 18.687997-10.751998 29.183995-33.023994 29.183995h-19.967997z" fill="#FFFFFF" p-id="1187"></path></svg>