<svg height="80" viewBox="0 0 80 80" width="80" xmlns="http://www.w3.org/2000/svg"><g fill="none" fill-rule="evenodd"><g transform="translate(5)"><path d="m45 0v21c0 2.209139 1.790861 4 4 4h21v47c0 4.418278-3.581722 8-8 8h-54c-4.418278 0-8-3.581722-8-8v-64c0-4.418278 3.581722-8 8-8z" fill="#ec407a"/><path d="m45 0 25 25h-21c-2.209139 0-4-1.790861-4-4z" fill="#f48fb1"/></g><path d="m28.9785156 59.2148438c-.0468752.1875009-.1113277.33789-.1933594.4511718-.0820316.1132818-.2050773.1992185-.3691406.2578125-.1640633.0585941-.3749987.0976562-.6328125.1171875-.2578138.0195314-.5859355.0292969-.984375.0292969-.4453147 0-.802733-.0097655-1.0722656-.0292969-.2695326-.0195313-.4824211-.0585934-.6386719-.1171875-.1562508-.058594-.2695309-.1445307-.3398437-.2578125-.0703129-.1132818-.1249998-.2636709-.1640625-.4511718l-2.4257813-9.609375h-.0234375l-2.296875 9.609375c-.0390627.1796883-.0937496.3261713-.1640625.4394531-.0703128.1132818-.1816398.2011715-.3339843.2636719-.1523446.0625003-.3593737.1035155-.6210938.1230468-.2617201.0195314-.6074197.0292969-1.0371094.0292969-.4531272 0-.8144518-.0097655-1.0839844-.0292969-.2695325-.0195313-.482421-.0585934-.6386718-.1171875-.1562508-.058594-.2695309-.1445307-.3398438-.2578125-.0703128-.1132818-.128906-.2636709-.1757812-.4511718l-3.4453125-13.2304688c-.0703129-.2812514-.109375-.5019523-.1171875-.6621094-.0078126-.160157.0371089-.2832027.1347656-.3691406s.2578114-.1386718.4804688-.1582031c.2226573-.0195314.5332011-.0292969.9316406-.0292969.3671893 0 .658202.0058593.8730469.0175781.2148448.0117188.3769525.0390623.4863281.0820313.1093755.0429689.1835935.1054683.2226562.1875.0390627.0820316.0703124.1972649.09375.3457031l2.6601563 11.6132813h.0117187l2.765625-11.53125c.0312502-.1484383.0722654-.2695308.1230469-.3632813s.1367181-.1660154.2578125-.2167969.2871083-.0859374.4980469-.1054687c.2109385-.0195314.4921857-.0292969.84375-.0292969.3750019 0 .673827.0078124.8964843.0234375.2226574.0156251.3945307.0488279.515625.0996094.1210944.0507815.2089842.1230464.2636719.2167969.0546878.0937504.0976561.2187492.1289063.375l2.859375 11.53125h.0234375l2.6601562-11.578125c.0234376-.1250007.0546873-.2324215.09375-.3222657s.1132807-.160156.2226563-.2109375c.1093755-.0507815.265624-.0859374.46875-.1054687.203126-.0195314.4882794-.0292969.8554687-.0292969.3437517 0 .6113272.0097655.8027344.0292969.1914072.0195313.3300777.0722652.4160156.1582031.085938.0859379.123047.2128898.1113281.3808594-.0117188.1679696-.052734.3964829-.1230468.6855468zm23.4609375.3632812c0 .0781254-.0214841.1484372-.0644531.2109375s-.1210932.1132811-.234375.1523437c-.1132818.0390627-.2636709.0703124-.4511719.09375-.1875009.0234377-.4257798.0351563-.7148437.0351563-.2812514 0-.5156241-.0117186-.703125-.0351563-.187501-.0234376-.335937-.0546873-.4453125-.09375-.1093756-.0390626-.1874998-.0898434-.234375-.1523437-.0468753-.0625003-.0703125-.1328121-.0703125-.2109375v-12.3398438h-.0234375l-4.3945313 12.328125c-.0312501.1015631-.0820309.1855466-.1523437.2519532-.0703129.0664066-.166015.1191404-.2871094.1582031s-.2753897.0644531-.4628906.0761719c-.187501.0117188-.4140612.0175781-.6796875.0175781-.2656264 0-.4921866-.0097655-.6796875-.0292969-.187501-.0195313-.3417963-.050781-.4628907-.09375-.1210943-.0429689-.2167965-.0957028-.2871093-.1582031-.0703129-.0625003-.1171874-.1367183-.140625-.2226563l-4.2421875-12.328125h-.0234375v12.3398438c0 .0781254-.0214842.1484372-.0644531.2109375-.042969.0625003-.1230463.1132811-.2402344.1523437-.1171881.0390627-.2675772.0703124-.4511719.09375-.1835947.0234377-.4199204.0351563-.7089844.0351563-.2812514 0-.515624-.0117186-.703125-.0351563-.1875009-.0234376-.33789-.0546873-.4511719-.09375-.1132818-.0390626-.191406-.0898434-.234375-.1523437-.0429689-.0625003-.0644531-.1328121-.0644531-.2109375v-13.5117188c0-.3984394.1054677-.7031239.3164063-.9140624.2109385-.2109386.4921857-.3164063.84375-.3164063h2.015625c.3593768 0 .6679674.0292966.9257812.0878906.2578138.0585941.4804678.1562493.6679688.2929688.1875009.1367194.3437494.3164051.46875.5390625.1250006.2226573.2343745.4980452.328125.8261718l3.28125 9.0351563h.046875l3.3984375-9.0117187c.101563-.3281267.21289-.6054677.3339844-.8320313.1210943-.2265636.2617179-.4101555.421875-.5507813.160157-.1406257.3496082-.240234.5683593-.2988281.2187511-.058594.4726548-.0878906.7617188-.0878906h2.0742187c.2109386 0 .3925774.0273435.5449219.0820313.1523445.0546877.2773433.134765.375.2402343s.1718747.2343743.2226563.3867188c.0507815.1523445.0761718.3261709.0761718.5214843zm15.7265625-.7265625c.0937505.2812514.1523437.5039054.1757813.6679687.0234376.1640634-.0078121.287109-.09375.3691407-.085938.0820316-.2382802.1328124-.4570313.1523437-.2187511.0195314-.5195293.0292969-.9023437.0292969-.3984395 0-.7089833-.0058593-.9316407-.0175781-.2226573-.0117188-.3925775-.0351561-.5097656-.0703125-.1171881-.0351565-.1992185-.0839841-.2460937-.1464844-.0468753-.0625003-.0859374-.1445307-.1171875-.2460937l-1.0195313-3.046875h-5.6953125l-.9609375 2.9648437c-.0312501.1093755-.0722653.2011715-.1230469.2753906-.0507815.0742191-.1328119.1328123-.2460937.1757813-.1132818.0429689-.2734365.0722655-.4804687.0878906-.2070323.0156251-.478514.0234375-.8144532.0234375-.3593768 0-.640624-.0117186-.84375-.0351563-.203126-.0234376-.3437496-.0800776-.421875-.1699218s-.1054688-.2167961-.0820312-.3808594.0820308-.3828111.1757812-.65625l4.6757813-13.453125c.0468752-.1328132.1015622-.240234.1640625-.3222656.0625003-.0820317.1621087-.1445311.2988281-.1875.1367194-.042969.3261707-.0703125.5683594-.0820313s.562498-.0175781.9609375-.0175781c.4609398 0 .8281236.0058593 1.1015625.0175781.2734388.0117188.4863273.0390623.6386719.0820313.1523445.0429689.2617184.1074214.328125.1933594.0664065.0859379.1230466.2031242.1699218.3515624zm-6.9609375-11.1210937h-.0117187l-2.1445313 6.4453124h4.3007813z" fill="#fff" fill-rule="nonzero"/></g></svg>