<svg height="80" viewBox="0 0 80 80" width="80" xmlns="http://www.w3.org/2000/svg"><g fill="none" fill-rule="evenodd"><g transform="translate(5)"><path d="m45 0v21c0 2.209139 1.790861 4 4 4h21v47c0 4.418278-3.581722 8-8 8h-54c-4.418278 0-8-3.581722-8-8v-64c0-4.418278 3.581722-8 8-8z" fill="#9575cd"/><path d="m45 0 25 25h-21c-2.209139 0-4-1.790861-4-4z" fill="#d1c4e9"/></g><path d="m29.1542969 59.2148438c-.0468753.1875009-.1113277.33789-.1933594.4511718s-.2050773.1992185-.3691406.2578125c-.1640633.0585941-.3749987.0976562-.6328125.1171875-.2578138.0195314-.5859355.0292969-.984375.0292969-.4453148 0-.8027331-.0097655-1.0722656-.0292969-.2695326-.0195313-.4824211-.0585934-.6386719-.1171875-.1562508-.058594-.2695309-.1445307-.3398438-.2578125-.0703128-.1132818-.1249998-.2636709-.1640625-.4511718l-2.4257812-9.609375h-.0234375l-2.296875 9.609375c-.0390627.1796883-.0937497.3261713-.1640625.4394531-.0703129.1132818-.1816399.2011715-.3339844.2636719-.1523445.0625003-.3593737.1035155-.6210938.1230468-.26172.0195314-.6074197.0292969-1.0371093.0292969-.4531273 0-.8144518-.0097655-1.0839844-.0292969-.2695326-.0195313-.4824211-.0585934-.6386719-.1171875-.1562508-.058594-.2695309-.1445307-.3398437-.2578125-.0703129-.1132818-.128906-.2636709-.1757813-.4511718l-3.4453125-13.2304688c-.0703128-.2812514-.1093749-.5019523-.1171875-.6621094-.0078125-.160157.0371089-.2832027.1347657-.3691406.0976567-.0859379.2578113-.1386718.4804687-.1582031.2226574-.0195314.5332011-.0292969.9316406-.0292969.3671894 0 .6582021.0058593.8730469.0175781s.3769526.0390623.4863281.0820313c.1093756.0429689.1835936.1054683.2226563.1875.0390627.0820316.0703124.1972649.09375.3457031l2.6601562 11.6132813h.0117188l2.765625-11.53125c.0312501-.1484383.0722653-.2695308.1230469-.3632813.0507815-.0937505.1367181-.1660154.2578124-.2167969.1210944-.0507815.2871084-.0859374.4980469-.1054687.2109386-.0195314.4921858-.0292969.84375-.0292969.3750019 0 .673827.0078124.8964844.0234375s.3945306.0488279.515625.0996094.2089841.1230464.2636719.2167969c.0546877.0937504.0976561.2187492.1289062.375l2.859375 11.53125h.0234375l2.6601563-11.578125c.0234376-.1250007.0546873-.2324215.09375-.3222657s.1132807-.160156.2226562-.2109375c.1093756-.0507815.265624-.0859374.46875-.1054687.203126-.0195314.4882794-.0292969.8554688-.0292969.3437517 0 .6113271.0097655.8027344.0292969.1914072.0195313.3300776.0722652.4160156.1582031.0859379.0859379.1230469.2128898.1113281.3808594s-.052734.3964829-.1230469.6855468zm23.4609375.3632812c0 .0781254-.0214842.1484372-.0644531.2109375-.042969.0625003-.1210932.1132811-.234375.1523437-.1132819.0390627-.263671.0703124-.4511719.09375-.187501.0234377-.4257798.0351563-.7148438.0351563-.2812514 0-.515624-.0117186-.703125-.0351563-.1875009-.0234376-.3359369-.0546873-.4453125-.09375-.1093755-.0390626-.1874997-.0898434-.234375-.1523437-.0468752-.0625003-.0703125-.1328121-.0703125-.2109375v-12.3398438h-.0234375l-4.3945312 12.328125c-.0312502.1015631-.0820309.1855466-.1523438.2519532-.0703128.0664066-.166015.1191404-.2871093.1582031-.1210944.0390627-.2753897.0644531-.4628907.0761719-.1875009.0117188-.4140611.0175781-.6796875.0175781-.2656263 0-.4921865-.0097655-.6796875-.0292969-.1875009-.0195313-.3417962-.050781-.4628906-.09375-.1210944-.0429689-.2167965-.0957028-.2871094-.1582031-.0703128-.0625003-.1171874-.1367183-.140625-.2226563l-4.2421875-12.328125h-.0234375v12.3398438c0 .0781254-.0214841.1484372-.0644531.2109375s-.1230463.1132811-.2402344.1523437c-.1171881.0390627-.2675772.0703124-.4511718.09375-.1835947.0234377-.4199205.0351563-.7089844.0351563-.2812514 0-.5156241-.0117186-.703125-.0351563-.187501-.0234376-.3378901-.0546873-.4511719-.09375-.1132818-.0390626-.191406-.0898434-.234375-.1523437s-.0644531-.1328121-.0644531-.2109375v-13.5117188c0-.3984394.1054677-.7031239.3164062-.9140624.2109386-.2109386.4921858-.3164063.84375-.3164063h2.015625c.3593768 0 .6679675.0292966.9257813.0878906.2578138.0585941.4804678.1562493.6679687.2929688.187501.1367194.3437494.3164051.46875.5390625.1250006.2226573.2343746.4980452.328125.8261718l3.28125 9.0351563h.046875l3.3984375-9.0117187c.101563-.3281267.21289-.6054677.3339844-.8320313s.2617179-.4101555.421875-.5507813c.1601571-.1406257.3496083-.240234.5683594-.2988281.2187511-.058594.4726548-.0878906.7617187-.0878906h2.0742188c.2109385 0 .3925773.0273435.5449219.0820313.1523445.0546877.2773432.134765.375.2402343.0976567.1054693.1718747.2343743.2226562.3867188s.0761719.3261709.0761719.5214843zm10.8515625-.1171875c-.0390627.1328132-.0898435.240234-.1523438.3222656-.0625003.0820317-.1640618.1445311-.3046875.1875-.1406257.042969-.33203.0703125-.5742187.0820313s-.5585918.0175781-.9492188.0175781c-.3125015 0-.580077-.0019531-.8027343-.0058594-.2226574-.0039062-.4121086-.0136718-.5683594-.0292969-.1562508-.015625-.2832027-.0390623-.3808594-.0703124-.0976567-.0312502-.1796872-.0703123-.2460937-.1171876-.0664066-.0468752-.1171874-.1035152-.1523438-.1699218s-.0683592-.1503901-.0996094-.2519532l-4.5117187-13.4414062c-.0937505-.2812514-.1503906-.5039054-.1699219-.6679688-.0195313-.1640633.0195308-.2871089.1171875-.3691406.0976567-.0820316.2636707-.1328124.4980469-.1523437.2343761-.0195314.5624979-.0292969.984375-.0292969.3593768 0 .640624.0078124.84375.0234375s.3593744.0429686.46875.0820313c.1093755.0390626.1855466.0976558.2285156.1757812s.0839842.1757807.1230469.2929688l3.6914062 11.6953124h.0117188l3.6210937-11.6367187c.0312502-.1328125.0703123-.240234.1171875-.3222656.0468753-.0820317.1269526-.1464842.2402344-.1933594s.2753896-.0781249.4863281-.09375c.2109386-.0156251.4999982-.0234375.8671875-.0234375.3593768 0 .6386709.0117186.8378906.0351562.1992198.0234377.3359372.0800777.4101563.1699219s.0976564.2167961.0703125.3808594-.0878902.3828111-.1816406.65625z" fill="#fff" fill-rule="nonzero"/></g></svg>