<svg height="80" viewBox="0 0 80 80" width="80" xmlns="http://www.w3.org/2000/svg"><g fill="none" fill-rule="evenodd"><g transform="translate(5)"><path d="m45 0v21c0 2.209139 1.790861 4 4 4h21v47c0 4.418278-3.581722 8-8 8h-54c-4.418278 0-8-3.581722-8-8v-64c0-4.418278 3.581722-8 8-8z" fill="#8d6e63"/><path d="m45 0 25 25h-21c-2.209139 0-4-1.790861-4-4z" fill="#d7ccc8"/></g><path d="m27.7539062 59.2148438c-.0468752.1875009-.1113277.33789-.1933593.4511718-.0820317.1132818-.2050773.1992185-.3691407.2578125-.1640633.0585941-.3749987.0976562-.6328124.1171875-.2578138.0195314-.5859356.0292969-.984375.0292969-.4453148 0-.8027331-.0097655-1.0722657-.0292969-.2695326-.0195313-.4824211-.0585934-.6386719-.1171875-.1562507-.058594-.2695308-.1445307-.3398437-.2578125s-.1249998-.2636709-.1640625-.4511718l-2.4257812-9.609375h-.0234376l-2.296875 9.609375c-.0390626.1796883-.0937496.3261713-.1640624.4394531-.0703129.1132818-.1816399.2011715-.3339844.2636719-.1523445.0625003-.3593737.1035155-.6210938.1230468-.26172.0195314-.6074197.0292969-1.0371094.0292969-.4531272 0-.8144517-.0097655-1.0839843-.0292969-.2695326-.0195313-.4824211-.0585934-.6386719-.1171875-.1562508-.058594-.2695309-.1445307-.3398437-.2578125-.0703129-.1132818-.1289061-.2636709-.1757813-.4511718l-3.4453125-13.2304688c-.0703129-.2812514-.109375-.5019523-.1171875-.6621094-.0078125-.160157.0371089-.2832027.1347656-.3691406.0976568-.0859379.2578114-.1386718.4804688-.1582031.2226573-.0195314.5332011-.0292969.9316406-.0292969.3671893 0 .6582021.0058593.8730469.0175781s.3769526.0390623.4863281.0820313c.1093755.0429689.1835936.1054683.2226563.1875.0390626.0820316.0703123.1972649.09375.3457031l2.6601562 11.6132813h.0117187l2.765625-11.53125c.0312502-.1484383.0722654-.2695308.1230469-.3632813s.1367182-.1660154.2578125-.2167969c.1210944-.0507815.2871083-.0859374.4980469-.1054687.2109386-.0195314.4921857-.0292969.84375-.0292969.3750019 0 .673827.0078124.8964844.0234375.2226573.0156251.3945306.0488279.515625.0996094.1210943.0507815.2089841.1230464.2636719.2167969.0546877.0937504.097656.2187492.1289062.375l2.859375 11.53125h.0234375l2.6601563-11.578125c.0234376-.1250007.0546873-.2324215.09375-.3222657.0390626-.0898442.1132807-.160156.2226562-.2109375s.265624-.0859374.46875-.1054687c.203126-.0195314.4882794-.0292969.8554688-.0292969.3437517 0 .6113271.0097655.8027343.0292969.1914072.0195313.3300777.0722652.4160157.1582031.0859379.0859379.1230469.2128898.1113281.3808594s-.052734.3964829-.1230469.6855468zm19.1367188-6.9726563c0 1.2578188-.1562484 2.3828075-.46875 3.375s-.7773407 1.8339809-1.3945312 2.5253906c-.6171906.6914097-1.3808549 1.2187482-2.2910157 1.5820313-.9101608.363283-1.9628846.5449218-3.1582031.5449218-1.1796934 0-2.20898-.1542953-3.0878906-.4628906-.8789107-.3085953-1.6113252-.7792937-2.1972656-1.4121094-.5859405-.6328156-1.0253892-1.4374951-1.3183594-2.4140624-.2929702-.9765674-.4394532-2.1328059-.4394532-3.46875 0-1.2265687.1562485-2.3300733.46875-3.3105469.3125016-.9804737.7773407-1.8144497 1.3945313-2.5019531.6171906-.6875035 1.3808548-1.214842 2.2910156-1.5820313s1.9667909-.5507813 3.1699219-.5507813c1.1484432 0 2.162105.1523423 3.0410156.4570313.8789107.304689 1.6132783.7734343 2.203125 1.40625s1.0351548 1.4316358 1.3359375 2.3964844c.3007828.9648485.4511719 2.103509.4511719 3.4160156zm-3.234375.1640625c0-.796879-.0624994-1.5214811-.1875-2.1738281s-.3378891-1.2109352-.6386719-1.6757813c-.3007827-.464846-.7011693-.8242175-1.2011719-1.078125-.5000024-.2539075-1.1249962-.3808594-1.875-.3808594-.7578162 0-1.3906224.1425767-1.8984374.4277344-.5078151.2851577-.9179672.6660133-1.2304688 1.1425782-.3125016.4765648-.5332025 1.0331999-.6621094 1.6699218-.1289069.636722-.1933594 1.3105433-.1933594 2.0214844 0 .8281291.0624994 1.5722623.1875 2.2324219.1250007.6601595.3359361 1.224607.6328126 1.6933593.2968764.4687524.69531.8261707 1.1953124 1.0722657.5000026.246095 1.1289025.3691406 1.8867188.3691406s1.3906225-.1406236 1.8984375-.421875.9179672-.6640601 1.2304688-1.1484375c.3125015-.4843774.5332024-1.0488249.6621093-1.6933594.1289069-.6445344.1933594-1.3300745.1933594-2.0566406zm14.3320312-6.3046875c0 .234375-.0097655.4316398-.0292968.5917969-.0195314.160157-.0507811.2871089-.09375.3808594-.042969.0937504-.0917966.1640622-.1464844.2109374-.0546878.0468753-.1171871.0703126-.1875.0703126h-4.9570312v4.078125h4.6523437c.0703129 0 .1328122.019531.1875.0585937s.1035154.1054683.1464844.1992187c.0429689.0937505.0742186.2187493.09375.375.0195313.1562508.0292969.3515614.0292969.5859376 0 .2343761-.0097656.4296867-.0292969.5859374-.0195314.1562508-.0507811.2851558-.09375.3867188-.042969.101563-.0917966.1738279-.1464844.2167969-.0546878.0429689-.1171871.0644531-.1875.0644531h-4.6523437v5.6484375c0 .0859379-.0234373.1601559-.0703126.2226563-.0468752.0625003-.1308587.1152341-.2519531.1582031-.1210943.0429689-.2792959.0761717-.4746093.0996093-.1953135.0234377-.445311.0351563-.75.0351563-.2968765 0-.5449209-.0117186-.7441407-.0351563-.1992197-.0234376-.3574213-.0566404-.4746093-.0996093-.1171881-.042969-.2011717-.0957028-.2519532-.1582031-.0507815-.0625004-.0761718-.1367184-.0761718-.2226563v-13.7460937c0-.3437518.0878897-.5917962.2636718-.7441407.1757822-.1523445.3925769-.2285156.6503906-.2285156h7.1367188c.0703129 0 .1328122.0214842.1875.0644531.0546878.042969.1035154.1132808.1464844.2109375.0429689.0976568.0742186.2285148.09375.3925781.0195313.1640634.0292968.3632801.0292968.5976563zm11.015625 0c0 .234375-.0097655.4316398-.0292968.5917969-.0195314.160157-.0507811.2871089-.09375.3808594-.042969.0937504-.0917966.1640622-.1464844.2109374-.0546878.0468753-.1171871.0703126-.1875.0703126h-4.9570312v4.078125h4.6523437c.0703129 0 .1328122.019531.1875.0585937s.1035154.1054683.1464844.1992187c.0429689.0937505.0742186.2187493.09375.375.0195313.1562508.0292969.3515614.0292969.5859376 0 .2343761-.0097656.4296867-.0292969.5859374-.0195314.1562508-.0507811.2851558-.09375.3867188-.042969.101563-.0917966.1738279-.1464844.2167969-.0546878.0429689-.1171871.0644531-.1875.0644531h-4.6523437v5.6484375c0 .0859379-.0234373.1601559-.0703126.2226563-.0468752.0625003-.1308587.1152341-.2519531.1582031-.1210943.0429689-.2792959.0761717-.4746093.0996093-.1953135.0234377-.445311.0351563-.75.0351563-.2968765 0-.5449209-.0117186-.7441407-.0351563-.1992197-.0234376-.3574213-.0566404-.4746093-.0996093-.1171881-.042969-.2011717-.0957028-.2519532-.1582031-.0507815-.0625004-.0761718-.1367184-.0761718-.2226563v-13.7460937c0-.3437518.0878897-.5917962.2636718-.7441407.1757822-.1523445.3925769-.2285156.6503906-.2285156h7.1367188c.0703129 0 .1328122.0214842.1875.0644531.0546878.042969.1035154.1132808.1464844.2109375.0429689.0976568.0742186.2285148.09375.3925781.0195313.1640634.0292968.3632801.0292968.5976563z" fill="#fff" fill-rule="nonzero"/></g></svg>