<svg height="80" viewBox="0 0 80 80" width="80" xmlns="http://www.w3.org/2000/svg"><g fill="none" fill-rule="evenodd"><g transform="translate(5)"><path d="m45 0v21c0 2.209139 1.790861 4 4 4h21v47c0 4.418278-3.581722 8-8 8h-54c-4.418278 0-8-3.581722-8-8v-64c0-4.418278 3.581722-8 8-8z" fill="#3f73ea"/><path d="m45 0 25 25h-21c-2.209139 0-4-1.790861-4-4z" fill="#769aed"/></g><path d="m33.7929688 59.0839844c-.0546878.2187511-.1298824.394205-.225586.5263672-.0957036.1321621-.2392568.2324215-.430664.3007812-.1914073.0683597-.4374985.1139322-.7382813.1367188-.3007828.0227865-.6835914.0341796-1.1484375.0341796-.5195338 0-.9365219-.0113931-1.2509766-.0341796-.3144547-.0227866-.5628246-.0683591-.7451171-.1367188-.1822926-.0683597-.3144528-.1686191-.3964844-.3007812-.0820317-.1321622-.1458331-.3076161-.1914063-.5263672l-2.8300781-11.2109375h-.0273437l-2.6796875 11.2109375c-.0455732.2096364-.1093746.3805332-.1914063.5126953s-.2119132.2347001-.3896484.3076172c-.1777353.072917-.4192693.1207681-.7246094.1435547-.3053401.0227865-.7086564.0341796-1.2099609.0341796-.5286485 0-.9501938-.0113931-1.2646485-.0341796-.3144547-.0227866-.5628246-.0683591-.7451172-.1367188s-.3144527-.1686191-.3964843-.3007812c-.0820317-.1321622-.1503904-.3076161-.2050782-.5263672l-4.0195312-15.4355469c-.0820317-.3281266-.1276041-.585611-.1367188-.7724609-.0091146-.1868499.0432937-.3304032.1572266-.4306641.1139328-.1002609.3007799-.1617837.5605469-.1845703.2597669-.0227866.622068-.0341797 1.086914-.0341797.4283876 0 .7679024.0068359 1.0185547.0205078.2506523.013672.439778.0455727.5673828.0957031.1276048.0501305.2141925.1230464.2597657.21875.0455731.0957036.0820311.2301424.109375.4033204l3.1035156 13.5488281h.0136719l3.2265625-13.453125c.0364585-.173178.0843095-.3144526.1435546-.4238281.0592451-.1093756.1595045-.1936846.3007813-.2529297.1412767-.0592451.3349597-.1002603.5810547-.1230469s.5742167-.0341797.984375-.0341797c.4375022 0 .7861315.0091145 1.0458984.0273437.2597669.0182293.4602858.0569659.6015625.116211.1412768.0592451.2438148.1435541.3076172.2529297.0638024.1093755.1139321.2552074.1503906.4375l3.3359375 13.453125h.0273438l3.1035156-13.5078125c.0273439-.1458341.0638019-.2711584.109375-.3759766s.1321608-.1868486.2597656-.2460937.3098947-.1002603.546875-.1230469c.2369804-.0227866.5696593-.0341797.9980469-.0341797.4010437 0 .713215.0113931.9365234.0341797s.3850907.0843094.4853516.1845703.1435548.2483714.1298828.4443359c-.0136719.1959646-.061523.4625635-.1435547.7998047zm18.8671875-11.4023438c0 .9934946-.1549464 1.8730431-.4648438 2.6386719s-.7610647 1.4104792-1.3535156 1.9345703c-.5924509.5240912-1.3193317.9228502-2.1806641 1.1962891-.8613324.2734388-1.8753197.4101562-3.0419922.4101562h-1.4765625v5.6464844c0 .0911463-.0296221.1731767-.0888672.2460937-.0592451.0729171-.1572258.1321613-.2939453.1777344-.1367194.0455732-.3190093.0820311-.546875.109375s-.5195294.0410156-.875.0410156c-.3463559 0-.635741-.0136717-.868164-.0410156-.2324231-.0273439-.4169915-.0638018-.553711-.109375-.1367194-.0455731-.2324216-.1048173-.2871093-.1777344-.0546878-.072917-.0820313-.1549474-.0820313-.2460937v-15.9140625c0-.4283876.1116525-.7496734.3349609-.9638672s.5172508-.321289.881836-.321289h4.1699219c.4192729 0 .8180319.0159503 1.196289.0478515s.8317031.1002599 1.3603516.2050781c.5286485.1048183 1.0641249.2985012 1.6064453.5810547s1.0048809.6402973 1.3876953 1.0732422.6744782.9387992.875 1.5175781c.2005218.578779.3007813 1.2281865.3007813 1.9482422zm-3.7597657.2597656c0-.6197947-.1093739-1.1302063-.328125-1.53125-.2187511-.4010436-.4876286-.6972646-.8066406-.8886718s-.6539696-.3121743-1.0048828-.3623047c-.3509132-.0501305-.7132143-.0751953-1.0869141-.0751953h-1.53125v6.0019531h1.6132813c.5742216 0 1.0550111-.0774732 1.4423828-.2324219s.7041003-.3714179.9501953-.649414c.246095-.2779962.4329421-.6106752.5605469-.9980469s.1914062-.808917.1914062-1.2646485zm17.0351563 6.7539063c0 .9296921-.1731754 1.7454392-.5195313 2.4472656-.3463559.7018265-.8157522 1.2874326-1.4082031 1.756836s-1.2851523.8225899-2.078125 1.0595703c-.7929727.2369803-1.6406205.3554687-2.5429687.3554687-.6106802 0-1.1780573-.0501297-1.7021485-.1503906-.5240911-.1002609-.9866516-.2210279-1.3876953-.3623047-.4010437-.1412767-.7360013-.2893872-1.0048828-.4443359-.2688816-.1549487-.4625645-.2916661-.5810547-.4101563s-.2027992-.2893869-.2529297-.5126953c-.0501304-.2233084-.0751953-.5445942-.0751953-.9638672 0-.2825535.0091145-.5195303.0273437-.7109375.0182293-.1914072.0478514-.3463535.0888672-.4648437.0410159-.1184902.0957028-.2027993.1640625-.2529297.0683598-.0501305.1481116-.0751953.2392579-.0751953.1276048 0 .307616.0751945.540039.2255859s.5309227.3167309.8955078.4990234c.3645852.1822926.7998022.3486321 1.3056641.4990235s1.091468.2255859 1.7568359.2255859c.4375022 0 .8294254-.0524083 1.1757813-.1572265.3463559-.1048183.6402982-.2529288.8818359-.444336s.4261061-.428384.553711-.7109375c.1276048-.2825535.1914062-.5970035.1914062-.9433594 0-.4010436-.1093739-.7451157-.328125-1.0322265s-.503579-.5423166-.8544922-.765625-.7496722-.4329417-1.196289-.6289063c-.4466169-.1959645-.9068987-.4033192-1.3808594-.6220703s-.9342426-.467121-1.3808594-.7451172c-.4466168-.2779961-.8453758-.6106751-1.1962891-.9980468-.3509132-.3873718-.6357411-.845375-.8544921-1.3740235-.2187511-.5286485-.328125-1.1621057-.328125-1.9003906 0-.8476605.1572249-1.5927702.4716796-2.2353516.3144547-.6425813.7382786-1.1757791 1.2714844-1.5996093.5332058-.4238303 1.1621058-.7405589 1.8867188-.9501953.724613-.2096365 1.4925089-.3144532 2.3037109-.3144532.4192729 0 .8385396.0319007 1.2578125.0957032.4192729.0638024.8111961.15039 1.1757812.2597656.3645852.1093755.6881497.2324212.9707032.3691406s.4694006.2506506.5605468.3417969c.0911463.0911463.1526692.1686194.1845704.2324219.0319012.0638024.0592446.1481114.0820312.2529296.0227866.1048183.0387369.2369784.0478516.3964844.0091146.159506.0136718.3577462.0136718.5947266 0 .2643242-.0068358.4876293-.0205078.6699218-.0136719.1822926-.0364581.3326817-.0683593.4511719s-.0774737.2050779-.1367188.2597657c-.0592451.0546877-.1389969.0820312-.2392578.0820312s-.2597645-.0638014-.4785156-.1914062c-.2187511-.1276049-.4876286-.2666009-.8066407-.4169922-.319012-.1503914-.6881489-.2871088-1.1074218-.4101563-.419273-.1230475-.8795548-.1845703-1.3808594-.1845703-.391929 0-.7337225.0478511-1.0253906.1435547-.2916682.0957036-.5354808.2278637-.7314453.3964844-.1959646.1686206-.3417964.371418-.4375.6083984s-.1435547.4876289-.1435547.7519531c0 .3919291.1070953.7314439.321289 1.0185547.2141938.2871108.5013003.5423166.8613282.765625.3600278.2233084.7679013.4329417 1.2236328.6289063.4557314.1959645.9205705.4033192 1.3945312.6220703s.9387998.467121 1.3945313.7451172c.4557314.2779961.8613263.6106751 1.2167969.9980468.3554705.3873718.642577.8430964.8613281 1.3671875.2187511.5240912.328125 1.141598.328125 1.8525391z" fill="#fff" fill-rule="nonzero"/></g></svg>