<svg height="80" viewBox="0 0 80 80" width="80" xmlns="http://www.w3.org/2000/svg"><g fill="none" fill-rule="evenodd"><g transform="translate(5)"><path d="m45 0v21c0 2.209139 1.790861 4 4 4h21v47c0 4.418278-3.581722 8-8 8h-54c-4.418278 0-8-3.581722-8-8v-64c0-4.418278 3.581722-8 8-8z" fill="#0a6332"/><path d="m45 0 25 25h-21c-2.209139 0-4-1.790861-4-4z" fill="#9fd5b7"/></g><path d="m26.7041016 58.6464844c.1640633.319012.2711586.5742178.321289.765625.0501305.1914072.0205084.3372391-.0888672.4375-.1093755.1002609-.3076157.1640623-.5947265.1914062s-.6858699.0410156-1.1962891.0410156c-.4283875 0-.7656238-.0091144-1.0117187-.0273437-.246095-.0182293-.439778-.0478514-.5810547-.0888672-.1412768-.0410158-.2438148-.0979814-.3076172-.1708984-.0638024-.0729171-.1184894-.164062-.1640625-.2734375l-3.3222656-6.3847656-3.3085938 6.3847656c-.0546878.1093755-.113932.2005204-.1777344.2734375-.0638024.072917-.1663404.1298826-.3076171.1708984-.1412768.0410158-.3372384.0706379-.5878907.0888672s-.5810526.0273437-.9912109.0273437c-.4739607 0-.840819-.0136717-1.100586-.0410156-.2597669-.0273439-.4352208-.0911453-.5263671-.1914062s-.1093753-.2460928-.0546875-.4375c.0546877-.1914072.1686189-.446613.3417968-.765625l4.2382813-7.7246094-3.9375-7.2597656c-.1640633-.3281267-.2757159-.5901683-.3349609-.7861328-.0592451-.1959646-.0364589-.3417964.0683593-.4375.1048183-.0957036.2985012-.1549478.5810547-.1777344s.6835912-.0341797 1.203125-.0341797c.4283876 0 .7679024.0091145 1.0185547.0273437.2506523.0182293.4488925.0478514.5947266.0888672.145834.0410159.2483721.0979814.3076171.1708985.0592451.072917.1162107.1640619.1708985.2734375l3.1035156 5.8515625 3.0214844-5.8515625c.0546878-.1093756.1116533-.2005205.1708984-.2734375.0592451-.0729171.1549473-.1298826.2871094-.1708985.1321621-.0410158.314452-.0706379.546875-.0888672.232423-.0182292.5537089-.0273437.9638672-.0273437.4557314 0 .8157539.0113931 1.0800781.0341797.2643243.0227866.4466141.0843094.546875.1845703s.1253258.2460928.0751953.4375c-.0501304.1914072-.1526685.4511702-.3076172.7792969l-3.9375 7.21875zm12.5371093-.1503906c0 .2734388-.0113931.5035797-.0341797.6904296-.0227865.1868499-.0569659.3417963-.102539.4648438-.0455732.1230475-.1025387.2119138-.1708984.2666016-.0683598.0546877-.1481116.0820312-.2392579.0820312h-8.1074218c-.3007828 0-.5537099-.0888663-.7587891-.2666016-.2050792-.1777352-.3076172-.4671204-.3076172-.868164v-16.0644532c0-.0911462.0296221-.1731767.0888672-.2460937s.1572259-.1321612.2939453-.1777344c.1367194-.0455731.3212879-.0820311.5537109-.109375.2324231-.0273439.5218082-.0410156.8681641-.0410156.3554705 0 .6471343.0136717.875.0410156s.4101556.0638019.546875.109375c.1367194.0455732.2347002.1048174.2939453.1777344s.0888672.1549475.0888672.2460937v14.2324219h5.5644531c.0911463 0 .1708981.0250649.2392579.0751953.0683597.0501305.1253252.1321609.1708984.2460938.0455731.1139328.0797525.264322.102539.4511719.0227866.1868499.0341797.4169908.0341797.6904297zm12.6054688-3.8007813c0 .9296921-.1731754 1.7454392-.5195313 2.4472656-.3463559.7018265-.8157522 1.2874326-1.4082031 1.756836s-1.2851523.8225899-2.078125 1.0595703c-.7929727.2369803-1.6406205.3554687-2.5429687.3554687-.6106802 0-1.1780573-.0501297-1.7021485-.1503906-.5240911-.1002609-.9866516-.2210279-1.3876953-.3623047-.4010437-.1412767-.7360012-.2893872-1.0048828-.4443359s-.4625645-.2916661-.5810547-.4101563-.2027992-.2893869-.2529297-.5126953c-.0501304-.2233084-.0751953-.5445942-.0751953-.9638672 0-.2825535.0091145-.5195303.0273438-.7109375.0182292-.1914072.0478513-.3463535.0888671-.4648437.0410159-.1184902.0957028-.2027993.1640626-.2529297.0683597-.0501305.1481115-.0751953.2392578-.0751953.1276048 0 .307616.0751945.540039.2255859.2324231.1503914.5309227.3167309.8955078.4990234.3645852.1822926.7998022.3486321 1.3056641.4990235s1.091468.2255859 1.7568359.2255859c.4375022 0 .8294254-.0524083 1.1757813-.1572265.3463559-.1048183.6402983-.2529288.8818359-.444336.2415377-.1914072.4261062-.428384.553711-.7109375s.1914062-.5970035.1914062-.9433594c0-.4010436-.1093739-.7451157-.328125-1.0322265s-.503579-.5423166-.8544922-.765625-.7496722-.4329417-1.196289-.6289063c-.4466169-.1959645-.9068987-.4033192-1.3808594-.6220703s-.9342426-.467121-1.3808594-.7451172c-.4466168-.2779961-.8453758-.6106751-1.196289-.9980468-.3509133-.3873718-.6357411-.845375-.8544922-1.3740235s-.328125-1.1621057-.328125-1.9003906c0-.8476605.157225-1.5927702.4716796-2.2353516.3144547-.6425813.7382786-1.1757791 1.2714844-1.5996093.5332058-.4238303 1.1621058-.7405589 1.8867188-.9501953.724613-.2096365 1.4925089-.3144532 2.3037109-.3144532.4192729 0 .8385396.0319007 1.2578125.0957032.4192729.0638024.8111961.15039 1.1757813.2597656.3645851.1093755.6881496.2324212.9707031.3691406s.4694006.2506506.5605469.3417969.1526691.1686194.1845703.2324219c.0319012.0638024.0592447.1481114.0820312.2529296.0227866.1048183.038737.2369784.0478516.3964844s.0136719.3577462.0136719.5947266c0 .2643242-.0068359.4876293-.0205079.6699218-.0136719.1822926-.0364581.3326817-.0683593.4511719s-.0774737.2050779-.1367188.2597657c-.0592451.0546877-.1389969.0820312-.2392578.0820312s-.2597645-.0638014-.4785156-.1914062c-.2187511-.1276049-.4876286-.2666009-.8066406-.4169922-.319012-.1503914-.688149-.2871088-1.1074219-.4101563s-.8795548-.1845703-1.3808594-.1845703c-.391929 0-.7337225.0478511-1.0253906.1435547s-.5354808.2278637-.7314453.3964844c-.1959645.1686206-.3417964.371418-.4375.6083984s-.1435547.4876289-.1435547.7519531c0 .3919291.1070953.7314439.321289 1.0185547.2141938.2871108.5013003.5423166.8613282.765625.3600278.2233084.7679013.4329417 1.2236328.6289063.4557314.1959645.9205705.4033192 1.3945312.6220703s.9387998.467121 1.3945313.7451172c.4557314.2779961.8613263.6106751 1.2167969.9980468.3554705.3873718.642577.8430964.8613281 1.3671875.2187511.5240912.328125 1.141598.328125 1.8525391zm15.09375 3.9511719c.1640633.319012.2711586.5742178.3212891.765625.0501304.1914072.0205083.3372391-.0888672.4375-.1093756.1002609-.3076158.1640623-.5947266.1914062s-.6858698.0410156-1.1962891.0410156c-.4283875 0-.7656237-.0091144-1.0117187-.0273437s-.439778-.0478514-.5810547-.0888672-.2438148-.0979814-.3076172-.1708984c-.0638024-.0729171-.1184893-.164062-.1640625-.2734375l-3.3222656-6.3847656-3.3085938 6.3847656c-.0546877.1093755-.1139319.2005204-.1777343.2734375-.0638024.072917-.1663405.1298826-.3076172.1708984-.1412768.0410158-.3372384.0706379-.5878907.0888672-.2506522.0182293-.5810526.0273437-.9912109.0273437-.4739607 0-.840819-.0136717-1.1005859-.0410156s-.4352209-.0911453-.5263672-.1914062-.1093753-.2460928-.0546875-.4375.1686189-.446613.3417969-.765625l4.2382812-7.7246094-3.9375-7.2597656c-.1640633-.3281267-.2757158-.5901683-.3349609-.7861328-.0592451-.1959646-.0364589-.3417964.0683593-.4375.1048183-.0957036.2985012-.1549478.5810547-.1777344s.6835912-.0341797 1.203125-.0341797c.4283876 0 .7679024.0091145 1.0185547.0273437.2506523.0182293.4488925.0478514.5947266.0888672.1458341.0410159.2483721.0979814.3076172.1708985.0592451.072917.1162106.1640619.1708984.2734375l3.1035156 5.8515625 3.0214844-5.8515625c.0546878-.1093756.1116534-.2005205.1708984-.2734375.0592451-.0729171.1549473-.1298826.2871094-.1708985.1321621-.0410158.314452-.0706379.546875-.0888672.2324231-.0182292.5537089-.0273437.9638672-.0273437.4557315 0 .8157539.0113931 1.0800781.0341797.2643243.0227866.4466141.0843094.546875.1845703.100261.1002609.1253258.2460928.0751953.4375-.0501304.1914072-.1526684.4511702-.3076171.7792969l-3.9375 7.21875z" fill="#fff" fill-rule="nonzero"/></g></svg>