<svg height="80" viewBox="0 0 80 80" width="80" xmlns="http://www.w3.org/2000/svg"><g fill="none" fill-rule="evenodd"><g transform="translate(5)"><path d="m45 0v21c0 2.209139 1.790861 4 4 4h21v47c0 4.418278-3.581722 8-8 8h-54c-4.418278 0-8-3.581722-8-8v-64c0-4.418278 3.581722-8 8-8z" fill="#b0bec5"/><path d="m45 0 25 25h-21c-2.209139 0-4-1.790861-4-4z" fill="#cfd8dc"/></g><path d="m28.6660156 58.6464844c.1640633.319012.2711586.5742178.3212891.765625.0501304.1914072.0205083.3372391-.0888672.4375s-.3076158.1640623-.5947266.1914062-.6858698.0410156-1.196289.0410156c-.4283876 0-.7656238-.0091144-1.0117188-.0273437s-.4397779-.0478514-.5810547-.0888672c-.1412767-.0410158-.2438147-.0979814-.3076172-.1708984-.0638024-.0729171-.1184893-.164062-.1640625-.2734375l-3.3222656-6.3847656-3.3085937 6.3847656c-.0546878.1093755-.113932.2005204-.1777344.2734375-.0638024.072917-.1663404.1298826-.3076172.1708984-.1412767.0410158-.3372383.0706379-.5878906.0888672s-.5810526.0273437-.991211.0273437c-.4739607 0-.840819-.0136717-1.1005859-.0410156s-.4352209-.0911453-.5263672-.1914062-.1093752-.2460928-.0546875-.4375c.0546878-.1914072.168619-.446613.3417969-.765625l4.2382812-7.7246094-3.9375-7.2597656c-.1640633-.3281267-.2757158-.5901683-.3349609-.7861328-.0592451-.1959646-.0364588-.3417964.0683594-.4375s.2985012-.1549478.5810547-.1777344.6835911-.0341797 1.203125-.0341797c.4283875 0 .7679024.0091145 1.0185547.0273437.2506523.0182293.4488925.0478514.5947265.0888672.1458341.0410159.2483721.0979814.3076172.1708985.0592451.072917.1162107.1640619.1708984.2734375l3.1035157 5.8515625 3.0214843-5.8515625c.0546878-.1093756.1116534-.2005205.1708985-.2734375.0592451-.0729171.1549472-.1298826.2871094-.1708985.1321621-.0410158.3144519-.0706379.546875-.0888672.232423-.0182292.5537088-.0273437.9638671-.0273437.4557315 0 .8157539.0113931 1.0800782.0341797.2643242.0227866.4466141.0843094.546875.1845703s.1253257.2460928.0751953.4375c-.0501305.1914072-.1526685.4511702-.3076172.7792969l-3.9375 7.21875zm23.4335938.8613281c0 .0911463-.0250649.1731767-.0751953.2460937-.0501305.0729171-.1412754.1321613-.2734375.1777344-.1321622.0455732-.3076161.0820311-.5263672.109375s-.4967431.0410156-.8339844.0410156c-.3281266 0-.6015614-.0136717-.8203125-.0410156s-.3919264-.0638018-.5195313-.109375c-.1276048-.0455731-.2187497-.1048173-.2734374-.1777344-.0546878-.072917-.0820313-.1549474-.0820313-.2460937v-14.3964844h-.0273437l-5.1269532 14.3828125c-.0364585.1184902-.0957027.216471-.1777344.2939453-.0820316.0774744-.1936841.1389972-.3349609.1845703-.1412767.0455732-.321288.0751953-.5400391.0888672-.218751.013672-.4830713.0205078-.7929687.0205078s-.5742177-.0113931-.7929687-.0341796c-.2187511-.0227866-.3987624-.0592446-.5400391-.109375-.1412768-.0501305-.2529293-.1116533-.3349609-.1845704-.0820317-.072917-.1367187-.1595047-.1640626-.2597656l-4.9492187-14.3828125h-.0273437v14.3964844c0 .0911463-.0250649.1731767-.0751954.2460937-.0501304.0729171-.143554.1321613-.2802734.1777344-.1367194.0455732-.3121734.0820311-.5263672.109375s-.4899072.0410156-.8271484.0410156c-.3281267 0-.6015614-.0136717-.8203125-.0410156s-.3942051-.0638018-.5263672-.109375c-.1321621-.0455731-.2233071-.1048173-.2734375-.1777344-.0501305-.072917-.0751953-.1549474-.0751953-.2460937v-15.7636719c0-.464846.1230456-.8203112.3691406-1.0664062s.5742167-.3691406.984375-.3691406h2.3515625c.4192729 0 .7792954.0341793 1.0800781.102539.3007828.0683597.5605458.1822909.7792969.3417969s.4010409.3691393.546875.6289062c.1458341.259767.273437.5810528.3828125.9638672l3.828125 10.5410157h.0546875l3.9648438-10.5136719c.1184901-.3828144.2483716-.7063789.3896484-.9707031.1412767-.2643243.3053376-.4785149.4921875-.6425782s.4078763-.2802731.6630859-.3486328.5514306-.102539.8886719-.102539h2.4199219c.246095 0 .4580069.0319007.6357422.0957031.1777352.0638024.3235671.1572259.4375.2802734.1139328.1230475.2005205.2734366.2597656.4511719s.0888672.3805327.0888672.6083984zm13.5761718-1.0117187c0 .2734388-.0113931.5035797-.0341796.6904296-.0227866.1868499-.056966.3417963-.1025391.4648438s-.1025387.2119138-.1708984.2666016c-.0683598.0546877-.1481116.0820312-.2392579.0820312h-8.1074218c-.3007828 0-.5537099-.0888663-.7587891-.2666016-.2050791-.1777352-.3076172-.4671204-.3076172-.868164v-16.0644532c0-.0911462.0296221-.1731767.0888672-.2460937s.1572259-.1321612.2939453-.1777344c.1367195-.0455731.3212879-.0820311.553711-.109375.232423-.0273439.5218081-.0410156.868164-.0410156.3554706 0 .6471343.0136717.875.0410156s.4101556.0638019.546875.109375c.1367195.0455732.2347002.1048174.2939453.1777344s.0888672.1549475.0888672.2460937v14.2324219h5.5644531c.0911463 0 .1708981.0250649.2392579.0751953.0683597.0501305.1253253.1321609.1708984.2460938.0455731.1139328.0797525.264322.1025391.4511719.0227865.1868499.0341796.4169908.0341796.6904297z" fill="#fff" fill-rule="nonzero"/></g></svg>