<svg height="80" viewBox="0 0 80 80" width="80" xmlns="http://www.w3.org/2000/svg"><g fill="none" fill-rule="evenodd"><g transform="translate(5)"><path d="m45 0v21c0 2.209139 1.790861 4 4 4h21v47c0 4.418278-3.581722 8-8 8h-54c-4.418278 0-8-3.581722-8-8v-64c0-4.418278 3.581722-8 8-8z" fill="#1b74ba"/><path d="m45 0 25 25h-21c-2.209139 0-4-1.790861-4-4z" fill="#cfd8dc"/></g><g transform="translate(5)"><path d="m45 0v21c0 2.209139 1.790861 4 4 4h21v47c0 4.418278-3.581722 8-8 8h-54c-4.418278 0-8-3.581722-8-8v-64c0-4.418278 3.581722-8 8-8z" fill="#4caf50"/><path d="m45 0 25 25h-21c-2.209139 0-4-1.790861-4-4z" fill="#81c784"/></g><path d="m34.9208984 58.578125c0 .2643242-.0113931.4876293-.0341796.6699219-.0227866.1822926-.056966.3304031-.1025391.4443359-.0455732.1139329-.1025387.1936847-.1708985.2392578-.0683597.0455732-.1435542.0683594-.2255859.0683594h-10.4316406c-.3645852 0-.6448558-.1048167-.8408203-.3144531-.1959645-.2096365-.2939453-.514972-.2939453-.9160157v-.6015624c0-.1822926.0113931-.3486321.0341797-.4990235.0227865-.1503914.0615231-.3030591.1162109-.4580078s.1344396-.3235668.2392578-.5058594.2346997-.4010404.3896484-.65625l6.8632813-10.8828125h-6.8085938c-.1093755 0-.2027991-.0250648-.2802734-.0751953-.0774743-.0501304-.1412758-.1298823-.1914062-.2392578-.0501305-.1093755-.0865885-.2552074-.109375-.4375-.0227866-.1822926-.0341797-.4010404-.0341797-.65625 0-.2734389.0113931-.5035798.0341797-.6904297.0227865-.1868499.0592445-.337239.109375-.4511719.0501304-.1139328.1139319-.1936846.1914062-.2392578.0774743-.0455731.1708979-.0683593.2802734-.0683593h9.7753907c.3736997 0 .6494131.0957021.8271484.2871093s.2666016.4602848.2666016.8066407v.6699218c0 .246095-.0113932.4580069-.0341797.6357422-.0227866.1777353-.0638018.3509106-.1230469.5195313-.0592451.1686206-.1389969.3417959-.2392578.5195312s-.2278638.3896472-.3828125.6357422l-6.7539063 10.7324219h7.3964844c.173178 0 .3053381.1093739.3964844.328125s.1367187.5970025.1367187 1.1347656zm6.125.9296875c0 .0911463-.0296221.1731767-.0888672.2460937-.059245.0729171-.1572258.1321613-.2939453.1777344-.1367194.0455732-.3190092.0820311-.546875.109375-.2278657.0273439-.5195294.0410156-.875.0410156-.3463559 0-.635741-.0136717-.868164-.0410156-.2324231-.0273439-.4169915-.0638018-.553711-.109375-.1367194-.0455731-.2347002-.1048173-.2939453-.1777344-.0592451-.072917-.0888672-.1549474-.0888672-.2460937v-16.7070313c0-.0911462.0296221-.1731767.0888672-.2460937s.1595045-.1321612.3007813-.1777344c.1412767-.0455731.3258452-.0820311.5537109-.109375s.5149722-.0410156.8613281-.0410156c.3554706 0 .6471343.0136717.875.0410156.2278658.0273439.4101556.0638019.546875.109375.1367195.0455732.2347003.1048174.2939453.1777344.0592451.072917.0888672.1549475.0888672.2460937zm15.96875-11.8261719c0 .9934946-.1549463 1.8730431-.4648437 2.6386719s-.7610648 1.4104792-1.3535156 1.9345703c-.5924509.5240912-1.3193317.9228502-2.1806641 1.1962891-.8613324.2734388-1.8753197.4101562-3.0419922.4101562h-1.4765625v5.6464844c0 .0911463-.0296221.1731767-.0888672.2460937-.0592451.0729171-.1572259.1321613-.2939453.1777344-.1367194.0455732-.3190093.0820311-.546875.109375s-.5195295.0410156-.875.0410156c-.3463559 0-.635741-.0136717-.868164-.0410156-.2324231-.0273439-.4169916-.0638018-.553711-.109375-.1367194-.0455731-.2324216-.1048173-.2871094-.1777344-.0546877-.072917-.0820312-.1549474-.0820312-.2460937v-15.9140625c0-.4283876.1116525-.7496734.3349609-.9638672s.5172508-.321289.881836-.321289h4.1699218c.419273 0 .818032.0159503 1.1962891.0478515s.8317031.1002599 1.3603516.2050781c.5286484.1048183 1.0641249.2985012 1.6064453.5810547s1.0048809.6402973 1.3876953 1.0732422.6744782.9387992.875 1.5175781c.2005218.578779.3007812 1.2281865.3007812 1.9482422zm-3.7597656.2597656c0-.6197947-.1093739-1.1302063-.328125-1.53125-.2187511-.4010436-.4876286-.6972646-.8066406-.8886718s-.6539696-.3121743-1.0048828-.3623047c-.3509132-.0501305-.7132143-.0751953-1.0869141-.0751953h-1.53125v6.0019531h1.6132813c.5742216 0 1.055011-.0774732 1.4423828-.2324219.3873717-.1549487.7041003-.3714179.9501953-.649414.246095-.2779962.4329421-.6106752.5605469-.9980469s.1914062-.808917.1914062-1.2646485z" fill="#fff" fill-rule="nonzero"/></g></svg>